<svg width="340" height="339" viewBox="0 0 340 339" fill="none" xmlns="http://www.w3.org/2000/svg">


<rect x="7" width="326" height="326" rx="7.83654" fill="#885e24"/>
<rect x="9.5" y="2.5" width="321" height="321" rx="5.33654" stroke="#fdb414" stroke-width="5"/>


<path d="M120.22 282V260.7H129.25C130.23 260.7 131.13 260.9 131.95 261.3C132.79 261.7 133.51 262.24 134.11 262.92C134.71 263.6 135.18 264.36 135.52 265.2C135.86 266.04 136.03 266.9 136.03 267.78C136.03 268.98 135.75 270.12 135.19 271.2C134.63 272.28 133.85 273.16 132.85 273.84C131.87 274.52 130.72 274.86 129.4 274.86H124.36V282H120.22ZM124.36 271.23H129.16C129.92 271.23 130.55 270.92 131.05 270.3C131.57 269.66 131.83 268.82 131.83 267.78C131.83 266.68 131.54 265.83 130.96 265.23C130.38 264.63 129.72 264.33 128.98 264.33H124.36V271.23ZM142.211 282V260.7H146.351V278.37H157.211V282H142.211ZM168.821 260.7H173.021L180.851 282H176.591L174.611 276.69H167.171L165.221 282H160.961L168.821 260.7ZM173.861 273.78L170.921 264.99L167.861 273.78H173.861ZM190.627 268.32V282H186.487V260.7H189.787L200.797 274.74V260.73H204.937V282H201.487L190.627 268.32Z" fill="#fff"/>



<rect x="26.5" y="20.5" width="287" height="287" rx="3.5" stroke="#fff" shape-rendering="crispEdges"/>

<rect x="15.5" y="8.5" width="309" height="309" stroke="#fdb414" stroke-width="5"/>

<path d="M90 211.5C90 221.146 97.854 229 107.5 229H121.5C127.289 229 132 224.289 132 218.5V201V194H107.5C97.854 194 90 201.854 90 211.5ZM90 106.5V194.406C94.452 189.849 100.64 187 107.5 187H216V89H107.5C97.854 89 90 96.854 90 106.5ZM128.5 110H191.5C193.432 110 195 111.568 195 113.5C195 115.432 193.432 117 191.5 117H128.5C126.568 117 125 115.432 125 113.5C125 111.568 126.568 110 128.5 110ZM128.5 134.5H191.5C193.432 134.5 195 136.068 195 138C195 139.932 193.432 141.5 191.5 141.5H128.5C126.568 141.5 125 139.932 125 138C125 136.068 126.568 134.5 128.5 134.5ZM114.5 159H191.5C193.432 159 195 160.568 195 162.5C195 164.432 193.432 166 191.5 166H114.5C112.568 166 111 164.432 111 162.5C111 160.568 112.568 159 114.5 159ZM240.5 61H233.5C227.711 61 223 65.711 223 71.5V89V187H240.5C250.146 187 258 179.146 258 169.5V78.5C258 68.854 250.146 61 240.5 61Z" fill="#fff"/>

</svg>