<svg width="340" height="339" viewBox="0 0 340 339" fill="none" xmlns="http://www.w3.org/2000/svg">


<rect x="7" width="326" height="326" rx="7.83654" fill="#885e24"/>
<rect x="9.5" y="2.5" width="321" height="321" rx="5.33654" stroke="#fdb414" stroke-width="5"/>


<path d="M119.91 279.28C119.73 279.08 119.35 278.82 118.77 278.5C118.19 278.16 117.49 277.86 116.67 277.6C115.87 277.32 115.04 277.18 114.18 277.18C111.92 277.18 110.79 277.98 110.79 279.58C110.79 280.16 110.97 280.62 111.33 280.96C111.69 281.3 112.23 281.59 112.95 281.83C113.67 282.07 114.57 282.33 115.65 282.61C117.05 282.97 118.26 283.39 119.28 283.87C120.32 284.35 121.11 284.99 121.65 285.79C122.21 286.57 122.49 287.61 122.49 288.91C122.49 290.43 122.12 291.66 121.38 292.6C120.66 293.52 119.7 294.19 118.5 294.61C117.3 295.03 116 295.24 114.6 295.24C113 295.24 111.41 295 109.83 294.52C108.27 294.02 106.88 293.34 105.66 292.48L107.49 288.91C107.67 289.09 107.99 289.33 108.45 289.63C108.91 289.91 109.47 290.2 110.13 290.5C110.79 290.78 111.51 291.02 112.29 291.22C113.07 291.42 113.86 291.52 114.66 291.52C116.94 291.52 118.08 290.79 118.08 289.33C118.08 288.71 117.85 288.21 117.39 287.83C116.93 287.45 116.28 287.13 115.44 286.87C114.62 286.61 113.66 286.32 112.56 286C111.2 285.62 110.07 285.2 109.17 284.74C108.29 284.26 107.63 283.67 107.19 282.97C106.75 282.25 106.53 281.34 106.53 280.24C106.53 278.78 106.87 277.56 107.55 276.58C108.25 275.58 109.19 274.83 110.37 274.33C111.55 273.81 112.86 273.55 114.3 273.55C115.78 273.55 117.16 273.79 118.44 274.27C119.72 274.75 120.82 275.3 121.74 275.92L119.91 279.28ZM144.848 277.33H138.038V295H133.928V277.33H127.118V273.7H144.848V277.33ZM154.59 273.7H158.79L166.62 295H162.36L160.38 289.69H152.94L150.99 295H146.73L154.59 273.7ZM159.63 286.78L156.69 277.99L153.63 286.78H159.63ZM186.195 277.33H179.385V295H175.275V277.33H168.465V273.7H186.195V277.33ZM201.169 295.15C199.469 295.15 198.019 294.87 196.819 294.31C195.639 293.73 194.679 292.94 193.939 291.94C193.219 290.94 192.689 289.81 192.349 288.55C192.009 287.27 191.839 285.94 191.839 284.56V273.7H195.979V284.56C195.979 285.74 196.139 286.86 196.459 287.92C196.779 288.98 197.319 289.84 198.079 290.5C198.839 291.16 199.859 291.49 201.139 291.49C202.459 291.49 203.499 291.16 204.259 290.5C205.019 289.82 205.559 288.95 205.879 287.89C206.199 286.83 206.359 285.72 206.359 284.56V273.7H210.469V284.56C210.469 286.02 210.289 287.39 209.929 288.67C209.589 289.95 209.039 291.08 208.279 292.06C207.539 293.02 206.579 293.78 205.399 294.34C204.219 294.88 202.809 295.15 201.169 295.15ZM230.629 279.28C230.449 279.08 230.069 278.82 229.489 278.5C228.909 278.16 228.209 277.86 227.389 277.6C226.589 277.32 225.759 277.18 224.899 277.18C222.639 277.18 221.509 277.98 221.509 279.58C221.509 280.16 221.689 280.62 222.049 280.96C222.409 281.3 222.949 281.59 223.669 281.83C224.389 282.07 225.289 282.33 226.369 282.61C227.769 282.97 228.979 283.39 229.999 283.87C231.039 284.35 231.829 284.99 232.369 285.79C232.929 286.57 233.209 287.61 233.209 288.91C233.209 290.43 232.839 291.66 232.099 292.6C231.379 293.52 230.419 294.19 229.219 294.61C228.019 295.03 226.719 295.24 225.319 295.24C223.719 295.24 222.129 295 220.549 294.52C218.989 294.02 217.599 293.34 216.379 292.48L218.209 288.91C218.389 289.09 218.709 289.33 219.169 289.63C219.629 289.91 220.189 290.2 220.849 290.5C221.509 290.78 222.229 291.02 223.009 291.22C223.789 291.42 224.579 291.52 225.379 291.52C227.659 291.52 228.799 290.79 228.799 289.33C228.799 288.71 228.569 288.21 228.109 287.83C227.649 287.45 226.999 287.13 226.159 286.87C225.339 286.61 224.379 286.32 223.279 286C221.919 285.62 220.789 285.2 219.889 284.74C219.009 284.26 218.349 283.67 217.909 282.97C217.469 282.25 217.249 281.34 217.249 280.24C217.249 278.78 217.589 277.56 218.269 276.58C218.969 275.58 219.909 274.83 221.089 274.33C222.269 273.81 223.579 273.55 225.019 273.55C226.499 273.55 227.879 273.79 229.159 274.27C230.439 274.75 231.539 275.3 232.459 275.92L230.629 279.28Z" fill="#fff"/>



<rect x="26.5" y="20.5" width="287" height="287" rx="3.5" stroke="#fff" shape-rendering="crispEdges"/>

<rect x="15.5" y="8.5" width="309" height="309" stroke="#fdb414" stroke-width="5"/>

<path d="M170 90C153.499 90.0004 137.289 94.3521 123 102.618C108.71 110.883 96.8435 122.771 88.5933 137.087C80.3432 151.403 75.9999 167.643 76 184.173C76.0001 200.704 80.3436 216.943 88.5939 231.259C89.8405 233.432 91.8976 235.02 94.3128 235.673C96.7279 236.327 99.3033 235.992 101.472 234.743C103.641 233.495 105.226 231.434 105.878 229.014C106.531 226.595 106.197 224.015 104.95 221.842C98.2897 210.41 94.7857 197.409 94.7981 184.173C94.8026 172.619 97.4593 161.222 102.563 150.862C107.666 140.501 115.08 131.456 124.231 124.424C133.381 117.392 144.023 112.563 155.334 110.31C166.645 108.057 178.322 108.44 189.461 111.43C200.601 114.42 210.905 119.937 219.576 127.553C228.248 135.169 235.055 144.682 239.471 155.355C243.886 166.027 245.793 177.575 245.043 189.103C244.292 200.632 240.905 211.834 235.144 221.842C234.522 222.916 234.119 224.104 233.957 225.335C233.796 226.567 233.879 227.818 234.202 229.018C234.526 230.217 235.083 231.34 235.841 232.323C236.6 233.305 237.545 234.128 238.622 234.743C240.78 235.971 243.336 236.294 245.731 235.641C248.126 234.988 250.166 233.413 251.406 231.259C259.656 216.943 264 200.704 264 184.173C264 167.643 259.657 151.403 251.407 137.087C243.156 122.771 231.29 110.883 217 102.618C202.711 94.3521 186.501 90.0004 170 90ZM196.697 144.243L182.126 158.746C178.355 156.883 174.205 155.916 170 155.921C164.422 155.921 158.97 157.578 154.333 160.682C149.695 163.786 146.08 168.199 143.946 173.361C141.811 178.523 141.253 184.204 142.341 189.684C143.429 195.165 146.115 200.199 150.059 204.15C154.003 208.101 159.028 210.791 164.498 211.882C169.969 212.972 175.639 212.412 180.792 210.274C185.945 208.136 190.349 204.514 193.448 199.868C196.547 195.222 198.201 189.76 198.201 184.173C198.194 179.991 197.229 175.867 195.381 172.119L209.951 157.616C210.832 156.74 211.531 155.699 212.009 154.551C212.486 153.404 212.732 152.173 212.732 150.93C212.732 149.686 212.486 148.456 212.009 147.308C211.531 146.16 210.832 145.119 209.951 144.243C208.19 142.489 205.807 141.505 203.324 141.505C200.84 141.505 198.458 142.489 196.697 144.243ZM170 193.59C167.507 193.59 165.116 192.598 163.353 190.832C161.59 189.066 160.6 186.67 160.6 184.173C160.6 181.675 161.59 179.28 163.353 177.514C165.116 175.748 167.507 174.755 170 174.755C172.453 174.741 174.814 175.687 176.58 177.392C177.48 178.275 178.193 179.331 178.677 180.496C179.162 181.66 179.408 182.911 179.4 184.173C179.4 186.67 178.41 189.066 176.647 190.832C174.884 192.598 172.493 193.59 170 193.59Z" fill="#fff"/>

</svg>