<svg width="340" height="339" viewBox="0 0 340 339" fill="none" xmlns="http://www.w3.org/2000/svg">


<rect x="7" width="326" height="326" rx="7.83654" fill="#885e24"/>
<rect x="9.5" y="2.5" width="321" height="321" rx="5.33654" stroke="#fdb414" stroke-width="5"/>


<path d="M127.59 285V271.02L122.13 281.43H119.82L114.36 271.02V285H110.22V263.7H114.66L120.96 275.82L127.32 263.7H131.73V285H127.59ZM165.035 267.33H158.225V285H154.115V267.33H147.305V263.7H165.035V267.33ZM185.769 281.37V285H170.979V263.7H185.499V267.33H175.119V272.46H184.089V275.82H175.119V281.37H185.769ZM194.517 263.7L199.797 271.56L205.047 263.7H209.547L202.167 274.5L209.307 285H204.807L199.797 277.44L194.757 285H190.227L197.367 274.5L189.987 263.7H194.517ZM230.921 267.33H224.111V285H220.001V267.33H213.191V263.7H230.921V267.33Z" fill="#fff"/>



<rect x="26.5" y="20.5" width="287" height="287" rx="3.5" stroke="#fff" shape-rendering="crispEdges"/>

<rect x="15.5" y="8.5" width="309" height="309" stroke="#fdb414" stroke-width="5"/>

<path d="M166.771 121.094C172.076 121.094 176.39 116.78 176.39 111.475C176.39 106.17 172.076 101.856 166.771 101.856C161.466 101.856 157.152 106.17 157.152 111.475C157.152 116.78 161.466 121.094 166.771 121.094ZM166.771 106.666C169.422 106.666 171.581 108.824 171.581 111.475C171.581 114.126 169.422 116.284 166.771 116.284C164.12 116.284 161.962 114.126 161.962 111.475C161.962 108.824 164.12 106.666 166.771 106.666ZM146.331 111.475C146.331 106.17 142.017 101.856 136.713 101.856C131.408 101.856 127.094 106.17 127.094 111.475C127.094 116.78 131.408 121.094 136.713 121.094C142.017 121.094 146.331 116.78 146.331 111.475ZM131.903 111.475C131.903 108.824 134.061 106.666 136.713 106.666C139.364 106.666 141.522 108.824 141.522 111.475C141.522 114.126 139.364 116.284 136.713 116.284C134.061 116.284 131.903 114.126 131.903 111.475ZM106.654 101.856C101.349 101.856 97.0352 106.17 97.0352 111.475C97.0352 116.78 101.349 121.094 106.654 121.094C111.959 121.094 116.273 116.78 116.273 111.475C116.273 106.17 111.959 101.856 106.654 101.856ZM106.654 116.284C104.003 116.284 101.845 114.126 101.845 111.475C101.845 108.824 104.003 106.666 106.654 106.666C109.305 106.666 111.463 108.824 111.463 111.475C111.463 114.126 109.305 116.284 106.654 116.284Z" fill="#fff"/>
<path d="M240.114 133.117H194.425V80.2141C194.425 76.236 191.189 73 187.211 73H86.2141C82.236 73 79 76.236 79 80.2141V142.736C79 146.714 82.236 149.95 86.2141 149.95H98.2375V171.592C98.2375 172.565 98.8223 173.443 99.7217 173.814C100.02 173.938 100.332 173.997 100.642 173.997C101.267 173.997 101.882 173.753 102.342 173.293L125.685 149.95H131.903V202.853C131.903 206.831 135.139 210.067 139.117 210.067H200.644L223.986 233.41C224.446 233.87 225.061 234.114 225.686 234.114C225.996 234.114 226.308 234.056 226.607 233.931C227.506 233.56 228.091 232.682 228.091 231.71V210.067H240.114C244.092 210.067 247.328 206.831 247.328 202.853V140.331C247.328 136.353 244.092 133.117 240.114 133.117ZM124.689 145.141C124.05 145.141 123.44 145.394 122.989 145.845L103.047 165.787V147.545C103.047 146.216 101.971 145.141 100.642 145.141H86.2141C84.8873 145.141 83.8094 144.063 83.8094 142.736V80.2141C83.8094 78.8873 84.8873 77.8094 86.2141 77.8094H187.211C188.538 77.8094 189.616 78.8873 189.616 80.2141V133.117H139.117C135.139 133.117 131.903 136.353 131.903 140.331V145.141H124.689ZM242.519 202.853C242.519 204.18 241.441 205.258 240.114 205.258H225.686C224.357 205.258 223.281 206.334 223.281 207.663V225.905L203.339 205.962C202.889 205.512 202.278 205.258 201.639 205.258H139.117C137.79 205.258 136.713 204.18 136.713 202.853V140.331C136.713 139.005 137.79 137.927 139.117 137.927H240.114C241.441 137.927 242.519 139.005 242.519 140.331V202.853Z" fill="#fff"/>
<path d="M159.557 161.974C154.252 161.974 149.938 166.287 149.938 171.592C149.938 176.897 154.252 181.211 159.557 181.211C164.862 181.211 169.176 176.897 169.176 171.592C169.176 166.287 164.862 161.974 159.557 161.974ZM159.557 176.402C156.906 176.402 154.748 174.244 154.748 171.592C154.748 168.941 156.906 166.783 159.557 166.783C162.209 166.783 164.367 168.941 164.367 171.592C164.367 174.244 162.209 176.402 159.557 176.402ZM189.616 161.974C184.311 161.974 179.997 166.287 179.997 171.592C179.997 176.897 184.311 181.211 189.616 181.211C194.921 181.211 199.235 176.897 199.235 171.592C199.235 166.287 194.921 161.974 189.616 161.974ZM189.616 176.402C186.965 176.402 184.806 174.244 184.806 171.592C184.806 168.941 186.965 166.783 189.616 166.783C192.267 166.783 194.425 168.941 194.425 171.592C194.425 174.244 192.267 176.402 189.616 176.402ZM219.674 161.974C214.37 161.974 210.056 166.287 210.056 171.592C210.056 176.897 214.37 181.211 219.674 181.211C224.979 181.211 229.293 176.897 229.293 171.592C229.293 166.287 224.979 161.974 219.674 161.974ZM219.674 176.402C217.023 176.402 214.865 174.244 214.865 171.592C214.865 168.941 217.023 166.783 219.674 166.783C222.326 166.783 224.484 168.941 224.484 171.592C224.484 174.244 222.326 176.402 219.674 176.402Z" fill="#fff"/>


</svg>