<svg width="340" height="339" viewBox="0 0 340 339" fill="none" xmlns="http://www.w3.org/2000/svg">


<rect x="7" width="326" height="326" rx="7.83654" fill="#885e24"></rect>
<rect x="9.5" y="2.5" width="321" height="321" rx="5.33654" stroke="#fdb414" stroke-width="5"></rect>


<path d="M109.31 289.15C107.75 289.15 106.33 288.85 105.05 288.25C103.79 287.65 102.7 286.84 101.78 285.82C100.88 284.78 100.18 283.62 99.68 282.34C99.18 281.04 98.93 279.71 98.93 278.35C98.93 276.93 99.19 275.58 99.71 274.3C100.23 273 100.96 271.85 101.9 270.85C102.84 269.83 103.94 269.03 105.2 268.45C106.48 267.85 107.88 267.55 109.4 267.55C110.94 267.55 112.34 267.86 113.6 268.48C114.88 269.1 115.97 269.93 116.87 270.97C117.79 272.01 118.49 273.18 118.97 274.48C119.47 275.76 119.72 277.07 119.72 278.41C119.72 279.81 119.46 281.16 118.94 282.46C118.42 283.74 117.69 284.89 116.75 285.91C115.83 286.91 114.73 287.7 113.45 288.28C112.19 288.86 110.81 289.15 109.31 289.15ZM103.13 278.35C103.13 279.59 103.37 280.75 103.85 281.83C104.35 282.91 105.06 283.79 105.98 284.47C106.92 285.15 108.04 285.49 109.34 285.49C110.68 285.49 111.81 285.14 112.73 284.44C113.65 283.74 114.35 282.84 114.83 281.74C115.31 280.64 115.55 279.51 115.55 278.35C115.55 277.11 115.3 275.95 114.8 274.87C114.3 273.79 113.58 272.92 112.64 272.26C111.72 271.58 110.62 271.24 109.34 271.24C108 271.24 106.87 271.59 105.95 272.29C105.03 272.99 104.33 273.89 103.85 274.99C103.37 276.07 103.13 277.19 103.13 278.35ZM126.196 289V267.7H135.226C136.206 267.7 137.106 267.9 137.926 268.3C138.766 268.7 139.486 269.24 140.086 269.92C140.686 270.6 141.156 271.36 141.496 272.2C141.836 273.04 142.006 273.9 142.006 274.78C142.006 275.98 141.726 277.12 141.166 278.2C140.606 279.28 139.826 280.16 138.826 280.84C137.846 281.52 136.696 281.86 135.376 281.86H130.336V289H126.196ZM130.336 278.23H135.136C135.896 278.23 136.526 277.92 137.026 277.3C137.546 276.66 137.806 275.82 137.806 274.78C137.806 273.68 137.516 272.83 136.936 272.23C136.356 271.63 135.696 271.33 134.956 271.33H130.336V278.23ZM164.117 271.33H157.307V289H153.197V271.33H146.387V267.7H164.117V271.33ZM170.061 289V267.7H174.201V289H170.061ZM191.035 289.15C189.475 289.15 188.055 288.85 186.775 288.25C185.515 287.65 184.425 286.84 183.505 285.82C182.605 284.78 181.905 283.62 181.405 282.34C180.905 281.04 180.655 279.71 180.655 278.35C180.655 276.93 180.915 275.58 181.435 274.3C181.955 273 182.685 271.85 183.625 270.85C184.565 269.83 185.665 269.03 186.925 268.45C188.205 267.85 189.605 267.55 191.125 267.55C192.665 267.55 194.065 267.86 195.325 268.48C196.605 269.1 197.695 269.93 198.595 270.97C199.515 272.01 200.215 273.18 200.695 274.48C201.195 275.76 201.445 277.07 201.445 278.41C201.445 279.81 201.185 281.16 200.665 282.46C200.145 283.74 199.415 284.89 198.475 285.91C197.555 286.91 196.455 287.7 195.175 288.28C193.915 288.86 192.535 289.15 191.035 289.15ZM184.855 278.35C184.855 279.59 185.095 280.75 185.575 281.83C186.075 282.91 186.785 283.79 187.705 284.47C188.645 285.15 189.765 285.49 191.065 285.49C192.405 285.49 193.535 285.14 194.455 284.44C195.375 283.74 196.075 282.84 196.555 281.74C197.035 280.64 197.275 279.51 197.275 278.35C197.275 277.11 197.025 275.95 196.525 274.87C196.025 273.79 195.305 272.92 194.365 272.26C193.445 271.58 192.345 271.24 191.065 271.24C189.725 271.24 188.595 271.59 187.675 272.29C186.755 272.99 186.055 273.89 185.575 274.99C185.095 276.07 184.855 277.19 184.855 278.35ZM212.061 275.32V289H207.921V267.7H211.221L222.231 281.74V267.73H226.371V289H222.921L212.061 275.32ZM246.792 273.28C246.612 273.08 246.232 272.82 245.652 272.5C245.072 272.16 244.372 271.86 243.552 271.6C242.752 271.32 241.922 271.18 241.062 271.18C238.802 271.18 237.672 271.98 237.672 273.58C237.672 274.16 237.852 274.62 238.212 274.96C238.572 275.3 239.112 275.59 239.832 275.83C240.552 276.07 241.452 276.33 242.532 276.61C243.932 276.97 245.142 277.39 246.162 277.87C247.202 278.35 247.992 278.99 248.532 279.79C249.092 280.57 249.372 281.61 249.372 282.91C249.372 284.43 249.002 285.66 248.262 286.6C247.542 287.52 246.582 288.19 245.382 288.61C244.182 289.03 242.882 289.24 241.482 289.24C239.882 289.24 238.292 289 236.712 288.52C235.152 288.02 233.762 287.34 232.542 286.48L234.372 282.91C234.552 283.09 234.872 283.33 235.332 283.63C235.792 283.91 236.352 284.2 237.012 284.5C237.672 284.78 238.392 285.02 239.172 285.22C239.952 285.42 240.742 285.52 241.542 285.52C243.822 285.52 244.962 284.79 244.962 283.33C244.962 282.71 244.732 282.21 244.272 281.83C243.812 281.45 243.162 281.13 242.322 280.87C241.502 280.61 240.542 280.32 239.442 280C238.082 279.62 236.952 279.2 236.052 278.74C235.172 278.26 234.512 277.67 234.072 276.97C233.632 276.25 233.412 275.34 233.412 274.24C233.412 272.78 233.752 271.56 234.432 270.58C235.132 269.58 236.072 268.83 237.252 268.33C238.432 267.81 239.742 267.55 241.182 267.55C242.662 267.55 244.042 267.79 245.322 268.27C246.602 268.75 247.702 269.3 248.622 269.92L246.792 273.28Z" fill="#fff"></path>



<rect x="26.5" y="20.5" width="287" height="287" rx="3.5" stroke="#fff" shape-rendering="crispEdges"></rect>

<rect x="15.5" y="8.5" width="309" height="309" stroke="#fdb414" stroke-width="5"></rect>

<path d="M245.537 175.197L241.011 167.114C240.484 166.183 239.61 165.498 238.58 165.21C237.55 164.922 236.447 165.055 235.514 165.578L221.449 173.662C220.518 174.188 219.833 175.062 219.545 176.092C219.257 177.123 219.39 178.225 219.913 179.158L224.44 187.242C223.846 191.282 224.194 195.405 225.456 199.289C226.718 203.173 228.86 206.713 231.715 209.632C239.313 217.231 246.992 225.799 246.669 234.933C246.642 235.856 246.932 236.761 247.491 237.496C248.05 238.232 248.844 238.754 249.741 238.975H250.711C251.477 238.969 252.226 238.746 252.87 238.331C253.514 237.916 254.027 237.326 254.348 236.631C258.859 227.183 261.755 217.046 262.917 206.642C263.454 200.269 262.09 193.88 258.996 188.283C255.903 182.686 251.219 178.132 245.537 175.197ZM97.4508 172.287L111.516 148.037C111.87 147.425 112.056 146.73 112.057 146.023C112.058 145.315 111.874 144.62 111.522 144.006C111.17 143.392 110.663 142.882 110.052 142.525C109.441 142.169 108.747 141.979 108.04 141.975H81.0417C79.9697 141.975 78.9417 142.401 78.1838 143.159C77.4258 143.917 77 144.945 77 146.017V170.267C77 171.338 77.4258 172.366 78.1838 173.124C78.9417 173.882 79.9697 174.308 81.0417 174.308H93.975C94.6803 174.304 95.3723 174.115 95.982 173.761C96.5918 173.406 97.0982 172.898 97.4508 172.287V172.287ZM190.167 143.996C189.814 143.385 189.308 142.877 188.698 142.522C188.088 142.168 187.396 141.979 186.691 141.975H164.138C163.433 141.979 162.741 142.168 162.131 142.522C161.522 142.877 161.015 143.385 160.662 143.996L146.597 168.246C146.254 168.835 146.065 169.502 146.049 170.183C146.032 170.865 146.189 171.54 146.504 172.145C146.818 172.751 147.281 173.266 147.849 173.644C148.416 174.023 149.07 174.251 149.75 174.308H200.594C201.302 174.304 201.995 174.114 202.606 173.758C203.217 173.401 203.724 172.891 204.076 172.277C204.428 171.663 204.613 170.968 204.612 170.26C204.61 169.553 204.424 168.858 204.07 168.246L190.167 143.996ZM266.958 141.975H242.708C242.001 141.979 241.307 142.169 240.696 142.525C240.085 142.882 239.578 143.392 239.226 144.006C238.875 144.62 238.69 145.315 238.691 146.023C238.692 146.73 238.879 147.425 239.232 148.037L253.055 172.287C253.408 172.898 253.914 173.406 254.524 173.761C255.134 174.115 255.825 174.304 256.531 174.308H266.958C268.03 174.308 269.058 173.882 269.816 173.124C270.574 172.366 271 171.338 271 170.267V146.017C271 144.945 270.574 143.917 269.816 143.159C269.058 142.401 268.03 141.975 266.958 141.975ZM147.648 109.642L161.632 117.725C162.556 118.255 163.651 118.4 164.68 118.127C165.709 117.855 166.589 117.187 167.129 116.27L172.383 107.217C172.914 106.293 173.058 105.198 172.786 104.169C172.513 103.14 171.846 102.26 170.928 101.72L156.944 93.6365C156.021 93.1062 154.926 92.9615 153.897 93.234C152.868 93.5064 151.987 94.1739 151.447 95.0915L146.112 104.468C145.686 105.368 145.607 106.394 145.891 107.349C146.174 108.303 146.8 109.12 147.648 109.642ZM159.046 130.658C159.623 129.757 159.82 128.664 159.592 127.619C159.365 126.573 158.733 125.661 157.833 125.081L143.849 116.997C142.926 116.467 141.831 116.322 140.802 116.595C139.773 116.867 138.892 117.535 138.352 118.452L95.1067 192.496C95.0932 192.684 95.0932 192.873 95.1067 193.062L85.0833 225.718C84.8211 226.588 84.8594 227.52 85.192 228.365C85.5245 229.21 86.132 229.919 86.9164 230.376C87.7008 230.834 88.6165 231.014 89.5158 230.887C90.4151 230.761 91.2456 230.335 91.8733 229.679L115.315 205.429C115.325 205.268 115.325 205.106 115.315 204.944V204.944L159.046 130.658ZM101.25 200.579L106.262 203.489L98.1783 212.219L101.25 200.579ZM233.008 153.211L181.517 63.1623C180.984 62.2492 180.113 61.5817 179.092 61.3032C178.109 60.8989 177.005 60.8989 176.021 61.3032L161.956 69.3865C161.024 69.9129 160.34 70.7871 160.052 71.8174C159.764 72.8478 159.896 73.9503 160.42 74.8832L211.992 165.255C212.526 166.168 213.396 166.836 214.417 167.114H215.467C216.179 167.107 216.876 166.911 217.488 166.548L231.553 158.465C232.408 157.929 233.031 157.092 233.3 156.12C233.569 155.148 233.465 154.11 233.008 153.211V153.211Z" fill="#fff"></path>

</svg>