<svg width="340" height="339" viewBox="0 0 340 339" fill="none" xmlns="http://www.w3.org/2000/svg">

<rect x="7" width="326" height="326" rx="7.83654" fill="#885e24"></rect>
<rect x="9.5" y="2.5" width="321" height="321" rx="5.33654" stroke="#fdb414" stroke-width="5"></rect>

<path d="M125.22 285V263.7H132.96C135.28 263.7 137.22 264.18 138.78 265.14C140.34 266.08 141.51 267.36 142.29 268.98C143.07 270.58 143.46 272.36 143.46 274.32C143.46 276.48 143.03 278.36 142.17 279.96C141.31 281.56 140.09 282.8 138.51 283.68C136.93 284.56 135.08 285 132.96 285H125.22ZM139.29 274.32C139.29 272.94 139.04 271.73 138.54 270.69C138.04 269.63 137.32 268.81 136.38 268.23C135.44 267.63 134.3 267.33 132.96 267.33H129.36V281.37H132.96C134.32 281.37 135.47 281.07 136.41 280.47C137.35 279.85 138.06 279.01 138.54 277.95C139.04 276.87 139.29 275.66 139.29 274.32ZM159.085 285.15C157.525 285.15 156.105 284.85 154.825 284.25C153.565 283.65 152.475 282.84 151.555 281.82C150.655 280.78 149.955 279.62 149.455 278.34C148.955 277.04 148.705 275.71 148.705 274.35C148.705 272.93 148.965 271.58 149.485 270.3C150.005 269 150.735 267.85 151.675 266.85C152.615 265.83 153.715 265.03 154.975 264.45C156.255 263.85 157.655 263.55 159.175 263.55C160.715 263.55 162.115 263.86 163.375 264.48C164.655 265.1 165.745 265.93 166.645 266.97C167.565 268.01 168.265 269.18 168.745 270.48C169.245 271.76 169.495 273.07 169.495 274.41C169.495 275.81 169.235 277.16 168.715 278.46C168.195 279.74 167.465 280.89 166.525 281.91C165.605 282.91 164.505 283.7 163.225 284.28C161.965 284.86 160.585 285.15 159.085 285.15ZM152.905 274.35C152.905 275.59 153.145 276.75 153.625 277.83C154.125 278.91 154.835 279.79 155.755 280.47C156.695 281.15 157.815 281.49 159.115 281.49C160.455 281.49 161.585 281.14 162.505 280.44C163.425 279.74 164.125 278.84 164.605 277.74C165.085 276.64 165.325 275.51 165.325 274.35C165.325 273.11 165.075 271.95 164.575 270.87C164.075 269.79 163.355 268.92 162.415 268.26C161.495 267.58 160.395 267.24 159.115 267.24C157.775 267.24 156.645 267.59 155.725 268.29C154.805 268.99 154.105 269.89 153.625 270.99C153.145 272.07 152.905 273.19 152.905 274.35ZM174.68 274.2C174.68 272.9 174.91 271.62 175.37 270.36C175.85 269.1 176.54 267.96 177.44 266.94C178.34 265.92 179.44 265.11 180.74 264.51C182.04 263.89 183.52 263.58 185.18 263.58C187.12 263.58 188.81 264.01 190.25 264.87C191.69 265.73 192.76 266.85 193.46 268.23L190.28 270.42C189.92 269.62 189.45 268.99 188.87 268.53C188.29 268.07 187.66 267.74 186.98 267.54C186.32 267.34 185.68 267.24 185.06 267.24C184.02 267.24 183.11 267.45 182.33 267.87C181.57 268.29 180.93 268.84 180.41 269.52C179.89 270.2 179.5 270.96 179.24 271.8C179 272.64 178.88 273.48 178.88 274.32C178.88 275.58 179.14 276.76 179.66 277.86C180.18 278.94 180.91 279.82 181.85 280.5C182.79 281.18 183.88 281.52 185.12 281.52C185.76 281.52 186.42 281.41 187.1 281.19C187.8 280.97 188.44 280.62 189.02 280.14C189.6 279.66 190.05 279.04 190.37 278.28L193.76 280.23C193.32 281.29 192.63 282.19 191.69 282.93C190.75 283.65 189.69 284.21 188.51 284.61C187.33 284.99 186.16 285.18 185 285.18C183.48 285.18 182.09 284.87 180.83 284.25C179.59 283.61 178.51 282.77 177.59 281.73C176.67 280.67 175.95 279.49 175.43 278.19C174.93 276.87 174.68 275.54 174.68 274.2ZM212.527 269.28C212.347 269.08 211.967 268.82 211.387 268.5C210.807 268.16 210.107 267.86 209.287 267.6C208.487 267.32 207.657 267.18 206.797 267.18C204.537 267.18 203.407 267.98 203.407 269.58C203.407 270.16 203.587 270.62 203.947 270.96C204.307 271.3 204.847 271.59 205.567 271.83C206.287 272.07 207.187 272.33 208.267 272.61C209.667 272.97 210.877 273.39 211.897 273.87C212.937 274.35 213.727 274.99 214.267 275.79C214.827 276.57 215.107 277.61 215.107 278.91C215.107 280.43 214.737 281.66 213.997 282.6C213.277 283.52 212.317 284.19 211.117 284.61C209.917 285.03 208.617 285.24 207.217 285.24C205.617 285.24 204.027 285 202.447 284.52C200.887 284.02 199.497 283.34 198.277 282.48L200.107 278.91C200.287 279.09 200.607 279.33 201.067 279.63C201.527 279.91 202.087 280.2 202.747 280.5C203.407 280.78 204.127 281.02 204.907 281.22C205.687 281.42 206.477 281.52 207.277 281.52C209.557 281.52 210.697 280.79 210.697 279.33C210.697 278.71 210.467 278.21 210.007 277.83C209.547 277.45 208.897 277.13 208.057 276.87C207.237 276.61 206.277 276.32 205.177 276C203.817 275.62 202.687 275.2 201.787 274.74C200.907 274.26 200.247 273.67 199.807 272.97C199.367 272.25 199.147 271.34 199.147 270.24C199.147 268.78 199.487 267.56 200.167 266.58C200.867 265.58 201.807 264.83 202.987 264.33C204.167 263.81 205.477 263.55 206.917 263.55C208.397 263.55 209.777 263.79 211.057 264.27C212.337 264.75 213.437 265.3 214.357 265.92L212.527 269.28Z" fill="#fff"></path>


<rect x="26.5" y="20.5" width="287" height="287" rx="3.5" stroke="#fff" shape-rendering="crispEdges"></rect>

<rect x="15.5" y="8.5" width="309" height="309" stroke="#fdb414" stroke-width="5"></rect>

<path fill-rule="evenodd" clip-rule="evenodd" d="M122.862 80.2453C119.988 80.2453 117.309 82.9253 117.309 85.7991V221.907C117.309 224.781 119.988 227.461 122.862 227.461H218.138C221.012 227.461 223.691 224.781 223.691 221.907V111.546L192.391 80.2453H122.862ZM108 85.7991C108 77.7843 114.848 70.9368 122.862 70.9368H194.319C195.553 70.9368 196.737 71.4272 197.61 72.3L231.637 106.327C232.51 107.2 233 108.384 233 109.618V221.907C233 229.922 226.152 236.769 218.138 236.769H122.862C114.848 236.769 108 229.922 108 221.907V85.7991Z" fill="#fff"></path>
<path fill-rule="evenodd" clip-rule="evenodd" d="M194.319 70.9368C196.889 70.9368 198.973 73.0206 198.973 75.5911V99.4099C198.973 102.284 201.653 104.964 204.527 104.964H228.346C230.916 104.964 233 107.048 233 109.618C233 112.188 230.916 114.272 228.346 114.272H204.527C196.512 114.272 189.665 107.425 189.665 99.4099V75.5911C189.665 73.0206 191.748 70.9368 194.319 70.9368Z" fill="#fff"></path>

<path fill-rule="evenodd" clip-rule="evenodd" d="M135.221 150.45C135.221 147.88 137.305 145.796 139.876 145.796H201.124C203.695 145.796 205.778 147.88 205.778 150.45C205.778 153.021 203.695 155.105 201.124 155.105H139.876C137.305 155.105 135.221 153.021 135.221 150.45Z" fill="#fff"></path>

<path fill-rule="evenodd" clip-rule="evenodd" d="M135.221 164.061C135.221 161.491 137.305 159.407 139.876 159.407H201.124C203.695 159.407 205.778 161.491 205.778 164.061C205.778 166.632 203.695 168.715 201.124 168.715H139.876C137.305 168.715 135.221 166.632 135.221 164.061Z" fill="#fff" ></path>

<path fill-rule="evenodd" clip-rule="evenodd" d="M135.221 177.672C135.221 175.101 137.305 173.018 139.876 173.018H201.124C203.695 173.018 205.778 175.101 205.778 177.672C205.778 180.242 203.695 182.326 201.124 182.326H139.876C137.305 182.326 135.221 180.242 135.221 177.672Z" fill="#fff"></path>

<path fill-rule="evenodd" clip-rule="evenodd" d="M135.221 191.283C135.221 188.712 137.305 186.628 139.876 186.628H173.903C176.473 186.628 178.557 188.712 178.557 191.283C178.557 193.853 176.473 195.937 173.903 195.937H139.876C137.305 195.937 135.221 193.853 135.221 191.283Z" fill="#fff"></path>


</svg>