<svg width="340" height="339" viewBox="0 0 340 339" fill="none" xmlns="http://www.w3.org/2000/svg">


<rect x="7" width="326" height="326" rx="7.83654" fill="#885e24"></rect>
<rect x="9.5" y="2.5" width="321" height="321" rx="5.33654"  stroke="#fdb414" stroke-width="5"></rect>


<path d="M104.22 286V264.7H113.25C114.23 264.7 115.13 264.9 115.95 265.3C116.79 265.7 117.51 266.24 118.11 266.92C118.71 267.6 119.18 268.36 119.52 269.2C119.86 270.04 120.03 270.9 120.03 271.78C120.03 272.98 119.75 274.12 119.19 275.2C118.63 276.28 117.85 277.16 116.85 277.84C115.87 278.52 114.72 278.86 113.4 278.86H108.36V286H104.22ZM108.36 275.23H113.16C113.92 275.23 114.55 274.92 115.05 274.3C115.57 273.66 115.83 272.82 115.83 271.78C115.83 270.68 115.54 269.83 114.96 269.23C114.38 268.63 113.72 268.33 112.98 268.33H108.36V275.23ZM126.211 286V264.7H135.631C136.611 264.7 137.511 264.9 138.331 265.3C139.171 265.7 139.891 266.24 140.491 266.92C141.111 267.6 141.581 268.36 141.901 269.2C142.241 270.04 142.411 270.9 142.411 271.78C142.411 273.14 142.061 274.39 141.361 275.53C140.681 276.67 139.751 277.49 138.571 277.99L143.431 286H138.871L134.491 278.86H130.351V286H126.211ZM130.351 275.23H135.541C136.321 275.23 136.961 274.9 137.461 274.24C137.981 273.56 138.241 272.74 138.241 271.78C138.241 271.12 138.101 270.53 137.821 270.01C137.541 269.49 137.181 269.08 136.741 268.78C136.321 268.48 135.861 268.33 135.361 268.33H130.351V275.23ZM158.435 286.15C156.875 286.15 155.455 285.85 154.175 285.25C152.915 284.65 151.825 283.84 150.905 282.82C150.005 281.78 149.305 280.62 148.805 279.34C148.305 278.04 148.055 276.71 148.055 275.35C148.055 273.93 148.315 272.58 148.835 271.3C149.355 270 150.085 268.85 151.025 267.85C151.965 266.83 153.065 266.03 154.325 265.45C155.605 264.85 157.005 264.55 158.525 264.55C160.065 264.55 161.465 264.86 162.725 265.48C164.005 266.1 165.095 266.93 165.995 267.97C166.915 269.01 167.615 270.18 168.095 271.48C168.595 272.76 168.845 274.07 168.845 275.41C168.845 276.81 168.585 278.16 168.065 279.46C167.545 280.74 166.815 281.89 165.875 282.91C164.955 283.91 163.855 284.7 162.575 285.28C161.315 285.86 159.935 286.15 158.435 286.15ZM152.255 275.35C152.255 276.59 152.495 277.75 152.975 278.83C153.475 279.91 154.185 280.79 155.105 281.47C156.045 282.15 157.165 282.49 158.465 282.49C159.805 282.49 160.935 282.14 161.855 281.44C162.775 280.74 163.475 279.84 163.955 278.74C164.435 277.64 164.675 276.51 164.675 275.35C164.675 274.11 164.425 272.95 163.925 271.87C163.425 270.79 162.705 269.92 161.765 269.26C160.845 268.58 159.745 268.24 158.465 268.24C157.125 268.24 155.995 268.59 155.075 269.29C154.155 269.99 153.455 270.89 152.975 271.99C152.495 273.07 152.255 274.19 152.255 275.35ZM173.567 281.65C173.827 281.83 174.287 282.05 174.947 282.31C175.607 282.55 176.387 282.67 177.287 282.67C178.347 282.67 179.147 282.44 179.687 281.98C180.227 281.5 180.587 280.76 180.767 279.76C180.947 278.76 181.037 277.46 181.037 275.86V264.7H185.177V275.53C185.177 277.13 185.087 278.59 184.907 279.91C184.727 281.23 184.377 282.37 183.857 283.33C183.337 284.29 182.547 285.03 181.487 285.55C180.447 286.07 179.057 286.33 177.317 286.33C176.357 286.33 175.497 286.22 174.737 286C173.977 285.78 173.277 285.45 172.637 285.01L173.567 281.65ZM207.474 282.37V286H192.684V264.7H207.204V268.33H196.824V273.46H205.794V276.82H196.824V282.37H207.474ZM212.33 275.2C212.33 273.9 212.56 272.62 213.02 271.36C213.5 270.1 214.19 268.96 215.09 267.94C215.99 266.92 217.09 266.11 218.39 265.51C219.69 264.89 221.17 264.58 222.83 264.58C224.77 264.58 226.46 265.01 227.9 265.87C229.34 266.73 230.41 267.85 231.11 269.23L227.93 271.42C227.57 270.62 227.1 269.99 226.52 269.53C225.94 269.07 225.31 268.74 224.63 268.54C223.97 268.34 223.33 268.24 222.71 268.24C221.67 268.24 220.76 268.45 219.98 268.87C219.22 269.29 218.58 269.84 218.06 270.52C217.54 271.2 217.15 271.96 216.89 272.8C216.65 273.64 216.53 274.48 216.53 275.32C216.53 276.58 216.79 277.76 217.31 278.86C217.83 279.94 218.56 280.82 219.5 281.5C220.44 282.18 221.53 282.52 222.77 282.52C223.41 282.52 224.07 282.41 224.75 282.19C225.45 281.97 226.09 281.62 226.67 281.14C227.25 280.66 227.7 280.04 228.02 279.28L231.41 281.23C230.97 282.29 230.28 283.19 229.34 283.93C228.4 284.65 227.34 285.21 226.16 285.61C224.98 285.99 223.81 286.18 222.65 286.18C221.13 286.18 219.74 285.87 218.48 285.25C217.24 284.61 216.16 283.77 215.24 282.73C214.32 281.67 213.6 280.49 213.08 279.19C212.58 277.87 212.33 276.54 212.33 275.2ZM253.417 268.33H246.607V286H242.497V268.33H235.687V264.7H253.417V268.33Z" fill="#fff"></path>



<rect x="26.5" y="20.5" width="287" height="287" rx="3.5" stroke="#fff" shape-rendering="crispEdges"></rect>

<rect x="15.5" y="8.5" width="309" height="309" stroke="#fdb414" stroke-width="5"></rect>

<path d="M102.16 218.69C101.298 218.689 100.452 218.457 99.711 218.016C98.97 217.576 98.3614 216.943 97.9493 216.186L85.5819 193.456C85.1996 192.753 84.9995 191.964 85 191.164V94.0883C85 93.4582 85.1242 92.8343 85.3654 92.2522C85.6066 91.6701 85.9602 91.1413 86.4059 90.6959C86.8516 90.2505 87.3806 89.8973 87.9629 89.6564C88.5452 89.4156 89.1692 89.2918 89.7993 89.2923H114.531C115.803 89.2923 117.023 89.7976 117.922 90.697C118.822 91.5964 119.327 92.8163 119.327 94.0883V191.164C119.326 191.965 119.125 192.753 118.742 193.456L106.378 216.186C105.965 216.944 105.355 217.577 104.613 218.018C103.871 218.458 103.023 218.691 102.16 218.69ZM94.5953 189.942L102.163 203.857L109.735 189.942V98.8844H94.5953V189.942Z" fill="#fff"></path>
<path d="M114.528 117.646H89.7993C88.5274 117.646 87.3075 117.141 86.408 116.242C85.5086 115.342 85.0033 114.122 85.0033 112.85C85.0033 111.578 85.5086 110.359 86.408 109.459C87.3075 108.56 88.5274 108.054 89.7993 108.054H114.531C115.803 108.054 117.023 108.56 117.922 109.459C118.822 110.359 119.327 111.578 119.327 112.85C119.327 114.122 118.822 115.342 117.922 116.242C117.023 117.141 115.803 117.646 114.531 117.646H114.528ZM238.797 218.69H134.905C133.633 218.69 132.413 218.184 131.513 217.285C130.614 216.386 130.109 215.166 130.109 213.894V79.7961C130.109 78.5241 130.614 77.3042 131.513 76.4047C132.413 75.5053 133.633 75 134.905 75H205.669C206.378 75.0001 207.078 75.1573 207.718 75.4602C208.359 75.7632 208.925 76.2044 209.375 76.7522L242.502 117.039C243.208 117.896 243.595 118.972 243.596 120.083V213.894C243.596 214.524 243.472 215.148 243.231 215.73C242.989 216.312 242.636 216.841 242.19 217.286C241.744 217.732 241.215 218.085 240.633 218.326C240.051 218.566 239.427 218.69 238.797 218.69ZM139.697 209.098H234.001V121.809L203.402 84.5921H139.701L139.697 209.098Z" fill="#fff"></path>
<path d="M205.665 124.879C204.393 124.879 203.174 124.374 202.274 123.474C201.375 122.575 200.869 121.355 200.869 120.083V79.7961C200.869 78.5241 201.375 77.3042 202.274 76.4047C203.174 75.5053 204.393 75 205.665 75C206.937 75 208.157 75.5053 209.057 76.4047C209.956 77.3042 210.461 78.5241 210.461 79.7961V120.083C210.461 121.355 209.956 122.575 209.057 123.474C208.157 124.374 206.937 124.879 205.665 124.879Z" fill="#fff"></path>
<path d="M238.797 124.879H205.665C204.393 124.879 203.174 124.373 202.274 123.474C201.375 122.575 200.869 121.355 200.869 120.083C200.869 118.811 201.375 117.591 202.274 116.691C203.174 115.792 204.393 115.287 205.665 115.287H238.797C240.069 115.287 241.288 115.792 242.188 116.691C243.087 117.591 243.593 118.811 243.593 120.083C243.593 121.355 243.087 122.575 242.188 123.474C241.288 124.373 240.069 124.879 238.797 124.879Z" fill="#fff"></path>

</svg>