<svg width="340" height="339" viewBox="0 0 340 339" fill="none" xmlns="http://www.w3.org/2000/svg">


<rect x="7" width="326" height="326" rx="7.83654" fill="#885e24"/>
<rect x="9.5" y="2.5" width="321" height="321" rx="5.33654" stroke="#fdb414" stroke-width="5"/>


<path d="M143.22 283V261.7H152.25C153.23 261.7 154.13 261.9 154.95 262.3C155.79 262.7 156.51 263.24 157.11 263.92C157.71 264.6 158.18 265.36 158.52 266.2C158.86 267.04 159.03 267.9 159.03 268.78C159.03 269.98 158.75 271.12 158.19 272.2C157.63 273.28 156.85 274.16 155.85 274.84C154.87 275.52 153.72 275.86 152.4 275.86H147.36V283H143.22ZM147.36 272.23H152.16C152.92 272.23 153.55 271.92 154.05 271.3C154.57 270.66 154.83 269.82 154.83 268.78C154.83 267.68 154.54 266.83 153.96 266.23C153.38 265.63 152.72 265.33 151.98 265.33H147.36V272.23ZM169.478 261.7H173.678L181.508 283H177.248L175.268 277.69H167.828L165.878 283H161.618L169.478 261.7ZM174.518 274.78L171.578 265.99L168.518 274.78H174.518ZM187.288 261.7L192.538 271.72L197.878 261.7H202.348L194.608 275.56V283H190.498V275.5L182.788 261.7H187.288Z" fill="#fff"/>



<rect x="26.5" y="20.5" width="287" height="287" rx="3.5" stroke="#fff" shape-rendering="crispEdges"/>

<rect x="15.5" y="8.5" width="309" height="309" stroke="#fdb414" stroke-width="5"/>

<path d="M106.62 232.013C107.443 232.398 108.358 232.542 109.259 232.429C110.16 232.315 111.01 231.95 111.711 231.373L123.132 221.86L136.89 232.951L136.923 232.977C137.77 233.642 138.816 234.003 139.893 234C140.97 233.997 142.015 233.632 142.858 232.963L142.892 232.936L156.492 221.851L170.092 232.936L170.125 232.963C170.968 233.632 172.013 233.997 173.09 234C174.167 234.002 175.213 233.642 176.059 232.977L176.092 232.951L189.849 221.859L201.267 231.373C201.973 231.95 202.828 232.316 203.733 232.429C204.638 232.543 205.557 232.398 206.383 232.013C207.163 231.666 207.827 231.102 208.295 230.389C208.764 229.676 209.017 228.843 209.026 227.99V209.379L216.805 215.884C217.655 216.593 218.729 216.98 219.836 216.977C220.517 216.977 221.189 216.822 221.801 216.524C222.568 216.17 223.216 215.602 223.666 214.888C224.116 214.174 224.348 213.344 224.335 212.501V193.89L232.213 200.395C233.082 201.104 234.172 201.491 235.294 201.488C236.008 201.488 236.714 201.333 237.362 201.034C238.141 200.686 238.804 200.122 239.272 199.409C239.739 198.696 239.992 197.864 240 197.011V74.7462C240 67.7837 233.849 62 226.308 62H148.707C141.166 62 134.974 67.7837 134.974 74.7462V77.6469H133.199C125.658 77.6469 119.665 83.273 119.665 90.2355V92.9382H117.692C110.151 92.9382 104 98.7624 104 105.725V227.99C104.004 228.841 104.254 229.673 104.718 230.386C105.183 231.1 105.843 231.665 106.62 232.013ZM140.67 74.7462C140.67 70.9209 144.307 67.6898 148.707 67.6898H226.308C230.708 67.6898 234.304 70.9209 234.304 74.7462V194.655L224.335 186.481V90.2355C224.335 83.273 218.342 77.6469 210.801 77.6469H140.67V74.7462ZM125.361 90.2355C125.361 86.4102 128.799 83.3367 133.199 83.3367H210.801C215.201 83.3367 218.639 86.4102 218.639 90.2355V210.145L209.026 201.969V105.725C209.026 98.7624 202.834 92.9382 195.293 92.9382H125.361V90.2355ZM109.696 105.725C109.696 101.9 113.292 98.6279 117.692 98.6279H195.293C199.693 98.6279 203.33 101.9 203.33 105.725V225.634L192.937 216.998C192.925 216.988 192.899 216.979 192.887 216.969C192.044 216.285 190.993 215.908 189.906 215.9C188.82 215.892 187.763 216.253 186.909 216.925C186.898 216.934 186.884 216.942 186.874 216.951L173.108 228.048L159.504 216.961L159.468 216.934C158.622 216.262 157.573 215.896 156.492 215.896C155.412 215.896 154.363 216.262 153.517 216.934L153.483 216.961L139.879 228.048L126.116 216.951L126.083 216.925C125.231 216.253 124.175 215.892 123.09 215.9C122.004 215.908 120.954 216.285 120.112 216.969C120.1 216.979 120.081 216.988 120.069 216.998L109.696 225.634V105.725Z" fill="#fff"/>
<path d="M130.874 205.572H179.732C180.557 205.572 181.348 205.245 181.931 204.662C182.514 204.078 182.841 203.288 182.841 202.463C182.841 201.638 182.514 200.848 181.931 200.265C181.348 199.681 180.557 199.354 179.732 199.354H130.874C130.049 199.354 129.259 199.681 128.675 200.265C128.092 200.848 127.765 201.638 127.765 202.463C127.765 203.288 128.092 204.078 128.675 204.662C129.259 205.245 130.049 205.572 130.874 205.572ZM155.303 170.878C152.422 170.874 149.659 169.728 147.621 167.691C145.584 165.653 144.437 162.89 144.434 160.009C144.434 159.184 144.106 158.393 143.523 157.81C142.94 157.227 142.149 156.9 141.325 156.9C140.5 156.9 139.709 157.227 139.126 157.81C138.543 158.393 138.216 159.184 138.216 160.009C138.221 163.833 139.507 167.546 141.868 170.554C144.23 173.562 147.531 175.692 151.245 176.605V182.253C151.245 183.078 151.572 183.869 152.155 184.452C152.738 185.035 153.529 185.363 154.354 185.363C155.178 185.363 155.969 185.035 156.552 184.452C157.135 183.869 157.463 183.078 157.463 182.253V176.955C161.772 176.406 165.711 174.237 168.478 170.887C171.244 167.538 172.631 163.26 172.356 158.925C172.081 154.589 170.165 150.521 166.997 147.548C163.829 144.575 159.647 142.921 155.303 142.921C152.508 142.922 149.82 141.847 147.798 139.918C145.775 137.989 144.574 135.355 144.442 132.563C144.311 129.771 145.261 127.036 147.094 124.926C148.926 122.816 151.502 121.493 154.285 121.232C154.308 121.232 154.33 121.236 154.354 121.236C154.515 121.235 154.675 121.222 154.834 121.197C154.99 121.19 155.145 121.185 155.303 121.185C158.185 121.189 160.947 122.335 162.985 124.372C165.022 126.41 166.169 129.173 166.172 132.054C166.172 132.879 166.5 133.67 167.083 134.253C167.666 134.836 168.457 135.163 169.281 135.163C170.106 135.163 170.897 134.836 171.48 134.253C172.063 133.67 172.39 132.879 172.39 132.054C172.385 127.898 170.867 123.886 168.12 120.767C165.373 117.649 161.585 115.636 157.463 115.106V110.354C157.463 109.529 157.135 108.738 156.552 108.155C155.969 107.572 155.178 107.245 154.354 107.245C153.529 107.245 152.738 107.572 152.155 108.155C151.572 108.738 151.245 109.529 151.245 110.354V115.456C147.185 116.447 143.629 118.891 141.25 122.327C138.871 125.762 137.833 129.95 138.333 134.099C138.833 138.247 140.836 142.069 143.963 144.841C147.09 147.613 151.124 149.142 155.303 149.141C158.175 149.158 160.922 150.311 162.947 152.347C164.971 154.384 166.107 157.138 166.107 160.01C166.107 162.881 164.971 165.636 162.947 167.673C160.922 169.709 158.175 170.862 155.303 170.879V170.878Z" fill="#fff"/>


</svg>