<svg width="340" height="339" viewBox="0 0 340 339" fill="none" xmlns="http://www.w3.org/2000/svg">
<g filter="url(#filter0_b)">
<g filter="url(#filter1_d)">
<rect x="7" width="326" height="326" rx="7.83654" fill="#8FB03D"/>
<rect x="9.5" y="2.5" width="321" height="321" rx="5.33654" stroke="#A60D0D" stroke-width="5"/>
</g>
<g filter="url(#filter2_dd)">
<path d="M96.22 289V267.7H105.25C106.23 267.7 107.13 267.9 107.95 268.3C108.79 268.7 109.51 269.24 110.11 269.92C110.71 270.6 111.18 271.36 111.52 272.2C111.86 273.04 112.03 273.9 112.03 274.78C112.03 275.98 111.75 277.12 111.19 278.2C110.63 279.28 109.85 280.16 108.85 280.84C107.87 281.52 106.72 281.86 105.4 281.86H100.36V289H96.22ZM100.36 278.23H105.16C105.92 278.23 106.55 277.92 107.05 277.3C107.57 276.66 107.83 275.82 107.83 274.78C107.83 273.68 107.54 272.83 106.96 272.23C106.38 271.63 105.72 271.33 104.98 271.33H100.36V278.23ZM122.478 267.7H126.678L134.508 289H130.248L128.268 283.69H120.828L118.878 289H114.618L122.478 267.7ZM127.518 280.78L124.578 271.99L121.518 280.78H127.518ZM140.288 267.7L145.538 277.72L150.878 267.7H155.348L147.608 281.56V289H143.498V281.5L135.788 267.7H140.288ZM160.993 289V267.7H170.413C171.393 267.7 172.293 267.9 173.113 268.3C173.953 268.7 174.673 269.24 175.273 269.92C175.893 270.6 176.363 271.36 176.683 272.2C177.023 273.04 177.193 273.9 177.193 274.78C177.193 276.14 176.843 277.39 176.143 278.53C175.463 279.67 174.533 280.49 173.353 280.99L178.213 289H173.653L169.273 281.86H165.133V289H160.993ZM165.133 278.23H170.323C171.103 278.23 171.743 277.9 172.243 277.24C172.763 276.56 173.023 275.74 173.023 274.78C173.023 274.12 172.883 273.53 172.603 273.01C172.323 272.49 171.963 272.08 171.523 271.78C171.103 271.48 170.643 271.33 170.143 271.33H165.133V278.23ZM193.217 289.15C191.657 289.15 190.237 288.85 188.957 288.25C187.697 287.65 186.607 286.84 185.687 285.82C184.787 284.78 184.087 283.62 183.587 282.34C183.087 281.04 182.837 279.71 182.837 278.35C182.837 276.93 183.097 275.58 183.617 274.3C184.137 273 184.867 271.85 185.807 270.85C186.747 269.83 187.847 269.03 189.107 268.45C190.387 267.85 191.787 267.55 193.307 267.55C194.847 267.55 196.247 267.86 197.507 268.48C198.787 269.1 199.877 269.93 200.777 270.97C201.697 272.01 202.397 273.18 202.877 274.48C203.377 275.76 203.627 277.07 203.627 278.41C203.627 279.81 203.367 281.16 202.847 282.46C202.327 283.74 201.597 284.89 200.657 285.91C199.737 286.91 198.637 287.7 197.357 288.28C196.097 288.86 194.717 289.15 193.217 289.15ZM187.037 278.35C187.037 279.59 187.277 280.75 187.757 281.83C188.257 282.91 188.967 283.79 189.887 284.47C190.827 285.15 191.947 285.49 193.247 285.49C194.587 285.49 195.717 285.14 196.637 284.44C197.557 283.74 198.257 282.84 198.737 281.74C199.217 280.64 199.457 279.51 199.457 278.35C199.457 277.11 199.207 275.95 198.707 274.87C198.207 273.79 197.487 272.92 196.547 272.26C195.627 271.58 194.527 271.24 193.247 271.24C191.907 271.24 190.777 271.59 189.857 272.29C188.937 272.99 188.237 273.89 187.757 274.99C187.277 276.07 187.037 277.19 187.037 278.35ZM210.103 289V267.7H214.243V285.37H225.103V289H210.103ZM230.922 289V267.7H235.062V285.37H245.922V289H230.922Z" fill="white"/>
</g>
</g>
<g filter="url(#filter3_d)">
<rect x="26.5" y="20.5" width="287" height="287" rx="3.5" stroke="#040B4A" shape-rendering="crispEdges"/>
</g>
<rect x="15.5" y="8.5" width="309" height="309" stroke="#FDB515" stroke-width="5"/>
<g filter="url(#filter4_dd)">
<path d="M104.192 232.221C105.067 232.63 106.039 232.783 106.997 232.663C107.955 232.542 108.859 232.153 109.605 231.539L121.747 221.413L136.375 233.219L136.41 233.246C137.31 233.954 138.422 234.338 139.567 234.335C140.712 234.332 141.823 233.944 142.72 233.231L142.756 233.203L157.215 221.404L171.674 233.203L171.71 233.231C172.606 233.943 173.717 234.332 174.862 234.335C176.007 234.338 177.119 233.954 178.019 233.246L178.054 233.219L192.68 221.412L204.82 231.539C205.57 232.153 206.479 232.543 207.441 232.663C208.404 232.784 209.38 232.63 210.259 232.22C211.088 231.85 211.794 231.25 212.292 230.491C212.79 229.732 213.06 228.846 213.069 227.938V208.129L221.339 215.052C222.243 215.807 223.384 216.219 224.562 216.216C225.286 216.216 226 216.051 226.651 215.733C227.466 215.357 228.155 214.752 228.634 213.992C229.112 213.232 229.359 212.349 229.345 211.451V191.642L237.721 198.565C238.645 199.321 239.803 199.732 240.997 199.729C241.756 199.729 242.506 199.564 243.195 199.246C244.024 198.876 244.728 198.275 245.226 197.516C245.723 196.757 245.992 195.871 246 194.964V64.8231C246 57.4121 239.46 51.2559 231.443 51.2559H148.938C140.92 51.2559 134.337 57.4121 134.337 64.8231V67.9106H132.451C124.433 67.9106 118.061 73.8992 118.061 81.3102V84.1869H115.963C107.946 84.1869 101.406 90.3863 101.406 97.7976V227.938C101.411 228.844 101.676 229.73 102.17 230.489C102.664 231.248 103.366 231.849 104.192 232.221V232.221ZM140.394 64.8231C140.394 60.7514 144.26 57.3121 148.938 57.3121H231.443C236.121 57.3121 239.944 60.7514 239.944 64.8231V192.456L229.345 183.755V81.3102C229.345 73.8992 222.973 67.9106 214.955 67.9106H140.394V64.8231ZM124.117 81.3102C124.117 77.2384 127.773 73.9669 132.451 73.9669H214.955C219.634 73.9669 223.289 77.2384 223.289 81.3102V208.943L213.069 200.24V97.7976C213.069 90.3863 206.486 84.1869 198.468 84.1869H124.117V81.3102ZM107.463 97.7976C107.463 93.7255 111.286 90.2432 115.963 90.2432H198.468C203.146 90.2432 207.013 93.7255 207.013 97.7976V225.43L195.963 216.238C195.95 216.228 195.923 216.218 195.91 216.207C195.014 215.479 193.896 215.078 192.741 215.069C191.586 215.061 190.462 215.445 189.555 216.16C189.543 216.17 189.527 216.179 189.517 216.188L174.881 228L160.417 216.199L160.379 216.17C159.48 215.454 158.365 215.065 157.216 215.065C156.067 215.065 154.951 215.454 154.052 216.17L154.016 216.199L139.553 228L124.919 216.188L124.885 216.16C123.979 215.445 122.856 215.06 121.702 215.069C120.548 215.078 119.432 215.479 118.536 216.207C118.524 216.218 118.503 216.228 118.491 216.238L107.463 225.43V97.7976Z" fill="white"/>
<path d="M133.424 198.878H181.009C181.812 198.878 182.582 198.559 183.15 197.991C183.718 197.423 184.037 196.653 184.037 195.85C184.037 195.047 183.718 194.276 183.15 193.708C182.582 193.141 181.812 192.821 181.009 192.821H133.424C132.621 192.821 131.85 193.141 131.282 193.708C130.715 194.276 130.396 195.047 130.396 195.85C130.396 196.653 130.715 197.423 131.282 197.991C131.85 198.559 132.621 198.878 133.424 198.878ZM157.216 165.087C154.41 165.084 151.719 163.968 149.734 161.983C147.75 159.999 146.634 157.308 146.63 154.502C146.63 153.699 146.311 152.929 145.743 152.361C145.175 151.793 144.405 151.474 143.602 151.474C142.799 151.474 142.029 151.793 141.461 152.361C140.893 152.929 140.574 153.699 140.574 154.502C140.579 158.226 141.832 161.842 144.131 164.772C146.431 167.701 149.646 169.776 153.263 170.666V176.167C153.263 176.97 153.582 177.74 154.15 178.308C154.718 178.876 155.488 179.195 156.291 179.195C157.095 179.195 157.865 178.876 158.433 178.308C159.001 177.74 159.32 176.97 159.32 176.167V171.006C163.517 170.472 167.353 168.359 170.047 165.097C172.742 161.835 174.093 157.668 173.825 153.446C173.557 149.223 171.69 145.261 168.605 142.366C165.52 139.47 161.447 137.859 157.216 137.86C154.494 137.861 151.876 136.813 149.906 134.934C147.937 133.056 146.766 130.49 146.638 127.771C146.511 125.052 147.436 122.388 149.221 120.333C151.006 118.278 153.514 116.99 156.224 116.736C156.247 116.736 156.269 116.739 156.291 116.739C156.448 116.739 156.605 116.726 156.759 116.702C156.911 116.695 157.062 116.69 157.216 116.69C160.023 116.693 162.713 117.81 164.698 119.794C166.682 121.779 167.798 124.469 167.802 127.276C167.802 128.079 168.121 128.849 168.689 129.417C169.257 129.985 170.027 130.304 170.83 130.304C171.633 130.304 172.403 129.985 172.971 129.417C173.539 128.849 173.858 128.079 173.858 127.276C173.853 123.228 172.375 119.321 169.699 116.283C167.024 113.245 163.334 111.286 159.32 110.769V106.141C159.32 105.338 159.001 104.568 158.433 104C157.865 103.432 157.095 103.113 156.291 103.113C155.488 103.113 154.718 103.432 154.15 104C153.582 104.568 153.263 105.338 153.263 106.141V111.11C149.31 112.075 145.847 114.456 143.529 117.802C141.212 121.147 140.201 125.226 140.688 129.267C141.175 133.307 143.126 137.03 146.171 139.729C149.217 142.429 153.146 143.919 157.216 143.917C160.013 143.934 162.689 145.056 164.661 147.04C166.632 149.023 167.739 151.706 167.739 154.503C167.739 157.299 166.632 159.982 164.661 161.966C162.689 163.949 160.013 165.072 157.216 165.089V165.087Z" fill="white"/>
</g>
<defs>
<filter id="filter0_b" x="-0.0107527" y="-7.01075" width="340.022" height="340.022" filterUnits="userSpaceOnUse" color-interpolation-filters="sRGB">
<feFlood flood-opacity="0" result="BackgroundImageFix"/>
<feGaussianBlur in="BackgroundImage" stdDeviation="3.50538"/>
<feComposite in2="SourceAlpha" operator="in" result="effect1_backgroundBlur"/>
<feBlend mode="normal" in="SourceGraphic" in2="effect1_backgroundBlur" result="shape"/>
</filter>
<filter id="filter1_d" x="0.730769" y="0" width="338.538" height="338.538" filterUnits="userSpaceOnUse" color-interpolation-filters="sRGB">
<feFlood flood-opacity="0" result="BackgroundImageFix"/>
<feColorMatrix in="SourceAlpha" type="matrix" values="0 0 0 0 0 0 0 0 0 0 0 0 0 0 0 0 0 0 127 0" result="hardAlpha"/>
<feOffset dy="6.26923"/>
<feGaussianBlur stdDeviation="3.13462"/>
<feComposite in2="hardAlpha" operator="out"/>
<feColorMatrix type="matrix" values="0 0 0 0 0 0 0 0 0 0 0 0 0 0 0 0 0 0 0.25 0"/>
<feBlend mode="normal" in2="BackgroundImageFix" result="effect1_dropShadow"/>
<feBlend mode="normal" in="SourceGraphic" in2="effect1_dropShadow" result="shape"/>
</filter>
<filter id="filter2_dd" x="83.9512" y="260.539" width="174.24" height="46.1376" filterUnits="userSpaceOnUse" color-interpolation-filters="sRGB">
<feFlood flood-opacity="0" result="BackgroundImageFix"/>
<feColorMatrix in="SourceAlpha" type="matrix" values="0 0 0 0 0 0 0 0 0 0 0 0 0 0 0 0 0 0 127 0" result="hardAlpha"/>
<feOffset dy="5.25806"/>
<feGaussianBlur stdDeviation="6.13441"/>
<feComposite in2="hardAlpha" operator="out"/>
<feColorMatrix type="matrix" values="0 0 0 0 0 0 0 0 0 0 0 0 0 0 0 0 0 0 0.25 0"/>
<feBlend mode="normal" in2="BackgroundImageFix" result="effect1_dropShadow"/>
<feColorMatrix in="SourceAlpha" type="matrix" values="0 0 0 0 0 0 0 0 0 0 0 0 0 0 0 0 0 0 127 0" result="hardAlpha"/>
<feOffset dy="7.01075"/>
<feGaussianBlur stdDeviation="3.50538"/>
<feComposite in2="hardAlpha" operator="out"/>
<feColorMatrix type="matrix" values="0 0 0 0 0 0 0 0 0 0 0 0 0 0 0 0 0 0 0.25 0"/>
<feBlend mode="normal" in2="effect1_dropShadow" result="effect2_dropShadow"/>
<feBlend mode="normal" in="SourceGraphic" in2="effect2_dropShadow" result="shape"/>
</filter>
<filter id="filter3_d" x="22" y="20" width="296" height="296" filterUnits="userSpaceOnUse" color-interpolation-filters="sRGB">
<feFlood flood-opacity="0" result="BackgroundImageFix"/>
<feColorMatrix in="SourceAlpha" type="matrix" values="0 0 0 0 0 0 0 0 0 0 0 0 0 0 0 0 0 0 127 0" result="hardAlpha"/>
<feOffset dy="4"/>
<feGaussianBlur stdDeviation="2"/>
<feComposite in2="hardAlpha" operator="out"/>
<feColorMatrix type="matrix" values="0 0 0 0 0 0 0 0 0 0 0 0 0 0 0 0 0 0 0.25 0"/>
<feBlend mode="normal" in2="BackgroundImageFix" result="effect1_dropShadow"/>
<feBlend mode="normal" in="SourceGraphic" in2="effect1_dropShadow" result="shape"/>
</filter>
<filter id="filter4_dd" x="90.4062" y="36.2559" width="184.594" height="223.079" filterUnits="userSpaceOnUse" color-interpolation-filters="sRGB">
<feFlood flood-opacity="0" result="BackgroundImageFix"/>
<feColorMatrix in="SourceAlpha" type="matrix" values="0 0 0 0 0 0 0 0 0 0 0 0 0 0 0 0 0 0 127 0" result="hardAlpha"/>
<feOffset dy="4"/>
<feGaussianBlur stdDeviation="2"/>
<feComposite in2="hardAlpha" operator="out"/>
<feColorMatrix type="matrix" values="0 0 0 0 0 0 0 0 0 0 0 0 0 0 0 0 0 0 0.25 0"/>
<feBlend mode="normal" in2="BackgroundImageFix" result="effect1_dropShadow"/>
<feColorMatrix in="SourceAlpha" type="matrix" values="0 0 0 0 0 0 0 0 0 0 0 0 0 0 0 0 0 0 127 0" result="hardAlpha"/>
<feOffset dx="9" dy="5"/>
<feGaussianBlur stdDeviation="10"/>
<feComposite in2="hardAlpha" operator="out"/>
<feColorMatrix type="matrix" values="0 0 0 0 0 0 0 0 0 0 0 0 0 0 0 0 0 0 0.25 0"/>
<feBlend mode="normal" in2="effect1_dropShadow" result="effect2_dropShadow"/>
<feBlend mode="normal" in="SourceGraphic" in2="effect2_dropShadow" result="shape"/>
</filter>
</defs>
</svg>
