<svg width="340" height="339" viewBox="0 0 340 339" fill="none" xmlns="http://www.w3.org/2000/svg">

	<rect x="7" width="326" height="326" rx="7.83654" fill="#885e24"></rect>
	<rect x="9.5" y="2.5" width="321" height="321" rx="5.33654" stroke="#fdb414" stroke-width="5"></rect>

	<path d="M108.38 275.51C108.38 276.71 108.07 277.72 107.45 278.54C106.83 279.34 105.99 279.95 104.93 280.37C103.89 280.79 102.75 281 101.51 281H91.22V259.7H102.62C103.62 259.7 104.48 259.97 105.2 260.51C105.92 261.03 106.48 261.71 106.88 262.55C107.28 263.39 107.48 264.25 107.48 265.13C107.48 266.17 107.22 267.15 106.7 268.07C106.18 268.97 105.42 269.64 104.42 270.08C105.64 270.44 106.6 271.09 107.3 272.03C108.02 272.97 108.38 274.13 108.38 275.51ZM95.36 263.24V268.61H100.88C101.56 268.61 102.15 268.37 102.65 267.89C103.15 267.41 103.4 266.75 103.4 265.91C103.4 265.11 103.17 264.47 102.71 263.99C102.27 263.49 101.72 263.24 101.06 263.24H95.36ZM104.21 274.73C104.21 273.95 103.97 273.28 103.49 272.72C103.01 272.16 102.42 271.88 101.72 271.88H95.36V277.49H101.51C102.27 277.49 102.91 277.22 103.43 276.68C103.95 276.14 104.21 275.49 104.21 274.73ZM120.232 259.7H124.432L132.262 281H128.002L126.022 275.69H118.582L116.632 281H112.372L120.232 259.7ZM125.272 272.78L122.332 263.99L119.272 272.78H125.272ZM137.898 281V259.7H147.318C148.298 259.7 149.198 259.9 150.018 260.3C150.858 260.7 151.578 261.24 152.178 261.92C152.798 262.6 153.268 263.36 153.588 264.2C153.928 265.04 154.098 265.9 154.098 266.78C154.098 268.14 153.748 269.39 153.048 270.53C152.368 271.67 151.438 272.49 150.258 272.99L155.118 281H150.558L146.178 273.86H142.038V281H137.898ZM142.038 270.23H147.228C148.008 270.23 148.648 269.9 149.148 269.24C149.668 268.56 149.928 267.74 149.928 266.78C149.928 266.12 149.788 265.53 149.508 265.01C149.228 264.49 148.868 264.08 148.428 263.78C148.008 263.48 147.548 263.33 147.048 263.33H142.038V270.23ZM159.742 270.2C159.742 268.9 159.972 267.62 160.432 266.36C160.912 265.1 161.602 263.96 162.502 262.94C163.402 261.92 164.502 261.11 165.802 260.51C167.102 259.89 168.582 259.58 170.242 259.58C172.182 259.58 173.872 260.01 175.312 260.87C176.752 261.73 177.822 262.85 178.522 264.23L175.342 266.42C174.982 265.62 174.512 264.99 173.932 264.53C173.352 264.07 172.722 263.74 172.042 263.54C171.382 263.34 170.742 263.24 170.122 263.24C169.082 263.24 168.172 263.45 167.392 263.87C166.632 264.29 165.992 264.84 165.472 265.52C164.952 266.2 164.562 266.96 164.302 267.8C164.062 268.64 163.942 269.48 163.942 270.32C163.942 271.58 164.202 272.76 164.722 273.86C165.242 274.94 165.972 275.82 166.912 276.5C167.852 277.18 168.942 277.52 170.182 277.52C170.822 277.52 171.482 277.41 172.162 277.19C172.862 276.97 173.502 276.62 174.082 276.14C174.662 275.66 175.112 275.04 175.432 274.28L178.822 276.23C178.382 277.29 177.692 278.19 176.752 278.93C175.812 279.65 174.752 280.21 173.572 280.61C172.392 280.99 171.222 281.18 170.062 281.18C168.542 281.18 167.152 280.87 165.892 280.25C164.652 279.61 163.572 278.77 162.652 277.73C161.732 276.67 161.012 275.49 160.492 274.19C159.992 272.87 159.742 271.54 159.742 270.2ZM193.725 281.15C192.165 281.15 190.745 280.85 189.465 280.25C188.205 279.65 187.115 278.84 186.195 277.82C185.295 276.78 184.595 275.62 184.095 274.34C183.595 273.04 183.345 271.71 183.345 270.35C183.345 268.93 183.605 267.58 184.125 266.3C184.645 265 185.375 263.85 186.315 262.85C187.255 261.83 188.355 261.03 189.615 260.45C190.895 259.85 192.295 259.55 193.815 259.55C195.355 259.55 196.755 259.86 198.015 260.48C199.295 261.1 200.385 261.93 201.285 262.97C202.205 264.01 202.905 265.18 203.385 266.48C203.885 267.76 204.135 269.07 204.135 270.41C204.135 271.81 203.875 273.16 203.355 274.46C202.835 275.74 202.105 276.89 201.165 277.91C200.245 278.91 199.145 279.7 197.865 280.28C196.605 280.86 195.225 281.15 193.725 281.15ZM187.545 270.35C187.545 271.59 187.785 272.75 188.265 273.83C188.765 274.91 189.475 275.79 190.395 276.47C191.335 277.15 192.455 277.49 193.755 277.49C195.095 277.49 196.225 277.14 197.145 276.44C198.065 275.74 198.765 274.84 199.245 273.74C199.725 272.64 199.965 271.51 199.965 270.35C199.965 269.11 199.715 267.95 199.215 266.87C198.715 265.79 197.995 264.92 197.055 264.26C196.135 263.58 195.035 263.24 193.755 263.24C192.415 263.24 191.285 263.59 190.365 264.29C189.445 264.99 188.745 265.89 188.265 266.99C187.785 268.07 187.545 269.19 187.545 270.35ZM210.611 281V259.7H218.351C220.671 259.7 222.611 260.18 224.171 261.14C225.731 262.08 226.901 263.36 227.681 264.98C228.461 266.58 228.851 268.36 228.851 270.32C228.851 272.48 228.421 274.36 227.561 275.96C226.701 277.56 225.481 278.8 223.901 279.68C222.321 280.56 220.471 281 218.351 281H210.611ZM224.681 270.32C224.681 268.94 224.431 267.73 223.931 266.69C223.431 265.63 222.711 264.81 221.771 264.23C220.831 263.63 219.691 263.33 218.351 263.33H214.751V277.37H218.351C219.711 277.37 220.861 277.07 221.801 276.47C222.741 275.85 223.451 275.01 223.931 273.95C224.431 272.87 224.681 271.66 224.681 270.32ZM250.175 277.37V281H235.385V259.7H249.905V263.33H239.525V268.46H248.495V271.82H239.525V277.37H250.175Z" fill="#fff"></path>

	<rect x="26.5" y="20.5" width="287" height="287" rx="3.5" stroke="#fff" shape-rendering="crispEdges"></rect>

	<rect x="15.5" y="8.5" width="309" height="309" stroke="#fdb414" stroke-width="5"></rect>

	<path d="M80.75 67H74V217.857H80.75V67ZM87.5 67.1072H84.0714V217.857H87.5V67.1072ZM97.5714 67.1072H94.25V217.857H97.5714V67.1072ZM114.393 67.1072H111.071V217.857H114.393V67.1072ZM131.214 67.1072H124.571V217.857H131.214V67.1072ZM144.714 67.1072H141.393V217.857H144.714V67.1072ZM151.464 67.1072H148.143V217.857H151.464V67.1072ZM158.214 67.1072H154.893V217.857H158.214V67.1072ZM175.036 67.1072H168.286V217.857H175.036V67.1072ZM191.857 67.1072H185.107V217.857H191.857V67.1072ZM205.357 67.1072H198.607V217.857H205.357V67.1072ZM218.857 67.1072H212.107V217.857H218.857V67.1072ZM228.929 67.1072H222.179V217.857H228.929V67.1072ZM249.179 67.1072H239.107V217.857H249.179V67.1072ZM255.929 67.1072H252.5V217.857H255.929V67.1072ZM266 67H259.25V217.857H266V67Z" fill="#fff"></path>

</svg>