<svg width="340" height="339" viewBox="0 0 340 339" fill="none" xmlns="http://www.w3.org/2000/svg">

<rect x="7" width="326" height="326" rx="7.83654" fill="#885e24"></rect>
<rect x="9.5" y="2.5" width="321" height="321" rx="5.33654" stroke="#fdb414" stroke-width="5"></rect>


<path d="M88.22 282V260.7H92.36V282H88.22ZM104.244 268.32V282H100.104V260.7H103.404L114.414 274.74V260.73H118.554V282H115.104L104.244 268.32ZM128.475 260.7L134.235 277.08L139.935 260.7H144.285L136.215 282H132.225L124.125 260.7H128.475ZM164.648 278.37V282H149.858V260.7H164.378V264.33H153.998V269.46H162.968V272.82H153.998V278.37H164.648ZM175.316 268.32V282H171.176V260.7H174.476L185.486 274.74V260.73H189.626V282H186.176L175.316 268.32ZM213.287 264.33H206.477V282H202.367V264.33H195.557V260.7H213.287V264.33ZM227.852 282.15C226.292 282.15 224.872 281.85 223.592 281.25C222.332 280.65 221.242 279.84 220.322 278.82C219.422 277.78 218.722 276.62 218.222 275.34C217.722 274.04 217.472 272.71 217.472 271.35C217.472 269.93 217.732 268.58 218.252 267.3C218.772 266 219.502 264.85 220.442 263.85C221.382 262.83 222.482 262.03 223.742 261.45C225.022 260.85 226.422 260.55 227.942 260.55C229.482 260.55 230.882 260.86 232.142 261.48C233.422 262.1 234.512 262.93 235.412 263.97C236.332 265.01 237.032 266.18 237.512 267.48C238.012 268.76 238.262 270.07 238.262 271.41C238.262 272.81 238.002 274.16 237.482 275.46C236.962 276.74 236.232 277.89 235.292 278.91C234.372 279.91 233.272 280.7 231.992 281.28C230.732 281.86 229.352 282.15 227.852 282.15ZM221.672 271.35C221.672 272.59 221.912 273.75 222.392 274.83C222.892 275.91 223.602 276.79 224.522 277.47C225.462 278.15 226.582 278.49 227.882 278.49C229.222 278.49 230.352 278.14 231.272 277.44C232.192 276.74 232.892 275.84 233.372 274.74C233.852 273.64 234.092 272.51 234.092 271.35C234.092 270.11 233.842 268.95 233.342 267.87C232.842 266.79 232.122 265.92 231.182 265.26C230.262 264.58 229.162 264.24 227.882 264.24C226.542 264.24 225.412 264.59 224.492 265.29C223.572 265.99 222.872 266.89 222.392 267.99C221.912 269.07 221.672 270.19 221.672 271.35ZM244.738 282V260.7H254.158C255.138 260.7 256.038 260.9 256.858 261.3C257.698 261.7 258.418 262.24 259.018 262.92C259.638 263.6 260.108 264.36 260.428 265.2C260.768 266.04 260.938 266.9 260.938 267.78C260.938 269.14 260.588 270.39 259.888 271.53C259.208 272.67 258.278 273.49 257.098 273.99L261.958 282H257.398L253.018 274.86H248.878V282H244.738ZM248.878 271.23H254.068C254.848 271.23 255.488 270.9 255.988 270.24C256.508 269.56 256.768 268.74 256.768 267.78C256.768 267.12 256.628 266.53 256.348 266.01C256.068 265.49 255.708 265.08 255.268 264.78C254.848 264.48 254.388 264.33 253.888 264.33H248.878V271.23ZM269.305 260.7L274.555 270.72L279.895 260.7H284.365L276.625 274.56V282H272.515V274.5L264.805 260.7H269.305Z" fill="#fff"></path>

<rect x="26.5" y="20.5" width="287" height="287" rx="3.5" stroke="#fff" shape-rendering="crispEdges"></rect>

<rect x="15.5" y="8.5" width="309" height="309" stroke="#fdb414" stroke-width="5"></rect>

<path fill-rule="evenodd" clip-rule="evenodd" d="M149.494 64.8608H185.949C191.654 64.8608 196.279 69.4853 196.279 75.1899V83.0887H139.164V75.1899C139.164 69.4853 143.789 64.8608 149.494 64.8608ZM134.304 75.1899C134.304 66.8008 141.104 60 149.494 60H185.949C194.339 60 201.139 66.8008 201.139 75.1899V75.7975H227.266C228.273 75.7975 229.089 76.6136 229.089 77.6203V228.912C229.089 229.919 228.273 230.735 227.266 230.735H111.823C110.816 230.735 110 229.919 110 228.912V77.6203C110 76.6136 110.816 75.7975 111.823 75.7975H134.304V75.1899ZM134.304 80.6583H114.861V225.874H224.228V80.6583H201.139V87.9494H134.304V80.6583Z" fill="#fff"></path>
<path fill-rule="evenodd" clip-rule="evenodd" d="M129.991 126.776V144.17H147.385V126.776H129.991ZM127.439 123.798C127.204 123.798 127.013 123.988 127.013 124.223V146.723C127.013 146.958 127.204 147.148 127.439 147.148H149.938C150.173 147.148 150.364 146.958 150.364 146.723V124.223C150.364 123.988 150.173 123.798 149.938 123.798H127.439Z" fill="#fff"></path>
<path fill-rule="evenodd" clip-rule="evenodd" d="M129.991 162.636V180.03H147.385V162.636H129.991ZM127.438 159.658C127.203 159.658 127.013 159.848 127.013 160.083V182.583C127.013 182.818 127.203 183.008 127.438 183.008H149.938C150.173 183.008 150.363 182.818 150.363 182.583V160.083C150.363 159.848 150.173 159.658 149.938 159.658H127.438Z" fill="#fff"></path>
<rect x="160.371" y="135.056" width="51.7053" height="6.25467" fill="#fff"></rect>
<rect x="160.371" y="170.082" width="51.7053" height="6.25467" fill="#fff"></rect>
<path fill-rule="evenodd" clip-rule="evenodd" d="M145.777 131.832L137.976 139.643L132.016 135.304L133.149 133.745L137.778 137.115L144.415 130.469L145.777 131.832Z" fill="#fff"></path>


</svg>