<?xml version="1.0" standalone="no"?>
<!DOCTYPE svg PUBLIC "-//W3C//DTD SVG 1.1//EN" "http://www.w3.org/Graphics/SVG/1.1/DTD/svg11.dtd" >
<svg xmlns="http://www.w3.org/2000/svg" xmlns:xlink="http://www.w3.org/1999/xlink" version="1.1">
<metadata>
Created by FontForge 20170731 at Thu Apr  5 15:56:36 2018
 By Aleksey,,,
Copyright (c) 2018 by Fontastica. All rights reserved.
</metadata>
<defs>
<font id="Lorin-ExtraBold" horiz-adv-x="1228" >
  <font-face 
    font-family="Lorin ExtraBold"
    font-weight="800"
    font-stretch="normal"
    units-per-em="2048"
    panose-1="0 0 9 0 0 0 0 0 0 0"
    ascent="1638"
    descent="-410"
    x-height="1106"
    cap-height="1434"
    bbox="-86 -474 2068 1720"
    underline-thickness="102"
    underline-position="-816"
    unicode-range="U+0020-2122"
  />
<missing-glyph horiz-adv-x="748" 
d="M68 0v1365h544v-1365h-544zM484 1228h-288v-1091h288v1091z" />
    <glyph glyph-name=".notdef" horiz-adv-x="748" 
d="M68 0v1365h544v-1365h-544zM484 1228h-288v-1091h288v1091z" />
    <glyph glyph-name=".null" horiz-adv-x="0" 
 />
    <glyph glyph-name="nonmarkingreturn" horiz-adv-x="682" 
 />
    <glyph glyph-name="space" unicode=" " horiz-adv-x="536" 
 />
    <glyph glyph-name="exclam" unicode="!" horiz-adv-x="567" 
d="M187 373v1102h195v-1102h-195zM185 0v279h200v-279h-200z" />
    <glyph glyph-name="quotedbl" unicode="&#x22;" horiz-adv-x="765" 
d="M143 937v501h208v-501h-208zM414 937v501h208v-501h-208z" />
    <glyph glyph-name="numbersign" unicode="#" horiz-adv-x="1314" 
d="M1046 844l-34 -233h171v-216h-205l-58 -393h-223l56 393h-286l-62 -393h-224l61 393h-153v216h188l36 233h-180v212h214l58 378h223l-55 -378h279l57 378h224l-57 -378h151v-212h-181zM539 844l-36 -233h284l33 233h-281z" />
    <glyph glyph-name="dollar" unicode="$" horiz-adv-x="1155" 
d="M677 -17v-164h-201v163q-190 27 -293 155t-103 343h235q0 -211 161 -256l-1 389q-56 13 -69 18q-42 12 -90 35q-72 31 -112 70q-38 38 -69 108q-31 68 -31 155q0 160 99.5 266t267.5 131v153h212v-155q169 -29 262.5 -150.5t93.5 -319.5h-231q0 174 -124 226l-1 -341
q77 -13 143 -44q88 -39 125 -72q67 -60 91 -117q33 -80 33 -171q0 -166 -111 -280t-287 -142zM474 1157q-66 -18 -101.5 -58.5t-35.5 -94.5q0 -26 16 -63q7 -12 45 -43q4 -3 22 -11q9 -4 27 -11.5t27 -11.5v293zM822 475q-17 22 -28 32t-29 19q-41 20 -46 21q-11 5 -40 14
v-335q72 22 116.5 71t44.5 106q0 47 -18 72z" />
    <glyph glyph-name="percent" unicode="%" horiz-adv-x="1656" 
d="M414 780q-152 0 -251 97.5t-99 248.5q0 148 99 245.5t251 97.5q150 0 248.5 -97.5t98.5 -245.5q0 -150 -98.5 -248t-248.5 -98zM509 -8h-260l872 1446h260zM414 1262q-61 0 -99.5 -38.5t-38.5 -97.5q0 -62 39 -100q40 -40 99 -40t97.5 39.5t38.5 100.5t-38 98.5t-98 37.5
zM1245 -11q-151 2 -249 97t-98 244t98 245t249 97q149 1 248 -96.5t99 -245.5q0 -147 -99.5 -244.5t-247.5 -96.5zM1245 466q-59 0 -97 -38.5t-38 -97.5q0 -60 37 -96q38 -38 98 -38t97.5 37.5t37.5 96.5q0 60 -37.5 98t-97.5 38z" />
    <glyph glyph-name="ampersand" unicode="&#x26;" horiz-adv-x="1275" 
d="M1032 -1l-100 109q-159 -128 -397 -130q-194 -2 -319.5 110t-124.5 289q2 156 92 264q68 81 164 145q-72 101 -100 168q-36 89 -36 174q0 150 104.5 239t272.5 89q161 0 266 -88.5t105 -231.5q0 -116 -70 -217q-52 -73 -165 -149q-18 -11 -61 -38q77 -95 253 -294
q13 24 22 47q11 30 29 115l206 -51q-34 -134 -52 -175q-18 -43 -52 -107l246 -268h-283zM588 1253q-75 0 -117 -35.5t-42 -89.5q0 -74 105 -228q11 7 29 18.5t25 15.5q34 22 60 44q60 47 82 100q11 26 11 58q0 50 -41 83.5t-112 33.5zM479 618q-86 -60 -123 -114.5
t-37 -121.5q0 -79 61.5 -130.5t168.5 -51.5q130 0 232 73q-202 226 -302 345z" />
    <glyph glyph-name="quotesingle" unicode="'" horiz-adv-x="448" 
d="M143 937v501h163v-501h-163z" />
    <glyph glyph-name="parenleft" unicode="(" horiz-adv-x="616" 
d="M368 -273q-134 214 -200 451q-66 233 -66 495q0 521 266 949h252q-161 -244 -230 -472q-72 -232 -72 -477q0 -246 72 -480q69 -227 230 -466h-252z" />
    <glyph glyph-name="parenright" unicode=")" horiz-adv-x="616" 
d="M449 178q-66 -237 -200 -451h-253q158 229 231 465q72 239 72 481q0 245 -72 478q-70 231 -229 471h251q266 -428 266 -949q0 -262 -66 -495z" />
    <glyph glyph-name="asterisk" unicode="*" horiz-adv-x="815" 
d="M561 1087l118 -150l-145 -120l-127 164l-126 -164l-148 120l120 150l-177 59l62 178l174 -60v184h191v-184l174 60l64 -178z" />
    <glyph glyph-name="plus" unicode="+" horiz-adv-x="1075" 
d="M653 593v-372h-228v372h-357v220h357v362h228v-362h355v-220h-355z" />
    <glyph glyph-name="comma" unicode="," horiz-adv-x="493" 
d="M148 -284v152q35 15 52 37t22 56h-81v254h211v-207q0 -112 -47.5 -184t-156.5 -108z" />
    <glyph glyph-name="hyphen" unicode="-" horiz-adv-x="931" 
d="M141 488v168h650v-168h-650z" />
    <glyph glyph-name="period" unicode="." horiz-adv-x="479" 
d="M139 0v218h200v-218h-200z" />
    <glyph glyph-name="slash" unicode="/" horiz-adv-x="888" 
d="M280 -140h-242l570 1699h240z" />
    <glyph glyph-name="zero" unicode="0" horiz-adv-x="1273" 
d="M638 -24q-161 0 -281.5 90t-183.5 249t-63 367q0 317 142 510t386 194q161 0 281 -88.5t182 -247.5t62 -368q0 -208 -62.5 -367t-182.5 -249t-280 -90zM638 1161q-135 0 -216 -123.5t-81 -355.5t81 -356.5t216 -124.5q132 0 213 125t81 356q0 230 -80.5 354.5
t-213.5 124.5z" />
    <glyph glyph-name="one" unicode="1" horiz-adv-x="677" 
d="M273 0v1070l-220 -82v224l434 165v-1377h-214z" />
    <glyph glyph-name="two" unicode="2" horiz-adv-x="1075" 
d="M111 0v204q139 150 326 329q76 73 112 112q38 40 65 80q65 95 82 140t18 113q1 82 -50 132.5t-136 50.5q-90 0 -143 -51.5t-53 -133.5v-68h-226v68q0 181 118.5 295.5t303.5 114.5q178 0 296.5 -116.5t117.5 -292.5q-2 -86 -19 -145q-18 -60 -72 -154q-37 -60 -86 -115
q-12 -13 -150 -160q-112 -118 -167 -178h542v-225h-879z" />
    <glyph glyph-name="three" unicode="3" horiz-adv-x="1093" 
d="M536 -24q-188 0 -315 129.5t-134 343.5h224q7 -121 67.5 -184.5t157.5 -63.5q99 0 163.5 67t65.5 171q1 100 -70 168t-178 68h-98v180l173 288h-463v219h817v-84l-275 -414q144 -37 233.5 -156t89.5 -275q1 -193 -132.5 -325.5t-325.5 -131.5z" />
    <glyph glyph-name="four" unicode="4" horiz-adv-x="1103" 
d="M914 273v-273h-224v273h-648v81l458 1009h242l-397 -877h346v249h223v-249h133v-213h-133z" />
    <glyph glyph-name="five" unicode="5" horiz-adv-x="1075" 
d="M537 -24q-190 1 -319.5 132t-132.5 341h223q6 -118 69 -183t160 -65t160.5 65.5t64.5 166.5q2 98 -69.5 168t-174.5 70h-380l70 691h696v-219h-503l-27 -256h149q197 0 332 -131.5t135 -322.5q0 -127 -60.5 -232.5t-164.5 -165t-228 -59.5z" />
    <glyph glyph-name="six" unicode="6" horiz-adv-x="1136" 
d="M587 -24q-210 0 -350.5 135t-138.5 341q2 191 142 447l264 476h264q-145 -266 -249 -469h3q35 5 86 5q124 0 230 -56.5t171 -160.5q63 -105 65 -242q2 -204 -138.5 -340t-348.5 -136zM586 702q-112 1 -186.5 -71.5t-72.5 -178.5q2 -111 72 -179q72 -70 187 -72
q111 -1 185 71t73 179q-1 109 -73 179.5t-185 71.5z" />
    <glyph glyph-name="seven" unicode="7" horiz-adv-x="1019" 
d="M756 736l135 -1v-224l-222 2l-201 -513h-243l202 510l-195 2v223h284l160 408h-623v219h921v-71z" />
    <glyph glyph-name="eight" unicode="8" horiz-adv-x="1177" 
d="M588 -24q-211 0 -347.5 120.5t-134.5 312.5q2 109 60 203q45 70 111 119q-44 42 -78 100q-47 82 -47 173q-2 168 123 275t313 107q189 0 313 -106.5t123 -275.5q-2 -95 -46 -174q-31 -58 -73 -99q61 -44 107 -117q58 -91 60 -205q2 -188 -137.5 -310.5t-346.5 -122.5z
M588 1177q-97 0 -154 -49t-57 -124q0 -77 57 -126.5t154 -49.5q96 0 152.5 49.5t56.5 126.5q0 75 -56.5 124t-152.5 49zM588 619q-115 0 -184 -60.5t-69 -155.5q0 -93 69 -152.5t184 -59.5q116 0 185.5 59.5t69.5 152.5q0 95 -69 155.5t-186 60.5z" />
    <glyph glyph-name="nine" unicode="9" horiz-adv-x="1130" 
d="M894 476l-264 -476h-264q143 260 249 468h-3q-28 -4 -86 -4q-125 0 -231 56.5t-170 161.5q-63 102 -65 241q-2 204 138.5 340t348.5 136q210 0 350.5 -135t138.5 -341q-2 -191 -142 -447zM735 1102q-72 70 -187 72q-111 1 -185 -71t-73 -179q1 -109 73 -179.5t185 -71.5
q112 -1 186.5 71.5t72.5 178.5q-2 111 -72 179z" />
    <glyph glyph-name="colon" unicode=":" horiz-adv-x="485" 
d="M143 719v274h200v-274h-200zM143 0v274h200v-274h-200z" />
    <glyph glyph-name="semicolon" unicode=";" horiz-adv-x="503" 
d="M150 717v278h203v-278h-203zM153 -285v165q35 16 52 41t22 64h-81v274h211v-224q0 -123 -47.5 -201t-156.5 -119z" />
    <glyph glyph-name="less" unicode="&#x3c;" horiz-adv-x="1087" 
d="M56 659v69l880 576v-268l-524 -339l524 -335v-268z" />
    <glyph glyph-name="equal" unicode="=" horiz-adv-x="1275" 
d="M147 791v212h983v-212h-983zM147 392v212h983v-212h-983z" />
    <glyph glyph-name="greater" unicode="&#x3e;" horiz-adv-x="1087" 
d="M150 94v268l525 335l-525 339v268l881 -576v-69z" />
    <glyph glyph-name="question" unicode="?" horiz-adv-x="1054" 
d="M915 869q-30 -62 -105 -135q-24 -22 -74 -64q-38 -31 -69 -67q-20 -23 -31 -41q-11 -22 -18 -49q-9 -32 -9 -60v-78h-232v79q0 101 35 173q19 43 32 63q17 25 45 55q28 29 55 53q24 21 36 30q56 48 61 52q23 23 45 52q44 55 44 143q0 95 -60 154t-159 59q-95 0 -160 -69
t-71 -186h-222q6 153 70.5 269t167.5 165q98 49 215 49q126 0 226.5 -52.5t160.5 -153.5q60 -100 60 -235q0 -115 -43 -206zM366 0v281h255v-281h-255z" />
    <glyph glyph-name="at" unicode="@" horiz-adv-x="2072" 
d="M1599 43q-81 2 -147 35t-107 94q-62 -72 -152 -111t-193 -41q-203 -1 -341 139t-138 344t138.5 344.5t340.5 138.5q157 -1 264 -101v57h219v-555q0 -66 34 -104.5t87 -38.5q67 0 114 73t47 201q0 201 -90 350q-92 154 -257 239q-164 85 -383 85q-216 0 -384 -87
q-165 -84 -259 -243q-90 -155 -92 -358q-1 -146 50.5 -272t143 -214.5t222.5 -138.5t283 -49q103 1 192.5 26t196.5 87v-219q-196 -98 -405 -98q-257 0 -461 111q-202 109 -317 312q-113 202 -113 455q0 192 68 358t195 286q124 118 299.5 182t376.5 64q270 0 487 -110
q216 -110 336 -310q116 -195 118 -456q1 -132 -45.5 -241t-133 -172.5t-194.5 -61.5zM1010 772q-112 0 -189 -77.5t-77 -190.5t77 -191t189 -78q113 0 189.5 77t76.5 192t-76 191.5t-190 76.5z" />
    <glyph glyph-name="A" unicode="A" horiz-adv-x="1427" 
d="M1146 0l-134 356h-603l-132 -356h-260l584 1434h208l601 -1434h-264zM708 1099l-206 -515h417z" />
    <glyph glyph-name="B" unicode="B" horiz-adv-x="1320" 
d="M765 0h-569v1434h561q172 0 292.5 -111.5t119.5 -273.5q-2 -104 -56 -195q-39 -63 -92 -107q82 -55 132 -144t51 -191q1 -172 -128.5 -292t-310.5 -120zM753 1194h-320v-335h321q73 0 123 49t50 119t-50 118.5t-124 48.5zM763 619h-330v-378h330q85 0 141 54.5t56 134.5
q0 81 -56 135t-141 54z" />
    <glyph glyph-name="C" unicode="C" horiz-adv-x="1589" 
d="M832 -22q-209 0 -376 94q-169 95 -263 265q-95 172 -95 380q0 209 94 379q95 171 263 266q167 94 377 94q168 0 305.5 -57t238.5 -176.5t148 -292.5h-246q-103 283 -447 286q-137 1 -248.5 -63.5t-174.5 -179t-63 -256.5t63 -256.5t174.5 -179t248.5 -63.5q349 3 452 310
h246q-67 -269 -251.5 -409.5t-445.5 -140.5z" />
    <glyph glyph-name="D" unicode="D" horiz-adv-x="1501" 
d="M1309 349q-89 -163 -258 -257q-166 -92 -369 -92h-486v1434h486q202 0 368 -92q169 -94 259 -256q92 -163 92 -369q0 -202 -92 -368zM1094 967q-60 110 -168 172q-106 60 -250 62l-230 2v-969l230 -2q206 -1 344 138.5t136 346.5q-2 142 -62 250z" />
    <glyph glyph-name="E" unicode="E" horiz-adv-x="1132" 
d="M431 1199v-348h600v-230h-600v-385h601v-236h-836v1434h838v-235h-603z" />
    <glyph glyph-name="F" unicode="F" horiz-adv-x="1071" 
d="M430 592v-592h-234v1434h805v-235h-571v-376h571v-231h-571z" />
    <glyph glyph-name="G" unicode="G" horiz-adv-x="1634" 
d="M1337 183q-97 -99 -229.5 -153t-281.5 -54q-207 0 -374 95q-165 95 -260 267q-94 170 -94 379t93 377q94 171 260 267q165 93 371 95q128 1 244 -33.5t210.5 -99.5t161 -167t91.5 -229h-247q-43 153 -164 220q-116 66 -292 69q-206 2 -343.5 -140.5t-137.5 -358.5
q0 -220 135 -360.5t346 -140.5q160 1 282 82.5t165 214.5l-483 -1v235l753 1q-6 -359 -206 -565z" />
    <glyph glyph-name="H" unicode="H" horiz-adv-x="1492" 
d="M1057 0v618h-621v-618h-240v1434h240v-579h621v579h240v-1434h-240z" />
    <glyph glyph-name="I" unicode="I" horiz-adv-x="571" 
d="M180 0v1434h211v-1434h-211z" />
    <glyph glyph-name="J" unicode="J" horiz-adv-x="1222" 
d="M553 -24q-212 0 -354 138t-142 353v64h236v-57q0 -118 71.5 -187t188.5 -71q106 -1 179.5 79t73.5 199v940h237v-947q0 -217 -140.5 -364t-349.5 -147z" />
    <glyph glyph-name="K" unicode="K" horiz-adv-x="1300" 
d="M1037 0l-601 576v-576h-240v1434h240v-531l558 531h318l-721 -692l765 -742h-319z" />
    <glyph glyph-name="L" unicode="L" horiz-adv-x="1048" 
d="M196 0v1434h235v-1202h574v-232h-809z" />
    <glyph glyph-name="M" unicode="M" horiz-adv-x="1959" 
d="M1625 0l-164 975l-434 -975h-94l-435 974l-165 -974h-250l243 1434h222l430 -960l433 960h225l239 -1434h-250z" />
    <glyph glyph-name="N" unicode="N" horiz-adv-x="1533" 
d="M1143 0l-710 987v-987h-237v1434h206l700 -974v974h237v-1434h-196z" />
    <glyph glyph-name="O" unicode="O" horiz-adv-x="1697" 
d="M1502 338q-97 -168 -269 -265q-173 -97 -385 -97q-214 0 -384 96q-172 98 -269 267q-97 170 -97 378q0 209 96 378q98 171 270 267t384 96q210 0 384 -96q173 -95 271 -266q96 -169 96 -379q0 -209 -97 -379zM1286 973q-65 116 -179 180q-116 65 -259 65q-140 0 -258 -66
q-111 -62 -179 -179q-65 -112 -65 -256q0 -140 65 -255t179 -180q116 -66 258 -66q145 0 259 65q113 64 179 180q65 112 65 256q0 141 -65 256z" />
    <glyph glyph-name="P" unicode="P" horiz-adv-x="1249" 
d="M708 489h-274v-489h-238v1434h512q200 0 339 -137t139 -336q0 -131 -63 -239.5t-173 -170.5t-242 -62zM700 1196h-266v-469h266q106 0 175 67t69 167q1 99 -68.5 167t-175.5 68z" />
    <glyph glyph-name="Q" unicode="Q" horiz-adv-x="1697" 
d="M1374 171l144 -164l-182 -141l-155 176q-156 -71 -333 -71q-213 0 -384 96t-269 269q-97 170 -97 379t96 378q97 172 270 269q172 96 384 96q210 0 384 -96t271 -268q96 -170 96 -379q0 -161 -58.5 -301t-166.5 -243zM1286 972q-65 117 -179 181q-113 64 -259 64
q-143 0 -258 -65q-112 -63 -179 -180q-65 -114 -65 -257q0 -140 65 -256q64 -115 179 -182q112 -65 258 -65q82 0 165 24l-266 314l184 142l283 -333q137 142 137 356q0 141 -65 257z" />
    <glyph glyph-name="R" unicode="R" horiz-adv-x="1318" 
d="M972 0l-290 533h-248v-533h-238v1434h542q200 0 336 -130t134 -324q-1 -140 -75.5 -250t-201.5 -161l329 -569h-288zM729 1199h-295v-432h295q107 0 172 60.5t65 154.5q0 95 -65 156t-172 61z" />
    <glyph glyph-name="S" unicode="S" horiz-adv-x="1222" 
d="M876 31q-108 -47 -253 -49q-235 -2 -384.5 141t-146.5 381h242q-2 -130 77.5 -206.5t208.5 -75.5q119 1 191.5 57t72.5 141q0 36 -18 75q-8 17 -48 48q-20 13 -43 22q-35 16 -51 20l-34 10l-53 15l-57 13q-136 32 -226 67q-235 93 -235 346q0 193 134.5 304t355.5 112
q219 1 353 -130t131 -357h-236q0 118 -68.5 184.5t-183.5 66.5q-114 0 -180.5 -49t-66.5 -123q0 -45 27 -81q19 -26 77 -54q13 -7 55 -21q33 -11 65 -19q221 -57 300 -87q203 -76 239 -273q8 -40 8 -87q0 -133 -67.5 -235.5t-185.5 -155.5z" />
    <glyph glyph-name="T" unicode="T" horiz-adv-x="1138" 
d="M689 1201v-1201h-240v1201h-406v233h1052v-233h-406z" />
    <glyph glyph-name="U" unicode="U" horiz-adv-x="1482" 
d="M1232 251q-74 -132 -202 -203q-129 -70 -287 -72q-157 -2 -287 72t-203.5 204.5t-73.5 289.5v892h243v-879q0 -150 90.5 -244.5t230.5 -94.5q139 0 229 94.5t90 244.5v879h243v-892q0 -161 -73 -291z" />
    <glyph glyph-name="V" unicode="V" horiz-adv-x="1396" 
d="M803 0h-206l-578 1434h266l415 -1043l406 1043h264z" />
    <glyph glyph-name="W" unicode="W" horiz-adv-x="2103" 
d="M1610 0h-206l-354 934l-345 -934h-205l-469 1434h261l321 -1006l374 1001h120l389 -1002l313 1007h259z" />
    <glyph glyph-name="X" unicode="X" 
d="M968 0l-353 545l-350 -545h-279l483 749l-447 685h277l317 -489l315 489h276l-444 -691l482 -743h-277z" />
    <glyph glyph-name="Y" unicode="Y" horiz-adv-x="1347" 
d="M797 569v-569h-247v569l-522 865h268l378 -625l380 625h270z" />
    <glyph glyph-name="Z" unicode="Z" horiz-adv-x="1153" 
d="M442 232h658v-232h-1090l705 1201h-634v233h1045z" />
    <glyph glyph-name="bracketleft" unicode="[" horiz-adv-x="686" 
d="M196 -283v1904h436v-216h-232v-1469h236v-219h-440z" />
    <glyph glyph-name="backslash" unicode="\" horiz-adv-x="888" 
d="M608 -140l-568 1699h241l570 -1699h-243z" />
    <glyph glyph-name="bracketright" unicode="]" horiz-adv-x="686" 
d="M49 -283v219h236v1469h-232v216h437v-1904h-441z" />
    <glyph glyph-name="asciicircum" unicode="^" horiz-adv-x="1091" 
d="M786 694l-240 380l-241 -380h-268l477 744h67l473 -744h-268z" />
    <glyph glyph-name="underscore" unicode="_" horiz-adv-x="1056" 
d="M0 -266v167h1057v-167h-1057z" />
    <glyph glyph-name="grave" unicode="`" 
d="M386 1236l-190 311h229l141 -311h-180z" />
    <glyph glyph-name="a" unicode="a" horiz-adv-x="1431" 
d="M1009 -2v106q-147 -128 -349 -128q-160 0 -292 75q-129 74 -205 208q-73 131 -75 294q-2 119 42.5 227t121.5 185t184 121.5t225 43.5q211 -3 357 -130v108h239v-1110h-248zM673 901q-147 0 -247.5 -101t-98.5 -247q2 -151 98 -249q98 -98 248 -99q145 -2 245 99t100 249
t-99.5 248t-245.5 100z" />
    <glyph glyph-name="b" unicode="b" horiz-adv-x="1417" 
d="M759 -24q-203 2 -348 123v-100h-236v1502h236v-467q149 114 348 114q162 0 293 -77q132 -76 205 -210q70 -129 72 -298q2 -163 -72.5 -298.5t-206.5 -212.5t-291 -76zM746 915q-145 0 -246 -102.5t-100 -249.5q3 -153 99 -253q97 -99 247 -101q145 -2 245 100.5
t100 252.5t-99.5 251.5t-245.5 101.5z" />
    <glyph glyph-name="c" unicode="c" horiz-adv-x="1269" 
d="M662 -24q-160 0 -292 75t-207 208t-75 294q0 160 74 294q75 133 208 208q132 75 292 75q200 0 345 -110.5t205 -320.5h-232q-36 79 -100 128.5t-135.5 64t-146.5 -1t-134.5 -57t-98 -115t-38.5 -165.5q-1 -145 97.5 -247.5t236.5 -100.5q224 3 317 206h236
q-59 -212 -206 -323.5t-346 -111.5z" />
    <glyph glyph-name="d" unicode="d" horiz-adv-x="1417" 
d="M1011 -1v101q-149 -122 -353 -124q-159 -1 -291 76t-206.5 212.5t-72.5 298.5q2 166 72 297q73 134 204 211q130 77 294 77q200 0 349 -114v467h235v-1502h-231zM672 915q-147 0 -246.5 -101.5t-98.5 -250.5q1 -154 98 -254q96 -99 247 -100q145 -1 245.5 101.5
t100.5 251.5t-100 251t-246 102z" />
    <glyph glyph-name="e" unicode="e" horiz-adv-x="1294" 
d="M1203 454h-872q27 -113 114 -180t207 -67q102 0 168.5 36.5t115.5 122.5h247q-85 -203 -215.5 -296.5t-315.5 -93.5q-158 0 -287 75q-130 76 -203 208q-74 134 -74 294t73 293q74 134 204 209q129 75 287 75q160 0 290 -77q130 -79 199 -213q68 -132 68 -292
q0 -30 -6 -94zM652 904q-115 0 -199 -61t-116 -166h628q-33 105 -116.5 166t-196.5 61z" />
    <glyph glyph-name="f" unicode="f" horiz-adv-x="792" 
d="M461 907v-907h-227v907h-182v212h182v49q0 373 355 373h176v-207h-148q-92 0 -126.5 -36.5t-34.5 -133.5v-45h311v-212h-306z" />
    <glyph glyph-name="g" unicode="g" horiz-adv-x="1380" 
d="M662 -419q-212 2 -353 83q-77 44 -126 116.5t-79 191.5h234q19 -55 45.5 -84.5t67.5 -46.5q85 -36 211 -36q139 0 223.5 85.5t88.5 235.5q-146 -112 -341 -112q-150 0 -277 73q-123 73 -196 203q-72 129 -72 282q0 152 71 282q69 127 197 202q124 74 277 74
q197 0 338 -132v109h234v-942q0 -267 -147 -426t-396 -158zM651 898q-138 0 -232 -94t-92 -232q1 -141 92 -233q91 -93 232 -94q137 -1 229 93t92 234q0 139 -92 232.5t-229 93.5z" />
    <glyph glyph-name="h" unicode="h" horiz-adv-x="1314" 
d="M923 0v627q0 147 -62 221.5t-179 75.5q-111 2 -192 -90t-81 -224v-610h-234v1501h234v-453q120 98 315 100q196 1 314 -132t118 -349v-667h-233z" />
    <glyph glyph-name="i" unicode="i" horiz-adv-x="524" 
d="M164 1232v265h201v-265h-201zM164 0v1143h201v-1143h-201z" />
    <glyph glyph-name="j" unicode="j" horiz-adv-x="548" 
d="M154 1231v266h229v-266h-229zM26 -395h-112v226h90q154 0 154 177v1131h217v-1144q0 -173 -96 -281.5t-253 -108.5z" />
    <glyph glyph-name="k" unicode="k" horiz-adv-x="1132" 
d="M873 0l-447 425v-425h-232v1501h232v-758l415 383h301l-574 -542l611 -584h-306z" />
    <glyph glyph-name="l" unicode="l" horiz-adv-x="524" 
d="M161 0v1502h201v-1502h-201z" />
    <glyph glyph-name="m" unicode="m" horiz-adv-x="1945" 
d="M1548 0l-1 648q0 128 -53.5 193.5t-149.5 67.5q-96 1 -170 -86.5t-74 -212.5v-610h-236v648q0 128 -53.5 193.5t-150.5 67.5q-97 1 -171 -86t-74 -213v-610h-240v1108h240v-87q121 109 282 109q199 0 303 -165q66 78 156.5 121t192.5 44q118 1 218 -55t159.5 -156
t59.5 -221v-698h-238z" />
    <glyph glyph-name="n" unicode="n" horiz-adv-x="1314" 
d="M923 0v618q0 144 -62 216.5t-179 74.5q-112 1 -192.5 -89t-80.5 -219v-601h-234v1108h218v-99q120 120 305 121q127 1 232 -61t165.5 -171.5t60.5 -241.5v-656h-233z" />
    <glyph glyph-name="o" unicode="o" horiz-adv-x="1349" 
d="M1185 258q-76 -132 -212 -207q-134 -73 -299 -75q-161 -2 -296.5 74t-213.5 210t-76 293q2 168 75 296q77 132 213 207q134 74 298 74q160 0 298 -75q137 -76 213 -206q76 -133 76 -296q0 -162 -76 -295zM674 909q-149 0 -254 -104t-104 -252q3 -144 108 -249
q111 -109 250 -111q148 -2 254 104.5t106 255.5q0 148 -105.5 252t-254.5 104z" />
    <glyph glyph-name="p" unicode="p" horiz-adv-x="1419" 
d="M762 -42q-200 2 -351 119v-487h-236v1517h236v-109q149 132 352 132q160 0 291 -77q133 -76 205 -209q70 -129 72 -299q2 -162 -72.5 -297.5t-206 -213.5t-290.5 -76zM750 897q-146 0 -247 -102.5t-100 -249.5q3 -154 100 -254q98 -100 247 -101q145 -1 244.5 101
t99.5 252q0 151 -99 252.5t-245 101.5z" />
    <glyph glyph-name="q" unicode="q" horiz-adv-x="1419" 
d="M1009 -410v485q-151 -117 -352 -117q-118 0 -225 44t-183 124t-118.5 188.5t-42.5 228.5q0 167 73 300q75 136 204 210q132 77 292 77q207 0 359 -132v109h228v-1517h-235zM670 897q-147 0 -246.5 -101.5t-98.5 -250.5q1 -154 98 -254q97 -99 247 -101
q145 -1 245.5 101.5t100.5 251.5t-100 251.5t-246 102.5z" />
    <glyph glyph-name="r" unicode="r" horiz-adv-x="810" 
d="M645 886q-117 0 -181.5 -74.5t-64.5 -213.5v-598h-224v1106l227 1v-93q98 98 256 98h121v-226h-134z" />
    <glyph glyph-name="s" unicode="s" horiz-adv-x="1050" 
d="M525 -24q-194 0 -315 112.5t-128 310.5h228q6 -96 64 -148t157 -52q97 0 150 36t53 89q0 43 -26 66q-33 28 -81 41q-57 14 -128 27q-55 8 -106 20q-56 15 -104 33q-33 12 -48 22l-20 16t-25 19q-38 28 -68 92q-26 52 -26 134q0 152 118.5 244t300.5 92q184 0 299.5 -108
t120.5 -297h-222q-11 187 -202 187q-93 0 -140.5 -32t-47.5 -80q0 -39 21 -55q39 -29 80 -38q25 -7 56 -13l65 -11q132 -21 207 -46q187 -61 203 -267q2 -34 2 -38q0 -163 -122.5 -259.5t-315.5 -96.5z" />
    <glyph glyph-name="t" unicode="t" horiz-adv-x="841" 
d="M629 0q-176 0 -283.5 109.5t-107.5 292.5v465h-176v222h176v252l227 -1v-251h313v-222h-313v-460q0 -89 47.5 -135.5t137.5 -46.5h128v-225h-149z" />
    <glyph glyph-name="u" unicode="u" horiz-adv-x="1294" 
d="M647 -24q-219 0 -354.5 137.5t-135.5 358.5v634h233v-608q0 -140 69.5 -221t186.5 -81q118 0 188 81t70 221v608h233v-634q0 -221 -135.5 -358.5t-354.5 -137.5z" />
    <glyph glyph-name="v" unicode="v" horiz-adv-x="1171" 
d="M686 0h-194l-481 1106h250l327 -778l320 778h244z" />
    <glyph glyph-name="w" unicode="w" horiz-adv-x="1738" 
d="M1329 0h-186l-274 661l-275 -661h-185l-383 1106h251l241 -697l297 692h109l297 -699l249 704h245z" />
    <glyph glyph-name="x" unicode="x" horiz-adv-x="1050" 
d="M802 0l-277 403l-277 -403h-266l403 573l-372 533h270l244 -355l249 355h267l-376 -525l405 -581h-270z" />
    <glyph glyph-name="y" unicode="y" horiz-adv-x="1200" 
d="M499 -410h-248l252 580l-497 936h261l356 -685l314 685h252z" />
    <glyph glyph-name="z" unicode="z" horiz-adv-x="985" 
d="M432 224h488v-224h-898l541 884h-477v222h873z" />
    <glyph glyph-name="braceleft" unicode="{" horiz-adv-x="710" 
d="M466 -275q-109 0 -188.5 85.5t-79.5 203.5v471q0 32 -19.5 53.5t-47.5 21.5h-62v212h62q28 0 47.5 21.5t19.5 54.5v470q0 116 79.5 201.5t188.5 85.5h190v-221h-138q-44 0 -70 -29q-28 -31 -28 -79v-420q0 -117 -78 -190q78 -76 78 -189v-423q0 -46 29 -77.5t69 -30.5
l141 1v-222h-193z" />
    <glyph glyph-name="bar" unicode="|" horiz-adv-x="555" 
d="M184 -389v2109h187v-2109h-187z" />
    <glyph glyph-name="braceright" unicode="}" horiz-adv-x="710" 
d="M580 560q-28 0 -47.5 -21.5t-19.5 -53.5v-471q0 -118 -79.5 -203.5t-188.5 -85.5h-193v221h141q41 0 69.5 31t28.5 77v423q0 113 78 189q-78 73 -78 190v420q0 48 -28.5 78t-69.5 30h-138v221h190q109 0 188.5 -85.5t79.5 -201.5v-470q0 -33 19.5 -54.5t47.5 -21.5h62
v-212h-62z" />
    <glyph glyph-name="asciitilde" unicode="~" horiz-adv-x="1183" 
d="M782 484q-68 0 -131 26q-61 26 -130 83q-5 4 -40 33q-35 26 -62 26q-37 0 -62 -28t-25 -79v-56h-187v62q0 129 73.5 210t198.5 81q70 0 135 -27q57 -25 124 -86q39 -35 60.5 -45.5t43.5 -10.5q37 0 60.5 25.5t23.5 75.5v59h187v-59q0 -130 -72 -210t-197 -80z" />
    <glyph glyph-name="uni00A0" unicode="&#xa0;" horiz-adv-x="536" 
 />
    <glyph glyph-name="cent" unicode="&#xa2;" horiz-adv-x="1222" 
d="M742 -21v-160h-204v159q-191 32 -317.5 189t-126.5 361q0 207 126 362t318 187v170h204v-170q152 -27 262.5 -135.5t159.5 -288.5h-227q-65 149 -198 192v-633q133 41 200 198l226 -6q-50 -180 -160.5 -289t-262.5 -136zM323 528q0 -109 60.5 -196.5t154.5 -118.5l2 632
q-96 -31 -156.5 -118t-60.5 -199z" />
    <glyph glyph-name="sterling" unicode="&#xa3;" horiz-adv-x="1220" 
d="M95 0v183l133 22v346h-114v211h114v210q0 184 124 306t308 123q180 1 298.5 -119t118.5 -301v-55h-215v46q0 86 -58 145t-143 59q-89 0 -146.5 -60t-57.5 -154v-200h345v-211h-345v-338h453v231h216v-444h-1031z" />
    <glyph glyph-name="yen" unicode="&#xa5;" horiz-adv-x="1304" 
d="M1274 1362l-504 -758h367v-180h-368v-54h368v-179h-368v-191h-234v191h-369v179h369v54h-369v180h367l-500 758h256l361 -552l366 552h258z" />
    <glyph glyph-name="dieresis" unicode="&#xa8;" 
d="M203 1297v200h246v-200h-246zM561 1297v200h245v-200h-245z" />
    <glyph glyph-name="copyright" unicode="&#xa9;" horiz-adv-x="1718" 
d="M1522 334q-97 -166 -274 -262q-172 -94 -391 -94t-389 93q-173 94 -271 263q-97 170 -97 381t96 381q97 169 272 263q172 93 389 93t390 -94q179 -95 275 -262q97 -170 97 -381t-97 -381zM1363 1005q-76 129 -205 198q-134 71 -301 71t-300 -71q-127 -69 -203 -198
q-72 -122 -72 -290t72 -290q76 -129 203 -198q133 -71 300 -71q124 0 231.5 40.5t184.5 114.5t119.5 179t42.5 225q0 164 -72 290zM863 329q-112 0 -203 51t-142 143q-50 90 -50 204q0 111 50.5 201.5t141.5 143.5q88 50 203 50q133 0 233 -67q52 -36 86.5 -90.5
t59.5 -146.5h-163q-52 146 -216 146q-102 0 -167.5 -66.5t-65.5 -170.5q0 -106 65.5 -173t167.5 -67q82 0 136.5 38t84.5 121h161q-40 -159 -139.5 -238t-242.5 -79z" />
    <glyph glyph-name="guillemotleft" unicode="&#xab;" horiz-adv-x="1224" 
d="M346 547l358 -427h-286l-339 401v52l339 401h286zM877 120l-340 401v52l340 401h285l-359 -427l359 -427h-285z" />
    <glyph glyph-name="uni00AD" unicode="&#xad;" horiz-adv-x="931" 
d="M141 488v168h650v-168h-650z" />
    <glyph glyph-name="registered" unicode="&#xae;" horiz-adv-x="970" 
d="M487 674q-159 0 -276 116.5t-115 274.5q3 167 114 276q114 111 277 113q158 2 273.5 -113.5t115.5 -275.5q0 -159 -115 -274.5t-274 -116.5zM487 1315q-45 0 -86 -15h109q70 0 117.5 -45t47.5 -114q0 -86 -73 -131l69 -117q68 74 68 172q0 100 -75 175t-177 75zM322 1254
q-91 -76 -89 -189q2 -119 89 -192v381zM506 1181h-63v-77h63q23 0 35 11t12 27q0 17 -12 28t-35 11zM564 830l-86 155h-35v-155h-49q45 -17 93 -17q47 -1 92 17h-15z" />
    <glyph glyph-name="acute" unicode="&#xb4;" horiz-adv-x="917" 
d="M366 1236h-180l141 311h228z" />
    <glyph glyph-name="cedilla" unicode="&#xb8;" horiz-adv-x="794" 
d="M364 -474h-158v156h141q32 0 48.5 15t16.5 37q0 41 -48 49q-17 3 -52 3q-39 -2 -74 -3l70 275h161l-35 -134q58 -15 98 -57q53 -56 53 -136q0 -92 -62.5 -148.5t-158.5 -56.5z" />
    <glyph glyph-name="guillemotright" unicode="&#xbb;" horiz-adv-x="1224" 
d="M347 120h-286l360 427l-360 427h286l340 -401v-52zM805 120h-286l359 427l-359 427h286l340 -401v-52z" />
    <glyph glyph-name="circumflex" unicode="&#x2c6;" 
d="M802 1236l-155 149l-154 -149h-229l276 311h213l277 -311h-228z" />
    <glyph glyph-name="ring" unicode="&#x2da;" horiz-adv-x="839" 
d="M420 1208q-100 0 -167 62t-67 158q0 97 66.5 158.5t167.5 61.5t167 -62t66 -158q0 -95 -67 -157.5t-166 -62.5zM420 1498q-35 0 -55 -19t-20 -51q0 -30 21 -49q20 -20 54 -20q35 0 55 19t20 50q0 32 -20 51t-55 19z" />
    <glyph glyph-name="tilde" unicode="&#x2dc;" 
d="M746 1250q-87 0 -151 44q-18 12 -49 39q-20 16 -32 24q-11 7 -23 11q-12 5 -21 5q-19 0 -34 -16.5t-15 -50.5v-49h-166v52q0 99 57 160.5t156 61.5q83 0 144 -42q4 -3 46 -38q29 -27 47 -35.5t39 -8.5q20 0 34 16t14 52v46h168v-49q0 -97 -58 -159.5t-156 -62.5z" />
    <glyph glyph-name="uni2000" unicode="&#x2000;" horiz-adv-x="860" 
 />
    <glyph glyph-name="uni2001" unicode="&#x2001;" horiz-adv-x="1720" 
 />
    <glyph glyph-name="uni2002" unicode="&#x2002;" horiz-adv-x="860" 
 />
    <glyph glyph-name="uni2003" unicode="&#x2003;" horiz-adv-x="1720" 
 />
    <glyph glyph-name="uni2004" unicode="&#x2004;" horiz-adv-x="573" 
 />
    <glyph glyph-name="uni2005" unicode="&#x2005;" horiz-adv-x="430" 
 />
    <glyph glyph-name="uni2006" unicode="&#x2006;" horiz-adv-x="286" 
 />
    <glyph glyph-name="uni2007" unicode="&#x2007;" horiz-adv-x="286" 
 />
    <glyph glyph-name="uni2008" unicode="&#x2008;" horiz-adv-x="215" 
 />
    <glyph glyph-name="uni2009" unicode="&#x2009;" horiz-adv-x="344" 
 />
    <glyph glyph-name="uni200A" unicode="&#x200a;" horiz-adv-x="95" 
 />
    <glyph glyph-name="uni2010" unicode="&#x2010;" horiz-adv-x="931" 
d="M141 488v168h650v-168h-650z" />
    <glyph glyph-name="uni2011" unicode="&#x2011;" horiz-adv-x="931" 
d="M141 488v168h650v-168h-650z" />
    <glyph glyph-name="figuredash" unicode="&#x2012;" horiz-adv-x="931" 
d="M141 488v168h650v-168h-650z" />
    <glyph glyph-name="endash" unicode="&#x2013;" horiz-adv-x="1310" 
d="M141 488v168h1029v-168h-1029z" />
    <glyph glyph-name="emdash" unicode="&#x2014;" horiz-adv-x="1837" 
d="M141 488v168h1554v-168h-1554z" />
    <glyph glyph-name="quoteleft" unicode="&#x2018;" horiz-adv-x="460" 
d="M123 1061v207q0 112 47.5 184t156.5 108v-151q-67 -30 -75 -94h81v-254h-210z" />
    <glyph glyph-name="quoteright" unicode="&#x2019;" horiz-adv-x="448" 
d="M139 972v152q35 15 52 37t22 56h-81v254h211v-207q0 -112 -47.5 -184t-156.5 -108z" />
    <glyph glyph-name="quotesinglbase" unicode="&#x201a;" horiz-adv-x="493" 
d="M148 -284v152q35 15 52 37t22 56h-81v254h211v-207q0 -112 -47.5 -184t-156.5 -108z" />
    <glyph glyph-name="quotedblleft" unicode="&#x201c;" horiz-adv-x="813" 
d="M123 1065v207q0 113 57.5 184t186.5 106l1 -150q-43 -15 -64.5 -37t-27.5 -56h101v-254h-254zM432 1065v207q0 112 57.5 183.5t185.5 106.5l4 -150q-45 -15 -66 -37t-27 -56h100v-254h-254z" />
    <glyph glyph-name="quotedblright" unicode="&#x201d;" horiz-adv-x="800" 
d="M142 974l-2 150q44 15 65 37t27 56h-100v254h255v-207q0 -112 -58 -183.5t-187 -106.5zM452 974l-3 150q44 15 65.5 37t27.5 56h-101v254h255v-207q0 -112 -57.5 -183.5t-186.5 -106.5z" />
    <glyph glyph-name="quotedblbase" unicode="&#x201e;" horiz-adv-x="845" 
d="M151 -281l-2 150q44 15 65 37t27 56h-100v253h255v-206q0 -113 -58 -184t-187 -106zM461 -281l-3 150q44 15 65.5 37t27.5 56h-101v253h255v-206q0 -113 -57.5 -184t-186.5 -106z" />
    <glyph glyph-name="ellipsis" unicode="&#x2026;" horiz-adv-x="1134" 
d="M139 0v218h254v-218h-254zM439 0v218h256v-218h-256zM741 0v218h254v-218h-254z" />
    <glyph glyph-name="uni202F" unicode="&#x202f;" horiz-adv-x="344" 
 />
    <glyph glyph-name="guilsinglleft" unicode="&#x2039;" horiz-adv-x="733" 
d="M399 120l-320 402v50l320 402h270l-338 -427l338 -427h-270z" />
    <glyph glyph-name="guilsinglright" unicode="&#x203a;" horiz-adv-x="733" 
d="M334 120h-271l339 427l-339 427h271l320 -402v-50z" />
    <glyph glyph-name="uni205F" unicode="&#x205f;" horiz-adv-x="430" 
 />
    <glyph glyph-name="Euro" unicode="&#x20ac;" horiz-adv-x="1327" 
d="M951 1178q-131 0 -242 -61.5t-175 -167.5h619v-212h-685q-2 -17 -2 -51q0 -41 2 -59h684v-210h-614q64 -104 173.5 -163.5t237.5 -59.5q99 0 244 55v-227q-131 -46 -264 -48q-214 -2 -394 120.5t-254 322.5h-213l2 206l165 4q-2 19 -2 59q0 32 2 51h-161v212h203
q72 204 254 328t403 122q82 0 138 -9q58 -9 149 -48v-230q-155 66 -270 66z" />
    <glyph glyph-name="trademark" unicode="&#x2122;" horiz-adv-x="1765" 
d="M1513 1434l132 -756h-186l-77 433l-217 -433h-71l-215 433l-78 -433h-186l103 583h-209v-583h-190v583h-256v173h685v-6l1 6h155l226 -457l226 457h157z" />
    <glyph glyph-name="glyph2" horiz-adv-x="682" 
 />
    <glyph glyph-name="_142" horiz-adv-x="1200" 
d="M50 1013v129h1107v-129h-1107zM1013 766q0 24 -29 47t-68 23q-35 0 -63.5 -16.5t-28.5 -37.5q0 -31 16.5 -49t68.5 -29l47 -10q43 -9 66 -15t52.5 -17t43.5 -24t25 -34t12 -48q2 -74 -64 -119.5t-172 -45.5q-120 0 -183 60t-63 138l128 -2q0 -8 4.5 -20.5t16 -29t38 -28
t62.5 -11.5q43 0 70 15t27 35q0 40 -104 63q-100 21 -164 57q-64 35 -64 111q0 73 65.5 119t166.5 46q104 0 165.5 -53.5t61.5 -124.5h-133zM196 818v-125h267v-123h-267v-179h-145v550h464v-123h-319zM502 458q0 -26 20.5 -45t48.5 -19q30 0 51 18.5t21 45.5
q0 26 -21.5 45.5t-50.5 19.5q-28 0 -48.5 -19.5t-20.5 -45.5zM47 193v129h1107v-129h-1107z" />
    </font>
</defs>
</svg>
