<?xml version="1.0" standalone="no"?>
<!DOCTYPE svg PUBLIC "-//W3C//DTD SVG 1.1//EN" "http://www.w3.org/Graphics/SVG/1.1/DTD/svg11.dtd" >
<svg xmlns="http://www.w3.org/2000/svg" xmlns:xlink="http://www.w3.org/1999/xlink" version="1.1">
<metadata>
Created by FontForge 20170731 at Thu Apr  5 15:57:01 2018
 By Aleksey,,,
Copyright (c) 2018 by Fontastica. All rights reserved.
</metadata>
<defs>
<font id="Lorin-Bold" horiz-adv-x="1228" >
  <font-face 
    font-family="Lorin Bold"
    font-weight="700"
    font-stretch="normal"
    units-per-em="2048"
    panose-1="0 0 8 0 0 0 0 0 0 0"
    ascent="1638"
    descent="-410"
    x-height="1106"
    cap-height="1434"
    bbox="-86 -474 2063 1720"
    underline-thickness="102"
    underline-position="-816"
    unicode-range="U+0020-2122"
  />
<missing-glyph horiz-adv-x="748" 
d="M68 0v1365h544v-1365h-544zM507 1255h-334v-1145h334v1145z" />
    <glyph glyph-name=".notdef" horiz-adv-x="748" 
d="M68 0v1365h544v-1365h-544zM507 1255h-334v-1145h334v1145z" />
    <glyph glyph-name=".null" horiz-adv-x="0" 
 />
    <glyph glyph-name="nonmarkingreturn" horiz-adv-x="682" 
 />
    <glyph glyph-name="space" unicode=" " horiz-adv-x="536" 
 />
    <glyph glyph-name="exclam" unicode="!" horiz-adv-x="567" 
d="M187 381v1094h195v-1094h-195zM185 0v255h200v-255h-200z" />
    <glyph glyph-name="quotedbl" unicode="&#x22;" horiz-adv-x="765" 
d="M143 937v501h191v-501h-191zM431 937v501h191v-501h-191z" />
    <glyph glyph-name="numbersign" unicode="#" horiz-adv-x="1314" 
d="M1043 862l-39 -268h178v-191h-208l-60 -401h-199l58 401h-324l-64 -401h-199l63 401h-160v191h191l42 268h-188v186h218l59 386h199l-57 -386h317l59 386h199l-58 -386h157v-186h-184zM523 862l-42 -268h323l38 268h-319z" />
    <glyph glyph-name="dollar" unicode="$" horiz-adv-x="1155" 
d="M665 -16v-165h-177v164q-195 23 -301.5 147t-106.5 331h212q0 -222 196 -264l-1 427q-67 16 -82 20q-40 13 -91 35q-75 34 -111 69q-39 39 -68 105q-30 67 -30 151q0 161 102 265t276 126v154h188v-156q173 -25 270 -143t97 -307h-208q0 185 -158 237l-1 -382l13 -2
q78 -14 143 -43q90 -40 125 -71q64 -57 90 -114q33 -78 33 -168q0 -166 -114 -279t-296 -137zM486 1185q-81 -18 -126 -64.5t-45 -110.5q0 -34 18 -71q6 -13 50 -49q16 -11 78 -35l25 -11v341zM841 481q-31 41 -64 56q-25 13 -48 22q-24 9 -62 20v-381q86 21 141 76.5
t55 123.5q0 55 -22 83z" />
    <glyph glyph-name="percent" unicode="%" horiz-adv-x="1656" 
d="M406 796q-149 0 -245.5 95.5t-96.5 242.5q0 145 96.5 240t245.5 95q147 0 243 -95t96 -240q0 -147 -96 -242.5t-243 -95.5zM494 -8h-230l871 1445h230zM406 1288q-68 0 -112 -43.5t-44 -110.5q0 -70 44 -113q45 -45 112 -45t110.5 44.5t43.5 113.5q0 68 -43 111t-111 43z
M1253 -11q-148 2 -243.5 95t-95.5 238t95.5 239t243.5 95q145 1 242 -94.5t97 -239.5t-97 -239t-242 -94zM1253 476q-66 0 -109.5 -43.5t-43.5 -110.5t43 -109q43 -43 110 -43t110 42.5t43 109.5t-43 110.5t-110 43.5z" />
    <glyph glyph-name="ampersand" unicode="&#x26;" horiz-adv-x="1275" 
d="M1047 -1l-108 117q-161 -136 -408 -138q-194 -2 -317.5 108t-122.5 284q2 156 91 260q70 83 178 154q-80 108 -110 181q-36 84 -36 171q0 146 102 233t269 87q160 0 262.5 -86t102.5 -225q0 -115 -69 -213q-52 -73 -165 -148q-20 -13 -76 -48q102 -126 285 -330
q21 39 33 69q11 27 27 104l182 -44q-31 -123 -49 -162q-21 -50 -58 -117l236 -257h-249zM585 1279q-81 0 -129.5 -40.5t-48.5 -102.5q0 -83 119 -252q40 24 67 42q24 14 63 45q64 49 89 109q12 32 12 65q0 58 -47 96t-125 38zM476 636q-97 -65 -139.5 -125.5t-42.5 -135.5
q0 -88 68.5 -144.5t182.5 -56.5q147 0 261 88q-213 233 -330 374z" />
    <glyph glyph-name="quotesingle" unicode="'" horiz-adv-x="448" 
d="M143 937v501h163v-501h-163z" />
    <glyph glyph-name="parenleft" unicode="(" horiz-adv-x="616" 
d="M377 -273q-135 207 -206 447q-69 242 -69 499q0 524 275 949h230q-154 -222 -230 -460q-76 -237 -76 -489q0 -254 76 -492q76 -237 230 -454h-230z" />
    <glyph glyph-name="parenright" unicode=")" horiz-adv-x="616" 
d="M446 174q-71 -240 -206 -447h-230q151 209 229 453q77 242 77 493q0 253 -76 490q-75 237 -229 459h229q275 -425 275 -949q0 -257 -69 -499z" />
    <glyph glyph-name="asterisk" unicode="*" horiz-adv-x="815" 
d="M543 1092l127 -162l-128 -107l-135 175l-134 -175l-131 107l129 162l-191 64l55 158l188 -65v199h169v-199l188 65l57 -158z" />
    <glyph glyph-name="plus" unicode="+" horiz-adv-x="1075" 
d="M642 605v-384h-206v384h-368v197h368v373h206v-373h366v-197h-366z" />
    <glyph glyph-name="comma" unicode="," horiz-adv-x="493" 
d="M149 -279v131q80 31 87 124h-95v239h211v-204q0 -113 -48.5 -185t-154.5 -105z" />
    <glyph glyph-name="hyphen" unicode="-" horiz-adv-x="931" 
d="M141 488v168h650v-168h-650z" />
    <glyph glyph-name="period" unicode="." horiz-adv-x="479" 
d="M139 0v218h200v-218h-200z" />
    <glyph glyph-name="slash" unicode="/" horiz-adv-x="888" 
d="M263 -140h-219l581 1699h217z" />
    <glyph glyph-name="zero" unicode="0" horiz-adv-x="1273" 
d="M638 -24q-242 0 -385 194t-143 512q0 319 142.5 511t385.5 193q160 0 279.5 -87.5t182.5 -246.5t63 -370q0 -318 -142.5 -512t-382.5 -194zM638 1186q-148 0 -234.5 -131.5t-86.5 -372.5t86.5 -373.5t234.5 -132.5q145 0 231.5 133t86.5 373q0 239 -86.5 371.5
t-231.5 132.5z" />
    <glyph glyph-name="one" unicode="1" horiz-adv-x="677" 
d="M289 0v1100l-236 -84v197l434 158v-1371h-198z" />
    <glyph glyph-name="two" unicode="2" horiz-adv-x="1075" 
d="M111 0v187q154 164 333 332q85 81 116 114q38 37 69 84q69 98 87 146.5t19 120.5q1 90 -56.5 146t-151.5 56q-98 0 -158 -56.5t-60 -147.5v-54h-203v54q0 179 118 291.5t303 112.5q179 0 296.5 -114.5t116.5 -288.5q-2 -85 -19 -144q-20 -65 -73 -154q-30 -52 -87 -115
q-42 -46 -155 -163l-94 -98q-36 -37 -102 -109h580v-200h-879z" />
    <glyph glyph-name="three" unicode="3" horiz-adv-x="1093" 
d="M536 -24q-187 0 -314.5 125.5t-134.5 327.5h202q7 -119 74.5 -186t172.5 -67q109 0 180 73t72 185q1 108 -77 182t-195 74h-86v165l191 313h-491v194h814v-66l-293 -438q152 -30 247.5 -150.5t95.5 -279.5q0 -126 -60.5 -230t-166 -163t-231.5 -59z" />
    <glyph glyph-name="four" unicode="4" horiz-adv-x="1103" 
d="M910 279v-279h-201v279h-667v64l466 1020h216l-408 -896h395v254h199v-254h137v-188h-137z" />
    <glyph glyph-name="five" unicode="5" horiz-adv-x="1075" 
d="M537 -24q-190 1 -319.5 128t-132.5 325h201q6 -117 75.5 -185t175.5 -68q107 0 176.5 71t71.5 181q1 107 -77.5 182.5t-190.5 75.5h-376l70 676h690v-194h-518l-31 -291h171q197 0 332 -130t135 -319q0 -126 -60.5 -230t-164.5 -163t-228 -59z" />
    <glyph glyph-name="six" unicode="6" horiz-adv-x="1136" 
d="M587 -24q-211 0 -351 133.5t-138 337.5q2 190 145 449l267 479h238q-155 -282 -259 -486q25 6 33 7q35 5 87 5q124 0 229.5 -56t170.5 -159q63 -102 65 -239q2 -202 -138 -336.5t-349 -134.5zM586 718q-121 1 -202.5 -78t-79.5 -193q2 -119 79 -194q80 -75 203 -77
q121 -1 201.5 77t79.5 193q-1 118 -79.5 194.5t-201.5 77.5z" />
    <glyph glyph-name="seven" unicode="7" horiz-adv-x="1019" 
d="M742 722l146 -1v-199l-224 2l-208 -524h-218l208 521l-208 2v198h288l178 447h-651v194h921v-55z" />
    <glyph glyph-name="eight" unicode="8" horiz-adv-x="1177" 
d="M588 -24q-212 0 -348 119t-134 308q2 107 60 199q49 77 126 129q-53 44 -92 111q-47 81 -47 169q-2 164 122 269.5t313 105.5t312.5 -104.5t121.5 -270.5q0 -89 -45 -171q-38 -68 -86 -109q72 -49 122 -127q57 -89 59 -201q2 -185 -137 -306t-347 -121zM588 1203
q-106 0 -169.5 -54t-63.5 -138q0 -86 63.5 -140.5t169.5 -54.5q104 0 167.5 55t63.5 140q0 84 -63.5 138t-167.5 54zM588 633q-123 0 -199.5 -66t-76.5 -170q0 -102 76 -167t200 -65q125 0 201.5 65t76.5 167q0 104 -76 170t-202 66z" />
    <glyph glyph-name="nine" unicode="9" horiz-adv-x="1130" 
d="M891 479l-267 -479h-238q153 275 259 485q-25 -6 -33 -7q-28 -4 -87 -4q-125 0 -230.5 56t-169.5 159q-63 105 -65 239q-2 202 138 336.5t349 134.5q211 0 351 -133.5t138 -337.5q-2 -190 -145 -449zM751 1122q-80 75 -203 77q-121 1 -201.5 -77t-79.5 -193
q1 -118 79.5 -194.5t201.5 -77.5q121 -1 202.5 77.5t79.5 193.5q-2 119 -79 194z" />
    <glyph glyph-name="colon" unicode=":" horiz-adv-x="485" 
d="M143 741v252h200v-252h-200zM143 0v252h200v-252h-200z" />
    <glyph glyph-name="semicolon" unicode=";" horiz-adv-x="503" 
d="M151 741v254h201v-254h-201zM154 -279v138q80 33 87 132h-95v251h211v-215q0 -120 -48.5 -195.5t-154.5 -110.5z" />
    <glyph glyph-name="less" unicode="&#x3c;" horiz-adv-x="1087" 
d="M56 666v55l880 571v-239l-555 -356l555 -352v-239z" />
    <glyph glyph-name="equal" unicode="=" horiz-adv-x="1275" 
d="M147 811v192h983v-192h-983zM147 392v192h983v-192h-983z" />
    <glyph glyph-name="greater" unicode="&#x3e;" horiz-adv-x="1087" 
d="M150 106v239l556 352l-556 356v239l881 -571v-55z" />
    <glyph glyph-name="question" unicode="?" horiz-adv-x="1054" 
d="M915 878q-30 -65 -105 -133q-12 -12 -60 -52l-16 -13q-48 -42 -73 -70q-23 -25 -34 -45q-13 -23 -20 -53q-10 -37 -10 -65v-65h-209v66q0 99 34 170q22 46 33 63q13 20 44 53q40 41 93 84q48 39 64 54q28 28 48 54q49 61 49 155q0 104 -67 168.5t-175 64.5
q-103 0 -175 -73t-78 -187h-199q5 142 69.5 253.5t166.5 160.5q101 48 216 48q126 0 226.5 -52t160.5 -151q60 -101 60 -232q0 -114 -43 -203zM376 0v256h234v-256h-234z" />
    <glyph glyph-name="at" unicode="@" horiz-adv-x="2072" 
d="M1608 50q-83 2 -150.5 39t-105.5 103q-62 -79 -154 -121.5t-199 -43.5q-199 -2 -335 136t-136 340q0 201 136 339t335 137q172 -3 284 -124v79h192v-549q0 -73 38.5 -117t99.5 -44q77 0 128 80t51 214q0 206 -94 364q-98 162 -267 249q-170 88 -396 88q-223 0 -397 -90
q-172 -87 -269 -253q-95 -162 -96 -372q-2 -202 90 -363t259 -250.5t377 -87.5q105 1 195 25t185 79v-187q-188 -94 -397 -94q-257 0 -461 111q-201 108 -316 312q-113 200 -113 455q0 193 68 359t194 285q124 118 300 182t377 64q271 0 488 -110q214 -109 335 -310
q116 -198 118 -456q2 -201 -101.5 -335.5t-262.5 -132.5zM1010 792q-121 0 -203.5 -83.5t-82.5 -204.5q0 -122 82.5 -205.5t203.5 -83.5t203 83t82 206q0 124 -81.5 206t-203.5 82z" />
    <glyph glyph-name="A" unicode="A" horiz-adv-x="1427" 
d="M1166 0l-137 363h-637l-135 -363h-233l585 1434h192l602 -1434h-237zM708 1147l-233 -581h471z" />
    <glyph glyph-name="B" unicode="B" horiz-adv-x="1320" 
d="M767 0h-571v1434h563q172 0 291 -109.5t118 -268.5q-2 -101 -56 -191q-46 -73 -108 -119q89 -51 144 -142.5t56 -198.5q1 -169 -127.5 -287t-309.5 -118zM755 1219h-345v-372h346q81 0 137 54.5t56 131.5q0 78 -55.5 132t-138.5 54zM765 632h-355v-416h355q94 0 156 60
t62 148q0 89 -62 148.5t-156 59.5z" />
    <glyph glyph-name="C" unicode="C" horiz-adv-x="1589" 
d="M832 -22q-209 0 -376 94q-169 95 -263 265q-95 170 -95 380t94 379q95 171 263 266q167 94 377 94q255 0 438 -130.5t249 -376.5h-221q-105 289 -466 292q-144 1 -261.5 -66.5t-184 -188t-66.5 -269.5t66.5 -269.5t184 -188t261.5 -66.5q177 2 298 80.5t174 235.5h221
q-64 -257 -248.5 -394t-444.5 -137z" />
    <glyph glyph-name="D" unicode="D" horiz-adv-x="1501" 
d="M1309 349q-91 -165 -259 -257q-166 -92 -371 -92h-483v1434h483q204 0 370 -92q168 -92 260 -256q92 -166 92 -369q0 -202 -92 -368zM1115 980q-66 117 -178 181q-116 65 -264 65l-251 2v-1019l251 -2q217 -1 363 145.5t144 364.5q-2 149 -65 263z" />
    <glyph glyph-name="E" unicode="E" horiz-adv-x="1132" 
d="M409 1224v-385h622v-205h-622v-423h623v-211h-836v1434h838v-210h-625z" />
    <glyph glyph-name="F" unicode="F" horiz-adv-x="1071" 
d="M409 604v-604h-213v1434h805v-210h-592v-414h592v-206h-592z" />
    <glyph glyph-name="G" unicode="G" horiz-adv-x="1634" 
d="M1337 183q-96 -99 -228.5 -153t-282.5 -54q-207 0 -374 95q-166 96 -260 267q-94 169 -94 379t93 377q93 171 260 267q165 93 371 95q172 1 319 -57t250 -175.5t134 -277.5h-222q-44 152 -171 223q-126 71 -306 72q-217 3 -361.5 -147t-144.5 -377q0 -231 142 -379
t364 -147q174 0 305 92t172 241l-499 -1v210l739 1q-6 -346 -206 -551z" />
    <glyph glyph-name="H" unicode="H" horiz-adv-x="1492" 
d="M1081 0v631h-669v-631h-216v1434h216v-591h669v591h216v-1434h-216z" />
    <glyph glyph-name="I" unicode="I" horiz-adv-x="571" 
d="M180 0v1434h211v-1434h-211z" />
    <glyph glyph-name="J" unicode="J" horiz-adv-x="1222" 
d="M553 -24q-213 0 -354.5 136.5t-141.5 349.5v50h213v-43q0 -127 78.5 -202t204.5 -76q116 -2 196 84.5t80 214.5v944h214v-952q0 -215 -140.5 -360.5t-349.5 -145.5z" />
    <glyph glyph-name="K" unicode="K" horiz-adv-x="1300" 
d="M1050 0l-638 608v-608h-216v1434h216v-562l594 562h283l-724 -691l769 -743h-284z" />
    <glyph glyph-name="L" unicode="L" horiz-adv-x="1048" 
d="M196 0v1434h213v-1227h596v-207h-809z" />
    <glyph glyph-name="M" unicode="M" horiz-adv-x="1959" 
d="M1649 0l-173 1032l-458 -1032h-76l-459 1031l-174 -1031h-223l242 1434h203l447 -1002l450 1002h206l238 -1434h-223z" />
    <glyph glyph-name="N" unicode="N" horiz-adv-x="1533" 
d="M1161 0l-752 1039v-1039h-213v1434h189l741 -1026v1026h213v-1434h-178z" />
    <glyph glyph-name="O" unicode="O" horiz-adv-x="1697" 
d="M1502 338q-98 -170 -269 -265q-172 -97 -385 -97q-216 0 -384 96q-170 94 -269 267q-97 170 -97 378q0 209 96 378q98 171 270 267q171 96 384 96q212 0 384 -96q173 -95 271 -266q96 -169 96 -379q0 -209 -97 -379zM1308 986q-68 122 -188 189q-120 68 -272 68
q-150 0 -271 -69q-117 -65 -188 -188q-68 -118 -68 -269q0 -150 68 -268q68 -121 188 -189q121 -69 271 -69q152 0 272 68q117 66 188 189q68 118 68 269t-68 269z" />
    <glyph glyph-name="P" unicode="P" horiz-adv-x="1249" 
d="M709 499h-298v-499h-215v1434h513q200 0 338 -135.5t139 -332.5q0 -197 -138 -332t-339 -135zM700 1221h-289v-509h289q116 0 191 72.5t76 181.5q0 108 -76 181.5t-191 73.5z" />
    <glyph glyph-name="Q" unicode="Q" horiz-adv-x="1697" 
d="M1363 163l147 -166l-162 -126l-157 178q-160 -76 -343 -76q-213 0 -384 96q-170 96 -269 268q-97 170 -97 379t96 378q98 172 270 268q171 96 384 96q212 0 384 -96q173 -96 271 -267q96 -169 96 -379q0 -164 -61 -307t-175 -246zM1308 985q-68 122 -188 190
q-122 68 -272 68q-147 0 -271 -69q-119 -68 -188 -189q-68 -118 -68 -269q0 -150 68 -268q67 -121 188 -191q121 -69 271 -69q100 0 194 33l-275 325l163 126l290 -341q156 151 156 385q0 151 -68 269z" />
    <glyph glyph-name="R" unicode="R" horiz-adv-x="1318" 
d="M988 0l-298 544h-279v-544h-215v1434h542q199 0 335 -128.5t134 -319.5q-1 -144 -79.5 -254.5t-212.5 -157.5l334 -574h-261zM729 1224h-318v-471h318q116 0 187.5 66t71.5 169q0 104 -72 170t-187 66z" />
    <glyph glyph-name="S" unicode="S" horiz-adv-x="1222" 
d="M878 31q-108 -47 -255 -49q-154 -1 -275.5 60.5t-189.5 177t-66 265.5h219q-2 -129 85 -209.5t224 -78.5q127 1 207 62t80 155q0 43 -20 83q-10 21 -54 54q-13 10 -47 25l-38 16q-11 4 -52 15l-54 15l-59 14q-143 35 -231 68q-196 77 -227 270q-5 30 -5 69
q0 189 133.5 298.5t355.5 110.5q219 1 352.5 -126.5t130.5 -340.5h-213q0 117 -75.5 186.5t-198.5 69.5q-122 0 -195.5 -53.5t-73.5 -136.5q0 -52 30 -92q22 -29 85 -60q19 -10 58 -22q29 -11 69 -20q218 -55 307 -88q200 -76 236 -267q8 -48 8 -86q0 -131 -67 -232
t-184 -153z" />
    <glyph glyph-name="T" unicode="T" horiz-adv-x="1138" 
d="M677 1226v-1226h-216v1226h-418v208h1052v-208h-418z" />
    <glyph glyph-name="U" unicode="U" horiz-adv-x="1482" 
d="M1232 249q-73 -132 -202 -201q-128 -70 -287 -72q-157 -2 -287 71.5t-203.5 203.5t-73.5 288v895h219v-882q0 -159 97 -260t248 -101q149 0 246 101t97 260v882h219v-895q0 -162 -73 -290z" />
    <glyph glyph-name="V" unicode="V" horiz-adv-x="1396" 
d="M795 0h-190l-579 1434h240l434 -1091l426 1091h237z" />
    <glyph glyph-name="W" unicode="W" horiz-adv-x="2103" 
d="M1607 0h-187l-370 982l-361 -982h-186l-466 1434h233l335 -1058l392 1053h101l406 -1054l327 1059h232z" />
    <glyph glyph-name="X" unicode="X" 
d="M985 0l-370 569l-367 -569h-250l485 750l-448 684h248l333 -512l331 512h247l-445 -690l484 -744h-248z" />
    <glyph glyph-name="Y" unicode="Y" horiz-adv-x="1347" 
d="M785 570v-570h-223v570l-523 864h240l395 -652l397 652h241z" />
    <glyph glyph-name="Z" unicode="Z" horiz-adv-x="1153" 
d="M413 207h686v-207h-1078l725 1226h-663v208h1032z" />
    <glyph glyph-name="bracketleft" unicode="[" horiz-adv-x="686" 
d="M196 -283v1904h436v-189h-248v-1523h252v-192h-440z" />
    <glyph glyph-name="backslash" unicode="\" horiz-adv-x="888" 
d="M625 -140l-579 1699h218l581 -1699h-220z" />
    <glyph glyph-name="bracketright" unicode="]" horiz-adv-x="686" 
d="M49 -283v192h252v1523h-248v189h437v-1904h-441z" />
    <glyph glyph-name="asciicircum" unicode="^" horiz-adv-x="1091" 
d="M802 694l-256 409l-257 -409h-240l472 744h53l468 -744h-240z" />
    <glyph glyph-name="underscore" unicode="_" horiz-adv-x="1056" 
d="M0 -266v167h1057v-167h-1057z" />
    <glyph glyph-name="grave" unicode="`" 
d="M395 1236l-188 311h212l139 -311h-163z" />
    <glyph glyph-name="a" unicode="a" horiz-adv-x="1431" 
d="M1033 -1v128q-154 -151 -373 -151q-160 0 -292 75q-129 74 -205 208q-73 131 -75 294q-2 119 42.5 227t121.5 185t184 121.5t225 43.5q228 -3 381 -153v130h215v-1108h-224zM673 925q-157 0 -264.5 -108t-105.5 -264q2 -160 105 -266q103 -103 265 -106q155 -2 262 106
t107 266q0 157 -107 264.5t-262 107.5z" />
    <glyph glyph-name="b" unicode="b" horiz-adv-x="1417" 
d="M759 -24q-219 2 -372 144v-121h-212v1502h212v-492q157 132 372 132q161 0 293 -76q133 -76 205 -209q70 -128 72 -297q2 -162 -72.5 -296.5t-206.5 -211t-291 -75.5zM746 934q-156 0 -264 -109t-106 -266q1 -160 106 -268q104 -107 264 -108q155 -1 262 107.5t107 267.5
t-106.5 267.5t-262.5 108.5z" />
    <glyph glyph-name="c" unicode="c" horiz-adv-x="1269" 
d="M662 -24q-160 0 -292 75t-207 208t-75 294q0 160 74 294q75 133 208 208q132 75 292 75q200 0 344.5 -107t200.5 -305h-208q-28 62 -74.5 107t-100 68.5t-114 29.5t-118 -6t-110 -42.5t-92 -75t-63.5 -108.5t-24 -138q-1 -155 104.5 -264t254.5 -108q239 3 335 211h212
q-56 -200 -202 -308t-345 -108z" />
    <glyph glyph-name="d" unicode="d" horiz-adv-x="1417" 
d="M1035 -1v121q-153 -141 -377 -144q-159 -1 -291 75.5t-206.5 211t-72.5 296.5q2 167 72 296q72 133 204 210q131 76 294 76q216 0 373 -132v492h211v-1502h-207zM672 934q-156 0 -263 -108t-106 -267q1 -162 105 -269q104 -106 264 -107q156 -1 263 108t107 267t-107 267
t-263 109z" />
    <glyph glyph-name="e" unicode="e" horiz-adv-x="1294" 
d="M1204 467h-900q24 -129 119 -206.5t229 -77.5q108 0 179.5 38t121.5 125h222q-80 -190 -209.5 -280t-313.5 -90q-158 0 -287 75q-130 76 -203 208q-74 134 -74 294q0 162 73 293q74 134 204 209q129 75 287 75q160 0 290 -77q131 -79 199 -212q68 -132 68 -293
q0 -31 -5 -81zM652 928q-128 0 -220 -71t-123 -192h684q-31 121 -122.5 192t-218.5 71z" />
    <glyph glyph-name="f" unicode="f" horiz-adv-x="792" 
d="M448 925v-925h-206v925h-190v186h190v65q0 184 87.5 274.5t267.5 90.5h168v-181h-139q-102 0 -142.5 -41.5t-40.5 -146.5v-61h324v-186h-319z" />
    <glyph glyph-name="g" unicode="g" horiz-adv-x="1380" 
d="M662 -419q-214 2 -355 83q-75 43 -123 111t-75 174h210q18 -51 47 -82.5t74 -49.5q93 -38 222 -38q154 0 245 96.5t91 262.5v15q-153 -131 -365 -131q-150 0 -277 73q-122 71 -196 201q-72 129 -72 280q0 152 71 280q68 125 197 201q125 73 277 73q213 0 362 -155v132
h210v-946q0 -266 -146.5 -423.5t-396.5 -156.5zM651 924q-148 0 -249 -100.5t-99 -247.5q1 -150 99 -248q99 -99 249 -100q147 -1 246 99t99 249q0 148 -99 248t-246 100z" />
    <glyph glyph-name="h" unicode="h" horiz-adv-x="1314" 
d="M946 0v625q0 155 -67.5 235.5t-195.5 82.5q-122 1 -209.5 -97.5t-87.5 -238.5v-607h-211v1501h211v-481q124 119 340 121q195 1 312.5 -130.5t117.5 -345.5v-665h-210z" />
    <glyph glyph-name="i" unicode="i" horiz-adv-x="524" 
d="M164 1257v240h201v-240h-201zM164 0v1136h201v-1136h-201z" />
    <glyph glyph-name="j" unicode="j" horiz-adv-x="548" 
d="M170 1257v240h213v-240h-213zM18 -395h-104v199h81q87 0 133 50t46 145v1134h201v-1147q0 -170 -98.5 -275.5t-258.5 -105.5z" />
    <glyph glyph-name="k" unicode="k" horiz-adv-x="1132" 
d="M885 0l-482 453v-453h-209v1501h209v-792l449 409h266l-575 -537l614 -581h-272z" />
    <glyph glyph-name="l" unicode="l" horiz-adv-x="524" 
d="M161 0v1502h201v-1502h-201z" />
    <glyph glyph-name="m" unicode="m" horiz-adv-x="1945" 
d="M1574 0l-1 650q-1 137 -59.5 209.5t-162.5 73.5q-105 2 -184.5 -92.5t-79.5 -229.5v-611h-210v650q0 137 -58.5 209.5t-164.5 73.5q-106 2 -185.5 -92.5t-79.5 -229.5v-611h-214v1107h214v-109q127 132 303 132q205 0 307 -181q66 86 158.5 133t198.5 48
q177 2 303.5 -122t126.5 -306v-702h-212z" />
    <glyph glyph-name="n" unicode="n" horiz-adv-x="1314" 
d="M946 0v619q0 154 -67.5 233.5t-195.5 80.5q-122 2 -209.5 -95t-87.5 -236v-602h-211v1107h194v-124q126 146 330 147q192 2 324.5 -134.5t132.5 -337.5v-658h-210z" />
    <glyph glyph-name="o" unicode="o" horiz-adv-x="1349" 
d="M1185 258q-76 -133 -212 -207q-132 -73 -299 -75q-161 -2 -296.5 74t-213.5 210t-76 293q2 168 75 296q77 132 213 207q134 74 298 74t298 -75q137 -74 213 -206q76 -133 76 -296q0 -162 -76 -295zM674 933q-160 0 -272 -111t-110 -269q2 -154 115 -266
q117 -117 267 -119q158 -2 271 112t113 273q0 158 -112.5 269t-271.5 111z" />
    <glyph glyph-name="p" unicode="p" horiz-adv-x="1419" 
d="M762 -35q-219 3 -375 138v-513h-212v1517h212v-131q155 154 376 154q159 0 291 -76t205 -208q70 -128 72 -298q1 -121 -42.5 -229.5t-119 -186.5t-182 -123t-225.5 -44zM750 923q-156 0 -264 -109t-107 -266q3 -164 107 -269q103 -105 264 -107q156 -1 262 107.5
t106 267.5q0 160 -106 268t-262 108z" />
    <glyph glyph-name="q" unicode="q" horiz-adv-x="1419" 
d="M1033 -410v512q-155 -137 -376 -137q-118 0 -224.5 43.5t-183.5 123.5q-76 79 -118.5 187t-42.5 228q0 167 73 298q74 134 204 209q131 76 292 76q224 0 383 -154v131h204v-1517h-211zM670 923q-156 0 -263 -108t-106 -267q1 -162 105 -269q104 -105 264 -107
q156 -1 263 108t107 267t-107 267t-263 109z" />
    <glyph glyph-name="r" unicode="r" horiz-adv-x="810" 
d="M653 910q-130 0 -201.5 -81t-71.5 -230v-599h-205v1106l208 1v-119q54 64 122 94t162 30h112v-202h-126z" />
    <glyph glyph-name="s" unicode="s" horiz-adv-x="1050" 
d="M525 -24q-193 0 -314 109t-128 295h205q6 -96 71 -150.5t172 -54.5q104 0 164.5 40t60.5 103q0 52 -32 79q-39 33 -90 45q-51 14 -133 28q-65 11 -109 21q-55 14 -106 33q-28 10 -46 21q-1 1 -46 35q-35 27 -66 89q-25 51 -25 131q0 149 117.5 239.5t300.5 90.5
q184 0 299 -104.5t120 -280.5h-200q-5 92 -63 142t-160 50q-100 0 -155 -36.5t-55 -94.5q0 -47 28 -68q42 -31 88 -42q7 -1 28.5 -6t30.5 -7l68 -11q127 -21 211 -47q184 -60 200 -261q2 -34 2 -38q0 -160 -121.5 -255t-316.5 -95z" />
    <glyph glyph-name="t" unicode="t" horiz-adv-x="841" 
d="M638 0q-178 0 -285.5 107.5t-107.5 288.5v491h-183v196h183v258l207 -1v-257h326v-196h-326v-486q0 -97 54 -149t154 -52h118v-200h-140z" />
    <glyph glyph-name="u" unicode="u" horiz-adv-x="1294" 
d="M647 -24q-219 0 -354.5 136.5t-135.5 357.5v636h210v-609q0 -149 75.5 -237t203.5 -88q129 0 205 88t76 237v609h210v-636q0 -221 -135 -357.5t-355 -136.5z" />
    <glyph glyph-name="v" unicode="v" horiz-adv-x="1171" 
d="M679 0h-180l-480 1106h223l346 -823l339 823h218z" />
    <glyph glyph-name="w" unicode="w" horiz-adv-x="1738" 
d="M1327 0h-169l-289 704l-290 -704h-168l-379 1106h224l254 -743l314 738h91l314 -745l262 750h218z" />
    <glyph glyph-name="x" unicode="x" horiz-adv-x="1050" 
d="M818 0l-293 426l-293 -426h-236l403 574l-372 532h241l259 -376l264 376h237l-376 -524l406 -582h-240z" />
    <glyph glyph-name="y" unicode="y" horiz-adv-x="1200" 
d="M487 -410h-222l252 577l-501 939h233l375 -718l331 718h226z" />
    <glyph glyph-name="z" unicode="z" horiz-adv-x="985" 
d="M403 200h516v-200h-885l558 908h-504v198h860z" />
    <glyph glyph-name="braceleft" unicode="{" horiz-adv-x="710" 
d="M471 -275q-108 0 -187 82.5t-79 196.5v478q0 38 -25 64.5t-61 26.5h-50v186h50q36 0 61 26.5t25 65.5v477q0 112 79.5 194.5t186.5 82.5h185v-194h-130q-51 0 -85 -35q-33 -36 -33 -90v-427q0 -58 -24.5 -109.5t-66.5 -83.5q33 -27 56 -64q35 -59 35 -128v-430
q0 -52 34.5 -89t83.5 -36l133 1v-195h-188z" />
    <glyph glyph-name="bar" unicode="|" horiz-adv-x="555" 
d="M184 -389v2109h187v-2109h-187z" />
    <glyph glyph-name="braceright" unicode="}" horiz-adv-x="710" 
d="M592 573q-36 0 -61 -26.5t-25 -64.5v-478q0 -114 -79 -196.5t-187 -82.5h-188v194h133q50 0 84 36.5t34 88.5v430q0 69 35 128q23 37 56 64q-42 32 -66.5 83.5t-24.5 109.5v427q0 54 -34 89.5t-84 35.5h-130v194h185q107 0 186.5 -82.5t79.5 -194.5v-477q0 -39 25 -65.5
t61 -26.5h50v-186h-50z" />
    <glyph glyph-name="asciitilde" unicode="~" horiz-adv-x="1183" 
d="M788 484q-69 0 -129 27q-62 28 -131 88q-53 46 -69 55q-24 12 -46 12q-46 0 -75.5 -35t-29.5 -96v-46h-163v52q0 134 72 217.5t194 83.5q71 0 133 -28q59 -27 124 -90q43 -40 67.5 -53t50.5 -13q46 0 74 33t28 93v48h163v-49q0 -136 -70.5 -217.5t-192.5 -81.5z" />
    <glyph glyph-name="uni00A0" unicode="&#xa0;" horiz-adv-x="536" 
 />
    <glyph glyph-name="cent" unicode="&#xa2;" horiz-adv-x="1222" 
d="M730 -20v-161h-179v160q-196 28 -326.5 185t-130.5 364q0 209 130 365t327 183v171h179v-171q155 -23 269 -129.5t160 -275.5h-203q-72 161 -229 200v-686q157 39 231 207l202 -5q-48 -170 -161.5 -277t-268.5 -130zM299 528q0 -122 71 -218t180 -124l3 685
q-111 -27 -182.5 -122t-71.5 -221z" />
    <glyph glyph-name="sterling" unicode="&#xa3;" horiz-adv-x="1220" 
d="M95 0v159l137 22v382h-117v185h117v230q0 182 123 302t307 121q179 1 296.5 -117t117.5 -297v-41h-192v32q0 95 -64 159t-158 64q-98 0 -161.5 -66t-63.5 -167v-220h356v-185h-356v-376h497v236h192v-423h-1031z" />
    <glyph glyph-name="yen" unicode="&#xa5;" horiz-adv-x="1304" 
d="M757 605v-18h377v-154h-377v-85h377v-153h-377v-195h-210v195h-378v153h378v85h-378v154h378v16l-501 759h226l378 -577l383 577h228z" />
    <glyph glyph-name="dieresis" unicode="&#xa8;" 
d="M203 1297v200h228v-200h-228zM579 1297v200h227v-200h-227z" />
    <glyph glyph-name="copyright" unicode="&#xa9;" horiz-adv-x="1718" 
d="M1522 334q-97 -167 -273 -262q-172 -94 -392 -94t-390 93q-171 93 -270 263q-97 170 -97 381t96 381q97 168 271 263q172 93 390 93t391 -94q177 -94 274 -262q97 -170 97 -381t-97 -381zM1386 1018q-79 136 -215 208q-138 74 -314 74q-177 0 -313 -74
q-134 -72 -213 -207q-76 -131 -76 -304t76 -304q79 -135 213 -207q138 -75 313 -75q129 0 241.5 42.5t193.5 120.5t125.5 188t44.5 235q0 172 -76 303zM863 336q-110 0 -199.5 50t-139.5 140q-49 89 -49 201q0 110 49.5 198.5t139.5 140.5q86 49 199 49q131 0 229 -66
q50 -34 83.5 -84.5t54.5 -129.5h-136q-54 149 -231 149q-110 0 -181.5 -72.5t-71.5 -184.5q0 -114 71 -187t182 -73q178 0 236 163h134q-36 -145 -133.5 -219.5t-236.5 -74.5z" />
    <glyph glyph-name="guillemotleft" unicode="&#xab;" horiz-adv-x="1224" 
d="M420 120l-341 406v42l341 406h254l-355 -427l355 -427h-254zM891 120l-341 406v42l341 406h254l-356 -427l356 -427h-254z" />
    <glyph glyph-name="uni00AD" unicode="&#xad;" horiz-adv-x="931" 
d="M141 488v168h650v-168h-650z" />
    <glyph glyph-name="registered" unicode="&#xae;" horiz-adv-x="970" 
d="M487 1454q158 2 273.5 -113.5t115.5 -275.5q0 -159 -115 -274.5t-274 -116.5q-159 0 -276 116.5t-115 274.5q3 167 114 276q114 111 277 113zM675 862q89 83 89 203q0 111 -82.5 193t-194.5 82q-83 0 -153 -46h177q67 0 111.5 -42t44.5 -108q0 -43 -22 -77t-60 -53z
M487 788q84 -1 156 48h-67l-89 161h-61v-161h-95v456q-57 -38 -90.5 -98t-32.5 -129q2 -118 81 -196q82 -79 198 -81zM426 1090h81q29 0 46.5 15.5t17.5 39.5q0 25 -17.5 40.5t-46.5 15.5h-81v-111z" />
    <glyph glyph-name="acute" unicode="&#xb4;" horiz-adv-x="917" 
d="M357 1236h-163l139 311h211z" />
    <glyph glyph-name="cedilla" unicode="&#xb8;" horiz-adv-x="794" 
d="M361 -474h-155v135h137q41 0 63.5 20t22.5 50q0 56 -65 67q-17 3 -119 0l68 260h142l-37 -137q71 -16 114 -60q53 -55 53 -134q0 -90 -63 -145.5t-161 -55.5z" />
    <glyph glyph-name="guillemotright" unicode="&#xbb;" horiz-adv-x="1224" 
d="M333 120h-255l357 427l-357 427h255l341 -406v-42zM804 120h-255l356 427l-356 427h255l341 -406v-42z" />
    <glyph glyph-name="circumflex" unicode="&#x2c6;" 
d="M815 1236l-168 170l-167 -170h-199l262 311h207l263 -311h-198z" />
    <glyph glyph-name="ring" unicode="&#x2da;" horiz-adv-x="839" 
d="M420 1208q-101 0 -167.5 62t-66.5 158q0 97 66.5 158.5t167.5 61.5q102 0 167.5 -62t65.5 -158q0 -95 -66.5 -157.5t-166.5 -62.5zM420 1518q-43 0 -69 -24.5t-26 -65.5q0 -38 27 -64q27 -25 68 -25q43 0 69 24.5t26 64.5q0 41 -26 65.5t-69 24.5z" />
    <glyph glyph-name="tilde" unicode="&#x2dc;" 
d="M752 1250q-84 0 -149 46q-18 14 -50 42q-19 16 -35 28q-13 8 -26 14t-28 6q-27 0 -46.5 -23t-19.5 -66v-39h-143v42q0 105 55 168t152 63q83 0 141 -44q17 -13 47 -41q33 -31 54 -42t46 -11q28 0 46.5 23t18.5 68v36h145v-39q0 -102 -56.5 -166.5t-151.5 -64.5z" />
    <glyph glyph-name="uni2000" unicode="&#x2000;" horiz-adv-x="860" 
 />
    <glyph glyph-name="uni2001" unicode="&#x2001;" horiz-adv-x="1720" 
 />
    <glyph glyph-name="uni2002" unicode="&#x2002;" horiz-adv-x="860" 
 />
    <glyph glyph-name="uni2003" unicode="&#x2003;" horiz-adv-x="1720" 
 />
    <glyph glyph-name="uni2004" unicode="&#x2004;" horiz-adv-x="573" 
 />
    <glyph glyph-name="uni2005" unicode="&#x2005;" horiz-adv-x="430" 
 />
    <glyph glyph-name="uni2006" unicode="&#x2006;" horiz-adv-x="286" 
 />
    <glyph glyph-name="uni2007" unicode="&#x2007;" horiz-adv-x="286" 
 />
    <glyph glyph-name="uni2008" unicode="&#x2008;" horiz-adv-x="215" 
 />
    <glyph glyph-name="uni2009" unicode="&#x2009;" horiz-adv-x="344" 
 />
    <glyph glyph-name="uni200A" unicode="&#x200a;" horiz-adv-x="95" 
 />
    <glyph glyph-name="uni2010" unicode="&#x2010;" horiz-adv-x="931" 
d="M141 488v168h650v-168h-650z" />
    <glyph glyph-name="uni2011" unicode="&#x2011;" horiz-adv-x="931" 
d="M141 488v168h650v-168h-650z" />
    <glyph glyph-name="figuredash" unicode="&#x2012;" horiz-adv-x="931" 
d="M141 488v168h650v-168h-650z" />
    <glyph glyph-name="endash" unicode="&#x2013;" horiz-adv-x="1310" 
d="M141 488v168h1029v-168h-1029z" />
    <glyph glyph-name="emdash" unicode="&#x2014;" horiz-adv-x="1837" 
d="M141 488v168h1554v-168h-1554z" />
    <glyph glyph-name="quoteleft" unicode="&#x2018;" horiz-adv-x="460" 
d="M123 1061v204q0 113 48.5 185t154.5 105v-130q-81 -32 -87 -125h94v-239h-210z" />
    <glyph glyph-name="quoteright" unicode="&#x2019;" horiz-adv-x="448" 
d="M140 977v131q80 31 87 124h-95v239h211v-204q0 -113 -48.5 -185t-154.5 -105z" />
    <glyph glyph-name="quotesinglbase" unicode="&#x201a;" horiz-adv-x="493" 
d="M149 -279v131q80 31 87 124h-95v239h211v-204q0 -113 -48.5 -185t-154.5 -105z" />
    <glyph glyph-name="quotedblleft" unicode="&#x201c;" horiz-adv-x="813" 
d="M123 1065v205q0 113 54.5 184.5t172.5 103.5l1 -129q-92 -33 -99 -125h108v-239h-237zM449 1065v205q0 113 54.5 184.5t171.5 103.5l3 -129q-92 -32 -99 -125h107v-239h-237z" />
    <glyph glyph-name="quotedblright" unicode="&#x201d;" horiz-adv-x="800" 
d="M142 978l-1 129q48 17 71 47t27 78h-107v239h238v-204q0 -113 -55 -185t-173 -104zM469 978l-3 129q49 17 72.5 47t27.5 78h-108v239h238v-204q0 -113 -54.5 -185t-172.5 -104z" />
    <glyph glyph-name="quotedblbase" unicode="&#x201e;" horiz-adv-x="845" 
d="M151 -277l-1 129q48 17 71 47t27 78h-107v238h238v-204q0 -113 -55 -184.5t-173 -103.5zM478 -277l-3 129q49 17 72.5 47t27.5 78h-108v238h238v-204q0 -113 -54.5 -184.5t-172.5 -103.5z" />
    <glyph glyph-name="ellipsis" unicode="&#x2026;" horiz-adv-x="1134" 
d="M139 0v218h233v-218h-233zM450 0v218h234v-218h-234zM762 0v218h233v-218h-233z" />
    <glyph glyph-name="uni202F" unicode="&#x202f;" horiz-adv-x="344" 
 />
    <glyph glyph-name="guilsinglleft" unicode="&#x2039;" horiz-adv-x="733" 
d="M408 120l-329 406v42l329 406h245l-343 -427l343 -427h-245z" />
    <glyph glyph-name="guilsinglright" unicode="&#x203a;" horiz-adv-x="733" 
d="M325 120h-246l344 427l-344 427h246l329 -406v-42z" />
    <glyph glyph-name="uni205F" unicode="&#x205f;" horiz-adv-x="430" 
 />
    <glyph glyph-name="Euro" unicode="&#x20ac;" horiz-adv-x="1327" 
d="M959 1204q-146 0 -267.5 -71t-186.5 -194h646v-186h-702q-3 -33 -3 -67q0 -42 3 -75h701v-185h-641q65 -120 185.5 -189t262.5 -69q105 0 235 50v-199q-122 -43 -256 -45q-218 -2 -400 123.5t-254 328.5h-214l2 181l171 4q-4 32 -4 75q0 28 3 67h-166v186h204
q69 208 253.5 335t409.5 125q85 0 140 -9q57 -9 140 -44v-202q-142 60 -262 60z" />
    <glyph glyph-name="trademark" unicode="&#x2122;" horiz-adv-x="1765" 
d="M487 1284v-606h-163v606h-261v150h668v-150h-244zM1483 678l-84 483l-237 -483h-54l-235 483l-86 -483h-159l132 756h136l239 -495l240 495h138l129 -756h-159z" />
    <glyph glyph-name="glyph2" horiz-adv-x="682" 
 />
    <glyph glyph-name="_142" horiz-adv-x="1200" 
d="M50 1013v129h1107v-129h-1107zM1013 766q0 24 -29 47t-68 23q-35 0 -63.5 -16.5t-28.5 -37.5q0 -31 16.5 -49t68.5 -29l47 -10q43 -9 66 -15t52.5 -17t43.5 -24t25 -34t12 -48q2 -74 -64 -119.5t-172 -45.5q-120 0 -183 60t-63 138l128 -2q0 -8 4.5 -20.5t16 -29t38 -28
t62.5 -11.5q43 0 70 15t27 35q0 40 -104 63q-100 21 -164 57q-64 35 -64 111q0 73 65.5 119t166.5 46q104 0 165.5 -53.5t61.5 -124.5h-133zM196 818v-125h267v-123h-267v-179h-145v550h464v-123h-319zM502 458q0 -26 20.5 -45t48.5 -19q30 0 51 18.5t21 45.5
q0 26 -21.5 45.5t-50.5 19.5q-28 0 -48.5 -19.5t-20.5 -45.5zM47 193v129h1107v-129h-1107z" />
    </font>
</defs>
</svg>
