<?xml version="1.0" standalone="no"?>
<!DOCTYPE svg PUBLIC "-//W3C//DTD SVG 1.1//EN" "http://www.w3.org/Graphics/SVG/1.1/DTD/svg11.dtd" >
<svg xmlns="http://www.w3.org/2000/svg" xmlns:xlink="http://www.w3.org/1999/xlink" version="1.1">
<metadata>
Created by FontForge 20170731 at Thu Apr  5 15:56:15 2018
 By Aleksey,,,
Copyright (c) 2018 by Fontastica. All rights reserved.
</metadata>
<defs>
<font id="Lorin-Light" horiz-adv-x="1228" >
  <font-face 
    font-family="Lorin Light"
    font-weight="300"
    font-stretch="normal"
    units-per-em="2048"
    panose-1="0 0 4 0 0 0 0 0 0 0"
    ascent="1638"
    descent="-410"
    x-height="1106"
    cap-height="1434"
    bbox="-86 -474 2047 1720"
    underline-thickness="102"
    underline-position="-816"
    unicode-range="U+0020-2122"
  />
<missing-glyph horiz-adv-x="748" 
d="M68 0v1365h544v-1365h-544zM586 1341h-492v-1317h492v1317z" />
    <glyph glyph-name=".notdef" horiz-adv-x="748" 
d="M68 0v1365h544v-1365h-544zM586 1341h-492v-1317h492v1317z" />
    <glyph glyph-name=".null" horiz-adv-x="0" 
 />
    <glyph glyph-name="nonmarkingreturn" horiz-adv-x="682" 
 />
    <glyph glyph-name="space" unicode=" " horiz-adv-x="536" 
 />
    <glyph glyph-name="exclam" unicode="!" horiz-adv-x="567" 
d="M211 405v1070h145v-1070h-145zM206 0v179h158v-179h-158z" />
    <glyph glyph-name="quotedbl" unicode="&#x22;" horiz-adv-x="765" 
d="M143 937v501h131v-501h-131zM491 937v501h131v-501h-131z" />
    <glyph glyph-name="numbersign" unicode="#" horiz-adv-x="1314" 
d="M1034 918l-55 -379h199v-110h-218l-65 -427h-121l63 427h-445l-69 -427h-121l68 427h-181v110h200l60 379h-211v105h229l64 411h121l-63 -411h439l63 411h121l-63 -411h178v-105h-193zM472 918l-61 -379h445l56 379h-440z" />
    <glyph glyph-name="dollar" unicode="$" horiz-adv-x="1155" 
d="M626 -12v-169h-99v169q-214 18 -327 126t-120 289h138q8 -119 86.5 -193t222.5 -93l-1 540q-129 28 -218 65q-70 29 -106.5 63t-66.5 96q-28 62 -28 140q0 157 107.5 254t306.5 116v158h112v-159q188 -21 291 -122t110 -265h-134q-7 102 -75.5 169t-190.5 93l-1 -535
l32 31q4 -1 10.5 -2.5t7.5 -1.5q100 -23 149 -43q90 -38 124 -67q65 -55 86 -104q33 -71 33 -158q0 -161 -120.5 -268t-328.5 -129zM524 1266q-131 -18 -206 -80t-75 -158q0 -46 24 -96q14 -26 69 -67q14 -10 49 -26l47 -18q66 -25 93 -33zM903 499q-15 18 -23.5 27.5
t-25.5 22.5t-38 22q-61 29 -117 44l-71 19v-518q135 23 222 94.5t87 172.5q0 74 -34 116z" />
    <glyph glyph-name="percent" unicode="%" horiz-adv-x="1656" 
d="M380 847q-140 0 -228 87t-88 225q0 137 88 223.5t228 86.5q139 0 226.5 -86.5t87.5 -223.5q0 -138 -88 -225t-226 -87zM447 -8h-136l869 1443h136zM380 1370q-92 0 -152 -60t-60 -151q0 -92 61 -152q60 -62 151 -62t150.5 61t59.5 153t-59.5 151.5t-150.5 59.5zM1279 -11
q-139 0 -226.5 86t-87.5 222t87.5 222t226.5 86t226 -85.5t87 -222.5t-87 -222.5t-226 -85.5zM1279 507q-91 0 -150 -59.5t-59 -150.5q0 -90 59 -149q60 -60 150 -60q91 0 150 59t59 150t-59 150.5t-150 59.5z" />
    <glyph glyph-name="ampersand" unicode="&#x26;" horiz-adv-x="1275" 
d="M1097 1l-134 142q-187 -165 -444 -165q-195 0 -311.5 101.5t-116.5 268.5q0 144 87 247q43 50 92.5 90t131.5 91q-102 134 -140 218.5t-38 167.5q0 135 94.5 214.5t258.5 79.5q157 0 252.5 -79t95.5 -205q0 -109 -66 -199q-52 -72 -166 -146q-43 -28 -127 -77
q160 -194 389 -444q56 108 61 119q16 37 29 89l104 -24q-23 -85 -42 -128.5t-74 -141.5q8 -9 34 -36.5t73 -78t98 -104.5h-141zM577 1361q-104 0 -171 -55t-67 -144q0 -111 162 -329q118 68 182 117q79 62 110 136q17 42 17 86q0 85 -66.5 137t-166.5 52zM469 693
q-130 -83 -191.5 -160.5t-61.5 -178.5q0 -117 89 -188.5t230 -71.5q189 0 349 134q-271 294 -415 465z" />
    <glyph glyph-name="quotesingle" unicode="'" horiz-adv-x="448" 
d="M143 937v501h163v-501h-163z" />
    <glyph glyph-name="parenleft" unicode="(" horiz-adv-x="616" 
d="M243 673q0 -259 86 -506.5t233 -439.5h-152q-149 201 -228.5 443t-79.5 503q0 263 79.5 504t228.5 445h153q-147 -197 -233.5 -444t-86.5 -505z" />
    <glyph glyph-name="parenright" unicode=")" horiz-adv-x="616" 
d="M207 -273h-151q147 192 232.5 439t85.5 507q0 258 -86 505t-233 444h152q149 -204 228.5 -445t79.5 -504q0 -261 -79.5 -503t-228.5 -443z" />
    <glyph glyph-name="asterisk" unicode="*" horiz-adv-x="815" 
d="M482 1109l161 -205l-73 -62l-163 213l-162 -213l-76 62l163 205l-240 80l32 91l235 -82v250h97v-250l235 82l33 -91z" />
    <glyph glyph-name="plus" unicode="+" horiz-adv-x="1075" 
d="M605 643v-422h-132v422h-405v122h405v410h132v-410h403v-122h-403z" />
    <glyph glyph-name="comma" unicode="," horiz-adv-x="493" 
d="M154 -263v57q134 51 134 233h-147v188h211v-196q0 -217 -198 -282z" />
    <glyph glyph-name="hyphen" unicode="-" horiz-adv-x="931" 
d="M141 488v168h650v-168h-650z" />
    <glyph glyph-name="period" unicode="." horiz-adv-x="479" 
d="M139 0v218h200v-218h-200z" />
    <glyph glyph-name="slash" unicode="/" horiz-adv-x="888" 
d="M207 -140h-144l618 1699h142z" />
    <glyph glyph-name="zero" unicode="0" horiz-adv-x="1273" 
d="M638 -24q-242 0 -385 189t-143 517q0 330 142.5 517t385.5 187q242 0 383.5 -187t141.5 -517q0 -329 -142 -517.5t-383 -188.5zM638 1266q-188 0 -292 -157.5t-104 -426.5q0 -270 104 -428t292 -158q186 0 290 158.5t104 427.5q0 268 -104 426t-290 158z" />
    <glyph glyph-name="one" unicode="1" horiz-adv-x="677" 
d="M344 0v1194l-291 -90v113l428 136v-1353h-137z" />
    <glyph glyph-name="two" unicode="2" horiz-adv-x="1075" 
d="M111 0v134q163 167 364 349q146 132 202 209q77 106 101 168.5t24 142.5q0 117 -77 190t-200 73q-128 0 -208.5 -73.5t-80.5 -191.5v-11h-130v11q0 174 115 279.5t304 105.5q182 0 295.5 -107t113.5 -276q0 -79 -19 -141t-75 -154q-47 -75 -195 -223q-257 -257 -358 -365
h703v-120h-879z" />
    <glyph glyph-name="three" unicode="3" horiz-adv-x="1093" 
d="M536 -24q-183 0 -306 108t-140 282h129q16 -122 102.5 -196t214.5 -74q141 0 233 91t92 231t-98.5 230t-248.5 90h-48v117l249 393h-581v114h804v-10l-358 -517q194 -24 304 -140t110 -283q0 -189 -130.5 -312.5t-327.5 -123.5z" />
    <glyph glyph-name="four" unicode="4" horiz-adv-x="1103" 
d="M897 298v-298h-126v298h-729v12l493 1053h133l-447 -957h552v272h124v-272h150v-108h-150z" />
    <glyph glyph-name="five" unicode="5" horiz-adv-x="1075" 
d="M537 -24q-185 0 -310 109t-141 281h130q15 -121 104 -195.5t217 -74.5q138 0 229.5 89.5t91.5 226.5q0 138 -98.5 229.5t-244.5 91.5h-363l67 629h673v-114h-567l-46 -404h242q204 0 336.5 -123.5t132.5 -308.5q0 -188 -129.5 -312t-323.5 -124z" />
    <glyph glyph-name="six" unicode="6" horiz-adv-x="1136" 
d="M587 -24q-215 0 -352 127.5t-137 327.5q0 190 153 457l279 487h153q-168 -297 -299 -555q92 34 130.5 42t96.5 8q124 0 229 -54t170 -154q64 -102 64 -231q0 -198 -137 -326.5t-350 -128.5zM586 767q-154 0 -255.5 -95t-101.5 -241q0 -144 102 -240q103 -95 255 -95
q154 0 254.5 95t100.5 240q0 147 -100.5 241.5t-254.5 94.5z" />
    <glyph glyph-name="seven" unicode="7" horiz-adv-x="1019" 
d="M696 679l183 -1v-119l-231 2l-230 -561h-138l229 556l-252 2v120h302l235 570h-741v114h921v-3z" />
    <glyph glyph-name="eight" unicode="8" horiz-adv-x="1177" 
d="M588 -24q-219 0 -350.5 112.5t-131.5 296.5q0 100 64 190.5t178 153.5q-90 64 -140.5 143t-50.5 161q0 156 118.5 254.5t312.5 98.5t311.5 -98t117.5 -255q0 -85 -48.5 -164.5t-134.5 -139.5q113 -60 175.5 -150.5t62.5 -193.5q0 -179 -134.5 -294t-349.5 -115zM588 1283
q-132 0 -217.5 -69t-85.5 -181q0 -114 85 -184t218 -70q131 0 216 70t85 184q0 111 -85 180.5t-216 69.5zM588 676q-153 0 -251.5 -82t-98.5 -216q0 -131 98 -212t252 -81q155 0 253.5 81t98.5 212q0 134 -98.5 216t-253.5 82z" />
    <glyph glyph-name="nine" unicode="9" horiz-adv-x="1130" 
d="M883 487l-279 -487h-153q168 297 299 555q-92 -34 -130.5 -42t-96.5 -8q-125 0 -229.5 53.5t-168.5 154.5q-65 103 -65 231q0 198 137 326.5t350 128.5q215 0 352 -127.5t137 -327.5q0 -190 -153 -457zM803 1184q-103 95 -255 95q-154 0 -254.5 -95t-100.5 -240
q0 -147 100.5 -241.5t254.5 -94.5t255.5 95t101.5 241q0 144 -102 240z" />
    <glyph glyph-name="colon" unicode=":" horiz-adv-x="485" 
d="M143 811v182h200v-182h-200zM143 0v182h200v-182h-200z" />
    <glyph glyph-name="semicolon" unicode=";" horiz-adv-x="503" 
d="M154 815v180h195v-180h-195zM159 -264v53q134 49 134 221h-147v176h211v-184q0 -204 -198 -266z" />
    <glyph glyph-name="less" unicode="&#x3c;" horiz-adv-x="1087" 
d="M56 689v8l880 558v-148l-657 -410l657 -406v-148z" />
    <glyph glyph-name="equal" unicode="=" horiz-adv-x="1275" 
d="M147 877v126h983v-126h-983zM147 392v126h983v-126h-983z" />
    <glyph glyph-name="greater" unicode="&#x3e;" horiz-adv-x="1087" 
d="M150 143v148l658 406l-658 410v148l881 -558v-8z" />
    <glyph glyph-name="question" unicode="?" horiz-adv-x="1054" 
d="M915 905q-31 -60 -105 -127q-8 -7 -30 -24.5t-34 -28.5q-16 -12 -35.5 -28t-21.5 -18q-28 -26 -47 -46q-30 -32 -44 -57.5t-26 -65.5q-13 -42 -13 -82v-23h-136v24q0 96 32 160q23 44 33 59q16 26 44 51q47 47 98 86q87 68 132 122q64 78 64 194q0 132 -88 212.5
t-227 80.5q-126 0 -217 -78.5t-106 -197.5h-126q10 117 73.5 212.5t157.5 139.5q101 46 218 46q128 0 227.5 -49.5t159.5 -143.5q60 -95 60 -222q0 -112 -43 -196zM409 0v179h164v-179h-164z" />
    <glyph glyph-name="at" unicode="@" horiz-adv-x="2072" 
d="M1636 72q-179 0 -259 196q-149 -220 -380 -220q-193 0 -320 129.5t-127 325.5t127 325t320 129q102 0 177.5 -47.5t167.5 -167.5v168h109v-531q0 -94 53 -155t138 -61q107 0 170 100.5t63 254.5q0 229 -105.5 408t-297.5 278q-190 98 -437 98q-245 0 -437.5 -100
t-300.5 -283q-107 -184 -107 -415q0 -230 101.5 -408.5t285 -277t420.5 -98.5q201 0 353 76v-88q-171 -82 -370 -82q-258 0 -460.5 110.5t-314.5 310.5q-113 200 -113 457q0 194 68 360t192 284q123 117 298.5 181.5t380.5 64.5q276 0 490.5 -110t332.5 -310
q118 -197 118 -456q0 -199 -95 -322.5t-241 -123.5zM1008 853q-148 0 -246.5 -100t-98.5 -249q0 -150 98.5 -250t246.5 -100q151 0 248.5 99t97.5 251t-97.5 250.5t-248.5 98.5z" />
    <glyph glyph-name="A" unicode="A" horiz-adv-x="1427" 
d="M1229 0l-146 386h-745l-145 -386h-147l587 1434h143l604 -1434h-151zM708 1298l-319 -788h643z" />
    <glyph glyph-name="B" unicode="B" horiz-adv-x="1320" 
d="M773 0h-577v1434h569q173 0 286 -102t113 -254q0 -95 -60.5 -184.5t-169.5 -151.5q129 -55 199.5 -148.5t70.5 -208.5q0 -163 -123.5 -274t-307.5 -111zM761 1298h-425v-489h426q109 0 183 70.5t74 173.5q0 104 -75 174.5t-183 70.5zM771 673h-435v-535h435
q122 0 203.5 76t81.5 191t-82 191.5t-203 76.5z" />
    <glyph glyph-name="C" unicode="C" horiz-adv-x="1589" 
d="M834 -22q-210 0 -378 94t-263 263q-95 170 -95 382t94 381.5t263 263.5q167 94 379 94q246 0 424.5 -116.5t245.5 -329.5h-142q-63 156 -201 233.5t-327 77.5q-170 0 -305.5 -77t-211 -215t-75.5 -312t75.5 -312t211 -215t305.5 -77q193 0 333.5 85t201.5 252h143
q-66 -226 -246 -349t-432 -123z" />
    <glyph glyph-name="D" unicode="D" horiz-adv-x="1501" 
d="M1047 92q-167 -92 -378 -92h-473v1434h473q209 0 377 -92t261 -256q94 -161 94 -369q0 -205 -93 -369t-261 -256zM970 1230q-133 74 -307 76l-317 2v-1178l317 -3q258 -1 425.5 166.5t167.5 423.5q0 168 -75 302.5t-211 210.5z" />
    <glyph glyph-name="E" unicode="E" horiz-adv-x="1132" 
d="M338 1304v-504h693v-125h-693v-544h694v-131h-836v1434h838v-130h-696z" />
    <glyph glyph-name="F" unicode="F" horiz-adv-x="1071" 
d="M338 643v-643h-142v1434h805v-130h-663v-535h663v-126h-663z" />
    <glyph glyph-name="G" unicode="G" horiz-adv-x="1634" 
d="M1337 181q-94 -97 -226.5 -151t-284.5 -54q-207 0 -374 95t-260 265q-94 171 -94 381t93.5 379t259.5 265q164 95 371 95q258 0 447.5 -120t243.5 -329h-145q-53 156 -199.5 235t-342.5 79q-255 0 -419.5 -170.5t-164.5 -433.5q0 -267 162.5 -436.5t421.5 -169.5
q213 0 366.5 119.5t200.5 328.5l-544 -1v130l693 1q-7 -151 -60.5 -282t-144.5 -226z" />
    <glyph glyph-name="H" unicode="H" horiz-adv-x="1492" 
d="M1156 0v672h-820v-672h-140v1434h140v-630h820v630h141v-1434h-141z" />
    <glyph glyph-name="I" unicode="I" horiz-adv-x="571" 
d="M215 0v1434h141v-1434h-141z" />
    <glyph glyph-name="J" unicode="J" horiz-adv-x="1222" 
d="M196 453q0 -156 100.5 -249t256.5 -93q151 0 250.5 104t99.5 261v958h140v-966q0 -214 -138.5 -353t-351.5 -139q-217 0 -356.5 130t-139.5 340v7h139z" />
    <glyph glyph-name="K" unicode="K" horiz-adv-x="1300" 
d="M1094 0l-758 708v-708h-140v1434h140v-659l710 659h171l-736 -689l786 -745h-173z" />
    <glyph glyph-name="L" unicode="L" horiz-adv-x="1048" 
d="M196 0v1434h142v-1307h667v-127h-809z" />
    <glyph glyph-name="M" unicode="M" horiz-adv-x="1959" 
d="M1723 0l-202 1213l-531 -1213h-20l-532 1212l-203 -1212h-141l240 1434h144l500 -1135l503 1135h147l236 -1434h-141z" />
    <glyph glyph-name="N" unicode="N" horiz-adv-x="1533" 
d="M1217 0l-884 1203v-1203h-137v1434h134l872 -1189v1189h137v-1434h-122z" />
    <glyph glyph-name="O" unicode="O" horiz-adv-x="1697" 
d="M1235 73q-172 -97 -387 -97q-213 0 -384.5 96.5t-268.5 266.5q-97 171 -97 378q0 209 96 378.5t268 266.5q171 96 386 96q214 0 386.5 -96t268.5 -266q96 -168 96 -379q0 -209 -96 -378.5t-268 -265.5zM1159 1244q-139 79 -311 79q-170 0 -310 -79.5t-218 -218.5
q-78 -135 -78 -308q0 -169 78 -307.5t218 -218.5t310 -80q171 0 311 79t218 219q78 138 78 308t-78.5 309t-217.5 218z" />
    <glyph glyph-name="P" unicode="P" horiz-adv-x="1249" 
d="M711 532h-374v-532h-141v1434h515q204 0 339.5 -129t135.5 -323t-135 -322t-340 -128zM700 1301h-363v-636h363q147 0 243.5 90t96.5 227t-96.5 228t-243.5 91z" />
    <glyph glyph-name="Q" unicode="Q" horiz-adv-x="1697" 
d="M1330 138l153 -174l-98 -77l-161 183q-181 -91 -376 -91q-213 0 -384.5 96t-268.5 266q-97 171 -97 377q0 209 96 378.5t268 265.5q171 96 386 96q213 0 386 -95.5t269 -265.5q96 -168 96 -379q0 -351 -269 -580zM1159 1245q-139 78 -311 78q-170 0 -310 -79t-218 -218
q-78 -135 -78 -308q0 -169 78 -307t218 -218q139 -79 310 -79q137 0 283 62l-302 356l99 77l310 -364q217 191 217 473q0 170 -78.5 309t-217.5 218z" />
    <glyph glyph-name="R" unicode="R" horiz-adv-x="1318" 
d="M1040 0l-325 579h-379v-579h-140v1434h544q202 0 333.5 -121.5t131.5 -308.5q0 -148 -89 -256.5t-253 -155.5l353 -592h-176zM731 1304h-395v-596h395q145 0 237 83t92 215q0 131 -92.5 214.5t-236.5 83.5z" />
    <glyph glyph-name="S" unicode="S" horiz-adv-x="1222" 
d="M884 31q-113 -49 -260 -49q-232 0 -377.5 122.5t-154.5 319.5h145q10 -137 117 -222t267 -85q154 0 257 76t103 202q0 56 -26 108q-15 31 -73 74q-15 12 -52 29l-51 21q-11 5 -62 18q-21 6 -126 31q-51 12 -83.5 20.5t-75 21t-69.5 23t-60 26t-54 31t-43.5 37t-36.5 45
t-25 53.5t-17 65q-5 35 -5 66q0 179 130 283.5t357 104.5q215 0 343.5 -110.5t136.5 -293.5h-140q-9 122 -105.5 197.5t-238.5 75.5q-147 0 -244 -67.5t-97 -181.5q0 -68 42 -125q29 -40 110 -79q47 -22 148 -48q2 0 81 -19q52 -13 83.5 -21t75.5 -20.5t71 -23t61 -26
t55.5 -31t45 -36.5t38 -45t27 -53.5t19.5 -64.5q8 -43 8 -83q0 -127 -65.5 -222.5t-179.5 -143.5z" />
    <glyph glyph-name="T" unicode="T" horiz-adv-x="1138" 
d="M640 1306v-1306h-142v1306h-455v128h1052v-128h-455z" />
    <glyph glyph-name="U" unicode="U" horiz-adv-x="1482" 
d="M1032 46q-131 -70 -289 -70q-245 0 -404.5 155.5t-159.5 397.5v905h143v-892q0 -191 117.5 -311t303.5 -120q185 0 302 120.5t117 310.5v892h143v-905q0 -159 -72.5 -286t-200.5 -197z" />
    <glyph glyph-name="V" unicode="V" horiz-adv-x="1396" 
d="M770 0h-140l-582 1434h156l496 -1241l488 1241h154z" />
    <glyph glyph-name="W" unicode="W" horiz-adv-x="2103" 
d="M1599 0h-130l-419 1134l-410 -1134h-129l-458 1434h148l380 -1224l446 1219h42l461 -1220l371 1225h146z" />
    <glyph glyph-name="X" unicode="X" 
d="M1039 0l-424 645l-421 -645h-158l492 752l-452 682h156l384 -584l382 584h155l-449 -688l490 -746h-155z" />
    <glyph glyph-name="Y" unicode="Y" horiz-adv-x="1347" 
d="M746 574v-574h-145v574l-527 860h149l451 -736l453 736h150z" />
    <glyph glyph-name="Z" unicode="Z" horiz-adv-x="1153" 
d="M56 0l788 1306h-757v128h995l-764 -1307h781v-127h-1043z" />
    <glyph glyph-name="bracketleft" unicode="[" horiz-adv-x="686" 
d="M196 -283v1904h436v-106h-305v-1689h309v-109h-440z" />
    <glyph glyph-name="backslash" unicode="\" horiz-adv-x="888" 
d="M681 -140l-616 1699h143l618 -1699h-145z" />
    <glyph glyph-name="bracketright" unicode="]" horiz-adv-x="686" 
d="M49 -283v109h309v1689h-305v106h437v-1904h-441z" />
    <glyph glyph-name="asciicircum" unicode="^" horiz-adv-x="1091" 
d="M854 694l-308 505l-309 -505h-151l458 744h7l455 -744h-152z" />
    <glyph glyph-name="underscore" unicode="_" horiz-adv-x="1056" 
d="M0 -255v145h1057v-145h-1057z" />
    <glyph glyph-name="grave" unicode="`" 
d="M428 1236l-186 311h154l138 -311h-106z" />
    <glyph glyph-name="a" unicode="a" horiz-adv-x="1431" 
d="M1109 1v214q-109 -127 -213.5 -183t-235.5 -56q-161 0 -291.5 75t-205.5 208q-75 132 -75 294q0 164 74.5 296t205.5 206.5t292 74.5q133 0 241.5 -57t216.5 -185v217h139v-1104h-148zM673 1002q-191 0 -318.5 -128.5t-127.5 -320.5t127 -320q128 -129 319 -129t318 128
t127 321t-127 321t-318 128z" />
    <glyph glyph-name="b" unicode="b" horiz-adv-x="1417" 
d="M759 -24q-128 0 -234 52.5t-214 170.5v-198h-136v1500h136v-584q203 202 448 202q164 0 294.5 -73.5t203.5 -204.5q72 -129 72 -294q0 -162 -73 -292.5t-203.5 -204.5t-293.5 -74zM746 992q-191 0 -319.5 -127.5t-128.5 -317.5q0 -185 129 -316q128 -128 319 -128
t318 126.5t127 317.5t-127 318t-318 127z" />
    <glyph glyph-name="c" unicode="c" horiz-adv-x="1269" 
d="M664 -24q-162 0 -294 75t-207 208q-75 132 -75 294q0 163 74.5 295t207.5 207q132 75 294 75q191 0 331 -93t197 -259h-133q-55 110 -159 167t-236 57q-187 0 -312 -129.5t-125 -319.5q0 -189 125.5 -319t311.5 -130q132 0 234 57.5t159 170.5h137q-57 -167 -199 -261.5
t-331 -94.5z" />
    <glyph glyph-name="d" unicode="d" horiz-adv-x="1417" 
d="M1112 1v198q-108 -118 -216.5 -170.5t-237.5 -52.5q-163 0 -293.5 74t-203.5 204.5t-73 292.5q0 163 72.5 293t202.5 205q131 74 295 74q246 0 449 -202v584h135v-1500h-130zM672 992q-191 0 -318 -127t-127 -318q0 -188 127 -317q129 -127 318 -127q191 0 319 127.5
t128 316.5q0 190 -127.5 317.5t-319.5 127.5z" />
    <glyph glyph-name="e" unicode="e" horiz-adv-x="1294" 
d="M1208 507h-987q25 -187 141.5 -294t289.5 -107q245 0 353 176h143q-146 -306 -496 -306q-158 0 -287 74.5t-203 206.5q-74 133 -74 296q0 162 73.5 294.5t203.5 207.5q129 75 287 75q163 0 291.5 -76.5t197.5 -210.5q68 -132 68 -295q0 -27 -1 -41zM652 1005
q-166 0 -281 -99.5t-148 -277.5h856q-34 179 -148 278t-279 99z" />
    <glyph glyph-name="f" unicode="f" horiz-adv-x="792" 
d="M406 980v-980h-139v980h-215v105h215v115q0 176 85 258.5t270 82.5h143v-99h-110q-135 0 -195.5 -58t-60.5 -188v-111h368v-105h-361z" />
    <glyph glyph-name="g" unicode="g" horiz-adv-x="1380" 
d="M664 -419q-207 0 -348.5 73.5t-190.5 223.5h134q77 -179 405 -179q186 0 298 115t112 311v127q-198 -204 -443 -204q-150 0 -274.5 71t-196.5 196q-72 126 -72 274q0 150 71 274t196 196q125 71 276 71q129 0 230.5 -56.5t209.5 -186.5v218h134v-956q0 -266 -144 -417
t-397 -151zM651 1004q-182 0 -303 -118.5t-121 -296.5q0 -177 121 -296q122 -119 303 -119q182 0 301.5 117.5t119.5 297.5q0 179 -119.5 297t-301.5 118z" />
    <glyph glyph-name="h" unicode="h" horiz-adv-x="1314" 
d="M1020 0v617q0 182 -87 283t-248 101q-159 0 -266 -116.5t-107 -286.5v-598h-137v1501h137v-591q91 115 192.5 162t227.5 47q196 0 310 -123.5t114 -336.5v-659h-136z" />
    <glyph glyph-name="i" unicode="i" horiz-adv-x="524" 
d="M190 1337v160h145v-160h-145zM191 0v1114h143v-1114h-143z" />
    <glyph glyph-name="j" unicode="j" horiz-adv-x="548" 
d="M224 1338v159h159v-159h-159zM-10 -395h-76v117h49q127 0 197 66t70 184v1143h143v-1156q0 -160 -104.5 -257t-278.5 -97z" />
    <glyph glyph-name="k" unicode="k" horiz-adv-x="1132" 
d="M927 0l-597 541v-541h-136v1501h136v-898l560 491h153l-581 -523l625 -571h-160z" />
    <glyph glyph-name="l" unicode="l" horiz-adv-x="524" 
d="M191 0v1501h143v-1501h-143z" />
    <glyph glyph-name="m" unicode="m" horiz-adv-x="1945" 
d="M1654 0l-1 657q0 163 -73.5 258.5t-206.5 95.5q-137 0 -232 -116t-95 -280v-615h-128v657q0 164 -74 259t-209 95q-137 0 -231.5 -116t-94.5 -280v-615h-134v1105h134v-204q93 123 179 176t188 53q110 0 184 -57.5t135 -185.5q152 243 383 243q172 0 290 -117.5
t118 -299.5v-713h-132z" />
    <glyph glyph-name="n" unicode="n" horiz-adv-x="1314" 
d="M1020 0v623q0 184 -87 286t-248 102q-159 0 -266 -117.5t-107 -288.5v-605h-137v1105h119v-232q95 139 189 198t220 59q195 0 324 -130t129 -334v-666h-136z" />
    <glyph glyph-name="o" unicode="o" horiz-adv-x="1349" 
d="M975 51q-135 -75 -301 -75q-252 0 -419 164.5t-167 412.5q0 164 75.5 296t210.5 207q134 74 300 74q165 0 300 -74.5t211 -206.5q76 -131 76 -296q0 -163 -76 -295t-210 -207zM674 1011q-194 0 -327 -132t-133 -326q0 -184 139 -321q142 -142 321 -142q194 0 328 134.5
t134 328.5t-133.5 326t-328.5 132z" />
    <glyph glyph-name="p" unicode="p" horiz-adv-x="1419" 
d="M763 -12q-249 0 -452 211v-609h-136v1515h136v-213q109 126 215 182t237 56q163 0 293.5 -73.5t202.5 -204.5q72 -129 72 -293q0 -122 -43 -228t-118 -181.5t-180.5 -118.5t-226.5 -43zM750 1003q-191 0 -319.5 -127.5t-128.5 -316.5t129 -317q127 -127 319 -127
q191 0 317.5 126.5t126.5 317.5t-126.5 317.5t-317.5 126.5z" />
    <glyph glyph-name="q" unicode="q" horiz-adv-x="1419" 
d="M1109 -410v609q-203 -211 -452 -211q-120 0 -226.5 43t-181.5 120q-76 76 -118.5 182t-42.5 226q0 162 73.5 293t203.5 204.5t292 73.5q131 0 241.5 -56.5t218.5 -181.5v213h127v-1515h-135zM670 1003q-191 0 -318 -126.5t-127 -317.5q0 -190 127 -317t318 -127t319 127
t128 317q0 189 -128 316.5t-319 127.5z" />
    <glyph glyph-name="r" unicode="r" horiz-adv-x="810" 
d="M681 987q-172 0 -268.5 -103t-96.5 -281v-603h-141v1106l144 1v-226q94 131 176 181t202 50h82v-125h-98z" />
    <glyph glyph-name="s" unicode="s" horiz-adv-x="1050" 
d="M525 -24q-189 0 -306.5 94t-132.5 249h133q16 -102 101 -162t211 -60q129 0 213.5 53.5t84.5 148.5q0 78 -53 121q-53 42 -119 59q-59 15 -150 30q-73 13 -118 23q-53 12 -112 33q-27 11 -47 23q-12 7 -43 31q-29 22 -59 81q-23 45 -23 120q0 138 113 224t303 86
q179 0 289.5 -89t124.5 -234h-127q-14 96 -91.5 152t-199.5 56q-124 0 -202.5 -50t-78.5 -138q0 -74 51 -112q50 -37 113 -52q50 -12 146 -28q53 -8 85 -14t75.5 -16t69.5 -20.5t57.5 -26t50.5 -35t37 -45.5t27.5 -59t12.5 -74q2 -26 2 -37q0 -150 -118 -241t-320 -91z" />
    <glyph glyph-name="t" unicode="t" horiz-adv-x="841" 
d="M667 0q-182 0 -289.5 101t-107.5 276v572h-208v116h208v276l138 -1v-275h370v-116h-370v-567q0 -124 76.5 -193t207.5 -69h86v-120h-111z" />
    <glyph glyph-name="u" unicode="u" horiz-adv-x="1294" 
d="M647 -24q-223 0 -356.5 133t-133.5 355v642h136v-613q0 -179 95 -289t258 -110t259 110.5t96 288.5v613h136v-642q0 -223 -132.5 -355.5t-357.5 -132.5z" />
    <glyph glyph-name="v" unicode="v" horiz-adv-x="1171" 
d="M656 0h-134l-479 1106h139l408 -968l397 968h135z" />
    <glyph glyph-name="w" unicode="w" horiz-adv-x="1738" 
d="M1319 0h-114l-336 841l-337 -841h-113l-369 1106h138l297 -892l367 887h34l367 -894l306 899h132z" />
    <glyph glyph-name="x" unicode="x" horiz-adv-x="1050" 
d="M870 0l-345 498l-345 -498h-143l408 576l-373 530h148l307 -444l312 444h144l-377 -522l411 -584h-147z" />
    <glyph glyph-name="y" unicode="y" horiz-adv-x="1200" 
d="M448 -410h-139l253 568l-515 948h144l437 -820l387 820h141z" />
    <glyph glyph-name="z" unicode="z" horiz-adv-x="985" 
d="M309 123h609v-123h-848l618 985h-596v121h821z" />
    <glyph glyph-name="braceleft" unicode="{" horiz-adv-x="710" 
d="M488 -275q-108 0 -184 71.5t-76 174.5v502q0 59 -44 100t-105 41h-10v104h10q62 0 105.5 41t43.5 101v501q0 101 76 172.5t184 71.5h168v-111h-103q-80 0 -133.5 -50.5t-53.5 -126.5v-448q0 -133 -164 -203q164 -70 164 -202v-451q0 -74 54.5 -126t132.5 -51l106 1v-112
h-171z" />
    <glyph glyph-name="bar" unicode="|" horiz-adv-x="555" 
d="M204 -389v2109h147v-2109h-147z" />
    <glyph glyph-name="braceright" unicode="}" horiz-adv-x="710" 
d="M632 614q-62 0 -105.5 -41t-43.5 -100v-502q0 -103 -76 -174.5t-184 -71.5h-171v111h106q78 0 132.5 51.5t54.5 125.5v451q0 132 164 202q-164 70 -164 203v448q0 76 -54 126.5t-133 50.5h-103v111h168q108 0 184 -71.5t76 -172.5v-501q0 -60 43.5 -101t105.5 -41h10
v-104h-10z" />
    <glyph glyph-name="asciitilde" unicode="~" horiz-adv-x="1183" 
d="M808 484q-67 0 -124 29.5t-131 104.5q-56 57 -88.5 79t-70.5 22q-74 0 -118.5 -63t-44.5 -157v-8h-86v15q0 156 67.5 246t179.5 90q70 0 126 -30.5t124 -105.5q52 -57 87 -79t76 -22q75 0 117.5 60t42.5 154v10h86v-12q0 -157 -65.5 -245t-177.5 -88z" />
    <glyph glyph-name="uni00A0" unicode="&#xa0;" horiz-adv-x="536" 
 />
    <glyph glyph-name="cent" unicode="&#xa2;" horiz-adv-x="1222" 
d="M693 -15v-166h-101v166q-222 25 -360 176.5t-138 366.5q0 217 137.5 367t360.5 175v177h101v-177q167 -19 285 -110t166 -234h-128q-93 184 -326 222v-842q233 40 328 229l127 -3q-50 -144 -168 -236t-284 -111zM223 528q0 -159 100 -274.5t267 -146.5l4 841
q-170 -28 -270.5 -143t-100.5 -277z" />
    <glyph glyph-name="sterling" unicode="&#xa3;" horiz-adv-x="1220" 
d="M1072 1009h-116q-4 118 -87 195t-203 77q-126 0 -208.5 -84t-82.5 -211v-281h387v-105h-387v-493h636v251h115v-358h-1031v83l149 24v493h-127v105h127v291q0 178 118.5 291.5t303.5 113.5q179 0 291.5 -109.5t114.5 -282.5z" />
    <glyph glyph-name="yen" unicode="&#xa5;" horiz-adv-x="1304" 
d="M718 614v-80h408v-72h-408v-184h408v-70h-408v-208h-132v208h-409v70h409v184h-409v72h409v77l-501 751h131l434 -655l439 655h133z" />
    <glyph glyph-name="dieresis" unicode="&#xa8;" 
d="M203 1297v200h168v-200h-168zM639 1297v200h167v-200h-167z" />
    <glyph glyph-name="copyright" unicode="&#xa9;" horiz-adv-x="1718" 
d="M1251 72q-173 -94 -394 -94q-219 0 -391.5 93.5t-268.5 262.5q-97 170 -97 381q0 213 96 381.5t269 262.5q172 93 392 93t394 -93.5t271 -262.5q97 -167 97 -381q0 -212 -97 -380.5t-271 -262.5zM1212 1299q-158 85 -355 85t-353.5 -84.5t-244.5 -237.5
q-88 -152 -88 -347q0 -294 193 -482t493 -188q146 0 274 49t220 138t143.5 215t51.5 268q0 193 -88 346.5t-246 237.5zM866 326q-110 0 -200.5 51.5t-141.5 141.5q-50 88 -50 201q0 111 50.5 201t141.5 142q90 51 200 51q131 0 226.5 -63t134.5 -177h-90q-38 75 -109.5 114
t-161.5 39q-127 0 -212.5 -88.5t-85.5 -218.5q0 -129 86 -218t212 -89q90 0 160 39.5t109 116.5h93q-38 -114 -135 -178.5t-227 -64.5z" />
    <glyph glyph-name="guillemotleft" unicode="&#xab;" horiz-adv-x="1224" 
d="M426 120l-347 421v12l347 421h155l-349 -427l349 -427h-155zM939 120l-347 421v12l347 421h155l-348 -427l348 -427h-155z" />
    <glyph glyph-name="uni00AD" unicode="&#xad;" horiz-adv-x="931" 
d="M141 499v146h650v-146h-650z" />
    <glyph glyph-name="registered" unicode="&#xae;" horiz-adv-x="970" 
d="M487 674q-162 0 -276.5 114.5t-114.5 276.5q0 163 114 276q115 113 277 113q163 0 276 -113t113 -276t-113 -277t-276 -114zM487 1422q-150 0 -255.5 -104t-105.5 -253q0 -150 106 -254q107 -105 255 -105q150 0 254.5 104.5t104.5 254.5q0 148 -105 252.5t-254 104.5z
M611 840l-103 184h-121v-184h-45v456h174q65 0 106.5 -38.5t41.5 -98.5q0 -47 -28.5 -81.5t-80.5 -49.5l113 -188h-57zM513 1255h-126v-190h126q46 0 75.5 26.5t29.5 68.5t-29.5 68.5t-75.5 26.5z" />
    <glyph glyph-name="acute" unicode="&#xb4;" horiz-adv-x="917" 
d="M324 1236h-106l138 311h153z" />
    <glyph glyph-name="cedilla" unicode="&#xb8;" horiz-adv-x="794" 
d="M352 -474h-146v62h123q69 0 114.5 36t45.5 96t-45.5 96.5t-115.5 34.5l-56 -1l58 208h74l-44 -155q109 -12 167 -62.5t58 -125.5q0 -84 -63 -136.5t-170 -52.5z" />
    <glyph glyph-name="guillemotright" unicode="&#xbb;" horiz-adv-x="1224" 
d="M285 120h-156l350 427l-350 427h156l347 -421v-12zM798 120h-156l350 427l-350 427h156l347 -421v-12z" />
    <glyph glyph-name="circumflex" unicode="&#x2c6;" 
d="M860 1236l-213 252l-212 -252h-107l224 311h189l225 -311h-106z" />
    <glyph glyph-name="ring" unicode="&#x2da;" horiz-adv-x="839" 
d="M420 1208q-104 0 -169 62t-65 158t65 158t169 62t168.5 -61.5t64.5 -158.5q0 -96 -65 -158t-168 -62zM420 1588q-72 0 -118 -44.5t-46 -115.5q0 -70 47 -114q47 -45 117 -45q72 0 118.5 44t46.5 115t-46.5 115.5t-118.5 44.5z" />
    <glyph glyph-name="tilde" unicode="&#x2dc;" 
d="M891 1516h69q0 -124 -52 -195t-137 -71q-39 0 -77.5 16t-60.5 36q-14 12 -54 54q-28 30 -43 42.5t-38 24.5q-25 15 -53 15q-57 0 -90 -51t-33 -126h-67v5q0 126 50.5 195.5t137.5 69.5q37 0 72 -14.5t56 -33.5q26 -25 51 -53q40 -47 72 -68t75 -21q57 0 89 49.5t33 125.5
z" />
    <glyph glyph-name="uni2000" unicode="&#x2000;" horiz-adv-x="860" 
 />
    <glyph glyph-name="uni2001" unicode="&#x2001;" horiz-adv-x="1720" 
 />
    <glyph glyph-name="uni2002" unicode="&#x2002;" horiz-adv-x="860" 
 />
    <glyph glyph-name="uni2003" unicode="&#x2003;" horiz-adv-x="1720" 
 />
    <glyph glyph-name="uni2004" unicode="&#x2004;" horiz-adv-x="573" 
 />
    <glyph glyph-name="uni2005" unicode="&#x2005;" horiz-adv-x="430" 
 />
    <glyph glyph-name="uni2006" unicode="&#x2006;" horiz-adv-x="286" 
 />
    <glyph glyph-name="uni2007" unicode="&#x2007;" horiz-adv-x="286" 
 />
    <glyph glyph-name="uni2008" unicode="&#x2008;" horiz-adv-x="215" 
 />
    <glyph glyph-name="uni2009" unicode="&#x2009;" horiz-adv-x="344" 
 />
    <glyph glyph-name="uni200A" unicode="&#x200a;" horiz-adv-x="95" 
 />
    <glyph glyph-name="uni2010" unicode="&#x2010;" horiz-adv-x="931" 
d="M141 500v144h650v-144h-650z" />
    <glyph glyph-name="uni2011" unicode="&#x2011;" horiz-adv-x="931" 
d="M141 498v148h650v-148h-650z" />
    <glyph glyph-name="figuredash" unicode="&#x2012;" horiz-adv-x="931" 
d="M141 501v142h650v-142h-650z" />
    <glyph glyph-name="endash" unicode="&#x2013;" horiz-adv-x="1310" 
d="M141 499v146h1029v-146h-1029z" />
    <glyph glyph-name="emdash" unicode="&#x2014;" horiz-adv-x="1837" 
d="M141 502v140h1554v-140h-1554z" />
    <glyph glyph-name="quoteleft" unicode="&#x2018;" horiz-adv-x="460" 
d="M123 1061v196q0 218 199 282v-56q-135 -50 -135 -234h146v-188h-210z" />
    <glyph glyph-name="quoteright" unicode="&#x2019;" horiz-adv-x="448" 
d="M145 993v57q134 51 134 233h-147v188h211v-196q0 -217 -198 -282z" />
    <glyph glyph-name="quotesinglbase" unicode="&#x201a;" horiz-adv-x="493" 
d="M154 -263v57q134 51 134 233h-147v188h211v-196q0 -217 -198 -282z" />
    <glyph glyph-name="quotedblleft" unicode="&#x201c;" horiz-adv-x="813" 
d="M123 1065v197q0 217 169 280l1 -55q-117 -53 -117 -233h127v-189h-180zM505 1065v197q0 217 170 280l1 -55q-117 -53 -117 -233h127v-189h-181z" />
    <glyph glyph-name="quotedblright" unicode="&#x201d;" horiz-adv-x="800" 
d="M144 994l-1 55q116 52 116 233h-127v189h181v-196q0 -216 -169 -281zM526 994l-1 55q117 53 117 233h-127v189h181v-196q0 -218 -170 -281z" />
    <glyph glyph-name="quotedblbase" unicode="&#x201e;" horiz-adv-x="845" 
d="M153 -261l-1 55q116 52 116 233h-127v188h181v-196q0 -217 -169 -280zM535 -261l-1 55q117 53 117 233h-127v188h181v-196q0 -217 -170 -280z" />
    <glyph glyph-name="ellipsis" unicode="&#x2026;" horiz-adv-x="1134" 
d="M139 0v218h164v-218h-164zM485 0v218h164v-218h-164zM831 0v218h164v-218h-164z" />
    <glyph glyph-name="uni202F" unicode="&#x202f;" horiz-adv-x="344" 
 />
    <glyph glyph-name="guilsinglleft" unicode="&#x2039;" horiz-adv-x="733" 
d="M441 120l-362 421v12l362 421h161l-363 -427l363 -427h-161z" />
    <glyph glyph-name="guilsinglright" unicode="&#x203a;" horiz-adv-x="733" 
d="M292 120h-162l364 427l-364 427h162l362 -421v-12z" />
    <glyph glyph-name="uni205F" unicode="&#x205f;" horiz-adv-x="430" 
 />
    <glyph glyph-name="Euro" unicode="&#x20ac;" horiz-adv-x="1327" 
d="M984 1284q-184 0 -333.5 -97.5t-230.5 -277.5h725v-105h-753q-9 -67 -9 -118q0 -62 10 -126h751v-105h-720q82 -177 230 -272t328 -95q108 0 208 33v-112q-106 -35 -231 -35q-229 0 -413 129.5t-260 351.5h-218l2 101l190 4q-9 75 -9 126q0 37 7 118h-184v105h208
q49 151 151 262.5t238.5 169.5t292.5 58q84 0 139 -8t118 -33v-115q-114 41 -237 41z" />
    <glyph glyph-name="trademark" unicode="&#x2122;" horiz-adv-x="1765" 
d="M419 1361v-683h-79v683h-277v73h615v-73h-259zM1152 680l-299 652l-109 -654h-75l124 756h76l283 -623l283 623h78l121 -756h-75l-107 654z" />
    <glyph glyph-name="glyph2" horiz-adv-x="682" 
 />
    <glyph glyph-name="_142" horiz-adv-x="1200" 
d="M50 1013v129h1107v-129h-1107zM1013 766q0 24 -29 47t-68 23q-35 0 -63.5 -16.5t-28.5 -37.5q0 -31 16.5 -49t68.5 -29l47 -10q43 -9 66 -15t52.5 -17t43.5 -24t25 -34t12 -48q2 -74 -64 -119.5t-172 -45.5q-120 0 -183 60t-63 138l128 -2q0 -8 4.5 -20.5t16 -29t38 -28
t62.5 -11.5q43 0 70 15t27 35q0 40 -104 63q-100 21 -164 57q-64 35 -64 111q0 73 65.5 119t166.5 46q104 0 165.5 -53.5t61.5 -124.5h-133zM196 818v-125h267v-123h-267v-179h-145v550h464v-123h-319zM502 458q0 -26 20.5 -45t48.5 -19q30 0 51 18.5t21 45.5
q0 26 -21.5 45.5t-50.5 19.5q-28 0 -48.5 -19.5t-20.5 -45.5zM47 193v129h1107v-129h-1107z" />
    </font>
</defs>
</svg>
