<?xml version="1.0" standalone="no"?>
<!DOCTYPE svg PUBLIC "-//W3C//DTD SVG 1.1//EN" "http://www.w3.org/Graphics/SVG/1.1/DTD/svg11.dtd" >
<svg xmlns="http://www.w3.org/2000/svg" xmlns:xlink="http://www.w3.org/1999/xlink" version="1.1">
<metadata>
Created by FontForge 20170731 at Thu Apr  5 15:55:49 2018
 By Aleksey,,,
Copyright (c) 2018 by Fontastica. All rights reserved.
</metadata>
<defs>
<font id="Lorin-Regular" horiz-adv-x="1228" >
  <font-face 
    font-family="Lorin"
    font-weight="400"
    font-stretch="normal"
    units-per-em="2048"
    panose-1="0 0 5 0 0 0 0 0 0 0"
    ascent="1638"
    descent="-410"
    x-height="1106"
    cap-height="1434"
    bbox="-86 -474 2055 1720"
    underline-thickness="102"
    underline-position="-816"
    unicode-range="U+0020-2122"
  />
<missing-glyph horiz-adv-x="748" 
d="M612 0h-544v1365h544v-1365zM136 1297v-1229h408v1229h-408z" />
    <glyph glyph-name=".notdef" horiz-adv-x="748" 
d="M612 0h-544v1365h544v-1365zM136 1297v-1229h408v1229h-408z" />
    <glyph glyph-name=".null" horiz-adv-x="0" 
 />
    <glyph glyph-name="nonmarkingreturn" horiz-adv-x="682" 
 />
    <glyph glyph-name="space" unicode=" " horiz-adv-x="536" 
 />
    <glyph glyph-name="exclam" unicode="!" horiz-adv-x="567" 
d="M372 393h-176v1082h176v-1082zM385 0h-200v218h200v-218z" />
    <glyph glyph-name="quotedbl" unicode="&#x22;" horiz-adv-x="765" 
d="M306 937h-163v501h163v-501zM622 937h-163v501h163v-501z" />
    <glyph glyph-name="numbersign" unicode="#" horiz-adv-x="1314" 
d="M1227 1036v-147h-188l-47 -322h188v-151h-213l-62 -414h-161l60 414h-383l-66 -414h-161l65 414h-170v151h195l51 322h-199v147h223l62 398h161l-60 -398h376l61 398h161l-60 -398h167zM447 567h382l47 322h-378z" />
    <glyph glyph-name="dollar" unicode="$" horiz-adv-x="1155" 
d="M507 157l-1 483q-113 25 -195 60q-71 30 -108.5 66t-67.5 101q-29 64 -29 145q0 161 105.5 262.5t289.5 118.5v156h152v-157q181 -20 282 -131.5t101 -288.5h-172q0 98 -57 163.5t-153 86.5l-1 -439l1 1q6 -2 16.5 -4t13.5 -3q102 -25 145 -43q93 -42 125 -69
q65 -56 88 -109q33 -75 33 -163q0 -166 -118.5 -276t-310.5 -131v-167h-139v166q-205 18 -316 136t-111 312h176q0 -115 66 -187t185 -89zM504 1225q-102 -15 -163 -69.5t-61 -136.5q0 -41 21 -83q10 -20 59 -58q20 -16 87 -40q38 -17 58 -23zM648 157q106 19 178.5 83.5
t72.5 150.5q0 63 -28 99q-19 24 -34.5 38t-40.5 26q-54 26 -108 41q-10 2 -25 7l-15 4v-449z" />
    <glyph glyph-name="percent" unicode="%" horiz-adv-x="1656" 
d="M393 821q-145 0 -237 91t-92 234q0 142 92 232.5t237 90.5q144 0 235.5 -90.5t91.5 -232.5q0 -143 -92 -234t-235 -91zM471 -8h-184l870 1444h184zM262 1014q53 -53 131 -53q79 0 130.5 52.5t51.5 132.5t-51.5 131t-130.5 51q-80 0 -131.5 -51.5t-51.5 -130.5
q0 -80 52 -132zM1266 -11q-144 0 -235.5 90t-91.5 231t91.5 231t235.5 90q143 0 234.5 -89.5t91.5 -231.5t-91.5 -231.5t-234.5 -89.5zM1136 181q51 -51 130 -51t129.5 50.5t50.5 129.5t-50.5 130t-129.5 51t-130 -51t-51 -130q0 -80 51 -129z" />
    <glyph glyph-name="ampersand" unicode="&#x26;" horiz-adv-x="1275" 
d="M1268 0h-197l-120 129q-170 -151 -426 -151q-196 0 -315 104.5t-119 276.5q0 150 89 254q77 90 200 167q-90 119 -125.5 202t-35.5 167q0 141 98.5 224t263.5 83q159 0 258 -82.5t99 -215.5q0 -112 -68 -206q-49 -69 -165 -147q-65 -41 -101 -62q130 -160 335 -386
q4 8 16 31t15.5 29t11.5 24.5t12 30.5t9.5 32t10.5 43l144 -34q-25 -98 -43.5 -142t-67.5 -133q2 -2 29.5 -31.5t79.5 -86t112 -120.5zM581 1319q-92 0 -149.5 -47t-57.5 -123q0 -99 140 -290q101 59 155 102q72 55 99 122q15 36 15 75q0 71 -56.5 116t-145.5 45zM540 135
q174 0 304 110q-250 273 -372 419q-110 -71 -163 -140t-53 -159q0 -103 78 -166.5t206 -63.5z" />
    <glyph glyph-name="quotesingle" unicode="'" horiz-adv-x="448" 
d="M306 937h-163v501h163v-501z" />
    <glyph glyph-name="parenleft" unicode="(" horiz-adv-x="616" 
d="M586 -273h-194q-140 200 -215 442.5t-75 503.5q0 263 75 504.5t215 444.5h194q-143 -193 -227.5 -440.5t-84.5 -508.5q0 -262 84.5 -510.5t227.5 -435.5z" />
    <glyph glyph-name="parenright" unicode=")" horiz-adv-x="616" 
d="M225 -273h-193q142 186 226.5 434.5t84.5 511.5q0 261 -84 509t-227 440h193q140 -203 215 -444.5t75 -504.5q0 -261 -75 -503.5t-215 -442.5z" />
    <glyph glyph-name="asterisk" unicode="*" horiz-adv-x="815" 
d="M685 1298l46 -126l-217 -72l143 -182l-102 -86l-148 193l-147 -193l-105 86l145 182l-214 72l44 126l210 -73v223h135v-223z" />
    <glyph glyph-name="plus" unicode="+" horiz-adv-x="1075" 
d="M624 784h384v-161h-384v-402h-170v402h-386v161h386v391h170v-391z" />
    <glyph glyph-name="comma" unicode="," horiz-adv-x="493" 
d="M151 -272v97q107 38 107 175h-117v215h211v-200q0 -230 -201 -287z" />
    <glyph glyph-name="hyphen" unicode="-" horiz-adv-x="931" 
d="M791 488h-650v168h650v-168z" />
    <glyph glyph-name="period" unicode="." horiz-adv-x="479" 
d="M339 0h-200v218h200v-218z" />
    <glyph glyph-name="slash" unicode="/" horiz-adv-x="888" 
d="M236 -140h-183l599 1699h181z" />
    <glyph glyph-name="zero" unicode="0" horiz-adv-x="1273" 
d="M638 -24q-243 0 -385.5 190.5t-142.5 515.5q0 326 142 515t386 189q243 0 384 -189t141 -515q0 -325 -141.5 -515.5t-383.5 -190.5zM638 137q165 0 260 145t95 400q0 254 -95 398.5t-260 144.5q-167 0 -262 -144t-95 -399q0 -256 95 -400.5t262 -144.5z" />
    <glyph glyph-name="one" unicode="1" horiz-adv-x="677" 
d="M53 1059v156l428 147v-1362h-167v1146z" />
    <glyph glyph-name="two" unicode="2" horiz-adv-x="1075" 
d="M351 161h639v-161h-879v161q130 137 251.5 250.5t184 173.5t105.5 120q72 100 93.5 157.5t21.5 130.5q0 104 -66.5 168t-174.5 64q-113 0 -182.5 -65t-69.5 -169v-33h-168v33q0 178 116 286.5t304 108.5q182 0 296.5 -110t114.5 -283q0 -79 -19 -142.5t-74 -154.5
q-34 -56 -101.5 -129t-186.5 -192.5t-205 -213.5z" />
    <glyph glyph-name="three" unicode="3" horiz-adv-x="1093" 
d="M941 1323l-324 -476q168 -22 272.5 -140.5t104.5 -286.5q0 -192 -131 -318t-327 -126q-189 0 -313.5 118t-134.5 304h167q8 -118 85.5 -189.5t195.5 -71.5q125 0 206 81.5t81 207.5q0 125 -87 206t-221 81h-68v142l219 352h-534v155h809v-39z" />
    <glyph glyph-name="four" unicode="4" horiz-adv-x="1103" 
d="M904 437h143v-149h-143v-288h-165v288h-697v39l479 1036h176l-427 -926h471v263h163v-263z" />
    <glyph glyph-name="five" unicode="5" horiz-adv-x="1075" 
d="M317 861h205q202 0 335 -126t133 -315q0 -191 -130 -317.5t-323 -126.5q-191 0 -318 119t-134 303h167q7 -116 86.5 -188.5t198.5 -72.5q122 0 202.5 80t80.5 203q0 124 -87 206.5t-217 82.5h-370l69 653h682v-155h-542z" />
    <glyph glyph-name="six" unicode="6" horiz-adv-x="1136" 
d="M610 886q124 0 229 -55t170 -157q65 -104 65 -235q0 -202 -137.5 -332.5t-349.5 -130.5q-214 0 -351.5 130t-137.5 333q0 188 149 453l273 483h197q-159 -284 -278 -518q52 20 83 24.5t88 4.5zM358 223q91 -86 228 -86q138 0 227.5 85.5t89.5 216.5q0 133 -89.5 218
t-227.5 85t-228 -86t-90 -217t90 -216z" />
    <glyph glyph-name="seven" unicode="7" horiz-adv-x="1019" 
d="M53 1207v155h921v-30l-254 -631l164 -1v-160l-228 2l-218 -542h-180l218 538l-229 2v160h295l205 507h-694z" />
    <glyph glyph-name="eight" unicode="8" horiz-adv-x="1177" 
d="M865 730q91 -50 149 -140.5t58 -195.5q0 -183 -135.5 -300.5t-348.5 -117.5q-217 0 -349.5 115t-132.5 303q0 102 59.5 193t152.5 143q-70 50 -116.5 129t-46.5 163q0 161 120 262.5t313 101.5t312.5 -100.5t119.5 -263.5q0 -86 -44.5 -165.5t-110.5 -126.5zM588 1242
q-119 0 -193 -61.5t-74 -158.5q0 -100 74 -162t193 -62q117 0 191 62t74 162q0 97 -74 158.5t-191 61.5zM588 126q140 0 227 73t87 189q0 119 -87 192.5t-227 73.5q-138 0 -225 -73.5t-87 -192.5q0 -116 86.5 -189t225.5 -73z" />
    <glyph glyph-name="nine" unicode="9" horiz-adv-x="1130" 
d="M524 489q-124 0 -229.5 54.5t-169.5 157.5q-65 104 -65 235q0 202 137.5 332.5t349.5 130.5q214 0 351.5 -130t137.5 -333q0 -188 -149 -453l-273 -483h-197q159 284 278 518q-52 -20 -83 -24.5t-88 -4.5zM776 1152q-91 86 -228 86q-138 0 -227.5 -85.5t-89.5 -216.5
q0 -133 89.5 -218t227.5 -85t228 86t90 217q0 130 -90 216z" />
    <glyph glyph-name="colon" unicode=":" horiz-adv-x="485" 
d="M343 775h-200v218h200v-218zM343 0h-200v218h200v-218z" />
    <glyph glyph-name="semicolon" unicode=";" horiz-adv-x="503" 
d="M351 777h-199v218h199v-218zM156 -272v97q107 38 107 175h-117v215h211v-200q0 -230 -201 -287z" />
    <glyph glyph-name="less" unicode="&#x3c;" horiz-adv-x="1087" 
d="M56 709l880 565v-195l-604 -382l604 -378v-195l-880 553v32z" />
    <glyph glyph-name="equal" unicode="=" horiz-adv-x="1275" 
d="M1130 842h-983v161h983v-161zM1130 392h-983v161h983v-161z" />
    <glyph glyph-name="greater" unicode="&#x3e;" horiz-adv-x="1087" 
d="M150 1079v195l881 -565v-32l-881 -553v195l605 378z" />
    <glyph glyph-name="question" unicode="?" horiz-adv-x="1054" 
d="M579 393h-174v46q0 100 33 165q20 41 34.5 63.5t42.5 49.5q35 35 95 85q75 57 122 115q56 69 56 174q0 118 -77 190t-200 72q-116 0 -198 -77t-89 -191h-164q5 126 69.5 231.5t164.5 152.5t217 47q127 0 227 -50.5t160 -147.5q60 -98 60 -227q0 -112 -43 -200
q-32 -65 -105 -130q-15 -14 -62 -52q-65 -54 -96 -88q-43 -46 -62 -110q-11 -36 -11 -73v-45zM592 0h-200v218h200v-218z" />
    <glyph glyph-name="at" unicode="@" horiz-adv-x="2072" 
d="M1031 1394q275 0 489.5 -110t333.5 -310q118 -199 118 -456q0 -202 -98 -329.5t-252 -127.5q-89 0 -158 45t-100 121q-60 -90 -156 -140t-210 -50q-198 0 -328.5 133t-130.5 333t130.5 332.5t328.5 132.5q103 0 176.5 -41.5t137.5 -124.5v120h151v-540q0 -83 45.5 -135.5
t118.5 -52.5q92 0 149 90t57 234q0 216 -100 385.5t-282 263.5q-181 93 -416 93q-233 0 -416.5 -95t-284.5 -268q-102 -173 -102 -393q0 -218 96 -387t270.5 -262t399.5 -93q212 0 367 90v-138q-177 -88 -384 -88q-258 0 -460.5 110.5t-315.5 311.5q-113 200 -113 456
q0 194 68 360t193 284q123 117 298.5 181.5t379.5 64.5zM1009 185q137 0 226 90t89 229t-89 228.5t-226 89.5q-135 0 -225 -91t-90 -227q0 -137 89.5 -228t225.5 -91z" />
    <glyph glyph-name="A" unicode="A" horiz-adv-x="1427" 
d="M1392 0h-195l-142 374h-689l-140 -374h-191l586 1434h168zM988 539l-280 682l-275 -682h555z" />
    <glyph glyph-name="B" unicode="B" horiz-adv-x="1320" 
d="M973 744q101 -44 166 -139t65 -210q0 -167 -125 -281t-309 -114h-574v1434h566q174 0 289 -105t115 -262q0 -96 -55 -185t-138 -138zM983 1043q0 91 -65 153t-160 62h-384v-430h385q95 0 159.5 62.5t64.5 152.5zM374 178h394q108 0 179 67.5t71 169.5q0 101 -71.5 169
t-178.5 68h-394v-474z" />
    <glyph glyph-name="C" unicode="C" horiz-adv-x="1589" 
d="M833 -22q-209 0 -377 94.5t-263 263.5q-95 170 -95 381t94 380.5t263 264.5q167 94 378 94q254 0 436 -124.5t243 -352.5h-183q-55 151 -184.5 226t-311.5 75q-241 0 -396 -158t-155 -405t155 -405t396 -158q185 0 316.5 82.5t186.5 243.5h183q-60 -239 -244 -370.5
t-442 -131.5z" />
    <glyph glyph-name="D" unicode="D" horiz-adv-x="1501" 
d="M196 1434h478q207 0 374 -91.5t260 -256.5q93 -164 93 -369q0 -204 -92.5 -368.5t-259.5 -256.5t-375 -92h-478v1434zM385 170l283 -2q239 -1 394 154.5t155 394.5q0 157 -69.5 282t-194.5 196q-122 68 -285 70l-283 2v-1097z" />
    <glyph glyph-name="E" unicode="E" horiz-adv-x="1132" 
d="M375 654v-482h657v-172h-836v1434h838v-171h-659v-443h656v-166h-656z" />
    <glyph glyph-name="F" unicode="F" horiz-adv-x="1071" 
d="M1001 1434v-171h-626v-473h626v-167h-626v-623h-179v1434h805z" />
    <glyph glyph-name="G" unicode="G" horiz-adv-x="1634" 
d="M826 540v171l717 1q-3 -157 -57 -294.5t-149 -235.5t-227.5 -152t-283.5 -54q-207 0 -374 95.5t-260 265.5q-94 169 -94 380q0 209 93.5 378.5t259.5 265.5q166 95 371 95q174 0 320 -55.5t246.5 -165.5t131.5 -259h-185q-44 150 -181.5 227t-327.5 77q-238 0 -391 -158
t-153 -405q0 -250 151 -407.5t393 -157.5q197 0 339.5 106.5t181.5 282.5z" />
    <glyph glyph-name="H" unicode="H" horiz-adv-x="1492" 
d="M1117 824v610h180v-1434h-180v651h-742v-651h-179v1434h179v-610h742z" />
    <glyph glyph-name="I" unicode="I" horiz-adv-x="571" 
d="M375 0h-179v1434h179v-1434z" />
    <glyph glyph-name="J" unicode="J" horiz-adv-x="1222" 
d="M553 -24q-216 0 -356 132t-140 346v29h177v-21q0 -142 89.5 -226t229.5 -84q134 0 223 94t89 237v951h178v-959q0 -217 -138.5 -358t-351.5 -141z" />
    <glyph glyph-name="K" unicode="K" horiz-adv-x="1300" 
d="M1301 0h-230l-696 657v-657h-179v1434h179v-609l650 609h229l-730 -690z" />
    <glyph glyph-name="L" unicode="L" horiz-adv-x="1048" 
d="M375 1434v-1266h630v-168h-809v1434h179z" />
    <glyph glyph-name="M" unicode="M" horiz-adv-x="1959" 
d="M1631 1434l237 -1434h-183l-187 1120l-494 -1120h-48l-495 1119l-188 -1119h-183l241 1434h174l473 -1067l476 1067h177z" />
    <glyph glyph-name="N" unicode="N" horiz-adv-x="1533" 
d="M1163 328v1106h176v-1434h-151l-816 1119v-1119h-176v1434h162z" />
    <glyph glyph-name="O" unicode="O" horiz-adv-x="1697" 
d="M1234 73q-172 -97 -386 -97q-213 0 -384.5 96.5t-268.5 266.5q-97 169 -97 378t96.5 378.5t268.5 266.5q171 96 385 96q213 0 385.5 -96t269.5 -266q96 -169 96 -379q0 -209 -96.5 -378.5t-268.5 -265.5zM848 152q161 0 291 73.5t203 203.5q73 128 73 288
q0 159 -73 288.5t-203 203.5q-130 73 -291 73q-159 0 -289.5 -73.5t-203.5 -203.5q-73 -128 -73 -288q0 -158 73 -287t203 -204q131 -74 290 -74z" />
    <glyph glyph-name="P" unicode="P" horiz-adv-x="1249" 
d="M196 1434h514q203 0 339.5 -131.5t136.5 -328.5t-136 -328t-340 -131h-335v-515h-179v1434zM375 689h325q132 0 217 81t85 204t-85 204.5t-217 81.5h-325v-571z" />
    <glyph glyph-name="Q" unicode="Q" horiz-adv-x="1697" 
d="M1347 151l150 -170l-131 -102l-159 180q-164 -83 -359 -83q-213 0 -384.5 96.5t-268.5 266.5q-97 169 -97 378t96.5 378.5t268.5 266.5q171 96 385 96q213 0 385.5 -96t269.5 -266q96 -169 96 -379q0 -171 -65.5 -317t-186.5 -249zM848 152q129 0 238 47l-289 340
l132 102l300 -352q89 79 137.5 189.5t48.5 238.5q0 159 -73 288.5t-203 203.5q-130 73 -291 73q-159 0 -289.5 -73.5t-203.5 -203.5q-73 -128 -73 -288q0 -158 73 -287t203 -204q131 -74 290 -74z" />
    <glyph glyph-name="R" unicode="R" horiz-adv-x="1318" 
d="M1233 0h-220l-311 561h-327v-561h-179v1434h543q202 0 334.5 -124t132.5 -315q0 -149 -85.5 -260t-230.5 -153zM730 1263h-355v-532h355q131 0 212 74t81 192q0 117 -82 191.5t-211 74.5z" />
    <glyph glyph-name="S" unicode="S" horiz-adv-x="1222" 
d="M623 -18q-237 0 -384 131.5t-147 341.5h183q0 -131 97 -214t249 -83q140 0 231 68.5t91 178.5q0 47 -23 95q-11 23 -63 64q-17 13 -94 45q-10 4 -57 17l-57 15l-62 15q-49 12 -79.5 20t-72.5 20t-68.5 22.5t-60 26.5t-54.5 32t-44.5 38t-38 47t-26 56.5t-17.5 67.5
q-5 35 -5 67q0 185 131.5 292t356.5 107q221 0 351.5 -119.5t130.5 -316.5h-178q0 117 -86.5 190.5t-221.5 73.5q-134 0 -219 -60t-85 -159q0 -59 36 -108q25 -35 97 -69q45 -23 137 -45q4 -1 78 -19q50 -12 79.5 -20t73 -20.5t69.5 -22.5t60.5 -26t56 -32t46 -38
t39.5 -46.5t28 -56t20 -67.5q8 -43 8 -84q0 -130 -66.5 -228t-181.5 -148q-113 -49 -258 -49z" />
    <glyph glyph-name="T" unicode="T" horiz-adv-x="1138" 
d="M43 1434h1052v-169h-436v-1265h-180v1265h-436v169z" />
    <glyph glyph-name="U" unicode="U" horiz-adv-x="1482" 
d="M743 -24q-244 0 -404 157.5t-160 400.5v900h182v-887q0 -176 106.5 -285.5t275.5 -109.5q168 0 274 109.5t106 285.5v887h182v-900q0 -160 -72.5 -288t-201.5 -199q-130 -71 -288 -71z" />
    <glyph glyph-name="V" unicode="V" horiz-adv-x="1396" 
d="M700 270l456 1164h197l-570 -1434h-166l-580 1434h199z" />
    <glyph glyph-name="W" unicode="W" horiz-adv-x="2103" 
d="M1517 294l348 1140h190l-452 -1434h-159l-394 1056l-385 -1056h-158l-462 1434h191l357 -1139l419 1134h72z" />
    <glyph glyph-name="X" unicode="X" 
d="M727 745l487 -745h-203l-396 606l-393 -606h-205l488 751l-450 683h203l358 -547l356 547h202z" />
    <glyph glyph-name="Y" unicode="Y" horiz-adv-x="1347" 
d="M1098 1434h197l-529 -862v-572h-185v572l-525 862h196l422 -693z" />
    <glyph glyph-name="Z" unicode="Z" horiz-adv-x="1153" 
d="M367 168h732v-168h-1061l755 1265h-708v169h1014z" />
    <glyph glyph-name="bracketleft" unicode="[" horiz-adv-x="686" 
d="M636 -283h-440v1904h436v-148h-274v-1605h278v-151z" />
    <glyph glyph-name="backslash" unicode="\" horiz-adv-x="888" 
d="M237 1559l599 -1699h-184l-597 1699h182z" />
    <glyph glyph-name="bracketright" unicode="]" horiz-adv-x="686" 
d="M490 1621v-1904h-441v151h278v1605h-274v148h437z" />
    <glyph glyph-name="asciicircum" unicode="^" horiz-adv-x="1091" 
d="M264 694h-197l465 744h31l461 -744h-197l-281 455z" />
    <glyph glyph-name="underscore" unicode="_" horiz-adv-x="1056" 
d="M1057 -266h-1057v167h1057v-167z" />
    <glyph glyph-name="grave" unicode="`" 
d="M409 1547l138 -311h-137l-187 311h186z" />
    <glyph glyph-name="a" unicode="a" horiz-adv-x="1431" 
d="M1079 936v170h178v-1106h-187v168q-165 -192 -410 -192q-161 0 -291.5 75t-205.5 208q-75 132 -75 294q0 248 163.5 412.5t408.5 164.5q255 0 419 -194zM382 261q116 -117 291 -117t290.5 116.5t115.5 292.5t-115.5 292.5t-290.5 116.5t-291 -117t-116 -292
q0 -174 116 -292z" />
    <glyph glyph-name="b" unicode="b" horiz-adv-x="1417" 
d="M759 1130q163 0 294 -74.5t204 -206.5q72 -132 72 -296t-73 -295.5t-203.5 -206.5t-293.5 -75q-244 0 -409 181v-157h-175v1501h175v-535q79 79 184 121.5t225 42.5zM455 262q115 -118 291 -118q175 0 290.5 116.5t115.5 292.5t-115.5 292.5t-290.5 116.5t-291.5 -117
t-116.5 -292q0 -174 117 -291z" />
    <glyph glyph-name="c" unicode="c" horiz-adv-x="1269" 
d="M663 -24q-161 0 -293 75t-207 208q-75 132 -75 294t74.5 294.5t207.5 207.5q132 75 293 75q199 0 342.5 -101.5t194.5 -281.5h-172q-48 105 -144 160t-221 55q-170 0 -283.5 -117.5t-113.5 -291.5q0 -173 114 -291t283 -118q125 0 219 55t144 164h176q-50 -181 -196 -284
t-343 -103z" />
    <glyph glyph-name="d" unicode="d" horiz-adv-x="1417" 
d="M1068 966v535h174v-1501h-170v157q-164 -181 -414 -181q-163 0 -293.5 75t-203.5 206.5t-73 295.5t72.5 295.5t203.5 206.5q130 75 294 75q246 0 410 -164zM382 261q115 -117 290 -117q174 0 290.5 117.5t116.5 291.5q0 175 -116 292t-291 117t-290.5 -116.5
t-115.5 -292.5t116 -292z" />
    <glyph glyph-name="e" unicode="e" horiz-adv-x="1294" 
d="M1209 548q0 -30 -3 -62h-943q20 -154 126.5 -247t262.5 -93q116 0 195.5 40t130.5 129h184q-141 -339 -510 -339q-158 0 -287 75t-203 207q-74 133 -74 295t73.5 294.5t203.5 207.5q129 75 287 75q162 0 290.5 -77t198.5 -211q68 -134 68 -294zM652 965
q-150 0 -254 -86.5t-131 -231.5h768q-28 147 -131.5 232.5t-251.5 85.5z" />
    <glyph glyph-name="f" unicode="f" horiz-adv-x="792" 
d="M422 1098h345v-146h-339v-952h-174v952h-202v146h202v90q0 180 86.5 266.5t268.5 86.5h156v-141h-125q-118 0 -168 -49.5t-50 -166.5v-86z" />
    <glyph glyph-name="g" unicode="g" horiz-adv-x="1380" 
d="M1032 934v172h173v-951q0 -268 -145 -421t-397 -153q-140 0 -249.5 33t-189 109t-108.5 191h174q61 -174 373 -174q169 0 270.5 105.5t101.5 286.5v68q-76 -79 -180 -122t-223 -43q-150 0 -275.5 72t-196.5 198q-72 125 -72 277t71 278t197 198q124 72 276 72
q239 0 400 -196zM376 311q109 -109 275 -109t274 107.5t108 272.5t-108 273t-274 108t-275.5 -108.5t-109.5 -272.5q0 -163 110 -271z" />
    <glyph glyph-name="h" unicode="h" horiz-adv-x="1314" 
d="M729 1130q197 0 312 -126.5t115 -341.5v-662h-174v621q0 168 -77 259t-221 91q-142 0 -238 -106t-96 -262v-603h-175v1501h175v-531q125 160 379 160z" />
    <glyph glyph-name="i" unicode="i" horiz-adv-x="524" 
d="M357 1297h-189v200h189v-200zM350 0h-175v1125h175v-1125z" />
    <glyph glyph-name="j" unicode="j" horiz-adv-x="548" 
d="M383 1297h-188v200h188v-200zM5 -395h-91v159h66q106 0 163 58t57 164v1138h174v-1151q0 -166 -101 -267t-268 -101z" />
    <glyph glyph-name="k" unicode="k" horiz-adv-x="1132" 
d="M1123 0h-218l-537 496v-496h-174v1501h174v-844l502 449h212l-578 -530z" />
    <glyph glyph-name="l" unicode="l" horiz-adv-x="524" 
d="M350 0h-175v1501h175v-1501z" />
    <glyph glyph-name="m" unicode="m" horiz-adv-x="1945" 
d="M1367 1130q177 0 298 -119.5t121 -303.5v-707h-173l-1 653q0 150 -66 234t-184 84q-123 0 -209 -104t-86 -254v-613h-170v653q0 150 -66 234t-186 84q-123 0 -209 -104t-86 -254v-613h-175v1106h175v-152q135 176 334 176q212 0 313 -210q63 99 160 154.5t210 55.5z" />
    <glyph glyph-name="n" unicode="n" horiz-adv-x="1314" 
d="M701 1130q196 0 325.5 -131.5t129.5 -336.5v-662h-174v621q0 168 -77 259t-221 91q-142 0 -238 -106t-96 -262v-603h-175v1106h158v-173q133 197 368 197z" />
    <glyph glyph-name="o" unicode="o" horiz-adv-x="1349" 
d="M674 -24q-251 0 -418.5 164.5t-167.5 412.5q0 164 75.5 296t211.5 207q134 74 299 74t299.5 -74.5t211.5 -206.5q76 -133 76 -296q0 -162 -76 -295t-211 -207q-135 -75 -300 -75zM381 260q130 -130 293 -130q178 0 300 122.5t122 300.5q0 177 -122 297.5t-300 120.5
t-299 -120t-121 -298q0 -166 127 -293z" />
    <glyph glyph-name="p" unicode="p" horiz-adv-x="1419" 
d="M763 1130q162 0 292.5 -74.5t203.5 -206.5q72 -132 72 -296q0 -163 -73 -295t-203 -207t-292 -75q-121 0 -227.5 45t-185.5 127v-558h-175v1516h175v-169q166 193 413 193zM459 261q115 -117 291 -117q175 0 290 116.5t115 292.5t-115 292.5t-290 116.5t-291.5 -117
t-116.5 -292t117 -292z" />
    <glyph glyph-name="q" unicode="q" horiz-adv-x="1419" 
d="M1077 937v169h167v-1516h-174v558q-79 -83 -185 -127.5t-228 -44.5q-119 0 -225.5 43.5t-182.5 121.5t-118.5 184.5t-42.5 227.5q0 164 73.5 296t203.5 206.5t292 74.5q254 0 420 -193zM380 261q116 -117 290 -117q175 0 291 117t116 292t-116 292t-291 117
t-290.5 -116.5t-115.5 -292.5t116 -292z" />
    <glyph glyph-name="r" unicode="r" horiz-adv-x="810" 
d="M681 1112h98v-165h-113q-150 0 -233 -91.5t-83 -254.5v-601h-175v1106l178 1v-168q62 90 138 131.5t190 41.5z" />
    <glyph glyph-name="s" unicode="s" horiz-adv-x="1050" 
d="M525 -24q-194 0 -314 103t-127 271h170q7 -96 82.5 -154.5t194.5 -58.5q116 0 188 46.5t72 125.5q0 64 -42 99q-47 38 -104 52q-58 15 -141 29q-63 10 -113 22t-109 33q-38 14 -91 55q-33 24 -63 85q-24 48 -24 126q0 143 115 231.5t302 88.5q185 0 298.5 -98.5
t118.5 -256.5h-165q-5 91 -73 145.5t-183 54.5q-111 0 -177.5 -43.5t-66.5 -115.5q0 -60 39 -89q45 -33 100 -47q64 -16 136 -26q41 -7 64.5 -11t60 -11.5t58 -14.5t51.5 -17.5t48 -22t40 -27.5t35 -35.5t26 -43t20 -53t10 -63.5q2 -26 2 -38q0 -155 -120 -248t-318 -93z
" />
    <glyph glyph-name="t" unicode="t" horiz-adv-x="841" 
d="M675 161h103v-161h-126q-180 0 -287.5 104t-107.5 283v530h-195v157h195v267l174 -1v-266h347v-157h-347v-525q0 -111 65 -171t179 -60z" />
    <glyph glyph-name="u" unicode="u" horiz-adv-x="1294" 
d="M647 -24q-223 0 -356.5 134t-133.5 357v639h174v-611q0 -164 85 -262.5t230 -98.5q146 0 231.5 99t85.5 262v611h174v-639q0 -223 -133 -357t-357 -134z" />
    <glyph glyph-name="v" unicode="v" horiz-adv-x="1171" 
d="M589 213l367 893h178l-466 -1106h-158l-479 1106h182z" />
    <glyph glyph-name="w" unicode="w" horiz-adv-x="1738" 
d="M1241 284l283 822h176l-377 -1106h-142l-312 770l-313 -770h-141l-374 1106h182l275 -815l340 810h63z" />
    <glyph glyph-name="x" unicode="x" horiz-adv-x="1050" 
d="M630 583l408 -583h-195l-318 461l-318 -461h-191l405 575l-372 531h196l282 -409l287 409h192z" />
    <glyph glyph-name="y" unicode="y" horiz-adv-x="1200" 
d="M626 338l358 768h185l-701 -1516h-182l253 573l-508 943h190z" />
    <glyph glyph-name="z" unicode="z" horiz-adv-x="985" 
d="M358 163h560v-163h-867l587 945h-548v161h841z" />
    <glyph glyph-name="braceleft" unicode="{" horiz-adv-x="710" 
d="M539 -122l120 1v-154h-180q-109 0 -186 76.5t-77 186.5v490q0 48 -34 81.5t-82 33.5h-31v146h31q49 0 82.5 33.5t33.5 82.5v489q0 109 77 185t186 76h177v-153h-117q-65 0 -108 -43t-43 -108v-437q0 -66 -33.5 -120t-86.5 -78q52 -24 86 -78t34 -119v-440
q0 -63 43.5 -107t107.5 -44z" />
    <glyph glyph-name="bar" unicode="|" horiz-adv-x="555" 
d="M359 -389h-163v2109h163v-2109z" />
    <glyph glyph-name="braceright" unicode="}" horiz-adv-x="710" 
d="M611 739h31v-146h-31q-49 0 -82.5 -33.5t-33.5 -81.5v-490q0 -110 -77 -186.5t-186 -76.5h-180v153h120q64 0 107.5 44t43.5 107v440q0 65 34 119t86 78q-53 24 -86.5 78t-33.5 120v437q0 65 -43.5 108t-107.5 43h-117v153h177q109 0 186 -76t77 -185v-489
q0 -49 33.5 -82.5t82.5 -33.5z" />
    <glyph glyph-name="asciitilde" unicode="~" horiz-adv-x="1183" 
d="M798 484q-68 0 -126 28t-132 96q-49 48 -77 65t-59 17q-59 0 -96 -47.5t-37 -123.5v-29h-126v35q0 145 70 231t187 86q72 0 129.5 -28.5t124.5 -97.5q48 -48 77 -65t62 -17q59 0 94.5 45t35.5 121v31h126v-33q0 -145 -68 -229.5t-185 -84.5z" />
    <glyph glyph-name="uni00A0" unicode="&#xa0;" horiz-adv-x="536" 
 />
    <glyph glyph-name="cent" unicode="&#xa2;" horiz-adv-x="1222" 
d="M709 146q93 16 165.5 72.5t112.5 145.5l166 -4q-44 -156 -162 -257.5t-279 -120.5v-163h-141v163q-208 24 -342.5 177.5t-134.5 368.5q0 217 134 369.5t343 175.5v174h141v-174q162 -19 279.5 -119.5t160.5 -255.5h-167q-39 86 -111 140.5t-165 70.5v-763zM573 909
q-138 -23 -224.5 -128.5t-86.5 -252.5q0 -144 86.5 -250t220.5 -131z" />
    <glyph glyph-name="sterling" unicode="&#xa3;" horiz-adv-x="1220" 
d="M971 148v243h155v-391h-1031v122l143 23v436h-122v146h122v260q0 182 120 298t306 116q181 0 295.5 -113.5t114.5 -291.5v-19h-155v10q0 109 -73 181t-182 72q-112 0 -184.5 -74.5t-72.5 -188.5v-250h371v-146h-371v-433h564z" />
    <glyph glyph-name="yen" unicode="&#xa5;" horiz-adv-x="1304" 
d="M1242 1362l-504 -753v-48h392v-114h-392v-133h392v-113h-392v-201h-172v201h-393v113h393v133h-393v114h393v46l-501 755h180l405 -615l410 615h182z" />
    <glyph glyph-name="dieresis" unicode="&#xa8;" 
d="M403 1297h-200v200h200v-200zM806 1297h-199v200h199v-200z" />
    <glyph glyph-name="copyright" unicode="&#xa9;" horiz-adv-x="1718" 
d="M857 -22q-218 0 -391 93.5t-269 262.5q-97 167 -97 381q0 213 96 381.5t270 262.5q173 93 391 93t392.5 -93.5t272.5 -262.5q97 -169 97 -381t-97 -380.5t-272 -262.5q-173 -94 -393 -94zM857 88q137 0 257.5 46t206.5 129t134 200.5t48 251.5q0 181 -82 324.5
t-230 222.5t-334 79t-332.5 -79t-228.5 -222q-82 -142 -82 -325q0 -182 82 -325t228.5 -222.5t332.5 -79.5zM863 347q-108 0 -194.5 48.5t-134.5 135.5t-48 196q0 108 48.5 194t135.5 136q83 48 193 48q130 0 223.5 -63.5t125.5 -180.5h-95q-28 77 -94.5 115.5t-159.5 38.5
q-124 0 -203.5 -81t-79.5 -207q0 -127 79.5 -208.5t203.5 -81.5q95 0 162.5 42.5t96.5 125.5h93q-31 -123 -125 -190.5t-227 -67.5z" />
    <glyph glyph-name="guillemotleft" unicode="&#xab;" horiz-adv-x="1224" 
d="M629 120h-206l-344 413v28l344 413h206l-352 -427zM1120 120h-206l-344 413v28l344 413h206l-352 -427z" />
    <glyph glyph-name="uni00AD" unicode="&#xad;" horiz-adv-x="931" 
d="M791 488h-650v168h650v-168z" />
    <glyph glyph-name="registered" unicode="&#xae;" horiz-adv-x="970" 
d="M210 1341q115 113 277 113q163 0 276 -113t113 -276t-113 -277t-276 -114q-162 0 -276.5 114.5t-114.5 276.5q0 163 114 276zM262 841q94 -92 225 -92q132 0 224 92t92 224q0 130 -92.5 222t-223.5 92q-133 0 -225.5 -91.5t-92.5 -222.5q0 -133 93 -224zM663 845h-68
l-94 171h-101v-171h-55v440h167q62 0 102.5 -38.5t40.5 -97.5q0 -45 -26.5 -79t-70.5 -47zM508 1232h-108v-163h108q40 0 65.5 22.5t25.5 58.5t-25.5 59t-65.5 23z" />
    <glyph glyph-name="acute" unicode="&#xb4;" horiz-adv-x="917" 
d="M342 1236h-137l138 311h185z" />
    <glyph glyph-name="cedilla" unicode="&#xb8;" horiz-adv-x="794" 
d="M432 58l-40 -145q87 -10 140 -62.5t53 -129.5q0 -87 -62.5 -141t-165.5 -54h-151v101h131q53 0 86 27.5t33 71.5q0 45 -33 72t-87 26l-79 -2l64 236h111z" />
    <glyph glyph-name="guillemotright" unicode="&#xbb;" horiz-adv-x="1224" 
d="M654 533l-344 -413h-207l353 427l-353 427h207l344 -413v-28zM1145 533l-344 -413h-207l353 427l-353 427h207l344 -413v-28z" />
    <glyph glyph-name="circumflex" unicode="&#x2c6;" 
d="M746 1547l244 -311h-154l-189 206l-188 -206h-155l243 311h199z" />
    <glyph glyph-name="ring" unicode="&#x2da;" horiz-adv-x="839" 
d="M420 1208q-103 0 -168.5 62t-65.5 158q0 97 65.5 158.5t168.5 61.5t168 -61.5t65 -158.5q0 -96 -65.5 -158t-167.5 -62zM329 1341q34 -34 91 -34q56 0 91.5 33.5t35.5 87.5q0 55 -35.5 88.5t-91.5 33.5t-91.5 -33.5t-35.5 -88.5q0 -54 36 -87z" />
    <glyph glyph-name="tilde" unicode="&#x2dc;" 
d="M761 1250q-41 0 -80.5 15t-63.5 34q-15 12 -52 47q-42 40 -70 53q-19 10 -40 10q-41 0 -67 -35.5t-26 -92.5v-22h-107v26q0 114 53 180t145 66q79 0 135 -46q20 -17 49 -46q35 -37 61.5 -53t60.5 -16q42 0 67 35.5t25 94.5v18h109v-22q0 -112 -54 -179t-145 -67z" />
    <glyph glyph-name="uni2000" unicode="&#x2000;" horiz-adv-x="860" 
 />
    <glyph glyph-name="uni2001" unicode="&#x2001;" horiz-adv-x="1720" 
 />
    <glyph glyph-name="uni2002" unicode="&#x2002;" horiz-adv-x="860" 
 />
    <glyph glyph-name="uni2003" unicode="&#x2003;" horiz-adv-x="1720" 
 />
    <glyph glyph-name="uni2004" unicode="&#x2004;" horiz-adv-x="573" 
 />
    <glyph glyph-name="uni2005" unicode="&#x2005;" horiz-adv-x="430" 
 />
    <glyph glyph-name="uni2006" unicode="&#x2006;" horiz-adv-x="286" 
 />
    <glyph glyph-name="uni2007" unicode="&#x2007;" horiz-adv-x="286" 
 />
    <glyph glyph-name="uni2008" unicode="&#x2008;" horiz-adv-x="215" 
 />
    <glyph glyph-name="uni2009" unicode="&#x2009;" horiz-adv-x="344" 
 />
    <glyph glyph-name="uni200A" unicode="&#x200a;" horiz-adv-x="95" 
 />
    <glyph glyph-name="uni2010" unicode="&#x2010;" horiz-adv-x="931" 
d="M791 488h-650v168h650v-168z" />
    <glyph glyph-name="uni2011" unicode="&#x2011;" horiz-adv-x="931" 
d="M791 488h-650v168h650v-168z" />
    <glyph glyph-name="figuredash" unicode="&#x2012;" horiz-adv-x="931" 
d="M791 488h-650v168h650v-168z" />
    <glyph glyph-name="endash" unicode="&#x2013;" horiz-adv-x="1310" 
d="M1170 488h-1029v168h1029v-168z" />
    <glyph glyph-name="emdash" unicode="&#x2014;" horiz-adv-x="1837" 
d="M1695 488h-1554v168h1554v-168z" />
    <glyph glyph-name="quoteleft" unicode="&#x2018;" horiz-adv-x="460" 
d="M324 1548v-96q-107 -38 -107 -176h116v-215h-210v200q0 230 201 287z" />
    <glyph glyph-name="quoteright" unicode="&#x2019;" horiz-adv-x="448" 
d="M142 984v97q107 38 107 175h-117v215h211v-200q0 -230 -201 -287z" />
    <glyph glyph-name="quotesinglbase" unicode="&#x201a;" horiz-adv-x="493" 
d="M151 -272v97q107 38 107 175h-117v215h211v-200q0 -230 -201 -287z" />
    <glyph glyph-name="quotedblleft" unicode="&#x201c;" horiz-adv-x="813" 
d="M323 1551l1 -95q-108 -39 -108 -175h117v-216h-210v201q0 229 200 285zM675 1551l2 -95q-108 -39 -108 -175h117v-216h-211v201q0 229 200 285z" />
    <glyph glyph-name="quotedblright" unicode="&#x201d;" horiz-adv-x="800" 
d="M143 985l-1 95q107 38 107 175h-117v216h211v-200q0 -230 -200 -286zM496 985l-2 95q108 39 108 175h-117v216h211v-200q0 -230 -200 -286z" />
    <glyph glyph-name="quotedblbase" unicode="&#x201e;" horiz-adv-x="845" 
d="M152 -270l-1 95q107 38 107 175h-117v215h211v-200q0 -229 -200 -285zM505 -270l-2 95q108 39 108 175h-117v215h211v-200q0 -229 -200 -285z" />
    <glyph glyph-name="ellipsis" unicode="&#x2026;" horiz-adv-x="1134" 
d="M339 0h-200v218h200v-218zM667 0h-200v218h200v-218zM995 0h-200v218h200v-218z" />
    <glyph glyph-name="uni202F" unicode="&#x202f;" horiz-adv-x="344" 
 />
    <glyph glyph-name="guilsinglleft" unicode="&#x2039;" horiz-adv-x="733" 
d="M629 120h-206l-344 413v28l344 413h206l-352 -427z" />
    <glyph glyph-name="guilsinglright" unicode="&#x203a;" horiz-adv-x="733" 
d="M654 533l-344 -413h-207l353 427l-353 427h207l344 -413v-28z" />
    <glyph glyph-name="uni205F" unicode="&#x205f;" horiz-adv-x="430" 
 />
    <glyph glyph-name="Euro" unicode="&#x20ac;" horiz-adv-x="1327" 
d="M971 1243q-168 0 -305 -86t-203 -233h685v-146h-727q-6 -45 -6 -92q0 -58 7 -100h725v-146h-680q66 -144 201.5 -227.5t300.5 -83.5q114 0 222 41v-156q-114 -40 -244 -40q-226 0 -408.5 127t-254.5 339h-216l2 142l180 4q-6 48 -6 100q0 37 5 92h-175v146h206
q69 217 253.5 346t418.5 129q86 0 143 -9t126 -38v-159q-118 50 -250 50z" />
    <glyph glyph-name="trademark" unicode="&#x2122;" horiz-adv-x="1765" 
d="M705 1434v-113h-251v-643h-122v643h-269v113h642zM1513 1434l125 -756h-118l-95 564l-268 -564h-27l-267 564l-97 -564h-118l128 756h107l260 -556l261 556h109z" />
    <glyph glyph-name="glyph2" horiz-adv-x="682" 
 />
    <glyph glyph-name="_142" horiz-adv-x="1200" 
d="M50 1013v129h1107v-129h-1107zM1013 766q0 24 -29 47t-68 23q-35 0 -63.5 -16.5t-28.5 -37.5q0 -31 16.5 -49t68.5 -29l47 -10q43 -9 66 -15t52.5 -17t43.5 -24t25 -34t12 -48q2 -74 -64 -119.5t-172 -45.5q-120 0 -183 60t-63 138l128 -2q0 -8 4.5 -20.5t16 -29t38 -28
t62.5 -11.5q43 0 70 15t27 35q0 40 -104 63q-100 21 -164 57q-64 35 -64 111q0 73 65.5 119t166.5 46q104 0 165.5 -53.5t61.5 -124.5h-133zM196 818v-125h267v-123h-267v-179h-145v550h464v-123h-319zM502 458q0 -26 20.5 -45t48.5 -19q30 0 51 18.5t21 45.5
q0 26 -21.5 45.5t-50.5 19.5q-28 0 -48.5 -19.5t-20.5 -45.5zM47 193v129h1107v-129h-1107z" />
    </font>
</defs>
</svg>
