<svg width="340" height="339" viewBox="0 0 340 339" fill="none" xmlns="http://www.w3.org/2000/svg">


<rect x="7" width="326" height="326" rx="7.83654" fill="#885e24"></rect>
<rect x="9.5" y="2.5" width="321" height="321" rx="5.33654" stroke="#fdb414" stroke-width="5"></rect>


<path d="M152.31 279.15C150.75 279.15 149.33 278.85 148.05 278.25C146.79 277.63 145.7 276.81 144.78 275.79C143.88 274.77 143.18 273.62 142.68 272.34C142.18 271.04 141.93 269.71 141.93 268.35C141.93 266.93 142.19 265.58 142.71 264.3C143.23 263 143.96 261.85 144.9 260.85C145.84 259.83 146.94 259.03 148.2 258.45C149.48 257.85 150.88 257.55 152.4 257.55C153.94 257.55 155.34 257.86 156.6 258.48C157.88 259.1 158.97 259.93 159.87 260.97C160.79 262.01 161.49 263.18 161.97 264.48C162.47 265.76 162.72 267.07 162.72 268.41C162.72 269.77 162.47 271.09 161.97 272.37C161.49 273.63 160.81 274.75 159.93 275.73L162.84 279H158.94L157.68 277.62C156.92 278.1 156.08 278.48 155.16 278.76C154.26 279.02 153.31 279.15 152.31 279.15ZM152.34 275.49C152.88 275.49 153.38 275.43 153.84 275.31C154.32 275.17 154.76 274.99 155.16 274.77L151.92 271.11H155.82L157.29 272.76C157.69 272.12 158 271.42 158.22 270.66C158.44 269.9 158.55 269.13 158.55 268.35C158.55 267.11 158.3 265.95 157.8 264.87C157.3 263.79 156.58 262.91 155.64 262.23C154.72 261.55 153.62 261.21 152.34 261.21C151 261.21 149.87 261.56 148.95 262.26C148.03 262.96 147.33 263.86 146.85 264.96C146.37 266.06 146.13 267.19 146.13 268.35C146.13 269.59 146.37 270.75 146.85 271.83C147.35 272.91 148.06 273.79 148.98 274.47C149.92 275.15 151.04 275.49 152.34 275.49ZM167.876 268.2C167.876 266.9 168.106 265.62 168.566 264.36C169.046 263.1 169.736 261.96 170.636 260.94C171.536 259.92 172.636 259.11 173.936 258.51C175.236 257.89 176.716 257.58 178.376 257.58C180.316 257.58 182.006 258.01 183.446 258.87C184.886 259.73 185.956 260.85 186.656 262.23L183.476 264.42C183.116 263.62 182.646 262.99 182.066 262.53C181.486 262.07 180.856 261.74 180.176 261.54C179.516 261.34 178.876 261.24 178.256 261.24C177.216 261.24 176.306 261.45 175.526 261.87C174.766 262.29 174.126 262.84 173.606 263.52C173.086 264.2 172.696 264.96 172.436 265.8C172.196 266.64 172.076 267.48 172.076 268.32C172.076 269.58 172.336 270.76 172.856 271.86C173.376 272.94 174.106 273.82 175.046 274.5C175.986 275.18 177.076 275.52 178.316 275.52C178.956 275.52 179.616 275.41 180.296 275.19C180.996 274.97 181.636 274.62 182.216 274.14C182.796 273.66 183.246 273.04 183.566 272.28L186.956 274.23C186.516 275.29 185.826 276.19 184.886 276.93C183.946 277.65 182.886 278.21 181.706 278.61C180.526 278.99 179.356 279.18 178.196 279.18C176.676 279.18 175.286 278.87 174.026 278.25C172.786 277.61 171.706 276.77 170.786 275.73C169.866 274.67 169.146 273.49 168.626 272.19C168.126 270.87 167.876 269.54 167.876 268.2Z" fill="#fff"></path>



<rect x="26.5" y="20.5" width="287" height="287" rx="3.5" stroke="#fff" shape-rendering="crispEdges"></rect>

<rect x="15.5" y="8.5" width="309" height="309" stroke="#fdb414" stroke-width="5"></rect>

<path d="M151.257 196.708H129.544V229.278H151.257V196.708Z" fill="#fff"></path>
<path d="M251.682 63.7142H170.257V139.711H251.682V63.7142Z" fill="#fff"></path>
<path d="M243.539 63.7142V126.14C243.539 127.58 242.967 128.96 241.949 129.978C240.931 130.996 239.55 131.568 238.111 131.568H170.257V139.711H251.682V63.7142H243.539Z" fill="#885e24"></path>
<path d="M219.112 63.7142V90.8558L210.969 85.4275L202.827 90.8558V63.7142H219.112Z" fill="#885e24"></path>
<path d="M191.84 139.711C191.846 130.334 189.296 121.133 184.463 113.098C179.63 105.063 172.698 98.4971 164.413 94.1074C156.127 89.7178 146.802 87.6702 137.439 88.185C128.077 88.6998 119.032 91.7575 111.278 97.0291C103.523 102.301 97.3531 109.587 93.4306 118.104C89.5081 126.62 87.9819 136.045 89.0162 145.365C90.0504 154.684 93.606 163.545 99.3004 170.994C104.995 178.444 112.612 184.2 121.334 187.643H121.271V202.136H159.27V187.643H159.207C168.827 183.848 177.083 177.248 182.902 168.7C188.722 160.152 191.836 150.051 191.84 139.711Z" fill="#885e24"></path>
<path d="M140.271 180.423C162.755 180.423 180.983 162.196 180.983 139.711C180.983 117.226 162.755 98.9983 140.271 98.9983C117.786 98.9983 99.5582 117.226 99.5582 139.711C99.5582 162.196 117.786 180.423 140.271 180.423Z" fill="#885e24"></path>
<path d="M157.207 121.121L132.258 146.07L124.583 138.394L116.904 146.07L132.258 161.424L164.885 128.797L157.207 121.121Z" fill="#DEDEDE"></path>
<path d="M140.271 96.2841C131.682 96.2841 123.286 98.831 116.144 103.603C109.003 108.375 103.437 115.157 100.15 123.092C96.8628 131.027 96.0028 139.759 97.6784 148.183C99.3541 156.607 103.49 164.345 109.563 170.418C115.637 176.491 123.375 180.627 131.799 182.303C140.222 183.979 148.954 183.119 156.889 179.832C164.824 176.545 171.607 170.979 176.379 163.837C181.15 156.696 183.697 148.3 183.697 139.711C183.684 128.197 179.104 117.16 170.963 109.019C162.822 100.877 151.784 96.2978 140.271 96.2841ZM140.271 177.709C132.755 177.709 125.409 175.48 119.16 171.305C112.911 167.13 108.041 161.195 105.165 154.252C102.289 147.309 101.536 139.669 103.002 132.298C104.469 124.927 108.088 118.156 113.402 112.842C118.716 107.528 125.487 103.909 132.858 102.443C140.228 100.976 147.869 101.729 154.812 104.605C161.755 107.481 167.69 112.351 171.865 118.6C176.04 124.849 178.269 132.195 178.269 139.711C178.258 149.785 174.251 159.444 167.128 166.568C160.004 173.691 150.345 177.698 140.271 177.709Z" fill="#fff"></path>
<path d="M251.682 61H170.257C169.537 61 168.846 61.286 168.337 61.795C167.828 62.304 167.542 62.9943 167.542 63.7142V92.8507C161.159 89.1312 154.083 86.7551 146.748 85.8682C139.413 84.9813 131.975 85.6023 124.889 87.693C117.802 89.7838 111.218 93.3003 105.54 98.0267C99.8612 102.753 95.2083 108.59 91.8662 115.179C88.5242 121.768 86.5636 128.97 86.1047 136.344C85.6458 143.718 86.6983 151.108 89.1976 158.061C91.6969 165.013 95.5902 171.382 100.639 176.776C105.688 182.17 111.785 186.476 118.557 189.429V202.137C118.557 202.856 118.843 203.547 119.352 204.056C119.861 204.565 120.552 204.851 121.271 204.851H126.713L126.83 229.292L132.258 229.278L132.142 204.851H148.427L148.543 229.292L153.972 229.278L153.855 204.851H159.283C160.003 204.851 160.693 204.565 161.202 204.056C161.711 203.547 161.997 202.856 161.997 202.137V189.429C171.231 185.375 179.155 178.831 184.88 170.53C190.605 162.228 193.906 152.497 194.413 142.425H251.682C252.401 142.425 253.092 142.139 253.601 141.63C254.11 141.121 254.396 140.431 254.396 139.711V63.7142C254.396 62.9943 254.11 62.304 253.601 61.795C253.092 61.286 252.401 61 251.682 61ZM205.541 66.4283H216.397V85.783L212.475 83.1693C212.029 82.8717 211.505 82.7129 210.969 82.7129C210.433 82.7129 209.909 82.8717 209.463 83.1693L205.541 85.783V66.4283ZM156.556 199.422H123.986V191.492C134.586 194.828 145.955 194.828 156.556 191.492V199.422ZM140.271 188.566C130.608 188.566 121.162 185.7 113.128 180.332C105.094 174.964 98.8322 167.334 95.1345 158.407C91.4368 149.48 90.4693 139.657 92.3544 130.18C94.2394 120.703 98.8924 111.998 105.725 105.165C112.557 98.3326 121.263 93.6796 130.739 91.7945C140.216 89.9095 150.039 90.8769 158.967 94.5747C167.894 98.2724 175.524 104.534 180.892 112.568C186.26 120.603 189.126 130.048 189.126 139.711C189.11 152.663 183.958 165.081 174.8 174.24C165.641 183.399 153.223 188.551 140.271 188.566ZM248.967 136.997H194.413C194.018 129.087 191.893 121.36 188.189 114.361C184.484 107.361 179.289 101.259 172.971 96.485V66.4283H200.112V90.8558C200.112 91.3472 200.246 91.8294 200.498 92.2509C200.751 92.6724 201.113 93.0175 201.546 93.2494C201.979 93.4812 202.467 93.591 202.958 93.5672C203.449 93.5433 203.924 93.3867 204.333 93.114L210.969 88.6845L217.605 93.1086C218.014 93.381 218.488 93.5376 218.979 93.5617C219.469 93.5857 219.957 93.4764 220.39 93.2452C220.823 93.014 221.185 92.6697 221.438 92.249C221.691 91.8282 221.825 91.3467 221.826 90.8558V66.4283H248.967V136.997Z" fill="#fff"></path>
<path d="M159.129 119.202C158.62 118.693 157.929 118.408 157.21 118.408C156.49 118.408 155.8 118.693 155.291 119.202L132.258 142.232L126.502 136.475C125.993 135.966 125.303 135.681 124.583 135.681C123.863 135.681 123.173 135.966 122.664 136.475L114.986 144.151C114.477 144.66 114.191 145.35 114.191 146.07C114.191 146.79 114.477 147.48 114.986 147.989L130.34 163.343C130.849 163.852 131.539 164.137 132.258 164.137C132.978 164.137 133.668 163.852 134.177 163.343L166.804 130.716C167.313 130.207 167.599 129.517 167.599 128.797C167.599 128.077 167.313 127.387 166.804 126.878L159.129 119.202ZM132.258 157.586L120.742 146.07L124.583 142.232L130.34 147.989C130.849 148.498 131.539 148.783 132.258 148.783C132.978 148.783 133.668 148.498 134.177 147.989L157.207 124.959L161.045 128.797L132.258 157.586Z" fill="#fff"></path>

</svg>