<svg width="340" height="339" viewBox="0 0 340 339" fill="none" xmlns="http://www.w3.org/2000/svg">


<rect x="7" width="326" height="326" rx="7.83654" fill="#885e24"/>
<rect x="9.5" y="2.5" width="321" height="321" rx="5.33654" stroke="#fdb414" stroke-width="5"/>


<path d="M94.15 268.33H87.34V286H83.23V268.33H76.42V264.7H94.15V268.33ZM100.094 286V264.7H104.234V286H100.094ZM129.348 286V272.02L123.888 282.43H121.578L116.118 272.02V286H111.978V264.7H116.418L122.718 276.82L129.078 264.7H133.488V286H129.348ZM156.025 282.37V286H141.235V264.7H155.755V268.33H145.375V273.46H154.345V276.82H145.375V282.37H156.025ZM175.243 270.28C175.063 270.08 174.683 269.82 174.103 269.5C173.523 269.16 172.823 268.86 172.003 268.6C171.203 268.32 170.373 268.18 169.513 268.18C167.253 268.18 166.123 268.98 166.123 270.58C166.123 271.16 166.303 271.62 166.663 271.96C167.023 272.3 167.563 272.59 168.283 272.83C169.003 273.07 169.903 273.33 170.983 273.61C172.383 273.97 173.593 274.39 174.613 274.87C175.653 275.35 176.443 275.99 176.983 276.79C177.543 277.57 177.823 278.61 177.823 279.91C177.823 281.43 177.453 282.66 176.713 283.6C175.993 284.52 175.033 285.19 173.833 285.61C172.633 286.03 171.333 286.24 169.933 286.24C168.333 286.24 166.743 286 165.163 285.52C163.603 285.02 162.213 284.34 160.993 283.48L162.823 279.91C163.003 280.09 163.323 280.33 163.783 280.63C164.243 280.91 164.803 281.2 165.463 281.5C166.123 281.78 166.843 282.02 167.623 282.22C168.403 282.42 169.193 282.52 169.993 282.52C172.273 282.52 173.413 281.79 173.413 280.33C173.413 279.71 173.183 279.21 172.723 278.83C172.263 278.45 171.613 278.13 170.773 277.87C169.953 277.61 168.993 277.32 167.893 277C166.533 276.62 165.403 276.2 164.503 275.74C163.623 275.26 162.963 274.67 162.523 273.97C162.083 273.25 161.863 272.34 161.863 271.24C161.863 269.78 162.203 268.56 162.883 267.58C163.583 266.58 164.523 265.83 165.703 265.33C166.883 264.81 168.193 264.55 169.633 264.55C171.113 264.55 172.493 264.79 173.773 265.27C175.053 265.75 176.153 266.3 177.073 266.92L175.243 270.28ZM202.161 264.7V286H198.051V276.91H188.391V286H184.251V264.7H188.391V273.31H198.051V264.7H202.161ZM224.695 282.37V286H209.905V264.7H224.425V268.33H214.045V273.46H223.015V276.82H214.045V282.37H224.695ZM246.012 282.37V286H231.222V264.7H245.742V268.33H235.362V273.46H244.332V276.82H235.362V282.37H246.012ZM268.47 268.33H261.66V286H257.55V268.33H250.74V264.7H268.47V268.33Z" fill="#fff"/>


<rect x="26.5" y="20.5" width="287" height="287" rx="3.5" stroke="#fff" shape-rendering="crispEdges"/>

<rect x="15.5" y="8.5" width="309" height="309" stroke="#fdb414" stroke-width="5"/>

<path d="M165.697 157.75L101.308 195.169C100.169 195.83 98.5934 195.738 96.8557 194.735C93.4032 192.742 90.5904 187.889 90.6018 183.921L154.991 146.503C154.98 150.47 157.792 155.323 161.245 157.316C162.982 158.32 164.558 158.411 165.697 157.75ZM116.265 199.119L180.654 161.701C180.644 165.468 183.299 170.049 186.563 171.934L122.174 209.352C118.91 207.468 116.255 202.888 116.265 199.119Z" fill="#fff"/>
<path d="M78.5634 92.1825L142.949 54.7603L142.831 96.9501L78.441 134.368L78.5634 92.1825Z" fill="#D3DBEA"/>
<path d="M83.3348 96.4089L140.119 63.4109L139.906 68.9915L83.1216 101.993L83.3348 96.4089Z" fill="#B4BED7"/>
<path d="M83.3348 108.273L140.119 75.2745L139.906 80.8551L83.1216 113.857L83.3348 108.273Z" fill="#B4BED7"/>
<path d="M83.3348 120.137L140.119 87.1388L139.906 92.7194L83.1216 125.721L83.3348 120.137Z" fill="#B4BED7"/>
<path d="M90.8408 99.2706L155.231 61.8523L154.99 146.504L90.6 183.923L90.8408 99.2706Z" fill="#fff"/>
<path d="M94.6298 102.061L151.414 69.0632L151.201 74.6438L94.4167 107.642L94.6298 102.061Z" fill="#D3DBEA"/>
<path d="M94.6298 113.925L133.323 91.4365L133.114 97.0171L94.4167 119.505L94.6298 113.925Z" fill="#D3DBEA"/>
<path d="M94.6298 125.787L151.414 92.7854L151.201 98.3699L94.4167 131.368L94.6298 125.787Z" fill="#D3DBEA"/>
<path d="M94.6298 137.652L151.414 104.65L151.201 110.235L94.4167 143.233L94.6298 137.652Z" fill="#D3DBEA"/>
<path d="M94.6298 149.515L151.414 116.513L151.201 122.094L94.4167 155.096L94.6298 149.515Z" fill="#D3DBEA"/>
<path d="M94.6298 161.379L151.414 128.377L151.201 133.958L94.4167 166.96L94.6298 161.379Z" fill="#D3DBEA"/>
<path d="M94.6298 173.243L151.414 140.241L151.201 145.822L94.4167 178.824L94.6298 173.243Z" fill="#D3DBEA"/>
<path d="M94.6298 185.107L151.414 152.105L151.201 157.685L94.4167 190.687L94.6298 185.107Z" fill="#D3DBEA"/>
<path d="M80.2925 88.3808L144.681 50.9621C143.616 51.5813 142.956 52.8975 142.95 54.7623L78.5615 92.1814C78.567 90.3166 79.2269 89 80.2925 88.3808Z" fill="#D3DBEA"/>
<path d="M122.173 209.355L186.563 171.932L236.283 200.64L171.893 238.059L122.173 209.355Z" fill="#fff"/>
<path d="M132.024 209.338L186.571 177.639L190.214 179.742L135.667 211.442L132.024 209.338Z" fill="#D3DBEA"/>
<path d="M140.49 214.225L176.949 193.04L180.592 195.143L144.137 216.329L140.49 214.225Z" fill="#D3DBEA"/>
<path d="M148.96 219.115L191.446 194.425L195.088 196.528L152.603 221.219L148.96 219.115Z" fill="#D3DBEA"/>
<path d="M157.425 224.001L211.968 192.306L215.615 194.409L161.068 226.105L157.425 224.001Z" fill="#D3DBEA"/>
<path d="M165.891 228.891L203.234 207.188L206.877 209.292L169.534 230.994L165.891 228.891Z" fill="#D3DBEA"/>
<path d="M155.242 61.8559L90.847 99.2635C90.847 95.2391 88.0074 90.3007 84.5012 88.2752C82.7481 87.2637 81.1434 87.1646 79.9827 87.8316L144.378 50.424C145.514 49.7574 147.119 49.8561 148.896 50.8676C152.403 52.8934 155.242 57.8062 155.242 61.8559ZM240.503 201.051L176.114 238.47C175.035 239.097 173.541 239.008 171.896 238.059L236.285 200.64C237.929 201.59 239.424 201.679 240.503 201.051Z" fill="#fff"/>
<path d="M240.814 201.591L176.425 239.01C177.569 238.345 178.278 236.933 178.284 234.926L242.673 197.507C242.667 199.514 241.958 200.926 240.814 201.591Z" fill="#D3DBEA"/>
<path d="M178.299 229.348L242.689 191.926L242.673 197.506L178.283 234.925L178.299 229.348Z" fill="#D3DBEA"/>
<path d="M177.857 229.092L242.247 191.674L242.689 191.926L178.299 229.349L177.857 229.092Z" fill="#B4BED7"/>
<path d="M169.933 88.3999C168.823 89.0424 168.156 90.4001 168.131 92.3256L167.958 154.005C167.958 156.104 167.217 157.586 166.008 158.276L101.612 195.709C102.822 194.992 103.563 193.511 103.587 191.413L103.76 129.758C103.76 127.833 104.452 126.474 105.538 125.832L169.933 88.3999Z" fill="#D3DBEA"/>
<path d="M108.913 134.403L165.698 101.401L165.485 106.982L108.7 139.984L108.913 134.403Z" fill="#B4BED7"/>
<path d="M108.913 146.267L165.698 113.265L165.485 118.845L108.7 151.847L108.913 146.267Z" fill="#B4BED7"/>
<path d="M108.913 158.131L165.698 125.129L165.485 130.71L108.7 163.712L108.913 158.131Z" fill="#B4BED7"/>
<path d="M108.913 169.991L165.698 136.993L165.485 142.573L108.7 175.575L108.913 169.991Z" fill="#B4BED7"/>
<path d="M108.913 181.854L165.698 148.856L165.485 154.436L108.7 187.438L108.913 181.854Z" fill="#B4BED7"/>
<path d="M84.5096 88.2851C88.0095 90.3058 90.8535 95.2316 90.842 99.271L90.6021 183.922C90.591 187.889 93.4034 192.742 96.856 194.735C100.308 196.729 103.124 195.125 103.135 191.158L103.31 129.494C103.321 125.328 106.279 123.642 109.905 125.736C113.515 127.82 116.453 132.91 116.442 137.076L116.266 199.12C116.255 202.887 118.911 207.468 122.174 209.352L171.895 238.059C175.158 239.943 177.832 238.439 177.842 234.671L177.858 229.091L178.3 229.346L178.284 234.926C178.272 238.965 175.41 240.597 171.894 238.567L122.173 209.86C118.673 207.84 115.813 202.904 115.824 198.865L116 136.821C116.011 132.945 113.277 128.191 109.904 126.243C106.53 124.295 103.762 125.873 103.751 129.749L103.576 191.412C103.564 195.651 100.543 197.373 96.8544 195.243C93.1496 193.104 90.1644 187.915 90.1762 183.676L90.4162 99.0255C90.4268 95.2762 87.7711 90.6767 84.508 88.7926C81.2292 86.8994 78.5719 88.4319 78.5612 92.1812L78.4416 134.37L78 134.115L78.12 91.9259C78.1314 87.8865 80.9939 86.2553 84.5096 88.2851Z" fill="#B4BED7"/>
<path d="M116.443 137.075L180.829 99.657L180.655 161.698L116.266 199.121L116.443 137.075Z" fill="#fff"/>
<path d="M180.822 99.659L116.451 137.066C116.451 132.918 113.513 127.832 109.908 125.733C108.081 124.671 106.426 124.598 105.217 125.289L169.612 87.8561C170.822 87.1655 172.476 87.2641 174.303 88.3262C177.909 90.3994 180.847 95.4862 180.822 99.659Z" fill="#fff"/>
<path d="M121.499 134.403L160.196 111.915L159.983 117.496L121.29 139.984L121.499 134.403Z" fill="#D3DBEA"/>
<path d="M121.499 146.267L160.196 123.779L159.983 129.359L121.29 151.847L121.499 146.267Z" fill="#D3DBEA"/>
<path d="M121.499 158.13L172.253 128.633L172.044 134.213L121.29 163.711L121.499 158.13Z" fill="#D3DBEA"/>
<path d="M121.499 169.99L154.166 151.01L153.952 156.591L121.29 175.574L121.499 169.99Z" fill="#D3DBEA"/>
<path d="M121.499 181.854L160.196 159.37L159.983 164.95L121.29 187.438L121.499 181.854Z" fill="#D3DBEA"/>
<path d="M175.711 161.694L175.713 160.925L121.213 192.597L121.195 198.066L176.379 165.995C175.951 164.562 175.711 163.106 175.711 161.694ZM124.65 205.085L127.098 206.499L175.901 178.137C174.712 177.11 173.65 175.877 172.745 174.513L122.937 203.458C123.462 204.149 124.053 204.738 124.65 205.085Z" fill="#D3DBEA"/>
<path d="M93.1506 92.128L149.935 59.1288C150.936 59.6857 151.051 61.5974 150.779 64.0968L93.9948 97.0961C94.2703 94.6101 94.1148 92.7642 93.1506 92.128Z" fill="#D3DBEA"/>
<path d="M119.98 125.932L172.59 95.3579C173.592 95.9148 173.706 97.8265 173.434 100.326L120.824 130.9C121.1 128.414 120.944 126.567 119.98 125.932Z" fill="#D3DBEA"/>
<path d="M247.167 169.219L241.602 172.456C241.089 172.732 240.379 172.692 239.629 172.258L205.333 152.446C203.793 151.579 202.53 149.368 202.53 147.632L202.649 108.204C202.649 107.337 202.965 106.705 203.478 106.427L209.042 103.192C208.529 103.467 208.214 104.1 208.214 104.969L208.095 144.395C208.095 146.171 209.358 148.341 210.897 149.21L245.194 169.022C245.944 169.456 246.655 169.497 247.167 169.219Z" fill="#8B8D8F"/>
<path d="M242.016 125.426C243.553 126.314 244.809 128.488 244.803 130.255L244.692 169.662C244.687 171.428 243.423 172.149 241.886 171.261L207.591 151.461C206.054 150.574 204.798 148.398 204.803 146.633L204.915 107.226C204.92 105.458 206.184 104.739 207.721 105.626L242.016 125.426Z" fill="#fff"/>
<path d="M232.045 142.831C232.58 143.201 232.577 144.103 232.043 143.835L224.84 140.373L223.77 139.859L223.61 139.745L223.056 139.213L221.42 137.64C221.046 137.28 221.048 136.707 221.422 136.78L222.91 137.069L223.617 137.207L223.778 137.278L225.045 138.13L232.045 142.831ZM223.967 139.48C224.359 139.706 224.663 139.512 224.664 139.082C224.666 138.633 224.364 138.11 223.971 137.883C223.597 137.667 223.275 137.829 223.274 138.28C223.273 138.709 223.593 139.264 223.967 139.48Z" fill="#B4BED7"/>
<path d="M223.777 137.278L223.616 137.207L222.909 137.069L223.58 124.549C223.59 124.237 223.8 124.199 224.012 124.321C224.223 124.443 224.437 124.725 224.454 125.053L225.044 138.131L223.777 137.278ZM206.732 127.377C207.365 127.743 207.881 128.636 207.879 129.363C207.877 130.092 207.357 130.387 206.724 130.022C206.091 129.656 205.575 128.763 205.577 128.034C205.579 127.307 206.098 127.012 206.732 127.377ZM238.998 136.063C239.397 136.293 239.782 136.755 239.986 137.302C240.31 138.108 240.116 138.813 239.559 138.866C239.384 138.88 239.192 138.823 239.001 138.713C238.602 138.482 238.207 138.018 237.987 137.473C237.682 136.656 237.876 135.951 238.414 135.909C238.599 135.891 238.8 135.949 238.998 136.063ZM232.692 125.135C232.89 125.249 233.091 125.424 233.274 125.654C233.81 126.339 234 127.244 233.672 127.694C233.466 128.003 233.079 128.012 232.685 127.784C232.491 127.672 232.294 127.502 232.117 127.282C231.561 126.587 231.372 125.682 231.7 125.232C231.906 124.922 232.293 124.904 232.692 125.135ZM215.313 149.548C215.508 149.661 215.707 149.834 215.891 150.065C216.446 150.739 216.617 151.654 216.308 152.116C216.086 152.406 215.698 152.419 215.299 152.188C215.107 152.078 214.913 151.911 214.734 151.693C214.178 150.997 214.008 150.104 214.317 149.641C214.536 149.34 214.918 149.32 215.313 149.548ZM215.417 115.161C215.812 115.389 216.192 115.85 216.409 116.404C216.714 117.22 216.54 117.914 215.982 117.967C215.798 117.978 215.599 117.92 215.403 117.807C215.008 117.579 214.627 117.128 214.41 116.573C214.105 115.758 214.28 115.063 214.837 115.01C215.022 114.992 215.221 115.048 215.417 115.161ZM232.595 159.526C232.989 159.753 233.374 160.216 233.578 160.761C233.903 161.589 233.708 162.273 233.17 162.337C232.99 162.347 232.793 162.289 232.6 162.177C232.196 161.944 231.805 161.481 231.599 160.944C231.274 160.117 231.468 159.412 232.026 159.38C232.204 159.358 232.401 159.413 232.595 159.526Z" fill="#B4BED7"/>
<path d="M241.284 147.326C241.917 147.691 242.433 148.585 242.431 149.312C242.429 150.041 241.909 150.336 241.276 149.971C240.643 149.605 240.127 148.712 240.129 147.983C240.131 147.256 240.65 146.96 241.284 147.326ZM209 138.631C209.404 138.864 209.795 139.326 210.001 139.863C210.326 140.69 210.131 141.395 209.574 141.427C209.396 141.449 209.199 141.394 209.003 141.281C208.608 141.053 208.219 140.587 208.002 140.034C207.697 139.24 207.891 138.535 208.429 138.47C208.61 138.46 208.806 138.519 209 138.631Z" fill="#B4BED7"/>
<path d="M224.054 117.482C224.687 117.847 225.203 118.742 225.202 119.469C225.2 120.196 224.68 120.493 224.047 120.127C223.414 119.762 222.897 118.867 222.899 118.14C222.901 117.412 223.421 117.116 224.054 117.482ZM223.941 157.207C224.574 157.573 225.091 158.445 225.089 159.195C225.087 159.922 224.567 160.196 223.934 159.83C223.301 159.465 222.785 158.593 222.787 157.866C222.789 157.115 223.308 156.842 223.941 157.207ZM209.067 118.782C209.263 118.894 209.459 119.067 209.637 119.294C210.192 119.967 210.382 120.893 210.054 121.345C209.845 121.642 209.453 121.652 209.049 121.418C208.855 121.307 208.659 121.139 208.479 120.921C207.943 120.236 207.753 119.31 208.062 118.87C208.281 118.568 208.672 118.553 209.067 118.782ZM238.952 155.923C239.143 156.034 239.335 156.198 239.509 156.413C240.064 157.109 240.254 158.036 239.926 158.464C239.719 158.773 239.333 158.791 238.934 158.56C238.736 158.446 238.535 158.271 238.351 158.041C237.815 157.378 237.626 156.451 237.935 155.99C238.156 155.7 238.553 155.693 238.952 155.923Z" fill="#B4BED7"/>
<path d="M223.661 131.705C227.104 133.692 229.885 138.51 229.874 142.466C229.863 146.421 227.063 148.017 223.62 146.029C220.178 144.042 217.397 139.224 217.408 135.269C217.419 131.312 220.218 129.717 223.661 131.705Z" fill="#FDB515"/>
<path d="M223.661 131.705C227.104 133.692 229.885 138.51 229.874 142.466C229.863 146.421 227.063 148.017 223.62 146.029C220.178 144.041 217.397 139.224 217.408 135.268C217.419 131.313 220.218 129.717 223.661 131.705ZM223.624 144.769C226.461 146.407 228.768 145.092 228.777 141.833C228.786 138.573 226.494 134.603 223.658 132.965C220.821 131.327 218.513 132.642 218.504 135.901C218.495 139.161 220.787 143.131 223.624 144.769Z" fill="#885e24"/>
<path d="M224.129 135.696L224.127 136.445C224.819 137.044 225.324 137.969 225.322 138.712L224.401 138.18C224.402 137.866 224.066 137.403 223.662 137.17C223.261 136.939 222.921 137.011 222.92 137.325C222.919 137.643 223.258 138.107 223.659 138.339C224.575 138.867 225.319 140.033 225.316 140.936C225.314 141.685 224.805 142.025 224.112 141.82L224.11 142.569L223.189 142.037L223.191 141.288C222.499 140.693 221.991 139.766 221.993 139.017L222.914 139.549C222.913 139.864 223.252 140.328 223.653 140.559C224.056 140.792 224.395 140.719 224.396 140.404C224.396 140.089 224.06 139.629 223.656 139.396C222.741 138.867 221.997 137.7 221.999 136.793C222.001 136.05 222.513 135.712 223.206 135.913L223.208 135.164L224.129 135.696Z" fill="#885e24"/>
<path d="M242.543 131.243L248.104 128.01L247.994 167.418L242.433 170.65L242.543 131.243Z" fill="#fff"/>
<path d="M247.176 169.206L241.613 172.439C242.116 172.147 242.429 171.527 242.432 170.65L247.995 167.417C247.992 168.294 247.679 168.913 247.176 169.206ZM203.473 106.424L209.036 103.191C209.546 102.895 210.25 102.934 211.024 103.381L205.46 106.614C204.687 106.167 203.982 106.128 203.473 106.424ZM239.755 126.414L245.318 123.181C246.856 124.068 248.111 126.242 248.106 128.009L242.543 131.243C242.548 129.476 241.292 127.301 239.755 126.414Z" fill="#fff"/>
<path d="M205.461 106.615L211.025 103.379L245.318 123.179L239.757 126.411L205.461 106.615Z" fill="#fff"/>
<path d="M250.916 129.635L250.798 169.023C250.798 170.799 250.167 172.061 249.18 172.615L243.615 175.85C244.602 175.259 245.233 174.035 245.233 172.258L245.352 132.87C245.352 129.278 242.865 124.977 239.747 123.2L205.451 103.39C203.912 102.48 202.491 102.403 201.504 102.995L207.03 99.7595C208.056 99.1659 209.476 99.2855 211.016 100.153L245.312 119.965C248.43 121.742 250.916 126.083 250.916 129.635Z" fill="#8B8D8F"/>
<path d="M239.764 123.201C242.863 124.99 245.35 129.297 245.34 132.858L245.228 172.265C245.218 175.827 242.715 177.253 239.616 175.464L205.322 155.664C202.222 153.874 199.736 149.567 199.746 146.006L199.857 106.599C199.868 103.038 202.37 101.611 205.47 103.401L239.764 123.201ZM242.431 170.65L242.543 131.243C242.548 129.476 241.292 127.302 239.755 126.415L205.46 106.615C203.923 105.727 202.659 106.447 202.654 108.214L202.542 147.621C202.537 149.387 203.793 151.562 205.33 152.45L239.625 172.25C241.162 173.137 242.426 172.416 242.431 170.65Z" fill="#626262"/>

</svg>