<svg width="340" height="339" viewBox="0 0 340 339" fill="none" xmlns="http://www.w3.org/2000/svg">


<rect x="7" width="326" height="326" rx="7.83654" fill="#885e24"/>
<rect x="9.5" y="2.5" width="321" height="321" rx="5.33654" stroke="#fdb414" stroke-width="5"/>


<path d="M79.22 282V260.7H88.25C89.23 260.7 90.13 260.9 90.95 261.3C91.79 261.7 92.51 262.24 93.11 262.92C93.71 263.6 94.18 264.36 94.52 265.2C94.86 266.04 95.03 266.9 95.03 267.78C95.03 268.98 94.75 270.12 94.19 271.2C93.63 272.28 92.85 273.16 91.85 273.84C90.87 274.52 89.72 274.86 88.4 274.86H83.36V282H79.22ZM83.36 271.23H88.16C88.92 271.23 89.55 270.92 90.05 270.3C90.57 269.66 90.83 268.82 90.83 267.78C90.83 266.68 90.54 265.83 89.96 265.23C89.38 264.63 88.72 264.33 87.98 264.33H83.36V271.23ZM110.241 282.15C108.541 282.15 107.091 281.87 105.891 281.31C104.711 280.73 103.751 279.94 103.011 278.94C102.291 277.94 101.761 276.81 101.421 275.55C101.081 274.27 100.911 272.94 100.911 271.56V260.7H105.051V271.56C105.051 272.74 105.211 273.86 105.531 274.92C105.851 275.98 106.391 276.84 107.151 277.5C107.911 278.16 108.931 278.49 110.211 278.49C111.531 278.49 112.571 278.16 113.331 277.5C114.091 276.82 114.631 275.95 114.951 274.89C115.271 273.83 115.431 272.72 115.431 271.56V260.7H119.541V271.56C119.541 273.02 119.361 274.39 119.001 275.67C118.661 276.95 118.111 278.08 117.351 279.06C116.611 280.02 115.651 280.78 114.471 281.34C113.291 281.88 111.881 282.15 110.241 282.15ZM127.011 282V260.7H136.431C137.411 260.7 138.311 260.9 139.131 261.3C139.971 261.7 140.691 262.24 141.291 262.92C141.911 263.6 142.381 264.36 142.701 265.2C143.041 266.04 143.211 266.9 143.211 267.78C143.211 269.14 142.861 270.39 142.161 271.53C141.481 272.67 140.551 273.49 139.371 273.99L144.231 282H139.671L135.291 274.86H131.151V282H127.011ZM131.151 271.23H136.341C137.121 271.23 137.761 270.9 138.261 270.24C138.781 269.56 139.041 268.74 139.041 267.78C139.041 267.12 138.901 266.53 138.621 266.01C138.341 265.49 137.981 265.08 137.541 264.78C137.121 264.48 136.661 264.33 136.161 264.33H131.151V271.23ZM148.855 271.2C148.855 269.9 149.085 268.62 149.545 267.36C150.025 266.1 150.715 264.96 151.615 263.94C152.515 262.92 153.615 262.11 154.915 261.51C156.215 260.89 157.695 260.58 159.355 260.58C161.295 260.58 162.985 261.01 164.425 261.87C165.865 262.73 166.935 263.85 167.635 265.23L164.455 267.42C164.095 266.62 163.625 265.99 163.045 265.53C162.465 265.07 161.835 264.74 161.155 264.54C160.495 264.34 159.855 264.24 159.235 264.24C158.195 264.24 157.285 264.45 156.505 264.87C155.745 265.29 155.105 265.84 154.585 266.52C154.065 267.2 153.675 267.96 153.415 268.8C153.175 269.64 153.055 270.48 153.055 271.32C153.055 272.58 153.315 273.76 153.835 274.86C154.355 275.94 155.085 276.82 156.025 277.5C156.965 278.18 158.055 278.52 159.295 278.52C159.935 278.52 160.595 278.41 161.275 278.19C161.975 277.97 162.615 277.62 163.195 277.14C163.775 276.66 164.225 276.04 164.545 275.28L167.935 277.23C167.495 278.29 166.805 279.19 165.865 279.93C164.925 280.65 163.865 281.21 162.685 281.61C161.505 281.99 160.335 282.18 159.175 282.18C157.655 282.18 156.265 281.87 155.005 281.25C153.765 280.61 152.685 279.77 151.765 278.73C150.845 277.67 150.125 276.49 149.605 275.19C149.105 273.87 148.855 272.54 148.855 271.2ZM191.922 260.7V282H187.812V272.91H178.152V282H174.012V260.7H178.152V269.31H187.812V260.7H191.922ZM205.455 260.7H209.655L217.485 282H213.225L211.245 276.69H203.805L201.855 282H197.595L205.455 260.7ZM210.495 273.78L207.555 264.99L204.495 273.78H210.495ZM235.548 266.28C235.368 266.08 234.988 265.82 234.408 265.5C233.828 265.16 233.128 264.86 232.308 264.6C231.508 264.32 230.678 264.18 229.818 264.18C227.558 264.18 226.428 264.98 226.428 266.58C226.428 267.16 226.608 267.62 226.968 267.96C227.328 268.3 227.868 268.59 228.588 268.83C229.308 269.07 230.208 269.33 231.288 269.61C232.688 269.97 233.898 270.39 234.918 270.87C235.958 271.35 236.748 271.99 237.288 272.79C237.848 273.57 238.128 274.61 238.128 275.91C238.128 277.43 237.758 278.66 237.018 279.6C236.298 280.52 235.338 281.19 234.138 281.61C232.938 282.03 231.638 282.24 230.238 282.24C228.638 282.24 227.048 282 225.468 281.52C223.908 281.02 222.518 280.34 221.298 279.48L223.128 275.91C223.308 276.09 223.628 276.33 224.088 276.63C224.548 276.91 225.108 277.2 225.768 277.5C226.428 277.78 227.148 278.02 227.928 278.22C228.708 278.42 229.498 278.52 230.298 278.52C232.578 278.52 233.718 277.79 233.718 276.33C233.718 275.71 233.488 275.21 233.028 274.83C232.568 274.45 231.918 274.13 231.078 273.87C230.258 273.61 229.298 273.32 228.198 273C226.838 272.62 225.708 272.2 224.808 271.74C223.928 271.26 223.268 270.67 222.828 269.97C222.388 269.25 222.168 268.34 222.168 267.24C222.168 265.78 222.508 264.56 223.188 263.58C223.888 262.58 224.828 261.83 226.008 261.33C227.188 260.81 228.498 260.55 229.938 260.55C231.418 260.55 232.798 260.79 234.078 261.27C235.358 261.75 236.458 262.3 237.378 262.92L235.548 266.28ZM259.346 278.37V282H244.556V260.7H259.076V264.33H248.696V269.46H257.666V272.82H248.696V278.37H259.346Z" fill="#fff"/>



<rect x="26.5" y="20.5" width="287" height="287" rx="3.5" stroke="#fff" shape-rendering="crispEdges"/>

<rect x="15.5" y="8.5" width="309" height="309" stroke="#fdb414" stroke-width="5"/>

<path d="M236.157 78.9733C236.145 74.2124 234.249 69.6498 230.883 66.2822C227.518 62.9146 222.957 61.0156 218.196 61H118.956C114.196 61.0158 109.635 62.915 106.271 66.2827C102.906 69.6504 101.011 74.2129 101 78.9733V214.027C101.011 218.787 102.906 223.35 106.271 226.717C109.635 230.085 114.196 231.984 118.956 232H222.072C223.943 232.003 225.796 231.633 227.522 230.911C229.248 230.189 230.813 229.13 232.124 227.796C233.436 226.461 234.468 224.879 235.161 223.141C235.853 221.403 236.192 219.544 236.157 217.673V78.9733ZM227.92 223.529C227.164 224.318 226.256 224.946 225.251 225.375C224.246 225.804 223.165 226.026 222.072 226.026H118.956C115.78 226.012 112.737 224.743 110.493 222.495C108.248 220.247 106.983 217.203 106.974 214.027V78.9733C106.983 75.7967 108.248 72.7527 110.493 70.5048C112.737 68.257 115.78 66.9878 118.956 66.9738H218.196C221.373 66.9876 224.416 68.2566 226.661 70.5043C228.907 72.752 230.173 75.7962 230.183 78.9733V217.715C230.183 217.745 230.164 217.789 230.165 217.818C230.194 218.872 230.011 219.921 229.625 220.903C229.239 221.884 228.659 222.778 227.92 223.529Z" fill="#fff"/>
<path d="M218.124 75.5611H119.033C118.236 75.5432 117.464 75.84 116.884 76.3874C116.304 76.9348 115.963 77.6886 115.935 78.4857V201.942C115.935 203.591 117.384 204.745 119.033 204.745H170.113C171.528 206.922 173.464 208.711 175.747 209.95C178.029 211.188 180.584 211.838 183.18 211.838H198.448C201.051 211.868 203.619 211.232 205.907 209.99C208.196 208.749 210.129 206.943 211.523 204.745H218.124C219.773 204.745 221.223 203.591 221.223 201.942V78.4857C221.195 77.6886 220.854 76.9348 220.274 76.3874C219.693 75.84 218.921 75.5432 218.124 75.5611ZM208.362 187.308C208.359 188.914 208.354 191.345 208.349 195.939C208.347 198.567 207.304 201.087 205.448 202.947C203.592 204.807 201.075 205.856 198.448 205.865H183.18C181.415 205.859 179.683 205.383 178.163 204.485C176.643 203.587 175.39 202.299 174.533 200.756L162.178 178.572C163.004 178.066 163.982 177.866 164.94 178.009C165.898 178.151 166.775 178.627 167.418 179.351L171.226 183.72C171.626 184.178 172.156 184.504 172.746 184.653C173.336 184.802 173.957 184.767 174.527 184.553C175.097 184.34 175.587 183.957 175.934 183.457C176.28 182.956 176.465 182.362 176.464 181.754C176.457 171.602 176.455 157.187 176.473 149.91C176.473 149.261 177.092 149.114 177.457 149.114H178.921C179.411 149.114 179.905 149.343 179.906 149.914C179.908 151.642 179.801 174.915 179.8 175.151C179.8 175.282 179.78 175.397 179.78 175.524V176.75C179.78 177.542 180.095 178.302 180.655 178.862C181.215 179.422 181.975 179.737 182.767 179.737C183.559 179.737 184.319 179.422 184.879 178.862C185.439 178.302 185.754 177.542 185.754 176.75V169.572C185.754 169.377 185.999 169.275 186.194 169.275H189.171C189.212 169.27 189.254 169.273 189.294 169.286C189.333 169.299 189.369 169.32 189.4 169.348C189.43 169.377 189.453 169.411 189.469 169.45C189.484 169.489 189.49 169.53 189.487 169.572V179.087C189.487 179.879 189.802 180.639 190.362 181.199C190.922 181.759 191.682 182.074 192.474 182.074C193.266 182.074 194.026 181.759 194.586 181.199C195.146 180.639 195.461 179.879 195.461 179.087V171.909C195.474 171.805 195.522 171.709 195.597 171.637C195.673 171.566 195.771 171.522 195.875 171.515H198.825C198.924 171.524 199.016 171.569 199.084 171.642C199.153 171.714 199.192 171.809 199.194 171.909V179.087C199.194 179.879 199.509 180.639 200.069 181.199C200.629 181.759 201.389 182.074 202.181 182.074C202.973 182.074 203.733 181.759 204.293 181.199C204.853 180.639 205.168 179.879 205.168 179.087V178.012C205.146 177.733 205.228 177.456 205.397 177.234C205.452 177.183 205.516 177.145 205.587 177.123C205.657 177.1 205.732 177.093 205.805 177.103L207.371 177.107C207.497 177.101 207.623 177.12 207.741 177.164C207.859 177.207 207.968 177.274 208.059 177.361C208.151 177.448 208.224 177.552 208.274 177.667C208.325 177.783 208.351 177.908 208.352 178.034C208.369 184.176 208.368 184.296 208.362 187.308ZM152.055 161.808C151.272 161.8 150.5 161.629 149.787 161.304C149.075 160.98 148.439 160.509 147.919 159.923C147.476 159.43 147.143 158.849 146.94 158.218C146.737 157.587 146.671 156.92 146.744 156.261L150.524 123.352H153.644V131.111C153.644 131.903 153.959 132.663 154.519 133.223C155.079 133.783 155.839 134.098 156.631 134.098C157.423 134.098 158.183 133.783 158.743 133.223C159.303 132.663 159.618 131.903 159.618 131.111V123.352H178.286V131.111C178.286 131.903 178.601 132.663 179.161 133.223C179.721 133.783 180.481 134.098 181.273 134.098C182.065 134.098 182.825 133.783 183.385 133.223C183.945 132.663 184.26 131.903 184.26 131.111V123.352H186.834L190.614 156.22C190.687 156.871 190.62 157.531 190.417 158.154C190.214 158.777 189.881 159.35 189.439 159.834C188.511 160.856 187.23 161.491 185.855 161.61C185.869 156.038 185.882 150.716 185.881 149.905C185.876 146.096 182.819 143.14 178.922 143.14H177.46C176.552 143.126 175.651 143.293 174.809 143.631C173.967 143.969 173.2 144.47 172.552 145.106C171.905 145.742 171.391 146.501 171.039 147.337C170.687 148.173 170.504 149.071 170.502 149.979C170.495 152.963 170.491 156.954 170.489 161.808H152.055ZM178.286 117.378H159.618V114.476C159.618 109.697 163.813 105.812 168.952 105.812C174.091 105.812 178.286 109.699 178.286 114.476V117.378ZM215.249 198.771H214.03C214.235 197.81 214.333 196.83 214.323 195.848C214.327 191.256 214.332 188.879 214.335 187.274C214.341 184.253 214.342 184.155 214.325 177.995C214.309 176.163 213.569 174.411 212.265 173.123C210.962 171.835 209.201 171.116 207.369 171.122H205.801C205.567 171.122 205.335 171.117 205.107 171.139C204.923 169.599 204.184 168.18 203.026 167.149C201.869 166.117 200.375 165.544 198.824 165.538H195.875C195.323 165.545 194.775 165.624 194.243 165.773C193.914 165.336 193.53 164.944 193.1 164.607C193.379 164.354 193.645 164.087 193.897 163.807C194.896 162.694 195.649 161.382 196.106 159.958C196.563 158.534 196.713 157.03 196.548 155.544L192.464 120.032C192.38 119.303 192.032 118.63 191.485 118.141C190.938 117.652 190.23 117.38 189.497 117.378H184.26V114.476C184.26 106.405 177.385 99.8383 168.952 99.8383C160.519 99.8383 153.644 106.405 153.644 114.476V117.378H147.861C147.126 117.38 146.419 117.653 145.872 118.143C145.325 118.632 144.977 119.306 144.893 120.036L140.809 155.542C140.644 157.043 140.794 158.561 141.251 159.999C141.707 161.438 142.46 162.765 143.46 163.895C144.54 165.11 145.863 166.084 147.344 166.753C148.825 167.423 150.43 167.773 152.055 167.782H170.487C170.487 169.648 170.487 172.04 170.487 174.166C168.668 172.764 166.426 172.023 164.131 172.064C161.835 172.104 159.621 172.925 157.853 174.39L156.49 175.416C155.923 175.83 155.53 176.439 155.384 177.125C155.238 177.811 155.35 178.527 155.698 179.136L166.695 198.771H121.908V81.5349H215.249V198.771Z" fill="#fff"/>
<path d="M173.264 212.212H163.893C163.101 212.212 162.341 212.526 161.781 213.087C161.221 213.647 160.906 214.407 160.906 215.199C160.906 215.991 161.221 216.751 161.781 217.311C162.341 217.871 163.101 218.186 163.893 218.186H173.264C174.056 218.186 174.816 217.871 175.376 217.311C175.937 216.751 176.251 215.991 176.251 215.199C176.251 214.407 175.937 213.647 175.376 213.087C174.816 212.526 174.056 212.212 173.264 212.212Z" fill="#fff"/>


</svg>