<svg width="340" height="339" viewBox="0 0 340 339" fill="none" xmlns="http://www.w3.org/2000/svg">

<rect x="7" width="326" height="326" rx="7.83654" fill="#885e24"></rect>
<rect x="9.5" y="2.5" width="321" height="321" rx="5.33654" stroke="#fdb414" stroke-width="5"></rect>

<path d="M84.93 272.2C84.93 270.9 85.16 269.62 85.62 268.36C86.1 267.1 86.79 265.96 87.69 264.94C88.59 263.92 89.69 263.11 90.99 262.51C92.29 261.89 93.77 261.58 95.43 261.58C97.37 261.58 99.06 262.01 100.5 262.87C101.94 263.73 103.01 264.85 103.71 266.23L100.53 268.42C100.17 267.62 99.7 266.99 99.12 266.53C98.54 266.07 97.91 265.74 97.23 265.54C96.57 265.34 95.93 265.24 95.31 265.24C94.27 265.24 93.36 265.45 92.58 265.87C91.82 266.29 91.18 266.84 90.66 267.52C90.14 268.2 89.75 268.96 89.49 269.8C89.25 270.64 89.13 271.48 89.13 272.32C89.13 273.58 89.39 274.76 89.91 275.86C90.43 276.94 91.16 277.82 92.1 278.5C93.04 279.18 94.13 279.52 95.37 279.52C96.01 279.52 96.67 279.41 97.35 279.19C98.05 278.97 98.69 278.62 99.27 278.14C99.85 277.66 100.3 277.04 100.62 276.28L104.01 278.23C103.57 279.29 102.88 280.19 101.94 280.93C101 281.65 99.94 282.21 98.76 282.61C97.58 282.99 96.41 283.18 95.25 283.18C93.73 283.18 92.34 282.87 91.08 282.25C89.84 281.61 88.76 280.77 87.84 279.73C86.92 278.67 86.2 277.49 85.68 276.19C85.18 274.87 84.93 273.54 84.93 272.2ZM118.913 283.15C117.353 283.15 115.933 282.85 114.653 282.25C113.393 281.65 112.303 280.84 111.383 279.82C110.483 278.78 109.783 277.62 109.283 276.34C108.783 275.04 108.533 273.71 108.533 272.35C108.533 270.93 108.793 269.58 109.313 268.3C109.833 267 110.563 265.85 111.503 264.85C112.443 263.83 113.543 263.03 114.803 262.45C116.083 261.85 117.483 261.55 119.003 261.55C120.543 261.55 121.943 261.86 123.203 262.48C124.483 263.1 125.573 263.93 126.473 264.97C127.393 266.01 128.093 267.18 128.573 268.48C129.073 269.76 129.323 271.07 129.323 272.41C129.323 273.81 129.063 275.16 128.543 276.46C128.023 277.74 127.293 278.89 126.353 279.91C125.433 280.91 124.333 281.7 123.053 282.28C121.793 282.86 120.413 283.15 118.913 283.15ZM112.733 272.35C112.733 273.59 112.973 274.75 113.453 275.83C113.953 276.91 114.663 277.79 115.583 278.47C116.523 279.15 117.643 279.49 118.943 279.49C120.283 279.49 121.413 279.14 122.333 278.44C123.253 277.74 123.953 276.84 124.433 275.74C124.913 274.64 125.153 273.51 125.153 272.35C125.153 271.11 124.903 269.95 124.403 268.87C123.903 267.79 123.183 266.92 122.243 266.26C121.323 265.58 120.223 265.24 118.943 265.24C117.603 265.24 116.473 265.59 115.553 266.29C114.633 266.99 113.933 267.89 113.453 268.99C112.973 270.07 112.733 271.19 112.733 272.35ZM139.939 269.32V283H135.799V261.7H139.099L150.109 275.74V261.73H154.249V283H150.799L139.939 269.32ZM177.909 265.33H171.099V283H166.989V265.33H160.179V261.7H177.909V265.33ZM187.651 261.7H191.851L199.681 283H195.421L193.441 277.69H186.001L184.051 283H179.791L187.651 261.7ZM192.691 274.78L189.751 265.99L186.691 274.78H192.691ZM203.207 272.2C203.207 270.9 203.437 269.62 203.897 268.36C204.377 267.1 205.067 265.96 205.967 264.94C206.867 263.92 207.967 263.11 209.267 262.51C210.567 261.89 212.047 261.58 213.707 261.58C215.647 261.58 217.337 262.01 218.777 262.87C220.217 263.73 221.287 264.85 221.987 266.23L218.807 268.42C218.447 267.62 217.977 266.99 217.397 266.53C216.817 266.07 216.187 265.74 215.507 265.54C214.847 265.34 214.207 265.24 213.587 265.24C212.547 265.24 211.637 265.45 210.857 265.87C210.097 266.29 209.457 266.84 208.937 267.52C208.417 268.2 208.027 268.96 207.767 269.8C207.527 270.64 207.407 271.48 207.407 272.32C207.407 273.58 207.667 274.76 208.187 275.86C208.707 276.94 209.437 277.82 210.377 278.5C211.317 279.18 212.407 279.52 213.647 279.52C214.287 279.52 214.947 279.41 215.627 279.19C216.327 278.97 216.967 278.62 217.547 278.14C218.127 277.66 218.577 277.04 218.897 276.28L222.287 278.23C221.847 279.29 221.157 280.19 220.217 280.93C219.277 281.65 218.217 282.21 217.037 282.61C215.857 282.99 214.687 283.18 213.527 283.18C212.007 283.18 210.617 282.87 209.357 282.25C208.117 281.61 207.037 280.77 206.117 279.73C205.197 278.67 204.477 277.49 203.957 276.19C203.457 274.87 203.207 273.54 203.207 272.2ZM244.294 265.33H237.484V283H233.374V265.33H226.564V261.7H244.294V265.33ZM262.928 267.28C262.748 267.08 262.368 266.82 261.788 266.5C261.208 266.16 260.508 265.86 259.688 265.6C258.888 265.32 258.058 265.18 257.198 265.18C254.938 265.18 253.808 265.98 253.808 267.58C253.808 268.16 253.988 268.62 254.348 268.96C254.708 269.3 255.248 269.59 255.968 269.83C256.688 270.07 257.588 270.33 258.668 270.61C260.068 270.97 261.278 271.39 262.298 271.87C263.338 272.35 264.128 272.99 264.668 273.79C265.228 274.57 265.508 275.61 265.508 276.91C265.508 278.43 265.138 279.66 264.398 280.6C263.678 281.52 262.718 282.19 261.518 282.61C260.318 283.03 259.018 283.24 257.618 283.24C256.018 283.24 254.428 283 252.848 282.52C251.288 282.02 249.898 281.34 248.678 280.48L250.508 276.91C250.688 277.09 251.008 277.33 251.468 277.63C251.928 277.91 252.488 278.2 253.148 278.5C253.808 278.78 254.528 279.02 255.308 279.22C256.088 279.42 256.878 279.52 257.678 279.52C259.958 279.52 261.098 278.79 261.098 277.33C261.098 276.71 260.868 276.21 260.408 275.83C259.948 275.45 259.298 275.13 258.458 274.87C257.638 274.61 256.678 274.32 255.578 274C254.218 273.62 253.088 273.2 252.188 272.74C251.308 272.26 250.648 271.67 250.208 270.97C249.768 270.25 249.548 269.34 249.548 268.24C249.548 266.78 249.888 265.56 250.568 264.58C251.268 263.58 252.208 262.83 253.388 262.33C254.568 261.81 255.878 261.55 257.318 261.55C258.798 261.55 260.178 261.79 261.458 262.27C262.738 262.75 263.838 263.3 264.758 263.92L262.928 267.28Z" fill="#fff"></path>

<rect x="26.5" y="20.5" width="287" height="287" rx="3.5" stroke="#fff" shape-rendering="crispEdges"></rect>

<rect x="15.5" y="8.5" width="309" height="309" stroke="#fdb414" stroke-width="5"></rect>

<path d="M207.583 224.126C207.649 224.436 207.653 224.757 207.594 225.069C207.536 225.381 207.417 225.678 207.243 225.944C207.07 226.21 206.846 226.439 206.584 226.618C206.321 226.797 206.027 226.922 205.716 226.987C192.57 229.741 178.893 228.322 166.592 222.929C166.292 222.809 166.019 222.63 165.79 222.402C165.561 222.174 165.379 221.903 165.257 221.604C165.134 221.305 165.073 220.985 165.077 220.662C165.08 220.339 165.149 220.02 165.278 219.724C165.407 219.428 165.595 219.16 165.829 218.938C166.064 218.716 166.34 218.543 166.643 218.43C166.945 218.316 167.268 218.265 167.59 218.279C167.913 218.292 168.23 218.37 168.522 218.509C179.902 223.492 192.552 224.804 204.712 222.263C205.023 222.196 205.344 222.191 205.657 222.248C205.97 222.305 206.268 222.424 206.535 222.597C206.802 222.77 207.032 222.994 207.212 223.257C207.392 223.519 207.518 223.814 207.583 224.126ZM156.116 212.805C155.639 212.805 155.172 212.947 154.776 213.212C154.379 213.477 154.07 213.854 153.887 214.295C153.704 214.736 153.657 215.221 153.75 215.689C153.843 216.157 154.073 216.587 154.41 216.924C154.747 217.261 155.177 217.491 155.645 217.584C156.113 217.677 156.598 217.63 157.039 217.447C157.48 217.264 157.857 216.955 158.122 216.558C158.387 216.162 158.529 215.695 158.529 215.218C158.529 214.578 158.275 213.964 157.822 213.512C157.37 213.059 156.756 212.805 156.116 212.805ZM232.998 189.282C233.035 191.617 232.489 193.925 231.411 195.998C230.333 198.07 228.756 199.841 226.822 201.152C226.656 201.282 226.479 201.395 226.291 201.49L219.536 205.881C212.61 210.377 204.672 213.076 196.44 213.734C188.209 214.391 179.944 212.985 172.392 209.645C155.799 202.655 140.66 192.623 127.757 180.065C115.184 167.147 105.136 151.993 98.1298 135.383C94.8002 127.837 93.4008 119.581 94.0579 111.359C94.7149 103.137 97.4078 95.2084 101.894 88.2871L106.236 81.5316L106.671 80.9526C107.998 79.0474 109.767 77.491 111.825 76.4156C113.883 75.3403 116.171 74.7779 118.493 74.7761C120.89 74.7982 123.244 75.4243 125.336 76.5966C127.427 77.769 129.189 79.4497 130.46 81.4834L139.001 95.0909C141.489 99.0072 142.538 103.668 141.965 108.273C141.393 112.877 139.236 117.139 135.864 120.327C135.699 120.516 135.522 120.694 135.333 120.858C135.285 120.858 135.285 120.906 135.237 120.906C134.995 121.148 134.706 121.389 134.416 121.63L131.328 124.091C134.143 136.907 140.652 148.617 150.051 157.772C155.973 163.751 162.919 168.621 170.558 172.152C174.762 174.116 179.184 175.574 183.732 176.494L186.144 173.406C186.408 173.062 186.698 172.74 187.013 172.441C187.013 172.393 187.061 172.393 187.061 172.345C187.206 172.2 187.302 172.007 187.495 171.91C190.695 168.555 194.959 166.413 199.561 165.85C204.163 165.287 208.818 166.337 212.732 168.822L226.339 177.363C228.377 178.614 230.059 180.366 231.225 182.453C232.391 184.54 233.001 186.891 232.998 189.282ZM111.448 82.6415L134.175 115.02C136.051 112.543 137.126 109.552 137.256 106.447C137.385 103.343 136.563 100.273 134.899 97.6483L126.358 84.0408C125.521 82.6931 124.356 81.5793 122.972 80.803C121.589 80.0268 120.031 79.6135 118.445 79.6015H118.396C117.09 79.5963 115.797 79.864 114.601 80.3875C113.404 80.911 112.33 81.6787 111.448 82.6415ZM228.173 189.33C228.175 187.746 227.772 186.188 227.004 184.804C226.236 183.419 225.127 182.253 223.782 181.416L210.126 172.875C207.525 171.252 204.497 170.448 201.433 170.569C198.37 170.689 195.413 171.728 192.948 173.551L225.133 196.375C226.102 195.477 226.874 194.387 227.397 193.173C227.921 191.96 228.185 190.651 228.173 189.33ZM173.029 72.3345C173.669 72.3345 174.282 72.0803 174.735 71.6278C175.187 71.1754 175.442 70.5617 175.442 69.9218V68.6479C175.442 68.0081 175.187 67.3944 174.735 66.9419C174.282 66.4895 173.669 66.2353 173.029 66.2353C172.389 66.2353 171.775 66.4895 171.323 66.9419C170.87 67.3944 170.616 68.0081 170.616 68.6479V69.9122C170.615 70.2298 170.676 70.5446 170.797 70.8384C170.918 71.1323 171.095 71.3994 171.319 71.6244C171.544 71.8495 171.81 72.0281 172.103 72.1499C172.397 72.2718 172.711 72.3345 173.029 72.3345ZM181.715 75.9294C182.033 75.93 182.348 75.8676 182.642 75.7458C182.936 75.6241 183.203 75.4454 183.428 75.2201L184.32 74.3225C184.772 73.8689 185.025 73.2543 185.024 72.6141C185.022 71.9738 184.767 71.3604 184.313 70.9086C183.859 70.4569 183.245 70.2038 182.605 70.2052C181.964 70.2065 181.351 70.4622 180.899 70.9159L180.006 71.8134C179.67 72.1511 179.441 72.5809 179.348 73.0487C179.256 73.5164 179.304 74.0011 179.487 74.4415C179.669 74.8819 179.979 75.2583 180.375 75.5231C180.772 75.7879 181.238 75.9293 181.715 75.9294ZM182.897 82.2023C182.897 82.8422 183.151 83.4559 183.603 83.9084C184.056 84.3608 184.67 84.615 185.309 84.615H186.574C187.214 84.615 187.827 84.3608 188.28 83.9084C188.732 83.4559 188.986 82.8422 188.986 82.2023C188.986 81.5625 188.732 80.9488 188.28 80.4963C187.827 80.0439 187.214 79.7897 186.574 79.7897H185.309C184.993 79.7878 184.678 79.8483 184.385 79.9678C184.092 80.0873 183.825 80.2634 183.599 80.4861C183.374 80.7088 183.194 80.9737 183.071 81.2657C182.948 81.5577 182.884 81.871 182.882 82.1879L182.897 82.2023ZM180.899 93.4744C181.123 93.699 181.388 93.8774 181.681 93.9993C181.974 94.1213 182.288 94.1844 182.605 94.185C182.922 94.1857 183.236 94.1239 183.529 94.0032C183.822 93.8825 184.088 93.7053 184.313 93.4816C184.538 93.2579 184.716 92.9922 184.838 92.6995C184.96 92.4069 185.023 92.0931 185.024 91.7761C185.024 91.4591 184.963 91.1451 184.842 90.8519C184.721 90.5588 184.544 90.2923 184.32 90.0677L183.428 89.1701C182.976 88.7165 182.362 88.4608 181.722 88.4595C181.082 88.4581 180.467 88.7112 180.014 89.1629C179.56 89.6147 179.304 90.2281 179.303 90.8684C179.302 91.5086 179.555 92.1232 180.006 92.5768L180.899 93.4744ZM173.043 98.1453C173.683 98.1453 174.297 97.8911 174.749 97.4386C175.202 96.9862 175.456 96.3725 175.456 95.7326V94.4636C175.456 93.8237 175.202 93.21 174.749 92.7575C174.297 92.3051 173.683 92.0509 173.043 92.0509C172.404 92.0509 171.79 92.3051 171.337 92.7575C170.885 93.21 170.631 93.8237 170.631 94.4636V95.7326C170.635 96.3675 170.888 96.9753 171.337 97.4242C171.786 97.8731 172.394 98.127 173.029 98.1308L173.043 98.1453ZM162.659 89.1701L161.767 90.0677C161.543 90.2923 161.366 90.5588 161.245 90.8519C161.124 91.1451 161.062 91.4591 161.063 91.7761C161.064 92.0931 161.127 92.4069 161.249 92.6995C161.371 92.9922 161.549 93.2579 161.774 93.4816C161.998 93.7053 162.265 93.8825 162.558 94.0032C162.851 94.1239 163.165 94.1857 163.482 94.185C164.122 94.1837 164.736 93.928 165.188 93.4744L166.08 92.5768C166.532 92.1232 166.785 91.5086 166.784 90.8684C166.782 90.2281 166.527 89.6147 166.073 89.1629C165.619 88.7112 165.005 88.4581 164.365 88.4595C163.724 88.4608 163.111 88.7165 162.659 89.1701ZM159.513 84.615H160.782C161.422 84.615 162.036 84.3608 162.488 83.9084C162.941 83.4559 163.195 82.8422 163.195 82.2023C163.195 81.5625 162.941 80.9488 162.488 80.4963C162.036 80.0439 161.422 79.7897 160.782 79.7897H159.513C158.873 79.7897 158.26 80.0439 157.807 80.4963C157.355 80.9488 157.1 81.5625 157.1 82.2023C157.1 82.8422 157.355 83.4559 157.807 83.9084C158.26 84.3608 158.873 84.615 159.513 84.615ZM162.659 75.2345C162.883 75.4592 163.149 75.6376 163.441 75.7595C163.734 75.8814 164.048 75.9445 164.365 75.9452C164.682 75.9459 164.996 75.8841 165.289 75.7634C165.582 75.6427 165.849 75.4655 166.073 75.2418C166.298 75.0181 166.476 74.7523 166.598 74.4597C166.72 74.1671 166.783 73.8533 166.784 73.5363C166.785 73.2193 166.723 72.9053 166.602 72.6121C166.481 72.319 166.304 72.0525 166.08 71.8278L165.188 70.9303C164.736 70.4767 164.122 70.221 163.482 70.2197C162.842 70.2183 162.227 70.4713 161.774 70.9231C161.32 71.3748 161.064 71.9883 161.063 72.6286C161.062 73.2688 161.315 73.8833 161.767 74.337L162.659 75.2345ZM194.671 129.52C195.31 129.52 195.924 129.266 196.377 128.813C196.829 128.361 197.083 127.747 197.083 127.107V125.568C197.083 124.928 196.829 124.314 196.377 123.862C195.924 123.409 195.31 123.155 194.671 123.155C194.031 123.155 193.417 123.409 192.965 123.862C192.512 124.314 192.258 124.928 192.258 125.568V127.107C192.262 127.742 192.516 128.35 192.965 128.799C193.413 129.248 194.021 129.501 194.656 129.505L194.671 129.52ZM204.244 133.004C204.597 133.003 204.945 132.926 205.264 132.777C205.583 132.627 205.866 132.41 206.092 132.14L207.057 130.963C207.275 130.722 207.442 130.44 207.548 130.134C207.654 129.828 207.697 129.503 207.675 129.179C207.653 128.856 207.566 128.54 207.419 128.251C207.272 127.962 207.069 127.706 206.82 127.497C206.572 127.288 206.285 127.132 205.975 127.037C205.665 126.942 205.339 126.911 205.016 126.944C204.694 126.978 204.381 127.077 204.098 127.234C203.814 127.391 203.565 127.604 203.366 127.86L202.401 129.042C202.106 129.394 201.918 129.822 201.859 130.276C201.799 130.731 201.87 131.193 202.063 131.609C202.257 132.024 202.564 132.376 202.951 132.623C203.337 132.871 203.786 133.002 204.244 133.004ZM206.97 139.836C207.069 140.394 207.36 140.899 207.793 141.263C208.226 141.627 208.774 141.828 209.34 141.829C209.482 141.828 209.624 141.815 209.764 141.791L211.279 141.52C211.602 141.478 211.913 141.37 212.193 141.204C212.473 141.038 212.717 140.818 212.909 140.555C213.101 140.293 213.239 139.994 213.313 139.677C213.387 139.36 213.396 139.031 213.34 138.711C213.283 138.39 213.163 138.084 212.985 137.812C212.807 137.539 212.576 137.305 212.306 137.124C212.035 136.943 211.731 136.818 211.411 136.758C211.091 136.697 210.763 136.702 210.445 136.772L208.925 137.042C208.296 137.151 207.735 137.504 207.366 138.025C206.997 138.546 206.85 139.192 206.956 139.822L206.97 139.836ZM210.117 148.131L208.785 147.359C208.231 147.044 207.575 146.961 206.96 147.128C206.345 147.295 205.821 147.698 205.503 148.25C205.184 148.802 205.097 149.457 205.26 150.073C205.423 150.689 205.822 151.216 206.372 151.538L207.704 152.31C208.07 152.523 208.487 152.635 208.91 152.633C209.441 152.633 209.958 152.458 210.379 152.135C210.8 151.811 211.103 151.358 211.241 150.845C211.378 150.332 211.342 149.788 211.139 149.297C210.936 148.807 210.576 148.397 210.117 148.131ZM198.053 158.264C198.223 158.73 198.531 159.132 198.937 159.416C199.343 159.7 199.826 159.852 200.321 159.852C200.603 159.852 200.882 159.801 201.146 159.702C201.445 159.594 201.719 159.429 201.953 159.215C202.187 159.001 202.377 158.743 202.511 158.456C202.646 158.169 202.722 157.858 202.736 157.541C202.751 157.224 202.702 156.907 202.594 156.609L202.063 155.162C201.832 154.576 201.382 154.104 200.808 153.846C200.234 153.588 199.582 153.564 198.991 153.78C198.399 153.996 197.916 154.434 197.643 155.002C197.371 155.569 197.331 156.22 197.532 156.817L198.053 158.264ZM187.336 155.176L186.81 156.624C186.688 156.925 186.628 157.247 186.634 157.572C186.64 157.896 186.711 158.216 186.844 158.513C186.976 158.809 187.167 159.076 187.405 159.297C187.643 159.518 187.923 159.688 188.228 159.798C188.533 159.909 188.858 159.956 189.182 159.938C189.506 159.92 189.823 159.836 190.114 159.692C190.406 159.549 190.665 159.348 190.876 159.102C191.088 158.855 191.248 158.569 191.346 158.259L191.867 156.812C191.994 156.51 192.059 156.186 192.057 155.859C192.055 155.531 191.986 155.208 191.855 154.908C191.724 154.608 191.533 154.338 191.294 154.114C191.055 153.89 190.773 153.717 190.465 153.606C190.158 153.494 189.83 153.447 189.504 153.466C189.177 153.485 188.857 153.57 188.565 153.716C188.272 153.863 188.012 154.067 187.801 154.318C187.59 154.568 187.431 154.858 187.336 155.171V155.176ZM180.581 147.359L179.249 148.131C178.789 148.397 178.429 148.807 178.226 149.297C178.023 149.788 177.987 150.332 178.125 150.845C178.262 151.358 178.565 151.811 178.986 152.135C179.408 152.458 179.924 152.633 180.455 152.633C180.879 152.633 181.295 152.522 181.661 152.31L182.993 151.538C183.27 151.381 183.513 151.17 183.708 150.919C183.903 150.667 184.046 150.38 184.129 150.073C184.213 149.765 184.234 149.445 184.193 149.129C184.152 148.814 184.049 148.51 183.89 148.234C183.731 147.958 183.519 147.717 183.266 147.524C183.014 147.331 182.725 147.189 182.417 147.108C182.11 147.027 181.789 147.007 181.474 147.05C181.159 147.093 180.855 147.198 180.581 147.359ZM178.076 141.52L179.591 141.791C179.732 141.815 179.874 141.828 180.016 141.829C180.617 141.826 181.196 141.598 181.637 141.19C182.079 140.782 182.353 140.224 182.405 139.625C182.457 139.026 182.283 138.429 181.918 137.951C181.553 137.474 181.023 137.15 180.431 137.042L178.911 136.772C178.593 136.702 178.264 136.697 177.945 136.758C177.625 136.818 177.32 136.943 177.05 137.124C176.78 137.305 176.548 137.539 176.371 137.812C176.193 138.084 176.073 138.39 176.016 138.711C175.96 139.031 175.969 139.36 176.043 139.677C176.117 139.994 176.254 140.293 176.447 140.555C176.639 140.818 176.883 141.038 177.163 141.204C177.443 141.37 177.754 141.478 178.076 141.52ZM186.612 132.429C187.096 132.018 187.398 131.433 187.453 130.801C187.508 130.169 187.312 129.54 186.907 129.052L185.942 127.874C185.742 127.619 185.493 127.406 185.21 127.249C184.926 127.091 184.614 126.993 184.291 126.959C183.969 126.925 183.643 126.957 183.333 127.051C183.023 127.146 182.735 127.303 182.487 127.511C182.239 127.72 182.035 127.977 181.888 128.266C181.741 128.555 181.654 128.87 181.632 129.194C181.61 129.517 181.653 129.842 181.76 130.148C181.866 130.455 182.033 130.737 182.25 130.977L183.215 132.154C183.626 132.638 184.211 132.94 184.844 132.995C185.476 133.05 186.104 132.854 186.593 132.449L186.612 132.429Z" fill="#fff"></path>

</svg>