<svg width="340" height="339" viewBox="0 0 340 339" fill="none" xmlns="http://www.w3.org/2000/svg">

<rect x="7" width="326" height="326" rx="7.83654" fill="#885e24"></rect>
<rect x="9.5" y="2.5" width="321" height="321" rx="5.33654" stroke="#fdb414" stroke-width="5"></rect>

<path d="M113.38 273.51C113.38 274.71 113.07 275.72 112.45 276.54C111.83 277.34 110.99 277.95 109.93 278.37C108.89 278.79 107.75 279 106.51 279H96.22V257.7H107.62C108.62 257.7 109.48 257.97 110.2 258.51C110.92 259.03 111.48 259.71 111.88 260.55C112.28 261.39 112.48 262.25 112.48 263.13C112.48 264.17 112.22 265.15 111.7 266.07C111.18 266.97 110.42 267.64 109.42 268.08C110.64 268.44 111.6 269.09 112.3 270.03C113.02 270.97 113.38 272.13 113.38 273.51ZM100.36 261.24V266.61H105.88C106.56 266.61 107.15 266.37 107.65 265.89C108.15 265.41 108.4 264.75 108.4 263.91C108.4 263.11 108.17 262.47 107.71 261.99C107.27 261.49 106.72 261.24 106.06 261.24H100.36ZM109.21 272.73C109.21 271.95 108.97 271.28 108.49 270.72C108.01 270.16 107.42 269.88 106.72 269.88H100.36V275.49H106.51C107.27 275.49 107.91 275.22 108.43 274.68C108.95 274.14 109.21 273.49 109.21 272.73ZM128.941 279.15C127.241 279.15 125.791 278.87 124.591 278.31C123.411 277.73 122.451 276.94 121.711 275.94C120.991 274.94 120.461 273.81 120.121 272.55C119.781 271.27 119.611 269.94 119.611 268.56V257.7H123.751V268.56C123.751 269.74 123.911 270.86 124.231 271.92C124.551 272.98 125.091 273.84 125.851 274.5C126.611 275.16 127.631 275.49 128.911 275.49C130.231 275.49 131.271 275.16 132.031 274.5C132.791 273.82 133.331 272.95 133.651 271.89C133.971 270.83 134.131 269.72 134.131 268.56V257.7H138.241V268.56C138.241 270.02 138.061 271.39 137.701 272.67C137.361 273.95 136.811 275.08 136.051 276.06C135.311 277.02 134.351 277.78 133.171 278.34C131.991 278.88 130.581 279.15 128.941 279.15ZM145.711 279V257.7H149.851V279H145.711ZM157.595 279V257.7H161.735V275.37H172.595V279H157.595ZM178.414 279V257.7H186.154C188.474 257.7 190.414 258.18 191.974 259.14C193.534 260.08 194.704 261.36 195.484 262.98C196.264 264.58 196.654 266.36 196.654 268.32C196.654 270.48 196.224 272.36 195.364 273.96C194.504 275.56 193.284 276.8 191.704 277.68C190.124 278.56 188.274 279 186.154 279H178.414ZM192.484 268.32C192.484 266.94 192.234 265.73 191.734 264.69C191.234 263.63 190.514 262.81 189.574 262.23C188.634 261.63 187.494 261.33 186.154 261.33H182.554V275.37H186.154C187.514 275.37 188.664 275.07 189.604 274.47C190.544 273.85 191.254 273.01 191.734 271.95C192.234 270.87 192.484 269.66 192.484 268.32ZM213.696 279V257.7H217.836V279H213.696ZM241.51 261.33H234.7V279H230.59V261.33H223.78V257.7H241.51V261.33Z" fill="#fff"></path>

<rect x="26.5" y="20.5" width="287" height="287" rx="3.5" stroke="#fff" shape-rendering="crispEdges"></rect>

<rect x="15.5" y="8.5" width="309" height="309" stroke="#fdb414" stroke-width="5"></rect>

<path d="M243.286 144.827H233.683L229.067 94.0708L228.953 92.814L226.247 63.0852C226.12 61.6854 224.949 60.6152 223.544 60.6152H202.898C201.493 60.6152 200.321 61.6854 200.193 63.0852L198.762 78.8216L198.308 83.8286L192.759 144.825H186.633V118.463C186.633 117.498 186.121 116.607 185.288 116.12C184.456 115.629 183.428 115.624 182.586 116.096L134.841 142.924V118.463C134.841 117.498 134.328 116.607 133.495 116.12C132.664 115.631 131.636 115.622 130.794 116.096L79.0031 145.198C78.1466 145.68 77.6178 146.585 77.6178 147.567V226.308C77.6178 227.81 78.8329 229.025 80.3341 229.025H183.908H183.915H243.284C244.785 229.025 246 227.81 246 226.308V147.543C246.002 146.042 244.785 144.827 243.286 144.827ZM221.063 66.0478L222.001 76.3515H204.441L205.379 66.0478H221.063ZM203.675 84.7775L203.947 81.7859H222.493L223.386 91.6007H203.054L203.675 84.7775ZM202.559 97.0315H223.88L228.226 144.827H198.213L202.559 97.0315ZM83.0504 149.155L129.408 123.106V147.565C129.408 148.53 129.921 149.421 130.754 149.908C131.585 150.397 132.613 150.405 133.455 149.932L181.2 123.104V147.464C181.2 147.491 181.193 147.516 181.193 147.543V223.592H83.0504V149.155ZM240.569 223.592H186.633V150.26H195.024C195.095 150.265 195.164 150.281 195.236 150.281H231.204C231.276 150.281 231.345 150.265 231.415 150.26H240.569V223.592Z" fill="#fff"></path>
<path d="M227.444 158.974H198.998C197.497 158.974 196.281 160.189 196.281 161.69V190.135C196.281 191.636 197.497 192.851 198.998 192.851H227.443C228.944 192.851 230.159 191.636 230.159 190.135V161.69C230.161 160.19 228.944 158.974 227.444 158.974ZM224.728 187.42H201.714V164.406H224.726V187.42H224.728ZM167.78 162.595H139.334C137.833 162.595 136.617 163.81 136.617 165.312V185.063C136.617 186.564 137.833 187.779 139.334 187.779H167.779C169.28 187.779 170.495 186.564 170.495 185.063V165.312C170.497 163.81 169.28 162.595 167.78 162.595ZM165.064 182.346H142.05V168.028H165.062V182.346H165.064ZM124.916 162.595H96.4709C94.9697 162.595 93.7546 163.81 93.7546 165.312V185.063C93.7546 186.564 94.9697 187.779 96.4709 187.779H124.916C126.417 187.779 127.632 186.564 127.632 185.063V165.312C127.632 163.81 126.417 162.595 124.916 162.595ZM122.199 182.346H99.1871V168.028H122.199V182.346Z" fill="#fff"></path>

</svg>