<svg width="340" height="339" viewBox="0 0 340 339" fill="none" xmlns="http://www.w3.org/2000/svg">


<rect x="7" width="326" height="326" rx="7.83654" fill="#885e24"></rect>
<rect x="9.5" y="2.5" width="321" height="321" rx="5.33654" stroke="#fdb414" stroke-width="5"></rect>


<path d="M108.51 264.76H112.35L114.78 271.81L117.24 264.76H121.05L117.39 274.45L120.09 281.23L126.12 264.7H130.62L122.1 286H118.53L114.78 277.06L111.06 286H107.49L99 264.7H103.44L109.5 281.23L112.14 274.45L108.51 264.76ZM150.892 282.37V286H136.102V264.7H150.622V268.33H140.242V273.46H149.212V276.82H140.242V282.37H150.892ZM174.58 280.51C174.58 281.71 174.27 282.72 173.65 283.54C173.03 284.34 172.19 284.95 171.13 285.37C170.09 285.79 168.95 286 167.71 286H157.42V264.7H168.82C169.82 264.7 170.68 264.97 171.4 265.51C172.12 266.03 172.68 266.71 173.08 267.55C173.48 268.39 173.68 269.25 173.68 270.13C173.68 271.17 173.42 272.15 172.9 273.07C172.38 273.97 171.62 274.64 170.62 275.08C171.84 275.44 172.8 276.09 173.5 277.03C174.22 277.97 174.58 279.13 174.58 280.51ZM161.56 268.24V273.61H167.08C167.76 273.61 168.35 273.37 168.85 272.89C169.35 272.41 169.6 271.75 169.6 270.91C169.6 270.11 169.37 269.47 168.91 268.99C168.47 268.49 167.92 268.24 167.26 268.24H161.56ZM170.41 279.73C170.41 278.95 170.17 278.28 169.69 277.72C169.21 277.16 168.62 276.88 167.92 276.88H161.56V282.49H167.71C168.47 282.49 169.11 282.22 169.63 281.68C170.15 281.14 170.41 280.49 170.41 279.73ZM193.8 270.28C193.62 270.08 193.24 269.82 192.66 269.5C192.08 269.16 191.38 268.86 190.56 268.6C189.76 268.32 188.93 268.18 188.07 268.18C185.81 268.18 184.68 268.98 184.68 270.58C184.68 271.16 184.86 271.62 185.22 271.96C185.58 272.3 186.12 272.59 186.84 272.83C187.56 273.07 188.46 273.33 189.54 273.61C190.94 273.97 192.15 274.39 193.17 274.87C194.21 275.35 195 275.99 195.54 276.79C196.1 277.57 196.38 278.61 196.38 279.91C196.38 281.43 196.01 282.66 195.27 283.6C194.55 284.52 193.59 285.19 192.39 285.61C191.19 286.03 189.89 286.24 188.49 286.24C186.89 286.24 185.3 286 183.72 285.52C182.16 285.02 180.77 284.34 179.55 283.48L181.38 279.91C181.56 280.09 181.88 280.33 182.34 280.63C182.8 280.91 183.36 281.2 184.02 281.5C184.68 281.78 185.4 282.02 186.18 282.22C186.96 282.42 187.75 282.52 188.55 282.52C190.83 282.52 191.97 281.79 191.97 280.33C191.97 279.71 191.74 279.21 191.28 278.83C190.82 278.45 190.17 278.13 189.33 277.87C188.51 277.61 187.55 277.32 186.45 277C185.09 276.62 183.96 276.2 183.06 275.74C182.18 275.26 181.52 274.67 181.08 273.97C180.64 273.25 180.42 272.34 180.42 271.24C180.42 269.78 180.76 268.56 181.44 267.58C182.14 266.58 183.08 265.83 184.26 265.33C185.44 264.81 186.75 264.55 188.19 264.55C189.67 264.55 191.05 264.79 192.33 265.27C193.61 265.75 194.71 266.3 195.63 266.92L193.8 270.28ZM202.809 286V264.7H206.949V286H202.809ZM230.623 268.33H223.813V286H219.703V268.33H212.893V264.7H230.623V268.33ZM251.357 282.37V286H236.567V264.7H251.087V268.33H240.707V273.46H249.677V276.82H240.707V282.37H251.357Z" fill="#fff"></path>



<rect x="26.5" y="20.5" width="287" height="287" rx="3.5" stroke="#fff" shape-rendering="crispEdges"></rect>

<rect x="15.5" y="8.5" width="309" height="309" stroke="#fdb414" stroke-width="5"></rect>

<path d="M246.667 191.333H243.333V108C243.333 105.348 242.28 102.804 240.404 100.929C238.529 99.0536 235.985 98 233.333 98H223.333V68C223.333 65.3478 222.28 62.8043 220.404 60.9289C218.529 59.0536 215.985 58 213.333 58H126.667C124.015 58 121.471 59.0536 119.596 60.9289C117.72 62.8043 116.667 65.3478 116.667 68V98H106.667C104.015 98 101.471 99.0536 99.5956 100.929C97.7202 102.804 96.6667 105.348 96.6667 108V191.333H93.3333C92.4493 191.333 91.6014 191.685 90.9763 192.31C90.3512 192.935 90 193.783 90 194.667V201.333C90 203.522 90.4311 205.689 91.2687 207.711C92.1063 209.733 93.3339 211.571 94.8816 213.118C96.4292 214.666 98.2665 215.894 100.289 216.731C102.311 217.569 104.478 218 106.667 218H233.333C235.522 218 237.689 217.569 239.711 216.731C241.733 215.894 243.571 214.666 245.118 213.118C246.666 211.571 247.894 209.733 248.731 207.711C249.569 205.689 250 203.522 250 201.333V194.667C250 193.783 249.649 192.935 249.024 192.31C248.399 191.685 247.551 191.333 246.667 191.333ZM123.333 84.6667H216.667V161.333C216.667 162.217 216.315 163.065 215.69 163.69C215.065 164.315 214.217 164.667 213.333 164.667H126.667C125.783 164.667 124.935 164.315 124.31 163.69C123.685 163.065 123.333 162.217 123.333 161.333V84.6667ZM123.333 68C123.333 67.1159 123.685 66.2681 124.31 65.643C124.935 65.0179 125.783 64.6667 126.667 64.6667H213.333C214.217 64.6667 215.065 65.0179 215.69 65.643C216.315 66.2681 216.667 67.1159 216.667 68V78H123.333V68ZM103.333 108C103.333 107.116 103.685 106.268 104.31 105.643C104.935 105.018 105.783 104.667 106.667 104.667H116.667V161.333C116.667 163.985 117.72 166.529 119.596 168.404C121.471 170.28 124.015 171.333 126.667 171.333H213.333C215.985 171.333 218.529 170.28 220.404 168.404C222.28 166.529 223.333 163.985 223.333 161.333V104.667H233.333C234.217 104.667 235.065 105.018 235.69 105.643C236.315 106.268 236.667 107.116 236.667 108V191.333C183.333 191.333 185 190.567 183.7 193.167L181.267 198H158.733C156.033 192.633 155.8 191.333 153.333 191.333H103.333V108ZM243.333 201.333C243.333 203.985 242.28 206.529 240.404 208.404C238.529 210.28 235.985 211.333 233.333 211.333H106.667C104.015 211.333 101.471 210.28 99.5956 208.404C97.7202 206.529 96.6667 203.985 96.6667 201.333V198H151.267C153.967 203.367 154.2 204.667 156.667 204.667C185.4 204.667 185.067 205.333 186.3 202.833L188.733 198H243.333V201.333Z" fill="#fff"></path>
<path d="M133.333 68C132.449 68 131.601 68.3512 130.976 68.9763C130.351 69.6014 130 70.4493 130 71.3333C130 72.2174 130.351 73.0652 130.976 73.6904C131.601 74.3155 132.449 74.6667 133.333 74.6667C134.217 74.6667 135.065 74.3155 135.69 73.6904C136.315 73.0652 136.667 72.2174 136.667 71.3333C136.667 70.4493 136.315 69.6014 135.69 68.9763C135.065 68.3512 134.217 68 133.333 68V68ZM146.667 68C145.783 68 144.935 68.3512 144.31 68.9763C143.685 69.6014 143.333 70.4493 143.333 71.3333C143.333 72.2174 143.685 73.0652 144.31 73.6904C144.935 74.3155 145.783 74.6667 146.667 74.6667C147.551 74.6667 148.399 74.3155 149.024 73.6904C149.649 73.0652 150 72.2174 150 71.3333C150 70.4493 149.649 69.6014 149.024 68.9763C148.399 68.3512 147.551 68 146.667 68V68ZM160 68C159.116 68 158.268 68.3512 157.643 68.9763C157.018 69.6014 156.667 70.4493 156.667 71.3333C156.667 72.2174 157.018 73.0652 157.643 73.6904C158.268 74.3155 159.116 74.6667 160 74.6667C160.884 74.6667 161.732 74.3155 162.357 73.6904C162.982 73.0652 163.333 72.2174 163.333 71.3333C163.333 70.4493 162.982 69.6014 162.357 68.9763C161.732 68.3512 160.884 68 160 68V68ZM170 158C176.593 158 183.037 156.045 188.519 152.382C194.001 148.72 198.273 143.514 200.796 137.423C203.319 131.332 203.979 124.63 202.693 118.164C201.407 111.698 198.232 105.758 193.57 101.096C188.908 96.4347 182.969 93.26 176.503 91.9738C170.037 90.6876 163.335 91.3478 157.244 93.8707C151.153 96.3936 145.947 100.666 142.284 106.148C138.622 111.629 136.667 118.074 136.667 124.667C136.667 133.507 140.179 141.986 146.43 148.237C152.681 154.488 161.159 158 170 158V158ZM143.567 128H156.9C157.21 135.928 159.502 143.653 163.567 150.467C158.359 149.169 153.665 146.331 150.097 142.322C146.528 138.314 144.253 133.322 143.567 128ZM170 100.933C174.073 106.982 176.382 114.046 176.667 121.333H163.333C163.618 114.046 165.927 106.982 170 100.933V100.933ZM176.667 128C176.382 135.287 174.073 142.351 170 148.4C165.927 142.351 163.618 135.287 163.333 128H176.667ZM176.667 150.467C180.732 143.653 183.024 135.928 183.333 128H196.667C195.981 133.322 193.705 138.314 190.137 142.322C186.568 146.331 181.874 149.169 176.667 150.467V150.467ZM196.433 121.333H183.333C183.024 113.405 180.732 105.681 176.667 98.8667C181.831 100.205 186.475 103.061 189.998 107.066C193.522 111.071 195.764 116.041 196.433 121.333ZM163.333 98.8667C159.268 105.681 156.976 113.405 156.667 121.333H143.333C144.019 116.011 146.295 111.019 149.863 107.011C153.432 103.003 158.126 100.164 163.333 98.8667V98.8667Z" fill="#fff"></path>


</svg>