<?xml version="1.0" encoding="UTF-8" standalone="no"?>
<!-- Generated by IcoMoon.io -->

<svg
   xmlns:dc="http://purl.org/dc/elements/1.1/"
   xmlns:cc="http://creativecommons.org/ns#"
   xmlns:rdf="http://www.w3.org/1999/02/22-rdf-syntax-ns#"
   xmlns:svg="http://www.w3.org/2000/svg"
   xmlns="http://www.w3.org/2000/svg"
   xmlns:sodipodi="http://sodipodi.sourceforge.net/DTD/sodipodi-0.dtd"
   xmlns:inkscape="http://www.inkscape.org/namespaces/inkscape"
   version="1.1"
   width="20"
   height="20"
   viewBox="0 0 20 20"
   id="svg12"
   sodipodi:docname="lnr-magic-wand.svg"
   inkscape:version="0.92.4 (unknown)">
  <metadata
     id="metadata18">
    <rdf:RDF>
      <cc:Work
         rdf:about="">
        <dc:format>image/svg+xml</dc:format>
        <dc:type
           rdf:resource="http://purl.org/dc/dcmitype/StillImage" />
      </cc:Work>
    </rdf:RDF>
  </metadata>
  <defs
     id="defs16" />
  <sodipodi:namedview
     pagecolor="#ffffff"
     bordercolor="#666666"
     borderopacity="1"
     objecttolerance="10"
     gridtolerance="10"
     guidetolerance="10"
     inkscape:pageopacity="0"
     inkscape:pageshadow="2"
     inkscape:window-width="1920"
     inkscape:window-height="1004"
     id="namedview14"
     showgrid="false"
     inkscape:zoom="11.8"
     inkscape:cx="10"
     inkscape:cy="10"
     inkscape:window-x="0"
     inkscape:window-y="0"
     inkscape:window-maximized="1"
     inkscape:current-layer="svg12" />
  <path
     fill="#000000"
     d="M11.5 7c-0.276 0-0.5-0.224-0.5-0.5 0-1.378-1.122-2.5-2.5-2.5-0.276 0-0.5-0.224-0.5-0.5s0.224-0.5 0.5-0.5c1.378 0 2.5-1.122 2.5-2.5 0-0.276 0.224-0.5 0.5-0.5s0.5 0.224 0.5 0.5c0 1.378 1.122 2.5 2.5 2.5 0.276 0 0.5 0.224 0.5 0.5s-0.224 0.5-0.5 0.5c-1.378 0-2.5 1.122-2.5 2.5 0 0.276-0.224 0.5-0.5 0.5zM10.301 3.5c0.49 0.296 0.903 0.708 1.199 1.199 0.296-0.49 0.708-0.903 1.199-1.199-0.49-0.296-0.903-0.708-1.199-1.199-0.296 0.49-0.708 0.903-1.199 1.199z"
     id="path2"
     style="fill:#ffbf40;fill-opacity:1" />
  <path
     fill="#000000"
     d="M1.5 10c-0.276 0-0.5-0.224-0.5-0.5s-0.224-0.5-0.5-0.5c-0.276 0-0.5-0.224-0.5-0.5s0.224-0.5 0.5-0.5c0.276 0 0.5-0.224 0.5-0.5s0.224-0.5 0.5-0.5 0.5 0.224 0.5 0.5c0 0.276 0.224 0.5 0.5 0.5s0.5 0.224 0.5 0.5-0.224 0.5-0.5 0.5c-0.276 0-0.5 0.224-0.5 0.5s-0.224 0.5-0.5 0.5z"
     id="path4"
     style="fill:#ffbf40;fill-opacity:1" />
  <path
     fill="#000000"
     d="M18.147 15.939l-10.586-10.586c-0.283-0.283-0.659-0.438-1.061-0.438s-0.778 0.156-1.061 0.438l-0.586 0.586c-0.283 0.283-0.438 0.659-0.438 1.061s0.156 0.778 0.438 1.061l10.586 10.586c0.283 0.283 0.659 0.438 1.061 0.438s0.778-0.156 1.061-0.438l0.586-0.586c0.283-0.283 0.438-0.659 0.438-1.061s-0.156-0.778-0.438-1.061zM5.561 6.646l0.586-0.586c0.094-0.094 0.219-0.145 0.354-0.145s0.26 0.052 0.354 0.145l1.439 1.439-1.293 1.293-1.439-1.439c-0.195-0.195-0.195-0.512 0-0.707zM17.439 17.354l-0.586 0.586c-0.094 0.094-0.219 0.145-0.353 0.145s-0.26-0.052-0.353-0.145l-8.439-8.439 1.293-1.293 8.439 8.439c0.195 0.195 0.195 0.512 0 0.707z"
     id="path6"
     style="fill:#ffbf40;fill-opacity:1" />
  <path
     fill="#000000"
     d="M3.5 5c-0.276 0-0.5-0.224-0.5-0.5 0-0.827-0.673-1.5-1.5-1.5-0.276 0-0.5-0.224-0.5-0.5s0.224-0.5 0.5-0.5c0.827 0 1.5-0.673 1.5-1.5 0-0.276 0.224-0.5 0.5-0.5s0.5 0.224 0.5 0.5c0 0.827 0.673 1.5 1.5 1.5 0.276 0 0.5 0.224 0.5 0.5s-0.224 0.5-0.5 0.5c-0.827 0-1.5 0.673-1.5 1.5 0 0.276-0.224 0.5-0.5 0.5zM2.998 2.5c0.19 0.143 0.359 0.312 0.502 0.502 0.143-0.19 0.312-0.359 0.502-0.502-0.19-0.143-0.359-0.312-0.502-0.502-0.143 0.19-0.312 0.359-0.502 0.502z"
     id="path8"
     style="fill:#ffbf40;fill-opacity:1" />
  <path
     fill="#000000"
     d="M3.5 15c-0.276 0-0.5-0.224-0.5-0.5 0-0.827-0.673-1.5-1.5-1.5-0.276 0-0.5-0.224-0.5-0.5s0.224-0.5 0.5-0.5c0.827 0 1.5-0.673 1.5-1.5 0-0.276 0.224-0.5 0.5-0.5s0.5 0.224 0.5 0.5c0 0.827 0.673 1.5 1.5 1.5 0.276 0 0.5 0.224 0.5 0.5s-0.224 0.5-0.5 0.5c-0.827 0-1.5 0.673-1.5 1.5 0 0.276-0.224 0.5-0.5 0.5zM2.998 12.5c0.19 0.143 0.359 0.312 0.502 0.502 0.143-0.19 0.312-0.359 0.502-0.502-0.19-0.143-0.359-0.312-0.502-0.502-0.143 0.19-0.312 0.359-0.502 0.502z"
     id="path10"
     style="fill:#ffbf40;fill-opacity:1" />
</svg>
