<svg width="340" height="339" viewBox="0 0 340 339" fill="none" xmlns="http://www.w3.org/2000/svg">


<rect x="7" width="326" height="326" rx="7.83654" fill="#885e24"></rect>
<rect x="9.5" y="2.5" width="321" height="321" rx="5.33654"  stroke="#fdb414" stroke-width="5"></rect>


<path d="M90.15 268.33H83.34V286H79.23V268.33H72.42V264.7H90.15V268.33ZM114.004 264.7V286H109.894V276.91H100.234V286H96.0942V264.7H100.234V273.31H109.894V264.7H114.004ZM136.538 282.37V286H121.748V264.7H136.268V268.33H125.888V273.46H134.858V276.82H125.888V282.37H136.538ZM170.732 280.51C170.732 281.71 170.422 282.72 169.802 283.54C169.182 284.34 168.342 284.95 167.282 285.37C166.242 285.79 165.102 286 163.862 286H153.572V264.7H164.972C165.972 264.7 166.832 264.97 167.552 265.51C168.272 266.03 168.832 266.71 169.232 267.55C169.632 268.39 169.832 269.25 169.832 270.13C169.832 271.17 169.572 272.15 169.052 273.07C168.532 273.97 167.772 274.64 166.772 275.08C167.992 275.44 168.952 276.09 169.652 277.03C170.372 277.97 170.732 279.13 170.732 280.51ZM157.712 268.24V273.61H163.232C163.912 273.61 164.502 273.37 165.002 272.89C165.502 272.41 165.752 271.75 165.752 270.91C165.752 270.11 165.522 269.47 165.062 268.99C164.622 268.49 164.072 268.24 163.412 268.24H157.712ZM166.562 279.73C166.562 278.95 166.322 278.28 165.842 277.72C165.362 277.16 164.772 276.88 164.072 276.88H157.712V282.49H163.862C164.622 282.49 165.262 282.22 165.782 281.68C166.302 281.14 166.562 280.49 166.562 279.73ZM186.353 286.15C184.793 286.15 183.373 285.85 182.093 285.25C180.833 284.65 179.743 283.84 178.823 282.82C177.923 281.78 177.223 280.62 176.723 279.34C176.223 278.04 175.973 276.71 175.973 275.35C175.973 273.93 176.233 272.58 176.753 271.3C177.273 270 178.003 268.85 178.943 267.85C179.883 266.83 180.983 266.03 182.243 265.45C183.523 264.85 184.923 264.55 186.443 264.55C187.983 264.55 189.383 264.86 190.643 265.48C191.923 266.1 193.013 266.93 193.913 267.97C194.833 269.01 195.533 270.18 196.013 271.48C196.513 272.76 196.763 274.07 196.763 275.41C196.763 276.81 196.503 278.16 195.983 279.46C195.463 280.74 194.733 281.89 193.793 282.91C192.873 283.91 191.773 284.7 190.493 285.28C189.233 285.86 187.853 286.15 186.353 286.15ZM180.173 275.35C180.173 276.59 180.413 277.75 180.893 278.83C181.393 279.91 182.103 280.79 183.023 281.47C183.963 282.15 185.083 282.49 186.383 282.49C187.723 282.49 188.853 282.14 189.773 281.44C190.693 280.74 191.393 279.84 191.873 278.74C192.353 277.64 192.593 276.51 192.593 275.35C192.593 274.11 192.343 272.95 191.843 271.87C191.343 270.79 190.623 269.92 189.683 269.26C188.763 268.58 187.663 268.24 186.383 268.24C185.043 268.24 183.913 268.59 182.993 269.29C182.073 269.99 181.373 270.89 180.893 271.99C180.413 273.07 180.173 274.19 180.173 275.35ZM212.329 286.15C210.769 286.15 209.349 285.85 208.069 285.25C206.809 284.65 205.719 283.84 204.799 282.82C203.899 281.78 203.199 280.62 202.699 279.34C202.199 278.04 201.949 276.71 201.949 275.35C201.949 273.93 202.209 272.58 202.729 271.3C203.249 270 203.979 268.85 204.919 267.85C205.859 266.83 206.959 266.03 208.219 265.45C209.499 264.85 210.899 264.55 212.419 264.55C213.959 264.55 215.359 264.86 216.619 265.48C217.899 266.1 218.989 266.93 219.889 267.97C220.809 269.01 221.509 270.18 221.989 271.48C222.489 272.76 222.739 274.07 222.739 275.41C222.739 276.81 222.479 278.16 221.959 279.46C221.439 280.74 220.709 281.89 219.769 282.91C218.849 283.91 217.749 284.7 216.469 285.28C215.209 285.86 213.829 286.15 212.329 286.15ZM206.149 275.35C206.149 276.59 206.389 277.75 206.869 278.83C207.369 279.91 208.079 280.79 208.999 281.47C209.939 282.15 211.059 282.49 212.359 282.49C213.699 282.49 214.829 282.14 215.749 281.44C216.669 280.74 217.369 279.84 217.849 278.74C218.329 277.64 218.569 276.51 218.569 275.35C218.569 274.11 218.319 272.95 217.819 271.87C217.319 270.79 216.599 269.92 215.659 269.26C214.739 268.58 213.639 268.24 212.359 268.24C211.019 268.24 209.889 268.59 208.969 269.29C208.049 269.99 207.349 270.89 206.869 271.99C206.389 273.07 206.149 274.19 206.149 275.35ZM229.215 286V264.73H233.355V274.84L242.295 264.7H246.855L238.695 274.15L247.365 286H242.685L236.055 276.82L233.355 279.64V286H229.215ZM265.273 270.28C265.093 270.08 264.713 269.82 264.133 269.5C263.553 269.16 262.853 268.86 262.033 268.6C261.233 268.32 260.403 268.18 259.543 268.18C257.283 268.18 256.153 268.98 256.153 270.58C256.153 271.16 256.333 271.62 256.693 271.96C257.053 272.3 257.593 272.59 258.313 272.83C259.033 273.07 259.933 273.33 261.013 273.61C262.413 273.97 263.623 274.39 264.643 274.87C265.683 275.35 266.473 275.99 267.013 276.79C267.573 277.57 267.853 278.61 267.853 279.91C267.853 281.43 267.483 282.66 266.743 283.6C266.023 284.52 265.063 285.19 263.863 285.61C262.663 286.03 261.363 286.24 259.963 286.24C258.363 286.24 256.773 286 255.193 285.52C253.633 285.02 252.243 284.34 251.023 283.48L252.853 279.91C253.033 280.09 253.353 280.33 253.813 280.63C254.273 280.91 254.833 281.2 255.493 281.5C256.153 281.78 256.873 282.02 257.653 282.22C258.433 282.42 259.223 282.52 260.023 282.52C262.303 282.52 263.443 281.79 263.443 280.33C263.443 279.71 263.213 279.21 262.753 278.83C262.293 278.45 261.643 278.13 260.803 277.87C259.983 277.61 259.023 277.32 257.923 277C256.563 276.62 255.433 276.2 254.533 275.74C253.653 275.26 252.993 274.67 252.553 273.97C252.113 273.25 251.893 272.34 251.893 271.24C251.893 269.78 252.233 268.56 252.913 267.58C253.613 266.58 254.553 265.83 255.733 265.33C256.913 264.81 258.223 264.55 259.663 264.55C261.143 264.55 262.523 264.79 263.803 265.27C265.083 265.75 266.183 266.3 267.103 266.92L265.273 270.28Z" fill="#fff"></path>



<rect x="26.5" y="20.5" width="287" height="287" rx="3.5" stroke="#fff" shape-rendering="crispEdges"></rect>

<rect x="15.5" y="8.5" width="309" height="309" stroke="#fdb414" stroke-width="5"></rect>

<path d="M101.105 206.773V103.364H129.474C130.549 103.364 131.579 102.928 132.339 102.152C133.099 101.376 133.526 100.324 133.526 99.2273V70.2728H210.526C211.601 70.2728 212.632 70.7086 213.392 71.4843C214.152 72.26 214.579 73.3121 214.579 74.4092V128.182H222.684V74.4092C222.684 71.1181 221.403 67.9618 219.123 65.6346C216.843 63.3075 213.751 62.0001 210.526 62.0001H129.474C128.94 61.9969 128.412 62.1013 127.918 62.3071C127.424 62.513 126.975 62.8163 126.596 63.1996L94.1753 96.2905C93.7997 96.677 93.5026 97.1354 93.3009 97.6394C93.0992 98.1433 92.997 98.683 93.0001 99.2273V206.773C93.0001 210.064 94.281 213.22 96.561 215.547C98.8411 217.874 101.933 219.182 105.158 219.182H161.652V210.909H105.158C104.083 210.909 103.052 210.473 102.292 209.698C101.532 208.922 101.105 207.87 101.105 206.773ZM106.82 95.091L125.421 76.1051V95.091H106.82ZM117.316 115.773H161.895V124.046H117.316V115.773ZM141.632 95.091H161.895V103.364H141.632V95.091ZM117.316 136.455H161.895V144.727H117.316V136.455ZM117.316 157.136H161.895V165.409H117.316V157.136ZM117.316 177.818H161.895V186.091H117.316V177.818ZM234.842 136.455H186.211C182.986 136.455 179.894 137.762 177.614 140.089C175.334 142.416 174.053 145.573 174.053 148.864V231.591C174.053 234.882 175.334 238.038 177.614 240.365C179.894 242.693 182.986 244 186.211 244H234.842C238.067 244 241.159 242.693 243.439 240.365C245.719 238.038 247 234.882 247 231.591V148.864C247 145.573 245.719 142.416 243.439 140.089C241.159 137.762 238.067 136.455 234.842 136.455ZM238.895 231.591C238.895 232.688 238.468 233.74 237.708 234.516C236.948 235.291 235.917 235.727 234.842 235.727H186.211C185.136 235.727 184.105 235.291 183.345 234.516C182.585 233.74 182.158 232.688 182.158 231.591V148.864C182.158 147.767 182.585 146.715 183.345 145.939C184.105 145.163 185.136 144.727 186.211 144.727H234.842C235.917 144.727 236.948 145.163 237.708 145.939C238.468 146.715 238.895 147.767 238.895 148.864V231.591ZM226.737 153H194.316C193.241 153 192.21 153.436 191.45 154.212C190.69 154.987 190.263 156.039 190.263 157.136V173.682C190.263 174.779 190.69 175.831 191.45 176.607C192.21 177.382 193.241 177.818 194.316 177.818H226.737C227.812 177.818 228.842 177.382 229.602 176.607C230.363 175.831 230.789 174.779 230.789 173.682V157.136C230.789 156.039 230.363 154.987 229.602 154.212C228.842 153.436 227.812 153 226.737 153ZM222.684 169.545H198.368V161.273H222.684V169.545ZM190.263 186.091H206.474V194.364H190.263V186.091ZM214.579 186.091H230.789V194.364H214.579V186.091ZM190.263 202.636H206.474V210.909H190.263V202.636ZM214.579 202.636H230.789V210.909H214.579V202.636ZM190.263 219.182H206.474V227.455H190.263V219.182ZM214.579 219.182H230.789V227.455H214.579V219.182ZM182.158 95.091V99.2273H194.316C195.391 99.2273 196.421 99.6631 197.181 100.439C197.941 101.215 198.368 102.267 198.368 103.364V115.773C198.368 116.87 197.941 117.922 197.181 118.698C196.421 119.473 195.391 119.909 194.316 119.909H190.263V124.046H182.158V119.909H174.053V111.636H190.263V107.5H178.105C177.03 107.5 176 107.064 175.24 106.289C174.48 105.513 174.053 104.461 174.053 103.364V90.9546C174.053 89.8576 174.48 88.8055 175.24 88.0298C176 87.254 177.03 86.8182 178.105 86.8182H182.158V82.6819H190.263V86.8182H198.368V95.091H182.158Z" fill="#fff"></path>


</svg>