<svg width="340" height="339" viewBox="0 0 340 339" fill="none" xmlns="http://www.w3.org/2000/svg">


<rect x="7" width="326" height="326" rx="7.83654" fill="#885e24"/>
<rect x="9.5" y="2.5" width="321" height="321" rx="5.33654" stroke="#fdb414" stroke-width="5"/>


<path d="M94.31 290.15C92.75 290.15 91.33 289.85 90.05 289.25C88.79 288.65 87.7 287.84 86.78 286.82C85.88 285.78 85.18 284.62 84.68 283.34C84.18 282.04 83.93 280.71 83.93 279.35C83.93 277.93 84.19 276.58 84.71 275.3C85.23 274 85.96 272.85 86.9 271.85C87.84 270.83 88.94 270.03 90.2 269.45C91.48 268.85 92.88 268.55 94.4 268.55C95.94 268.55 97.34 268.86 98.6 269.48C99.88 270.1 100.97 270.93 101.87 271.97C102.79 273.01 103.49 274.18 103.97 275.48C104.47 276.76 104.72 278.07 104.72 279.41C104.72 280.81 104.46 282.16 103.94 283.46C103.42 284.74 102.69 285.89 101.75 286.91C100.83 287.91 99.73 288.7 98.45 289.28C97.19 289.86 95.81 290.15 94.31 290.15ZM88.13 279.35C88.13 280.59 88.37 281.75 88.85 282.83C89.35 283.91 90.06 284.79 90.98 285.47C91.92 286.15 93.04 286.49 94.34 286.49C95.68 286.49 96.81 286.14 97.73 285.44C98.65 284.74 99.35 283.84 99.83 282.74C100.31 281.64 100.55 280.51 100.55 279.35C100.55 278.11 100.3 276.95 99.8 275.87C99.3 274.79 98.58 273.92 97.64 273.26C96.72 272.58 95.62 272.24 94.34 272.24C93 272.24 91.87 272.59 90.95 273.29C90.03 273.99 89.33 274.89 88.85 275.99C88.37 277.07 88.13 278.19 88.13 279.35ZM120.226 290.15C118.526 290.15 117.076 289.87 115.876 289.31C114.696 288.73 113.736 287.94 112.996 286.94C112.276 285.94 111.746 284.81 111.406 283.55C111.066 282.27 110.896 280.94 110.896 279.56V268.7H115.036V279.56C115.036 280.74 115.196 281.86 115.516 282.92C115.836 283.98 116.376 284.84 117.136 285.5C117.896 286.16 118.916 286.49 120.196 286.49C121.516 286.49 122.556 286.16 123.316 285.5C124.076 284.82 124.616 283.95 124.936 282.89C125.256 281.83 125.416 280.72 125.416 279.56V268.7H129.526V279.56C129.526 281.02 129.346 282.39 128.986 283.67C128.646 284.95 128.096 286.08 127.336 287.06C126.596 288.02 125.636 288.78 124.456 289.34C123.276 289.88 121.866 290.15 120.226 290.15ZM136.996 290V268.7H146.416C147.396 268.7 148.296 268.9 149.116 269.3C149.956 269.7 150.676 270.24 151.276 270.92C151.896 271.6 152.366 272.36 152.686 273.2C153.026 274.04 153.196 274.9 153.196 275.78C153.196 277.14 152.846 278.39 152.146 279.53C151.466 280.67 150.536 281.49 149.356 281.99L154.216 290H149.656L145.276 282.86H141.136V290H136.996ZM141.136 279.23H146.326C147.106 279.23 147.746 278.9 148.246 278.24C148.766 277.56 149.026 276.74 149.026 275.78C149.026 275.12 148.886 274.53 148.606 274.01C148.326 273.49 147.966 273.08 147.526 272.78C147.106 272.48 146.646 272.33 146.146 272.33H141.136V279.23ZM185.805 272.33H178.995V290H174.885V272.33H168.075V268.7H185.805V272.33ZM206.539 286.37V290H191.749V268.7H206.269V272.33H195.889V277.46H204.859V280.82H195.889V286.37H206.539ZM218.857 268.7H223.057L230.887 290H226.627L224.647 284.69H217.207L215.257 290H210.997L218.857 268.7ZM223.897 281.78L220.957 272.99L217.897 281.78H223.897ZM253.893 290V276.02L248.433 286.43H246.123L240.663 276.02V290H236.523V268.7H240.963L247.263 280.82L253.623 268.7H258.033V290H253.893Z" fill="#fff"/>



<rect x="26.5" y="20.5" width="287" height="287" rx="3.5" stroke="#fff" shape-rendering="crispEdges"/>

<rect x="15.5" y="8.5" width="309" height="309" stroke="#fdb414" stroke-width="5"/>

<path d="M181.214 177.687C174.279 175.988 162.958 173.158 158.288 171.743L137.344 186.036L116.541 171.743C111.871 173.017 100.691 175.847 93.6152 177.687C89.9358 178.536 87.247 181.649 86.8224 185.328C85.6903 194.244 83.426 220 83.426 220H191.403C191.403 220 189.139 194.244 188.007 185.328C187.44 181.649 184.752 178.536 181.214 177.687ZM114.984 146.27C117.107 157.025 126.447 164.809 137.485 164.809C148.524 164.809 157.864 157.025 159.845 146.27L163.383 128.297C165.364 113.863 154.184 100.985 139.608 100.985H135.504C120.928 100.985 109.748 113.863 111.729 128.297L114.984 146.27Z" fill="#fff"/>
<path d="M180.506 108.485C182.629 119.24 191.969 127.024 203.007 127.024C214.046 127.024 223.386 119.24 225.367 108.485L228.905 90.5126C230.886 76.0779 219.706 63.2 205.13 63.2H201.026C186.45 63.2 175.27 76.0779 177.251 90.5126L180.506 108.485ZM188.573 76.5025C191.686 72.9646 196.215 70.8418 200.885 70.8418H204.989C209.659 70.8418 214.187 72.8231 217.301 76.5025C220.414 80.0404 221.829 84.5689 221.263 89.2389L217.867 106.928C216.451 114.004 210.225 119.24 203.007 119.24C195.79 119.24 189.563 114.146 188.148 106.928L184.61 89.2389C184.044 84.7104 185.459 80.0404 188.573 76.5025ZM253.529 147.544C253.104 143.864 250.415 140.751 246.736 139.902C239.802 138.204 228.48 135.373 223.81 134.1L203.007 148.251L182.063 134.1C179.516 134.807 175.27 135.939 170.742 137.071L169.185 145.421C173.148 144.43 177.393 143.298 180.648 142.449L202.866 157.591L225.084 142.449C230.886 144.006 239.66 146.128 244.755 147.402C245.321 147.544 245.745 147.968 245.745 148.534C246.453 154.053 247.585 166.224 248.434 174.573H192.535C194.375 176.696 195.79 179.385 196.498 182.357H256.925C256.925 182.215 254.661 156.601 253.529 147.544Z" fill="#fff"/>

</svg>