<svg width="340" height="339" viewBox="0 0 340 339" fill="none" xmlns="http://www.w3.org/2000/svg">


<rect x="7" width="326" height="326" rx="7.83654" fill="#885e24"></rect>
<rect x="9.5" y="2.5" width="321" height="321" rx="5.33654" stroke="#fdb414" stroke-width="5"></rect>


<path d="M120.59 287V273.02L115.13 283.43H112.82L107.36 273.02V287H103.22V265.7H107.66L113.96 277.82L120.32 265.7H124.73V287H120.59ZM157.774 283.37V287H142.984V265.7H157.504V269.33H147.124V274.46H156.094V277.82H147.124V283.37H157.774ZM181.672 287V273.02L176.212 283.43H173.902L168.442 273.02V287H164.302V265.7H168.742L175.042 277.82L181.402 265.7H185.812V287H181.672ZM199.349 265.7H203.549L211.379 287H207.119L205.139 281.69H197.699L195.749 287H191.489L199.349 265.7ZM204.389 278.78L201.449 269.99L198.389 278.78H204.389ZM217.015 287V265.7H221.155V287H217.015ZM228.899 287V265.7H233.039V283.37H243.899V287H228.899Z" fill="#fff"></path>



<rect x="26.5" y="20.5" width="287" height="287" rx="3.5" stroke="#fff" shape-rendering="crispEdges"></rect>

<rect x="15.5" y="8.5" width="309" height="309" stroke="#fdb414" stroke-width="5"></rect>

<path d="M114.572 75.0474V97.2192L102.428 104.27C100.09 105.486 98.0951 107.272 96.6298 109.463C95.1644 111.654 94.2756 114.18 94.0454 116.806V221.24C93.9824 221.77 94.0404 222.307 94.215 222.811C94.3896 223.315 94.6762 223.773 95.0534 224.15C95.4305 224.527 95.8882 224.814 96.3922 224.988C96.8961 225.163 97.4331 225.221 97.9627 225.158H240.082C240.599 225.168 241.113 225.074 241.593 224.881C242.074 224.688 242.51 224.4 242.875 224.034C243.241 223.668 243.53 223.232 243.723 222.752C243.916 222.272 244.01 221.758 243.999 221.24V116.806C243.862 114.234 243.071 111.74 241.699 109.56C240.328 107.38 238.423 105.586 236.165 104.349L223.551 97.0625V75.0474C223.551 74.0084 223.138 73.012 222.404 72.2774C221.669 71.5428 220.672 71.1301 219.634 71.1301H118.489C117.457 71.1501 116.472 71.5693 115.742 72.2996C115.011 73.0299 114.592 74.0147 114.572 75.0474ZM105.954 111.165L114.572 106.151V132.005L105.876 125.894C104.621 125.012 103.602 123.838 102.905 122.472C102.209 121.107 101.857 119.592 101.88 118.059C101.876 116.65 102.253 115.265 102.97 114.052C103.687 112.839 104.718 111.841 105.954 111.165ZM101.88 132.475L162.285 175.016L102.115 214.189L101.88 132.475ZM111.203 217.088L169.022 179.482L226.841 217.01L111.203 217.088ZM223.473 106.151L232.169 111.165C233.382 111.901 234.386 112.935 235.085 114.17C235.785 115.404 236.156 116.797 236.165 118.216C236.195 119.75 235.846 121.267 235.149 122.634C234.452 124 233.428 125.174 232.169 126.05L223.473 132.161V106.151ZM236.165 132.475V214.033L176.073 174.86L236.165 132.475ZM122.407 78.9646H215.638V137.567L169.022 170.394L122.407 137.567V78.9646Z" fill="#fff"></path>
<path d="M174.82 151.435H165.418C164.386 151.455 163.401 151.874 162.671 152.604C161.94 153.335 161.521 154.319 161.501 155.352C161.501 156.391 161.914 157.387 162.648 158.122C163.383 158.857 164.379 159.269 165.418 159.269H174.82C175.859 159.269 176.855 158.857 177.59 158.122C178.324 157.387 178.737 156.391 178.737 155.352C178.717 154.319 178.298 153.335 177.568 152.604C176.837 151.874 175.853 151.455 174.82 151.435ZM183.908 91.0301C180.484 89.2082 176.729 88.0956 172.865 87.7591C169.001 87.4226 165.11 87.8689 161.423 89.0715C154.873 91.1676 149.272 95.5065 145.606 101.325C141.94 107.143 140.443 114.068 141.379 120.881C142.315 127.694 145.623 133.958 150.723 138.573C155.822 143.187 162.385 145.855 169.257 146.107C170.277 146.088 171.25 145.68 171.979 144.966C172.707 144.252 173.135 143.287 173.175 142.268C173.196 141.242 172.814 140.249 172.111 139.502C171.408 138.755 170.439 138.313 169.414 138.273C166.2 138.18 163.048 137.364 160.192 135.885C157.337 134.406 154.852 132.302 152.922 129.73C150.992 127.158 149.667 124.184 149.045 121.029C148.424 117.874 148.521 114.619 149.331 111.507C150.141 108.395 151.642 105.506 153.722 103.054C155.803 100.602 158.41 98.6513 161.348 97.346C164.287 96.0408 167.482 95.4149 170.696 95.5151C173.91 95.6153 177.061 96.4388 179.912 97.9246C184.451 100.038 187.974 103.854 189.719 108.547C191.463 113.239 191.29 118.43 189.236 122.995C188.859 124.08 188.164 125.027 187.242 125.712C186.32 126.396 185.212 126.788 184.065 126.834C183.894 126.828 183.728 126.782 183.578 126.701C183.429 126.619 183.3 126.504 183.203 126.364C182.722 125.885 182.441 125.241 182.419 124.562C182.419 122.995 182.419 101.528 182.419 102.312C182.419 101.273 182.007 100.277 181.272 99.542C180.537 98.8074 179.541 98.3946 178.502 98.3946C177.565 98.4042 176.662 98.7493 175.958 99.3674C175.254 99.9855 174.794 100.836 174.663 101.764C172.823 100.725 170.744 100.185 168.631 100.197C164.57 100.576 160.818 102.522 158.17 105.624C155.522 108.725 154.188 112.736 154.45 116.806C154.124 120.927 155.44 125.009 158.111 128.164C160.782 131.319 164.591 133.291 168.709 133.65C171.591 133.545 174.352 132.469 176.543 130.595C176.809 131.162 177.151 131.689 177.562 132.162C178.396 133.023 179.394 133.71 180.498 134.181C181.601 134.651 182.787 134.897 183.986 134.904C186.715 134.863 189.367 133.995 191.591 132.414C193.816 130.833 195.508 128.614 196.443 126.051C199.314 119.729 199.611 112.538 197.271 106.001C194.931 99.4635 190.139 94.0942 183.908 91.0301ZM168.866 125.659C165.732 125.659 162.441 122.055 162.441 116.649C162.238 114.642 162.818 112.634 164.058 111.044C165.298 109.453 167.105 108.402 169.101 108.11C172.548 108.11 174.898 111.557 174.977 116.414V116.806C174.898 121.585 172.234 125.659 168.866 125.659Z" fill="#fff"></path>


</svg>