<svg width="340" height="339" viewBox="0 0 340 339" fill="none" xmlns="http://www.w3.org/2000/svg">

	<rect x="7" width="326" height="326" rx="7.83654" fill="#885e24"/>
	<rect x="9.5" y="2.5" width="321" height="321" rx="5.33654" stroke="#fdb414" stroke-width="5"/>

	<path d="M118.01 268.7H122.21L130.04 290H125.78L123.8 284.69H116.36L114.41 290H110.15L118.01 268.7ZM123.05 281.78L120.11 272.99L117.05 281.78H123.05ZM135.676 290V268.7H139.816V286.37H150.676V290H135.676ZM171.286 286.37V290H156.496V268.7H171.016V272.33H160.636V277.46H169.606V280.82H160.636V286.37H171.286ZM177.813 290V268.7H187.233C188.213 268.7 189.113 268.9 189.933 269.3C190.773 269.7 191.493 270.24 192.093 270.92C192.713 271.6 193.183 272.36 193.503 273.2C193.843 274.04 194.013 274.9 194.013 275.78C194.013 277.14 193.663 278.39 192.963 279.53C192.283 280.67 191.353 281.49 190.173 281.99L195.033 290H190.473L186.093 282.86H181.953V290H177.813ZM181.953 279.23H187.143C187.923 279.23 188.563 278.9 189.063 278.24C189.583 277.56 189.843 276.74 189.843 275.78C189.843 275.12 189.703 274.53 189.423 274.01C189.143 273.49 188.783 273.08 188.343 272.78C187.923 272.48 187.463 272.33 186.963 272.33H181.953V279.23ZM216.76 272.33H209.95V290H205.84V272.33H199.03V268.7H216.76V272.33ZM235.394 274.28C235.214 274.08 234.834 273.82 234.254 273.5C233.674 273.16 232.974 272.86 232.154 272.6C231.354 272.32 230.524 272.18 229.664 272.18C227.404 272.18 226.274 272.98 226.274 274.58C226.274 275.16 226.454 275.62 226.814 275.96C227.174 276.3 227.714 276.59 228.434 276.83C229.154 277.07 230.054 277.33 231.134 277.61C232.534 277.97 233.744 278.39 234.764 278.87C235.804 279.35 236.594 279.99 237.134 280.79C237.694 281.57 237.974 282.61 237.974 283.91C237.974 285.43 237.604 286.66 236.864 287.6C236.144 288.52 235.184 289.19 233.984 289.61C232.784 290.03 231.484 290.24 230.084 290.24C228.484 290.24 226.894 290 225.314 289.52C223.754 289.02 222.364 288.34 221.144 287.48L222.974 283.91C223.154 284.09 223.474 284.33 223.934 284.63C224.394 284.91 224.954 285.2 225.614 285.5C226.274 285.78 226.994 286.02 227.774 286.22C228.554 286.42 229.344 286.52 230.144 286.52C232.424 286.52 233.564 285.79 233.564 284.33C233.564 283.71 233.334 283.21 232.874 282.83C232.414 282.45 231.764 282.13 230.924 281.87C230.104 281.61 229.144 281.32 228.044 281C226.684 280.62 225.554 280.2 224.654 279.74C223.774 279.26 223.114 278.67 222.674 277.97C222.234 277.25 222.014 276.34 222.014 275.24C222.014 273.78 222.354 272.56 223.034 271.58C223.734 270.58 224.674 269.83 225.854 269.33C227.034 268.81 228.344 268.55 229.784 268.55C231.264 268.55 232.644 268.79 233.924 269.27C235.204 269.75 236.304 270.3 237.224 270.92L235.394 274.28Z" fill="#fff"/>

	<rect x="26.5" y="20.5" width="287" height="287" rx="3.5" stroke="#fff" shape-rendering="crispEdges"/>

	<rect x="15.5" y="8.5" width="309" height="309" stroke="#fdb414" stroke-width="5"/>

	<path d="M263 190.833L199.083 84.8329C196.499 80.7897 192.938 77.4622 188.729 75.1574C184.52 72.8525 179.798 71.6443 175 71.6443C170.201 71.6443 165.48 72.8525 161.271 75.1574C157.062 77.4622 153.501 80.7897 150.916 84.8329L86.9998 190.833C84.7419 194.597 83.5147 198.889 83.4416 203.277C83.3684 207.666 84.4519 211.996 86.5832 215.833C89.0471 220.152 92.6136 223.739 96.9182 226.228C101.223 228.717 106.111 230.019 111.083 230H238.916C243.856 230.052 248.722 228.801 253.024 226.372C257.325 223.944 260.91 220.423 263.416 216.166C265.61 212.289 266.728 207.897 266.655 203.443C266.582 198.989 265.32 194.635 263 190.833ZM175 196.666C173.352 196.666 171.74 196.177 170.37 195.262C169 194.346 167.932 193.045 167.301 191.522C166.67 189.999 166.505 188.324 166.827 186.707C167.148 185.091 167.942 183.606 169.107 182.44C170.273 181.275 171.758 180.481 173.374 180.16C174.991 179.838 176.666 180.003 178.189 180.634C179.712 181.265 181.013 182.333 181.929 183.703C182.844 185.074 183.333 186.685 183.333 188.333C183.333 190.543 182.455 192.663 180.892 194.225C179.33 195.788 177.21 196.666 175 196.666ZM183.333 163.333C183.333 165.543 182.455 167.663 180.892 169.225C179.33 170.788 177.21 171.666 175 171.666C172.79 171.666 170.67 170.788 169.107 169.225C167.544 167.663 166.666 165.543 166.666 163.333V130C166.666 127.789 167.544 125.67 169.107 124.107C170.67 122.544 172.79 121.666 175 121.666C177.21 121.666 179.33 122.544 180.892 124.107C182.455 125.67 183.333 127.789 183.333 130V163.333Z" fill="#fff"/>

</svg>