<svg width="112" height="134" viewBox="0 0 112 134" fill="none" xmlns="http://www.w3.org/2000/svg">
<circle cx="55.9999" cy="76.5285" r="56.0001" fill="#8FB03D"/>
<path d="M16.0254 27.7838V129.647C16.0254 131.238 17.3153 132.528 18.9064 132.528H94.1735C95.7646 132.528 97.0545 131.238 97.0545 129.647V38.695C97.0545 38.0289 96.8237 37.3833 96.4013 36.8682L82.7649 20.2385C82.2342 19.5912 81.4564 19.2069 80.6196 19.186C63.1322 18.7504 29.2856 18.1915 23.9482 19.2192C18.6378 20.2417 16.5133 24.9292 16.0623 27.3469C16.0355 27.491 16.0254 27.6373 16.0254 27.7838Z" fill="white" stroke="#A8B0B9" stroke-width="1.44052" stroke-linecap="round"/>
<path d="M2.70044 23.0493H12.0638" stroke="#A8B0B9" stroke-width="2.07074" stroke-linecap="round"/>
<path d="M5.94165 6.84326L14.9449 16.5668" stroke="#A8B0B9" stroke-width="2.07074" stroke-linecap="round"/>
<path d="M19.6265 1.44141V11.8852" stroke="#A8B0B9" stroke-width="2.07074" stroke-linecap="round"/>
<circle cx="36.9126" cy="49.6987" r="3.24117" fill="#ACB2BB"/>
<circle cx="74.3662" cy="49.6987" r="3.24117" fill="#A9ACB8"/>
<path d="M40.1541 61.2227C45.3159 64.944 58.8808 70.1539 71.8454 61.2227" stroke="#A8B0B9" stroke-width="1.44052" stroke-linecap="round"/>
<rect x="23.5881" y="90.0332" width="45.3763" height="6.1222" rx="0.990356" fill="#EEEEEE"/>
<rect x="23.5881" y="109.66" width="45.3763" height="6.1222" rx="0.990356" fill="#EEEEEE"/>
<rect x="23.5881" y="120.104" width="50.3281" height="6.1222" rx="0.990356" fill="#EEEEEE"/>
<rect x="23.5881" y="98.2261" width="66.4439" height="6.1222" rx="0.990356" fill="#EEEEEE"/>
<path d="M80.7713 19.8081V34.1761C80.6303 35.3199 80.7713 38.2507 86.6925 38.2507C91.7938 38.2507 95.7153 38.4651 97.0546 38.2507" stroke="#A8B0B9" stroke-width="1.44052" stroke-linecap="round"/>
</svg>
