<svg width="340" height="339" viewBox="0 0 340 339" fill="none" xmlns="http://www.w3.org/2000/svg">

<rect x="7" width="326" height="326" rx="7.83654" fill="#885e24"></rect>
<rect x="9.5" y="2.5" width="321" height="321" rx="5.33654" stroke="#fdb414" stroke-width="5"></rect>

<path d="M119.22 283V261.7H133.53V265.33H123.36V270.82H131.82V274.18H123.36V283H119.22ZM148.514 283.15C146.954 283.15 145.534 282.85 144.254 282.25C142.994 281.65 141.904 280.84 140.984 279.82C140.084 278.78 139.384 277.62 138.884 276.34C138.384 275.04 138.134 273.71 138.134 272.35C138.134 270.93 138.394 269.58 138.914 268.3C139.434 267 140.164 265.85 141.104 264.85C142.044 263.83 143.144 263.03 144.404 262.45C145.684 261.85 147.084 261.55 148.604 261.55C150.144 261.55 151.544 261.86 152.804 262.48C154.084 263.1 155.174 263.93 156.074 264.97C156.994 266.01 157.694 267.18 158.174 268.48C158.674 269.76 158.924 271.07 158.924 272.41C158.924 273.81 158.664 275.16 158.144 276.46C157.624 277.74 156.894 278.89 155.954 279.91C155.034 280.91 153.934 281.7 152.654 282.28C151.394 282.86 150.014 283.15 148.514 283.15ZM142.334 272.35C142.334 273.59 142.574 274.75 143.054 275.83C143.554 276.91 144.264 277.79 145.184 278.47C146.124 279.15 147.244 279.49 148.544 279.49C149.884 279.49 151.014 279.14 151.934 278.44C152.854 277.74 153.554 276.84 154.034 275.74C154.514 274.64 154.754 273.51 154.754 272.35C154.754 271.11 154.504 269.95 154.004 268.87C153.504 267.79 152.784 266.92 151.844 266.26C150.924 265.58 149.824 265.24 148.544 265.24C147.204 265.24 146.074 265.59 145.154 266.29C144.234 266.99 143.534 267.89 143.054 268.99C142.574 270.07 142.334 271.19 142.334 272.35ZM174.49 283.15C172.93 283.15 171.51 282.85 170.23 282.25C168.97 281.65 167.88 280.84 166.96 279.82C166.06 278.78 165.36 277.62 164.86 276.34C164.36 275.04 164.11 273.71 164.11 272.35C164.11 270.93 164.37 269.58 164.89 268.3C165.41 267 166.14 265.85 167.08 264.85C168.02 263.83 169.12 263.03 170.38 262.45C171.66 261.85 173.06 261.55 174.58 261.55C176.12 261.55 177.52 261.86 178.78 262.48C180.06 263.1 181.15 263.93 182.05 264.97C182.97 266.01 183.67 267.18 184.15 268.48C184.65 269.76 184.9 271.07 184.9 272.41C184.9 273.81 184.64 275.16 184.12 276.46C183.6 277.74 182.87 278.89 181.93 279.91C181.01 280.91 179.91 281.7 178.63 282.28C177.37 282.86 175.99 283.15 174.49 283.15ZM168.31 272.35C168.31 273.59 168.55 274.75 169.03 275.83C169.53 276.91 170.24 277.79 171.16 278.47C172.1 279.15 173.22 279.49 174.52 279.49C175.86 279.49 176.99 279.14 177.91 278.44C178.83 277.74 179.53 276.84 180.01 275.74C180.49 274.64 180.73 273.51 180.73 272.35C180.73 271.11 180.48 269.95 179.98 268.87C179.48 267.79 178.76 266.92 177.82 266.26C176.9 265.58 175.8 265.24 174.52 265.24C173.18 265.24 172.05 265.59 171.13 266.29C170.21 266.99 169.51 267.89 169.03 268.99C168.55 270.07 168.31 271.19 168.31 272.35ZM191.376 283V261.7H199.116C201.436 261.7 203.376 262.18 204.936 263.14C206.496 264.08 207.666 265.36 208.446 266.98C209.226 268.58 209.616 270.36 209.616 272.32C209.616 274.48 209.186 276.36 208.326 277.96C207.466 279.56 206.246 280.8 204.666 281.68C203.086 282.56 201.236 283 199.116 283H191.376ZM205.446 272.32C205.446 270.94 205.196 269.73 204.696 268.69C204.196 267.63 203.476 266.81 202.536 266.23C201.596 265.63 200.456 265.33 199.116 265.33H195.516V279.37H199.116C200.476 279.37 201.626 279.07 202.566 278.47C203.506 277.85 204.216 277.01 204.696 275.95C205.196 274.87 205.446 273.66 205.446 272.32Z" fill="#fff"></path>


<rect x="26.5" y="20.5" width="287" height="287" rx="3.5" stroke="#fff" shape-rendering="crispEdges"></rect>

<rect x="15.5" y="8.5" width="309" height="309" stroke="#fdb414" stroke-width="5"></rect>

<path d="M164.312 106.93C172.321 106.93 178.839 100.412 178.839 92.4026C178.839 84.3933 172.321 77.875 164.312 77.875C156.303 77.875 149.784 84.3933 149.784 92.4026C149.784 100.412 156.303 106.93 164.312 106.93ZM164.312 82.0257C170.033 82.0257 174.689 86.6812 174.689 92.4026C174.689 98.1239 170.033 102.779 164.312 102.779C158.59 102.779 153.935 98.1239 153.935 92.4026C153.935 86.6812 158.59 82.0257 164.312 82.0257ZM71 194.096C72.0626 208.006 83.7212 219 97.9001 219H230.724C244.903 219 256.561 208.006 257.624 194.096H71Z" fill="#fff"></path>
<path d="M79.2484 189.945H95.8613C96.5852 166.405 109.549 144.622 130.067 132.725C131.06 132.15 132.328 132.489 132.902 133.478C133.477 134.471 133.138 135.74 132.149 136.314C112.906 147.468 100.733 167.876 100.012 189.942H249.379C248.273 143.978 210.541 106.927 164.315 106.927C118.089 106.927 80.3542 143.978 79.2484 189.945ZM164.312 123.533C173.188 123.533 181.828 125.213 189.997 128.531C191.059 128.962 191.571 130.171 191.139 131.234C190.81 132.04 190.037 132.529 189.216 132.529C188.957 132.529 188.692 132.479 188.436 132.376C180.765 129.261 172.65 127.684 164.312 127.684C163.166 127.684 162.237 126.754 162.237 125.609C162.237 124.463 163.166 123.533 164.312 123.533Z" fill="#fff"></path>

</svg>