<svg width="340" height="398" viewBox="0 0 340 398" fill="none" xmlns="http://www.w3.org/2000/svg">

	<rect x="7" width="326" height="385" rx="7.83654" fill="#885e24"></rect>
	<rect x="9.5" y="2.5" width="321" height="380" rx="5.33654" stroke="#fdb414" stroke-width="5"></rect>

	<path d="M51.1487 273.602H55.3487L63.1787 294.902H58.9187L56.9387 289.592H49.4987L47.5487 294.902H43.2887L51.1487 273.602ZM56.1887 286.682L53.2487 277.892L50.1887 286.682H56.1887ZM66.7046 284.102C66.7046 282.802 66.9346 281.522 67.3946 280.262C67.8746 279.002 68.5646 277.862 69.4646 276.842C70.3646 275.822 71.4646 275.012 72.7646 274.412C74.0646 273.792 75.5446 273.482 77.2046 273.482C79.1446 273.482 80.8346 273.912 82.2746 274.772C83.7146 275.632 84.7846 276.752 85.4846 278.132L82.3046 280.322C81.9446 279.522 81.4746 278.892 80.8946 278.432C80.3146 277.972 79.6846 277.642 79.0046 277.442C78.3446 277.242 77.7046 277.142 77.0846 277.142C76.0446 277.142 75.1346 277.352 74.3546 277.772C73.5946 278.192 72.9546 278.742 72.4346 279.422C71.9146 280.102 71.5246 280.862 71.2646 281.702C71.0246 282.542 70.9046 283.382 70.9046 284.222C70.9046 285.482 71.1646 286.662 71.6846 287.762C72.2046 288.842 72.9346 289.722 73.8746 290.402C74.8146 291.082 75.9046 291.422 77.1446 291.422C77.7846 291.422 78.4446 291.312 79.1246 291.092C79.8246 290.872 80.4646 290.522 81.0446 290.042C81.6246 289.562 82.0746 288.942 82.3946 288.182L85.7846 290.132C85.3446 291.192 84.6546 292.092 83.7146 292.832C82.7746 293.552 81.7146 294.112 80.5346 294.512C79.3546 294.892 78.1846 295.082 77.0246 295.082C75.5046 295.082 74.1146 294.772 72.8546 294.152C71.6146 293.512 70.5346 292.672 69.6146 291.632C68.6946 290.572 67.9746 289.392 67.4546 288.092C66.9546 286.772 66.7046 285.442 66.7046 284.102ZM90.3073 284.102C90.3073 282.802 90.5373 281.522 90.9973 280.262C91.4773 279.002 92.1673 277.862 93.0673 276.842C93.9673 275.822 95.0673 275.012 96.3673 274.412C97.6673 273.792 99.1473 273.482 100.807 273.482C102.747 273.482 104.437 273.912 105.877 274.772C107.317 275.632 108.387 276.752 109.087 278.132L105.907 280.322C105.547 279.522 105.077 278.892 104.497 278.432C103.917 277.972 103.287 277.642 102.607 277.442C101.947 277.242 101.307 277.142 100.687 277.142C99.6473 277.142 98.7373 277.352 97.9573 277.772C97.1973 278.192 96.5573 278.742 96.0373 279.422C95.5173 280.102 95.1273 280.862 94.8673 281.702C94.6273 282.542 94.5073 283.382 94.5073 284.222C94.5073 285.482 94.7673 286.662 95.2873 287.762C95.8073 288.842 96.5373 289.722 97.4773 290.402C98.4173 291.082 99.5073 291.422 100.747 291.422C101.387 291.422 102.047 291.312 102.727 291.092C103.427 290.872 104.067 290.522 104.647 290.042C105.227 289.562 105.677 288.942 105.997 288.182L109.387 290.132C108.947 291.192 108.257 292.092 107.317 292.832C106.377 293.552 105.317 294.112 104.137 294.512C102.957 294.892 101.787 295.082 100.627 295.082C99.1073 295.082 97.7173 294.772 96.4573 294.152C95.2173 293.512 94.1373 292.672 93.2173 291.632C92.2973 290.572 91.5773 289.392 91.0573 288.092C90.5573 286.772 90.3073 285.442 90.3073 284.102ZM124.29 295.052C122.73 295.052 121.31 294.752 120.03 294.152C118.77 293.552 117.68 292.742 116.76 291.722C115.86 290.682 115.16 289.522 114.66 288.242C114.16 286.942 113.91 285.612 113.91 284.252C113.91 282.832 114.17 281.482 114.69 280.202C115.21 278.902 115.94 277.752 116.88 276.752C117.82 275.732 118.92 274.932 120.18 274.352C121.46 273.752 122.86 273.452 124.38 273.452C125.92 273.452 127.32 273.762 128.58 274.382C129.86 275.002 130.95 275.832 131.85 276.872C132.77 277.912 133.47 279.082 133.95 280.382C134.45 281.662 134.7 282.972 134.7 284.312C134.7 285.712 134.44 287.062 133.92 288.362C133.4 289.642 132.67 290.792 131.73 291.812C130.81 292.812 129.71 293.602 128.43 294.182C127.17 294.762 125.79 295.052 124.29 295.052ZM118.11 284.252C118.11 285.492 118.35 286.652 118.83 287.732C119.33 288.812 120.04 289.692 120.96 290.372C121.9 291.052 123.02 291.392 124.32 291.392C125.66 291.392 126.79 291.042 127.71 290.342C128.63 289.642 129.33 288.742 129.81 287.642C130.29 286.542 130.53 285.412 130.53 284.252C130.53 283.012 130.28 281.852 129.78 280.772C129.28 279.692 128.56 278.822 127.62 278.162C126.7 277.482 125.6 277.142 124.32 277.142C122.98 277.142 121.85 277.492 120.93 278.192C120.01 278.892 119.31 279.792 118.83 280.892C118.35 281.972 118.11 283.092 118.11 284.252ZM150.206 295.052C148.506 295.052 147.056 294.772 145.856 294.212C144.676 293.632 143.716 292.842 142.976 291.842C142.256 290.842 141.726 289.712 141.386 288.452C141.046 287.172 140.876 285.842 140.876 284.462V273.602H145.016V284.462C145.016 285.642 145.176 286.762 145.496 287.822C145.816 288.882 146.356 289.742 147.116 290.402C147.876 291.062 148.896 291.392 150.176 291.392C151.496 291.392 152.536 291.062 153.296 290.402C154.056 289.722 154.596 288.852 154.916 287.792C155.236 286.732 155.396 285.622 155.396 284.462V273.602H159.506V284.462C159.506 285.922 159.326 287.292 158.966 288.572C158.626 289.852 158.076 290.982 157.316 291.962C156.576 292.922 155.616 293.682 154.436 294.242C153.256 294.782 151.846 295.052 150.206 295.052ZM171.116 281.222V294.902H166.976V273.602H170.276L181.286 287.642V273.632H185.426V294.902H181.976L171.116 281.222ZM209.087 277.232H202.277V294.902H198.167V277.232H191.357V273.602H209.087V277.232ZM215.031 294.902V273.602H219.171V294.902H215.031ZM231.055 281.222V294.902H226.915V273.602H230.215L241.225 287.642V273.632H245.365V294.902H241.915L231.055 281.222ZM261.946 295.052C260.546 295.052 259.236 294.772 258.016 294.212C256.796 293.652 255.716 292.882 254.776 291.902C253.856 290.902 253.136 289.742 252.616 288.422C252.096 287.102 251.836 285.672 251.836 284.132C251.836 282.672 252.096 281.302 252.616 280.022C253.136 278.722 253.866 277.582 254.806 276.602C255.746 275.622 256.846 274.852 258.106 274.292C259.366 273.732 260.736 273.452 262.216 273.452C264.196 273.452 265.906 273.882 267.346 274.742C268.786 275.582 269.866 276.702 270.586 278.102L267.496 280.382C266.956 279.342 266.196 278.542 265.216 277.982C264.256 277.402 263.206 277.112 262.066 277.112C260.866 277.112 259.806 277.442 258.886 278.102C257.986 278.762 257.276 279.632 256.756 280.712C256.256 281.792 256.006 282.972 256.006 284.252C256.006 285.592 256.276 286.802 256.816 287.882C257.356 288.962 258.096 289.822 259.036 290.462C259.996 291.082 261.086 291.392 262.306 291.392C264.366 291.392 266.226 290.422 267.886 288.482V286.982H263.596V283.952H271.306V294.902H267.886V292.502C266.166 294.202 264.186 295.052 261.946 295.052ZM296.044 273.602L281.164 294.902H276.724L291.574 273.602H296.044ZM167.328 308.602V329.902H163.218V320.812H153.558V329.902H149.418V308.602H153.558V317.212H163.218V308.602H167.328ZM175.071 329.902V308.602H184.491C185.471 308.602 186.371 308.802 187.191 309.202C188.031 309.602 188.751 310.142 189.351 310.822C189.971 311.502 190.441 312.262 190.761 313.102C191.101 313.942 191.271 314.802 191.271 315.682C191.271 317.042 190.921 318.292 190.221 319.432C189.541 320.572 188.611 321.392 187.431 321.892L192.291 329.902H187.731L183.351 322.762H179.211V329.902H175.071ZM179.211 319.132H184.401C185.181 319.132 185.821 318.802 186.321 318.142C186.841 317.462 187.101 316.642 187.101 315.682C187.101 315.022 186.961 314.432 186.681 313.912C186.401 313.392 186.041 312.982 185.601 312.682C185.181 312.382 184.721 312.232 184.221 312.232H179.211V319.132Z" fill="#fff"></path>

	<rect stroke="#fff" x="26.5" y="24.1196" width="287" height="339.123" rx="3.5" shape-rendering="crispEdges"></rect>

	<rect x="15.5" y="9.58588" width="309" height="365.828" stroke="#fdb414" stroke-width="5"></rect>

	<path d="M170.25 52C151.471 52 136.125 67.346 136.125 86.125C136.125 96.7709 141.163 106.183 148.855 112.452C136.055 116.549 124.124 124.285 114.686 135.713L113.375 137.29V154.375H124.75V141.889C135.706 129.301 149.917 122.192 164.562 120.65V154.375H175.938V120.583C188.794 121.794 201.433 127.305 211.951 137.401C213.287 138.684 214.518 140.087 215.75 141.489V154.375H227.125V137.201L225.814 135.624C223.935 133.356 221.949 131.207 219.838 129.181C211.485 121.163 201.844 115.64 191.711 112.407C199.368 106.138 204.375 96.7423 204.375 86.125C204.375 67.346 189.029 52 170.25 52ZM170.25 63.375C182.882 63.375 193 73.4931 193 86.125C193 98.7569 182.882 108.875 170.25 108.875C157.618 108.875 147.5 98.7569 147.5 86.125C147.5 73.4931 157.618 63.375 170.25 63.375ZM113.375 165.75V176.725C113.37 176.858 113.37 176.992 113.375 177.125V199.875C113.366 200.217 113.389 200.559 113.442 200.897C106.821 203.25 102 209.555 102 216.938C102 226.293 109.707 234 119.062 234C128.418 234 136.125 226.293 136.125 216.938C136.125 209.548 131.292 203.244 124.661 200.897C124.721 200.56 124.751 200.218 124.75 199.875V177.125H164.562V199.875C164.554 200.217 164.576 200.559 164.629 200.897C158.009 203.25 153.188 209.555 153.188 216.938C153.188 226.293 160.894 234 170.25 234C179.606 234 187.312 226.293 187.312 216.938C187.312 209.548 182.479 203.244 175.849 200.897C175.909 200.56 175.939 200.218 175.938 199.875V177.125H215.75V199.875C215.741 200.217 215.764 200.559 215.817 200.897C209.196 203.25 204.375 209.555 204.375 216.938C204.375 226.293 212.082 234 221.438 234C230.793 234 238.5 226.293 238.5 216.938C238.5 209.548 233.667 203.244 227.036 200.897C227.096 200.56 227.126 200.218 227.125 199.875V177.125V165.75H113.375ZM119.062 211.25C122.271 211.25 124.75 213.73 124.75 216.938C124.75 220.146 122.271 222.625 119.062 222.625C115.854 222.625 113.375 220.146 113.375 216.938C113.375 213.73 115.854 211.25 119.062 211.25ZM170.25 211.25C173.458 211.25 175.938 213.73 175.938 216.938C175.938 220.146 173.458 222.625 170.25 222.625C167.042 222.625 164.562 220.146 164.562 216.938C164.562 213.73 167.042 211.25 170.25 211.25ZM221.438 211.25C224.646 211.25 227.125 213.73 227.125 216.938C227.125 220.146 224.646 222.625 221.438 222.625C218.229 222.625 215.75 220.146 215.75 216.938C215.75 213.73 218.229 211.25 221.438 211.25Z" fill="#fff"></path>

</svg>