<svg width="340" height="398" viewBox="0 0 340 398" fill="none" xmlns="http://www.w3.org/2000/svg">

	<rect fill="#885e24" x="7" width="326" height="385" rx="7.83654"></rect>
	<rect x="9.5" y="2.5" width="321" height="380" rx="5.33654" stroke="#fdb414" stroke-width="5"></rect>

	<path d="M43.4606 298.942C42.0566 298.942 40.7786 298.672 39.6266 298.132C38.4926 297.592 37.5116 296.863 36.6836 295.945C35.8736 295.009 35.2436 293.965 34.7936 292.813C34.3436 291.643 34.1186 290.446 34.1186 289.222C34.1186 287.944 34.3526 286.729 34.8206 285.577C35.2886 284.407 35.9456 283.372 36.7916 282.472C37.6376 281.554 38.6276 280.834 39.7616 280.312C40.9136 279.772 42.1736 279.502 43.5416 279.502C44.9276 279.502 46.1876 279.781 47.3216 280.339C48.4736 280.897 49.4546 281.644 50.2646 282.58C51.0926 283.516 51.7226 284.569 52.1546 285.739C52.6046 286.891 52.8296 288.07 52.8296 289.276C52.8296 290.536 52.5956 291.751 52.1276 292.921C51.6596 294.073 51.0026 295.108 50.1566 296.026C49.3286 296.926 48.3386 297.637 47.1866 298.159C46.0526 298.681 44.8106 298.942 43.4606 298.942ZM37.8986 289.222C37.8986 290.338 38.1146 291.382 38.5466 292.354C38.9966 293.326 39.6356 294.118 40.4636 294.73C41.3096 295.342 42.3176 295.648 43.4876 295.648C44.6936 295.648 45.7106 295.333 46.5386 294.703C47.3666 294.073 47.9966 293.263 48.4286 292.273C48.8606 291.283 49.0766 290.266 49.0766 289.222C49.0766 288.106 48.8516 287.062 48.4016 286.09C47.9516 285.118 47.3036 284.335 46.4576 283.741C45.6296 283.129 44.6396 282.823 43.4876 282.823C42.2816 282.823 41.2646 283.138 40.4366 283.768C39.6086 284.398 38.9786 285.208 38.5466 286.198C38.1146 287.17 37.8986 288.178 37.8986 289.222ZM57.3079 298.807V279.637H65.4349C66.3169 279.637 67.1269 279.817 67.8649 280.177C68.6209 280.537 69.2689 281.023 69.8089 281.635C70.3489 282.247 70.7719 282.931 71.0779 283.687C71.3839 284.443 71.5369 285.217 71.5369 286.009C71.5369 287.089 71.2849 288.115 70.7809 289.087C70.2769 290.059 69.5749 290.851 68.6749 291.463C67.7929 292.075 66.7579 292.381 65.5699 292.381H61.0339V298.807H57.3079ZM61.0339 289.114H65.3539C66.0379 289.114 66.6049 288.835 67.0549 288.277C67.5229 287.701 67.7569 286.945 67.7569 286.009C67.7569 285.019 67.4959 284.254 66.9739 283.714C66.4519 283.174 65.8579 282.904 65.1919 282.904H61.0339V289.114ZM90.0871 282.904H83.9581V298.807H80.2591V282.904H74.1301V279.637H90.0871V282.904ZM94.0869 298.807V279.637H97.8129V298.807H94.0869ZM111.614 298.942C110.21 298.942 108.932 298.672 107.78 298.132C106.646 297.592 105.665 296.863 104.837 295.945C104.027 295.009 103.397 293.965 102.947 292.813C102.497 291.643 102.272 290.446 102.272 289.222C102.272 287.944 102.506 286.729 102.974 285.577C103.442 284.407 104.099 283.372 104.945 282.472C105.791 281.554 106.781 280.834 107.915 280.312C109.067 279.772 110.327 279.502 111.695 279.502C113.081 279.502 114.341 279.781 115.475 280.339C116.627 280.897 117.608 281.644 118.418 282.58C119.246 283.516 119.876 284.569 120.308 285.739C120.758 286.891 120.983 288.07 120.983 289.276C120.983 290.536 120.749 291.751 120.281 292.921C119.813 294.073 119.156 295.108 118.31 296.026C117.482 296.926 116.492 297.637 115.34 298.159C114.206 298.681 112.964 298.942 111.614 298.942ZM106.052 289.222C106.052 290.338 106.268 291.382 106.7 292.354C107.15 293.326 107.789 294.118 108.617 294.73C109.463 295.342 110.471 295.648 111.641 295.648C112.847 295.648 113.864 295.333 114.692 294.703C115.52 294.073 116.15 293.263 116.582 292.273C117.014 291.283 117.23 290.266 117.23 289.222C117.23 288.106 117.005 287.062 116.555 286.09C116.105 285.118 115.457 284.335 114.611 283.741C113.783 283.129 112.793 282.823 111.641 282.823C110.435 282.823 109.418 283.138 108.59 283.768C107.762 284.398 107.132 285.208 106.7 286.198C106.268 287.17 106.052 288.178 106.052 289.222ZM129.187 286.495V298.807H125.461V279.637H128.431L138.34 292.273V279.664H142.066V298.807H138.961L129.187 286.495ZM159.094 284.659C158.932 284.479 158.59 284.245 158.068 283.957C157.546 283.651 156.916 283.381 156.178 283.147C155.458 282.895 154.711 282.769 153.937 282.769C151.903 282.769 150.886 283.489 150.886 284.929C150.886 285.451 151.048 285.865 151.372 286.171C151.696 286.477 152.182 286.738 152.83 286.954C153.478 287.17 154.288 287.404 155.26 287.656C156.52 287.98 157.609 288.358 158.527 288.79C159.463 289.222 160.174 289.798 160.66 290.518C161.164 291.22 161.416 292.156 161.416 293.326C161.416 294.694 161.083 295.801 160.417 296.647C159.769 297.475 158.905 298.078 157.825 298.456C156.745 298.834 155.575 299.023 154.315 299.023C152.875 299.023 151.444 298.807 150.022 298.375C148.618 297.925 147.367 297.313 146.269 296.539L147.916 293.326C148.078 293.488 148.366 293.704 148.78 293.974C149.194 294.226 149.698 294.487 150.292 294.757C150.886 295.009 151.534 295.225 152.236 295.405C152.938 295.585 153.649 295.675 154.369 295.675C156.421 295.675 157.447 295.018 157.447 293.704C157.447 293.146 157.24 292.696 156.826 292.354C156.412 292.012 155.827 291.724 155.071 291.49C154.333 291.256 153.469 290.995 152.479 290.707C151.255 290.365 150.238 289.987 149.428 289.573C148.636 289.141 148.042 288.61 147.646 287.98C147.25 287.332 147.052 286.513 147.052 285.523C147.052 284.209 147.358 283.111 147.97 282.229C148.6 281.329 149.446 280.654 150.508 280.204C151.57 279.736 152.749 279.502 154.045 279.502C155.377 279.502 156.619 279.718 157.771 280.15C158.923 280.582 159.913 281.077 160.741 281.635L159.094 284.659ZM187.504 282.904H181.375V298.807H177.676V282.904H171.547V279.637H187.504V282.904ZM199.263 298.942C197.859 298.942 196.581 298.672 195.429 298.132C194.295 297.592 193.314 296.863 192.486 295.945C191.676 295.009 191.046 293.965 190.596 292.813C190.146 291.643 189.921 290.446 189.921 289.222C189.921 287.944 190.155 286.729 190.623 285.577C191.091 284.407 191.748 283.372 192.594 282.472C193.44 281.554 194.43 280.834 195.564 280.312C196.716 279.772 197.976 279.502 199.344 279.502C200.73 279.502 201.99 279.781 203.124 280.339C204.276 280.897 205.257 281.644 206.067 282.58C206.895 283.516 207.525 284.569 207.957 285.739C208.407 286.891 208.632 288.07 208.632 289.276C208.632 290.536 208.398 291.751 207.93 292.921C207.462 294.073 206.805 295.108 205.959 296.026C205.131 296.926 204.141 297.637 202.989 298.159C201.855 298.681 200.613 298.942 199.263 298.942ZM193.701 289.222C193.701 290.338 193.917 291.382 194.349 292.354C194.799 293.326 195.438 294.118 196.266 294.73C197.112 295.342 198.12 295.648 199.29 295.648C200.496 295.648 201.513 295.333 202.341 294.703C203.169 294.073 203.799 293.263 204.231 292.273C204.663 291.283 204.879 290.266 204.879 289.222C204.879 288.106 204.654 287.062 204.204 286.09C203.754 285.118 203.106 284.335 202.26 283.741C201.432 283.129 200.442 282.823 199.29 282.823C198.084 282.823 197.067 283.138 196.239 283.768C195.411 284.398 194.781 285.208 194.349 286.198C193.917 287.17 193.701 288.178 193.701 289.222ZM229.182 298.942C227.922 298.942 226.743 298.69 225.645 298.186C224.547 297.682 223.575 296.989 222.729 296.107C221.901 295.207 221.253 294.163 220.785 292.975C220.317 291.787 220.083 290.5 220.083 289.114C220.083 287.8 220.317 286.567 220.785 285.415C221.253 284.245 221.91 283.219 222.756 282.337C223.602 281.455 224.592 280.762 225.726 280.258C226.86 279.754 228.093 279.502 229.425 279.502C231.207 279.502 232.746 279.889 234.042 280.663C235.338 281.419 236.31 282.427 236.958 283.687L234.177 285.739C233.691 284.803 233.007 284.083 232.125 283.579C231.261 283.057 230.316 282.796 229.29 282.796C228.21 282.796 227.256 283.093 226.428 283.687C225.618 284.281 224.979 285.064 224.511 286.036C224.061 287.008 223.836 288.07 223.836 289.222C223.836 290.428 224.079 291.517 224.565 292.489C225.051 293.461 225.717 294.235 226.563 294.811C227.427 295.369 228.408 295.648 229.506 295.648C231.36 295.648 233.034 294.775 234.528 293.029V291.679H230.667V288.952H237.606V298.807H234.528V296.647C232.98 298.177 231.198 298.942 229.182 298.942ZM242.401 298.807V279.637H250.879C251.761 279.637 252.571 279.817 253.309 280.177C254.065 280.537 254.713 281.023 255.253 281.635C255.811 282.247 256.234 282.931 256.522 283.687C256.828 284.443 256.981 285.217 256.981 286.009C256.981 287.233 256.666 288.358 256.036 289.384C255.424 290.41 254.587 291.148 253.525 291.598L257.899 298.807H253.795L249.853 292.381H246.127V298.807H242.401ZM246.127 289.114H250.798C251.5 289.114 252.076 288.817 252.526 288.223C252.994 287.611 253.228 286.873 253.228 286.009C253.228 285.415 253.102 284.884 252.85 284.416C252.598 283.948 252.274 283.579 251.878 283.309C251.5 283.039 251.086 282.904 250.636 282.904H246.127V289.114ZM270.053 298.942C268.649 298.942 267.371 298.672 266.219 298.132C265.085 297.592 264.104 296.863 263.276 295.945C262.466 295.009 261.836 293.965 261.386 292.813C260.936 291.643 260.711 290.446 260.711 289.222C260.711 287.944 260.945 286.729 261.413 285.577C261.881 284.407 262.538 283.372 263.384 282.472C264.23 281.554 265.22 280.834 266.354 280.312C267.506 279.772 268.766 279.502 270.134 279.502C271.52 279.502 272.78 279.781 273.914 280.339C275.066 280.897 276.047 281.644 276.857 282.58C277.685 283.516 278.315 284.569 278.747 285.739C279.197 286.891 279.422 288.07 279.422 289.276C279.422 290.536 279.188 291.751 278.72 292.921C278.252 294.073 277.595 295.108 276.749 296.026C275.921 296.926 274.931 297.637 273.779 298.159C272.645 298.681 271.403 298.942 270.053 298.942ZM264.491 289.222C264.491 290.338 264.707 291.382 265.139 292.354C265.589 293.326 266.228 294.118 267.056 294.73C267.902 295.342 268.91 295.648 270.08 295.648C271.286 295.648 272.303 295.333 273.131 294.703C273.959 294.073 274.589 293.263 275.021 292.273C275.453 291.283 275.669 290.266 275.669 289.222C275.669 288.106 275.444 287.062 274.994 286.09C274.544 285.118 273.896 284.335 273.05 283.741C272.222 283.129 271.232 282.823 270.08 282.823C268.874 282.823 267.857 283.138 267.029 283.768C266.201 284.398 265.571 285.208 265.139 286.198C264.707 287.17 264.491 288.178 264.491 289.222ZM289.696 279.691H293.152L295.339 286.036L297.553 279.691H300.982L297.688 288.412L300.118 294.514L305.545 279.637H309.595L301.927 298.807H298.714L295.339 290.761L291.991 298.807H288.778L281.137 279.637H285.133L290.587 294.514L292.963 288.412L289.696 279.691ZM77.2567 311.637L81.9817 320.655L86.7877 311.637H90.8107L83.8447 324.111V330.807H80.1457V324.057L73.2067 311.637H77.2567ZM101.483 330.942C100.079 330.942 98.8007 330.672 97.6487 330.132C96.5147 329.592 95.5337 328.863 94.7057 327.945C93.8957 327.009 93.2657 325.965 92.8157 324.813C92.3657 323.643 92.1407 322.446 92.1407 321.222C92.1407 319.944 92.3747 318.729 92.8427 317.577C93.3107 316.407 93.9677 315.372 94.8137 314.472C95.6597 313.554 96.6497 312.834 97.7837 312.312C98.9357 311.772 100.196 311.502 101.564 311.502C102.95 311.502 104.21 311.781 105.344 312.339C106.496 312.897 107.477 313.644 108.287 314.58C109.115 315.516 109.745 316.569 110.177 317.739C110.627 318.891 110.852 320.07 110.852 321.276C110.852 322.536 110.618 323.751 110.15 324.921C109.682 326.073 109.025 327.108 108.179 328.026C107.351 328.926 106.361 329.637 105.209 330.159C104.075 330.681 102.833 330.942 101.483 330.942ZM95.9207 321.222C95.9207 322.338 96.1367 323.382 96.5687 324.354C97.0187 325.326 97.6577 326.118 98.4857 326.73C99.3317 327.342 100.34 327.648 101.51 327.648C102.716 327.648 103.733 327.333 104.561 326.703C105.389 326.073 106.019 325.263 106.451 324.273C106.883 323.283 107.099 322.266 107.099 321.222C107.099 320.106 106.874 319.062 106.424 318.09C105.974 317.118 105.326 316.335 104.48 315.741C103.652 315.129 102.662 314.823 101.51 314.823C100.304 314.823 99.2867 315.138 98.4587 315.768C97.6307 316.398 97.0007 317.208 96.5687 318.198C96.1367 319.17 95.9207 320.178 95.9207 321.222ZM123.457 330.942C121.927 330.942 120.622 330.69 119.542 330.186C118.48 329.664 117.616 328.953 116.95 328.053C116.302 327.153 115.825 326.136 115.519 325.002C115.213 323.85 115.06 322.653 115.06 321.411V311.637H118.786V321.411C118.786 322.473 118.93 323.481 119.218 324.435C119.506 325.389 119.992 326.163 120.676 326.757C121.36 327.351 122.278 327.648 123.43 327.648C124.618 327.648 125.554 327.351 126.238 326.757C126.922 326.145 127.408 325.362 127.696 324.408C127.984 323.454 128.128 322.455 128.128 321.411V311.637H131.827V321.411C131.827 322.725 131.665 323.958 131.341 325.11C131.035 326.262 130.54 327.279 129.856 328.161C129.19 329.025 128.326 329.709 127.264 330.213C126.202 330.699 124.933 330.942 123.457 330.942ZM137.2 330.807V311.637H145.678C146.56 311.637 147.37 311.817 148.108 312.177C148.864 312.537 149.512 313.023 150.052 313.635C150.61 314.247 151.033 314.931 151.321 315.687C151.627 316.443 151.78 317.217 151.78 318.009C151.78 319.233 151.465 320.358 150.835 321.384C150.223 322.41 149.386 323.148 148.324 323.598L152.698 330.807H148.594L144.652 324.381H140.926V330.807H137.2ZM140.926 321.114H145.597C146.299 321.114 146.875 320.817 147.325 320.223C147.793 319.611 148.027 318.873 148.027 318.009C148.027 317.415 147.901 316.884 147.649 316.416C147.397 315.948 147.073 315.579 146.677 315.309C146.299 315.039 145.885 314.904 145.435 314.904H140.926V321.114ZM176.303 316.659C176.141 316.479 175.799 316.245 175.277 315.957C174.755 315.651 174.125 315.381 173.387 315.147C172.667 314.895 171.92 314.769 171.146 314.769C169.112 314.769 168.095 315.489 168.095 316.929C168.095 317.451 168.257 317.865 168.581 318.171C168.905 318.477 169.391 318.738 170.039 318.954C170.687 319.17 171.497 319.404 172.469 319.656C173.729 319.98 174.818 320.358 175.736 320.79C176.672 321.222 177.383 321.798 177.869 322.518C178.373 323.22 178.625 324.156 178.625 325.326C178.625 326.694 178.292 327.801 177.626 328.647C176.978 329.475 176.114 330.078 175.034 330.456C173.954 330.834 172.784 331.023 171.524 331.023C170.084 331.023 168.653 330.807 167.231 330.375C165.827 329.925 164.576 329.313 163.478 328.539L165.125 325.326C165.287 325.488 165.575 325.704 165.989 325.974C166.403 326.226 166.907 326.487 167.501 326.757C168.095 327.009 168.743 327.225 169.445 327.405C170.147 327.585 170.858 327.675 171.578 327.675C173.63 327.675 174.656 327.018 174.656 325.704C174.656 325.146 174.449 324.696 174.035 324.354C173.621 324.012 173.036 323.724 172.28 323.49C171.542 323.256 170.678 322.995 169.688 322.707C168.464 322.365 167.447 321.987 166.637 321.573C165.845 321.141 165.251 320.61 164.855 319.98C164.459 319.332 164.261 318.513 164.261 317.523C164.261 316.209 164.567 315.111 165.179 314.229C165.809 313.329 166.655 312.654 167.717 312.204C168.779 311.736 169.958 311.502 171.254 311.502C172.586 311.502 173.828 311.718 174.98 312.15C176.132 312.582 177.122 313.077 177.95 313.635L176.303 316.659ZM184.72 311.637L189.445 320.655L194.251 311.637H198.274L191.308 324.111V330.807H187.609V324.057L180.67 311.637H184.72ZM212.608 316.659C212.446 316.479 212.104 316.245 211.582 315.957C211.06 315.651 210.43 315.381 209.692 315.147C208.972 314.895 208.225 314.769 207.451 314.769C205.417 314.769 204.4 315.489 204.4 316.929C204.4 317.451 204.562 317.865 204.886 318.171C205.21 318.477 205.696 318.738 206.344 318.954C206.992 319.17 207.802 319.404 208.774 319.656C210.034 319.98 211.123 320.358 212.041 320.79C212.977 321.222 213.688 321.798 214.174 322.518C214.678 323.22 214.93 324.156 214.93 325.326C214.93 326.694 214.597 327.801 213.931 328.647C213.283 329.475 212.419 330.078 211.339 330.456C210.259 330.834 209.089 331.023 207.829 331.023C206.389 331.023 204.958 330.807 203.536 330.375C202.132 329.925 200.881 329.313 199.783 328.539L201.43 325.326C201.592 325.488 201.88 325.704 202.294 325.974C202.708 326.226 203.212 326.487 203.806 326.757C204.4 327.009 205.048 327.225 205.75 327.405C206.452 327.585 207.163 327.675 207.883 327.675C209.935 327.675 210.961 327.018 210.961 325.704C210.961 325.146 210.754 324.696 210.34 324.354C209.926 324.012 209.341 323.724 208.585 323.49C207.847 323.256 206.983 322.995 205.993 322.707C204.769 322.365 203.752 321.987 202.942 321.573C202.15 321.141 201.556 320.61 201.16 319.98C200.764 319.332 200.566 318.513 200.566 317.523C200.566 316.209 200.872 315.111 201.484 314.229C202.114 313.329 202.96 312.654 204.022 312.204C205.084 311.736 206.263 311.502 207.559 311.502C208.891 311.502 210.133 311.718 211.285 312.15C212.437 312.582 213.427 313.077 214.255 313.635L212.608 316.659ZM233.702 314.904H227.573V330.807H223.874V314.904H217.745V311.637H233.702V314.904ZM251.013 327.54V330.807H237.702V311.637H250.77V314.904H241.428V319.521H249.501V322.545H241.428V327.54H251.013ZM271.171 330.807V318.225L266.257 327.594H264.178L259.264 318.225V330.807H255.538V311.637H259.534L265.204 322.545L270.928 311.637H274.897V330.807H271.171Z" fill="#fff"></path>

	<rect x="26.5" y="24.1196" width="287" height="339.123" rx="3.5" stroke="#fff" shape-rendering="crispEdges"></rect>

	<rect x="15.5" y="9.58588" width="309" height="365.828" stroke="#fdb414" stroke-width="5"></rect>

	<path d="M124.625 219.5C122.486 219.5 120.75 217.764 120.75 215.625V192.375C120.75 187.322 117.51 183.013 113 181.413V196.25C113 198.389 111.264 200.125 109.125 200.125C106.986 200.125 105.25 198.389 105.25 196.25V176.875C105.25 174.736 106.986 173 109.125 173C119.808 173 128.5 181.692 128.5 192.375V215.625C128.5 217.764 126.764 219.5 124.625 219.5Z" fill="#fff"></path>
	<path d="M93.625 215.625C91.486 215.625 89.75 213.889 89.75 211.75V165.25C89.75 154.567 98.4416 145.875 109.125 145.875C111.264 145.875 113 147.611 113 149.75V176.875C113 179.014 111.264 180.75 109.125 180.75C106.986 180.75 105.25 179.014 105.25 176.875V154.288C100.739 155.888 97.4999 160.197 97.4999 165.25V211.75C97.4999 213.889 95.7639 215.625 93.625 215.625Z" fill="#fff"></path>
	<path d="M132.375 235H85.875C83.736 235 82 233.264 82 231.125V215.625C82 213.486 83.736 211.75 85.875 211.75H132.375C134.514 211.75 136.25 213.486 136.25 215.625V231.125C136.25 233.264 134.514 235 132.375 235ZM89.75 227.25H128.5V219.5H89.75V227.25ZM225.374 219.5C223.232 219.5 221.499 217.764 221.499 215.625V192.375C221.499 181.692 230.191 173 240.874 173C243.017 173 244.749 174.736 244.749 176.875V196.25C244.749 198.389 243.017 200.125 240.874 200.125C238.732 200.125 236.999 198.389 236.999 196.25V181.413C232.489 183.013 229.249 187.322 229.249 192.375V215.625C229.249 217.764 227.517 219.5 225.374 219.5Z" fill="#fff"></path>
	<path d="M256.374 215.625C254.231 215.625 252.499 213.889 252.499 211.75V165.25C252.499 160.197 249.26 155.888 244.749 154.288V176.875C244.749 179.014 243.017 180.75 240.874 180.75C238.732 180.75 236.999 179.014 236.999 176.875V149.75C236.999 147.611 238.732 145.875 240.874 145.875C251.558 145.875 260.249 154.567 260.249 165.25V211.75C260.249 213.889 258.517 215.625 256.374 215.625Z" fill="#fff"></path>
	<path d="M264.124 235H217.624C215.482 235 213.75 233.264 213.75 231.125V215.625C213.75 213.486 215.482 211.75 217.624 211.75H264.124C266.267 211.75 267.999 213.486 267.999 215.625V231.125C267.999 233.264 266.267 235 264.124 235ZM221.499 227.25H260.249V219.5H221.499V227.25ZM182.75 196.25H167.25C165.111 196.25 163.375 194.514 163.375 192.375C163.375 190.236 165.111 188.5 167.25 188.5H178.875V180.75H167.25C165.111 180.75 163.375 179.014 163.375 176.875V161.375C163.375 159.236 165.111 157.5 167.25 157.5H182.746C184.889 157.5 186.621 159.236 186.621 161.375C186.621 163.514 184.889 165.25 182.746 165.25H171.125V173H182.75C184.892 173 186.625 174.736 186.625 176.875V192.375C186.625 194.514 184.892 196.25 182.75 196.25Z" fill="#fff"></path>
	<path d="M175 165.251C172.861 165.251 171.125 163.515 171.125 161.376V153.626C171.125 151.487 172.861 149.751 175 149.751C177.139 149.751 178.875 151.487 178.875 153.626V161.376C178.875 163.515 177.139 165.251 175 165.251ZM175 204C172.861 204 171.125 202.264 171.125 200.125V192.375C171.125 190.236 172.861 188.5 175 188.5C177.139 188.5 178.875 190.236 178.875 192.375V200.125C178.875 202.264 177.139 204 175 204Z" fill="#fff"></path>
	<path d="M225.374 219.5H124.625C122.486 219.5 120.75 217.764 120.75 215.625V138.126C120.75 135.987 122.486 134.251 124.625 134.251H225.374C227.517 134.251 229.249 135.987 229.249 138.126V215.625C229.249 217.764 227.517 219.5 225.374 219.5ZM128.5 211.75H221.499V142.001H128.5V211.75ZM175 72.247C172.861 72.247 171.125 70.511 171.125 68.372V52.876C171.125 50.737 172.861 49.001 175 49.001C177.139 49.001 178.875 50.737 178.875 52.876V68.372C178.875 70.511 177.139 72.247 175 72.247ZM175 126.501C172.861 126.501 171.125 124.765 171.125 122.626V107.13C171.125 104.991 172.861 103.255 175 103.255C177.139 103.255 178.875 104.991 178.875 107.13V122.626C178.875 124.765 177.139 126.501 175 126.501Z" fill="#fff"></path>
	<path d="M167.25 64.5009C166.258 64.5009 165.266 64.1212 164.51 63.3655C162.995 61.8504 162.995 59.4014 164.51 57.8863L172.26 50.1363C173.775 48.6212 176.224 48.6212 177.739 50.1363C179.254 51.6515 179.254 54.1004 177.739 55.6156L169.989 63.3655C169.234 64.1212 168.242 64.5009 167.25 64.5009Z" fill="#fff"></path>
	<path d="M182.75 64.5009C181.758 64.5009 180.766 64.1212 180.01 63.3655L172.26 55.6156C170.745 54.1004 170.745 51.6515 172.26 50.1363C173.775 48.6212 176.224 48.6212 177.739 50.1363L185.489 57.8863C187.004 59.4014 187.004 61.8504 185.489 63.3655C184.734 64.1212 183.742 64.5009 182.75 64.5009ZM175 95.5008C172.861 95.5008 171.125 93.7648 171.125 91.6258V83.8758C171.125 81.7368 172.861 80.0008 175 80.0008C177.139 80.0008 178.875 81.7368 178.875 83.8758V91.6258C178.875 93.7648 177.139 95.5008 175 95.5008ZM213.75 72.247C211.607 72.247 209.875 70.511 209.875 68.372V52.876C209.875 50.737 211.607 49.001 213.75 49.001C215.892 49.001 217.625 50.737 217.625 52.876V68.372C217.625 70.511 215.892 72.247 213.75 72.247ZM213.75 126.501C211.607 126.501 209.875 124.765 209.875 122.626V107.13C209.875 104.991 211.607 103.255 213.75 103.255C215.892 103.255 217.625 104.991 217.625 107.13V122.626C217.625 124.765 215.892 126.501 213.75 126.501Z" fill="#fff"></path>
	<path d="M206 64.5009C205.008 64.5009 204.016 64.1212 203.26 63.3655C201.745 61.8504 201.745 59.4014 203.26 57.8863L211.01 50.1363C212.525 48.6212 214.974 48.6212 216.489 50.1363C218.004 51.6515 218.004 54.1004 216.489 55.6156L208.739 63.3655C207.984 64.1212 206.992 64.5009 206 64.5009Z" fill="#fff"></path>
	<path d="M221.499 64.5009C220.507 64.5009 219.515 64.1212 218.76 63.3655L211.01 55.6156C209.495 54.1004 209.495 51.6515 211.01 50.1363C212.525 48.6212 214.974 48.6212 216.489 50.1363L224.239 57.8863C225.754 59.4014 225.754 61.8504 224.239 63.3655C223.483 64.1212 222.491 64.5009 221.499 64.5009ZM213.75 95.5008C211.607 95.5008 209.875 93.7648 209.875 91.6258V83.8758C209.875 81.7368 211.607 80.0008 213.75 80.0008C215.892 80.0008 217.624 81.7368 217.624 83.8758V91.6258C217.624 93.7648 215.892 95.5008 213.75 95.5008ZM136.25 72.247C134.111 72.247 132.375 70.511 132.375 68.372V52.876C132.375 50.737 134.111 49.001 136.25 49.001C138.389 49.001 140.125 50.737 140.125 52.876V68.372C140.125 70.511 138.389 72.247 136.25 72.247ZM136.25 126.501C134.111 126.501 132.375 124.765 132.375 122.626V107.13C132.375 104.991 134.111 103.255 136.25 103.255C138.389 103.255 140.125 104.991 140.125 107.13V122.626C140.125 124.765 138.389 126.501 136.25 126.501Z" fill="#fff"></path>
	<path d="M128.5 64.5009C127.508 64.5009 126.516 64.1212 125.76 63.3655C124.245 61.8504 124.245 59.4014 125.76 57.8863L133.51 50.1363C135.025 48.6212 137.474 48.6212 138.989 50.1363C140.505 51.6515 140.505 54.1004 138.989 55.6156L131.239 63.3655C130.484 64.1212 129.492 64.5009 128.5 64.5009Z" fill="#fff"></path>
	<path d="M144 64.5009C143.008 64.5009 142.016 64.1212 141.26 63.3655L133.51 55.6156C131.995 54.1004 131.995 51.6515 133.51 50.1363C135.025 48.6212 137.474 48.6212 138.989 50.1363L146.739 57.8863C148.255 59.4014 148.255 61.8504 146.739 63.3655C145.984 64.1212 144.992 64.5009 144 64.5009ZM136.25 95.5008C134.111 95.5008 132.375 93.7648 132.375 91.6258V83.8758C132.375 81.7368 134.111 80.0009 136.25 80.0009C138.389 80.0009 140.125 81.7368 140.125 83.8758V91.6258C140.125 93.7648 138.389 95.5008 136.25 95.5008Z" fill="#fff"></path>

</svg>