<svg width="340" height="398" viewBox="0 0 340 398" fill="none" xmlns="http://www.w3.org/2000/svg">

	<rect fill="#885e24" x="7" width="326" height="385" rx="7.83654"></rect>
	<rect stroke="#fdb414" x="9.5" y="2.5" width="321" height="380" rx="5.33654" stroke-width="5"></rect>

	<path fill="#fff" d="M42.2731 301.988V280.688H51.3031C52.2831 280.688 53.1831 280.888 54.0031 281.288C54.8431 281.688 55.5631 282.228 56.1631 282.908C56.7631 283.588 57.2331 284.348 57.5731 285.188C57.9131 286.028 58.0831 286.888 58.0831 287.768C58.0831 288.968 57.8031 290.108 57.2431 291.188C56.6831 292.268 55.9031 293.148 54.9031 293.828C53.9231 294.508 52.7731 294.848 51.4531 294.848H46.4131V301.988H42.2731ZM46.4131 291.218H51.2131C51.9731 291.218 52.6031 290.908 53.1031 290.288C53.6231 289.648 53.8831 288.808 53.8831 287.768C53.8831 286.668 53.5931 285.818 53.0131 285.218C52.4331 284.618 51.7731 284.318 51.0331 284.318H46.4131V291.218ZM73.2945 302.138C71.5945 302.138 70.1445 301.858 68.9445 301.298C67.7645 300.718 66.8045 299.928 66.0645 298.928C65.3445 297.928 64.8145 296.798 64.4745 295.538C64.1345 294.258 63.9645 292.928 63.9645 291.548V280.688H68.1045V291.548C68.1045 292.728 68.2645 293.848 68.5845 294.908C68.9045 295.968 69.4445 296.828 70.2045 297.488C70.9645 298.148 71.9845 298.478 73.2645 298.478C74.5845 298.478 75.6245 298.148 76.3845 297.488C77.1445 296.808 77.6845 295.938 78.0045 294.878C78.3245 293.818 78.4845 292.708 78.4845 291.548V280.688H82.5945V291.548C82.5945 293.008 82.4145 294.378 82.0545 295.658C81.7145 296.938 81.1645 298.068 80.4045 299.048C79.6645 300.008 78.7045 300.768 77.5245 301.328C76.3445 301.868 74.9345 302.138 73.2945 302.138ZM90.0645 301.988V280.688H99.4845C100.465 280.688 101.365 280.888 102.185 281.288C103.025 281.688 103.745 282.228 104.345 282.908C104.965 283.588 105.435 284.348 105.755 285.188C106.095 286.028 106.265 286.888 106.265 287.768C106.265 289.128 105.915 290.378 105.215 291.518C104.535 292.658 103.605 293.478 102.425 293.978L107.285 301.988H102.725L98.3445 294.848H94.2045V301.988H90.0645ZM94.2045 291.218H99.3945C100.175 291.218 100.815 290.888 101.315 290.228C101.835 289.548 102.095 288.728 102.095 287.768C102.095 287.108 101.955 286.518 101.675 285.998C101.395 285.478 101.035 285.068 100.595 284.768C100.175 284.468 99.7145 284.318 99.2145 284.318H94.2045V291.218ZM111.909 291.188C111.909 289.888 112.139 288.608 112.599 287.348C113.079 286.088 113.769 284.948 114.669 283.928C115.569 282.908 116.669 282.098 117.969 281.498C119.269 280.878 120.749 280.568 122.409 280.568C124.349 280.568 126.039 280.998 127.479 281.858C128.919 282.718 129.989 283.838 130.689 285.218L127.509 287.408C127.149 286.608 126.679 285.978 126.099 285.518C125.519 285.058 124.889 284.728 124.209 284.528C123.549 284.328 122.909 284.228 122.289 284.228C121.249 284.228 120.339 284.438 119.559 284.858C118.799 285.278 118.159 285.828 117.639 286.508C117.119 287.188 116.729 287.948 116.469 288.788C116.229 289.628 116.109 290.468 116.109 291.308C116.109 292.568 116.369 293.748 116.889 294.848C117.409 295.928 118.139 296.808 119.079 297.488C120.019 298.168 121.109 298.508 122.349 298.508C122.989 298.508 123.649 298.398 124.329 298.178C125.029 297.958 125.669 297.608 126.249 297.128C126.829 296.648 127.279 296.028 127.599 295.268L130.989 297.218C130.549 298.278 129.859 299.178 128.919 299.918C127.979 300.638 126.919 301.198 125.739 301.598C124.559 301.978 123.389 302.168 122.229 302.168C120.709 302.168 119.319 301.858 118.059 301.238C116.819 300.598 115.739 299.758 114.819 298.718C113.899 297.658 113.179 296.478 112.659 295.178C112.159 293.858 111.909 292.528 111.909 291.188ZM154.975 280.688V301.988H150.865V292.898H141.205V301.988H137.065V280.688H141.205V289.298H150.865V280.688H154.975ZM168.508 280.688H172.708L180.538 301.988H176.278L174.298 296.678H166.858L164.908 301.988H160.648L168.508 280.688ZM173.548 293.768L170.608 284.978L167.548 293.768H173.548ZM198.601 286.268C198.421 286.068 198.041 285.808 197.461 285.488C196.881 285.148 196.181 284.848 195.361 284.588C194.561 284.308 193.731 284.168 192.871 284.168C190.611 284.168 189.481 284.968 189.481 286.568C189.481 287.148 189.661 287.608 190.021 287.948C190.381 288.288 190.921 288.578 191.641 288.818C192.361 289.058 193.261 289.318 194.341 289.598C195.741 289.958 196.951 290.378 197.971 290.858C199.011 291.338 199.801 291.978 200.341 292.778C200.901 293.558 201.181 294.598 201.181 295.898C201.181 297.418 200.811 298.648 200.071 299.588C199.351 300.508 198.391 301.178 197.191 301.598C195.991 302.018 194.691 302.228 193.291 302.228C191.691 302.228 190.101 301.988 188.521 301.508C186.961 301.008 185.571 300.328 184.351 299.468L186.181 295.898C186.361 296.078 186.681 296.318 187.141 296.618C187.601 296.898 188.161 297.188 188.821 297.488C189.481 297.768 190.201 298.008 190.981 298.208C191.761 298.408 192.551 298.508 193.351 298.508C195.631 298.508 196.771 297.778 196.771 296.318C196.771 295.698 196.541 295.198 196.081 294.818C195.621 294.438 194.971 294.118 194.131 293.858C193.311 293.598 192.351 293.308 191.251 292.988C189.891 292.608 188.761 292.188 187.861 291.728C186.981 291.248 186.321 290.658 185.881 289.958C185.441 289.238 185.221 288.328 185.221 287.228C185.221 285.768 185.561 284.548 186.241 283.568C186.941 282.568 187.881 281.818 189.061 281.318C190.241 280.798 191.551 280.538 192.991 280.538C194.471 280.538 195.851 280.778 197.131 281.258C198.411 281.738 199.511 282.288 200.431 282.908L198.601 286.268ZM207.609 301.988V280.688H211.749V301.988H207.609ZM223.633 288.308V301.988H219.493V280.688H222.793L233.803 294.728V280.718H237.943V301.988H234.493L223.633 288.308ZM254.524 302.138C253.124 302.138 251.814 301.858 250.594 301.298C249.374 300.738 248.294 299.968 247.354 298.988C246.434 297.988 245.714 296.828 245.194 295.508C244.674 294.188 244.414 292.758 244.414 291.218C244.414 289.758 244.674 288.388 245.194 287.108C245.714 285.808 246.444 284.668 247.384 283.688C248.324 282.708 249.424 281.938 250.684 281.378C251.944 280.818 253.314 280.538 254.794 280.538C256.774 280.538 258.484 280.968 259.924 281.828C261.364 282.668 262.444 283.788 263.164 285.188L260.074 287.468C259.534 286.428 258.774 285.628 257.794 285.068C256.834 284.488 255.784 284.198 254.644 284.198C253.444 284.198 252.384 284.528 251.464 285.188C250.564 285.848 249.854 286.718 249.334 287.798C248.834 288.878 248.584 290.058 248.584 291.338C248.584 292.678 248.854 293.888 249.394 294.968C249.934 296.048 250.674 296.908 251.614 297.548C252.574 298.168 253.664 298.478 254.884 298.478C256.944 298.478 258.804 297.508 260.464 295.568V294.068H256.174V291.038H263.884V301.988H260.464V299.588C258.744 301.288 256.764 302.138 254.524 302.138ZM288.623 280.688L273.743 301.988H269.303L284.153 280.688H288.623ZM72.9751 336.988V315.688H77.1151V336.988H72.9751ZM88.9991 323.308V336.988H84.8591V315.688H88.1591L99.1691 329.728V315.718H103.309V336.988H99.8591L88.9991 323.308ZM113.23 315.688L118.99 332.068L124.69 315.688H129.04L120.97 336.988H116.98L108.88 315.688H113.23ZM149.403 333.358V336.988H134.613V315.688H149.133V319.318H138.753V324.448H147.723V327.808H138.753V333.358H149.403ZM160.071 323.308V336.988H155.931V315.688H159.231L170.241 329.728V315.718H174.381V336.988H170.931L160.071 323.308ZM198.042 319.318H191.232V336.988H187.122V319.318H180.312V315.688H198.042V319.318ZM212.607 337.138C211.047 337.138 209.627 336.838 208.347 336.238C207.087 335.638 205.997 334.828 205.077 333.808C204.177 332.768 203.477 331.608 202.977 330.328C202.477 329.028 202.227 327.698 202.227 326.338C202.227 324.918 202.487 323.568 203.007 322.288C203.527 320.988 204.257 319.838 205.197 318.838C206.137 317.818 207.237 317.018 208.497 316.438C209.777 315.838 211.177 315.538 212.697 315.538C214.237 315.538 215.637 315.848 216.897 316.468C218.177 317.088 219.267 317.918 220.167 318.958C221.087 319.998 221.787 321.168 222.267 322.468C222.767 323.748 223.017 325.058 223.017 326.398C223.017 327.798 222.757 329.148 222.237 330.448C221.717 331.728 220.987 332.878 220.047 333.898C219.127 334.898 218.027 335.688 216.747 336.268C215.487 336.848 214.107 337.138 212.607 337.138ZM206.427 326.338C206.427 327.578 206.667 328.738 207.147 329.818C207.647 330.898 208.357 331.778 209.277 332.458C210.217 333.138 211.337 333.478 212.637 333.478C213.977 333.478 215.107 333.128 216.027 332.428C216.947 331.728 217.647 330.828 218.127 329.728C218.607 328.628 218.847 327.498 218.847 326.338C218.847 325.098 218.597 323.938 218.097 322.858C217.597 321.778 216.877 320.908 215.937 320.248C215.017 319.568 213.917 319.228 212.637 319.228C211.297 319.228 210.167 319.578 209.247 320.278C208.327 320.978 207.627 321.878 207.147 322.978C206.667 324.058 206.427 325.178 206.427 326.338ZM229.493 336.988V315.688H238.913C239.893 315.688 240.793 315.888 241.613 316.288C242.453 316.688 243.173 317.228 243.773 317.908C244.393 318.588 244.863 319.348 245.183 320.188C245.523 321.028 245.693 321.888 245.693 322.768C245.693 324.128 245.343 325.378 244.643 326.518C243.963 327.658 243.033 328.478 241.853 328.978L246.713 336.988H242.153L237.773 329.848H233.633V336.988H229.493ZM233.633 326.218H238.823C239.603 326.218 240.243 325.888 240.743 325.228C241.263 324.548 241.523 323.728 241.523 322.768C241.523 322.108 241.383 321.518 241.103 320.998C240.823 320.478 240.463 320.068 240.023 319.768C239.603 319.468 239.143 319.318 238.643 319.318H233.633V326.218ZM254.06 315.688L259.31 325.708L264.65 315.688H269.12L261.38 329.548V336.988H257.27V329.488L249.56 315.688H254.06Z"></path>

	<rect x="26.5" y="24.1196" width="287" height="339.123" rx="3.5" stroke="#fff" shape-rendering="crispEdges"></rect>

	<rect x="15.5" y="9.58589" width="309" height="365.828" stroke="#fdb414" stroke-width="5"></rect>

	<path fill="#fff" class="icon-color" fill-rule="evenodd" clip-rule="evenodd" d="M146.055 56.9144H190.413C197.354 56.9144 202.981 62.5414 202.981 69.4826V79.0936H133.487V69.4826C133.487 62.5414 139.114 56.9144 146.055 56.9144ZM127.572 69.4826C127.572 59.275 135.847 51 146.055 51H190.413C200.621 51 208.896 59.275 208.896 69.4826V70.222H240.686C241.911 70.222 242.904 71.215 242.904 72.4399V256.527C242.904 257.752 241.911 258.745 240.686 258.745H100.218C98.993 258.745 98 257.752 98 256.527V72.4399C98 71.215 98.993 70.222 100.218 70.222H127.572V69.4826ZM127.572 76.1364H103.914V252.831H236.99V76.1364H208.896V85.0081H127.572V76.1364Z"></path>
	<path fill="#fff" fill-rule="evenodd" clip-rule="evenodd" d="M122.325 132.251V153.416H143.489V132.251H122.325ZM119.219 128.627C118.933 128.627 118.701 128.859 118.701 129.145V156.522C118.701 156.808 118.933 157.04 119.219 157.04H146.596C146.882 157.04 147.114 156.808 147.114 156.522V129.145C147.114 128.859 146.882 128.627 146.596 128.627H119.219Z"></path>
	<path fill="#fff" fill-rule="evenodd" clip-rule="evenodd" d="M122.325 175.885V197.049H143.489V175.885H122.325ZM119.218 172.261C118.932 172.261 118.701 172.492 118.701 172.778V200.155C118.701 200.441 118.932 200.673 119.218 200.673H146.595C146.881 200.673 147.113 200.441 147.113 200.155V172.778C147.113 172.492 146.881 172.261 146.595 172.261H119.218Z"></path>
	<rect fill="#fff" x="159.29" y="142.326" width="62.9135" height="7.6105"></rect>
	<rect fill="#fff" x="159.29" y="184.945" width="62.9135" height="7.6105"></rect>
	<path fill="#fff" fill-rule="evenodd" clip-rule="evenodd" d="M141.532 138.404L132.04 147.907L124.789 142.627L126.167 140.73L131.799 144.832L139.876 136.745L141.532 138.404Z"></path>

</svg>