<svg width="340" height="398" viewBox="0 0 340 398" fill="none" xmlns="http://www.w3.org/2000/svg">


<rect x="7" width="326" height="385" rx="7.83654" fill="#885e24"/>
<rect x="9.5" y="2.5" width="321" height="380" rx="5.33654" stroke="#fdb414" stroke-width="5"/>


<path d="M120.676 272.28C120.496 272.08 120.116 271.82 119.536 271.5C118.956 271.16 118.256 270.86 117.436 270.6C116.636 270.32 115.806 270.18 114.946 270.18C112.686 270.18 111.556 270.98 111.556 272.58C111.556 273.16 111.736 273.62 112.096 273.96C112.456 274.3 112.996 274.59 113.716 274.83C114.436 275.07 115.336 275.33 116.416 275.61C117.816 275.97 119.026 276.39 120.046 276.87C121.086 277.35 121.876 277.99 122.416 278.79C122.976 279.57 123.256 280.61 123.256 281.91C123.256 283.43 122.886 284.66 122.146 285.6C121.426 286.52 120.466 287.19 119.266 287.61C118.066 288.03 116.766 288.24 115.366 288.24C113.766 288.24 112.176 288 110.596 287.52C109.036 287.02 107.646 286.34 106.426 285.48L108.256 281.91C108.436 282.09 108.756 282.33 109.216 282.63C109.676 282.91 110.236 283.2 110.896 283.5C111.556 283.78 112.276 284.02 113.056 284.22C113.836 284.42 114.626 284.52 115.426 284.52C117.706 284.52 118.846 283.79 118.846 282.33C118.846 281.71 118.616 281.21 118.156 280.83C117.696 280.45 117.046 280.13 116.206 279.87C115.386 279.61 114.426 279.32 113.326 279C111.966 278.62 110.836 278.2 109.936 277.74C109.056 277.26 108.396 276.67 107.956 275.97C107.516 275.25 107.296 274.34 107.296 273.24C107.296 271.78 107.636 270.56 108.316 269.58C109.016 268.58 109.956 267.83 111.136 267.33C112.316 266.81 113.626 266.55 115.066 266.55C116.546 266.55 117.926 266.79 119.206 267.27C120.486 267.75 121.586 268.3 122.506 268.92L120.676 272.28ZM135.005 266.7H139.205L147.035 288H142.775L140.795 282.69H133.355L131.405 288H127.145L135.005 266.7ZM140.045 279.78L137.105 270.99L134.045 279.78H140.045ZM152.672 288V266.7H156.812V284.37H167.672V288H152.672ZM188.281 284.37V288H173.491V266.7H188.011V270.33H177.631V275.46H186.601V278.82H177.631V284.37H188.281ZM207.499 272.28C207.319 272.08 206.939 271.82 206.359 271.5C205.779 271.16 205.079 270.86 204.259 270.6C203.459 270.32 202.629 270.18 201.769 270.18C199.509 270.18 198.379 270.98 198.379 272.58C198.379 273.16 198.559 273.62 198.919 273.96C199.279 274.3 199.819 274.59 200.539 274.83C201.259 275.07 202.159 275.33 203.239 275.61C204.639 275.97 205.849 276.39 206.869 276.87C207.909 277.35 208.699 277.99 209.239 278.79C209.799 279.57 210.079 280.61 210.079 281.91C210.079 283.43 209.709 284.66 208.969 285.6C208.249 286.52 207.289 287.19 206.089 287.61C204.889 288.03 203.589 288.24 202.189 288.24C200.589 288.24 198.999 288 197.419 287.52C195.859 287.02 194.469 286.34 193.249 285.48L195.079 281.91C195.259 282.09 195.579 282.33 196.039 282.63C196.499 282.91 197.059 283.2 197.719 283.5C198.379 283.78 199.099 284.02 199.879 284.22C200.659 284.42 201.449 284.52 202.249 284.52C204.529 284.52 205.669 283.79 205.669 282.33C205.669 281.71 205.439 281.21 204.979 280.83C204.519 280.45 203.869 280.13 203.029 279.87C202.209 279.61 201.249 279.32 200.149 279C198.789 278.62 197.659 278.2 196.759 277.74C195.879 277.26 195.219 276.67 194.779 275.97C194.339 275.25 194.119 274.34 194.119 273.24C194.119 271.78 194.459 270.56 195.139 269.58C195.839 268.58 196.779 267.83 197.959 267.33C199.139 266.81 200.449 266.55 201.889 266.55C203.369 266.55 204.749 266.79 206.029 267.27C207.309 267.75 208.409 268.3 209.329 268.92L207.499 272.28ZM234.417 266.7L219.537 288H215.097L229.947 266.7H234.417ZM88.9261 323V309.02L83.4661 319.43H81.1561L75.6961 309.02V323H71.5561V301.7H75.9961L82.2961 313.82L88.6561 301.7H93.0661V323H88.9261ZM106.603 301.7H110.803L118.633 323H114.373L112.393 317.69H104.953L103.003 323H98.7432L106.603 301.7ZM111.643 314.78L108.703 305.99L105.643 314.78H111.643ZM124.269 323V301.7H133.689C134.669 301.7 135.569 301.9 136.389 302.3C137.229 302.7 137.949 303.24 138.549 303.92C139.169 304.6 139.639 305.36 139.959 306.2C140.299 307.04 140.469 307.9 140.469 308.78C140.469 310.14 140.119 311.39 139.419 312.53C138.739 313.67 137.809 314.49 136.629 314.99L141.489 323H136.929L132.549 315.86H128.409V323H124.269ZM128.409 312.23H133.599C134.379 312.23 135.019 311.9 135.519 311.24C136.039 310.56 136.299 309.74 136.299 308.78C136.299 308.12 136.159 307.53 135.879 307.01C135.599 306.49 135.239 306.08 134.799 305.78C134.379 305.48 133.919 305.33 133.419 305.33H128.409V312.23ZM147.521 323V301.73H151.661V311.84L160.601 301.7H165.161L157.001 311.15L165.671 323H160.991L154.361 313.82L151.661 316.64V323H147.521ZM185.679 319.37V323H170.889V301.7H185.409V305.33H175.029V310.46H183.999V313.82H175.029V319.37H185.679ZM208.137 305.33H201.327V323H197.217V305.33H190.407V301.7H208.137V305.33ZM214.081 323V301.7H218.221V323H214.081ZM230.105 309.32V323H225.965V301.7H229.265L240.275 315.74V301.73H244.415V323H240.965L230.105 309.32ZM260.996 323.15C259.596 323.15 258.286 322.87 257.066 322.31C255.846 321.75 254.766 320.98 253.826 320C252.906 319 252.186 317.84 251.666 316.52C251.146 315.2 250.886 313.77 250.886 312.23C250.886 310.77 251.146 309.4 251.666 308.12C252.186 306.82 252.916 305.68 253.856 304.7C254.796 303.72 255.896 302.95 257.156 302.39C258.416 301.83 259.786 301.55 261.266 301.55C263.246 301.55 264.956 301.98 266.396 302.84C267.836 303.68 268.916 304.8 269.636 306.2L266.546 308.48C266.006 307.44 265.246 306.64 264.266 306.08C263.306 305.5 262.256 305.21 261.116 305.21C259.916 305.21 258.856 305.54 257.936 306.2C257.036 306.86 256.326 307.73 255.806 308.81C255.306 309.89 255.056 311.07 255.056 312.35C255.056 313.69 255.326 314.9 255.866 315.98C256.406 317.06 257.146 317.92 258.086 318.56C259.046 319.18 260.136 319.49 261.356 319.49C263.416 319.49 265.276 318.52 266.936 316.58V315.08H262.646V312.05H270.356V323H266.936V320.6C265.216 322.3 263.236 323.15 260.996 323.15Z" fill="#fff"/>



<rect x="26.5" y="24.1196" width="287" height="339.123" rx="3.5" stroke="#fff" shape-rendering="crispEdges"/>

<rect x="15.5" y="9.58588" width="309" height="365.828" stroke="#fdb414" stroke-width="5"/>

<path fill-rule="evenodd" clip-rule="evenodd" d="M79.3481 110.035L82.4563 107.841L126.839 170.716L160.291 138.785L177.068 161.664L192.233 148.015L221.285 184.889L228.418 179.269L231.563 201.008L211.164 192.863L218.296 187.243L191.759 153.561L176.487 167.305L159.784 144.528L126.275 176.514L79.3481 110.035Z" fill="#9E9E9E"/>
<path fill-rule="evenodd" clip-rule="evenodd" d="M187.863 127.198L209.497 123.395L201.974 144.032L196.14 137.073L157.438 169.515L134.808 139.343L82.71 198.462L79.8556 195.946L135.046 133.319L158.072 164.019L193.696 134.157L187.863 127.198Z" fill="#fff"/>
<path fill-rule="evenodd" clip-rule="evenodd" d="M79 61H82.8046V232.586H262V236.391H79V61Z" fill="#fff"/>

</svg>