<svg width="340" height="339" viewBox="0 0 340 339" fill="none" xmlns="http://www.w3.org/2000/svg">

<rect x="7" width="326" height="326" rx="7.83654" fill="#885e24"/>
<rect x="9.5" y="2.5" width="321" height="321" rx="5.33654" stroke="#fdb414" stroke-width="5"/>

<path d="M98.22 289V267.7H105.96C108.28 267.7 110.22 268.18 111.78 269.14C113.34 270.08 114.51 271.36 115.29 272.98C116.07 274.58 116.46 276.36 116.46 278.32C116.46 280.48 116.03 282.36 115.17 283.96C114.31 285.56 113.09 286.8 111.51 287.68C109.93 288.56 108.08 289 105.96 289H98.22ZM112.29 278.32C112.29 276.94 112.04 275.73 111.54 274.69C111.04 273.63 110.32 272.81 109.38 272.23C108.44 271.63 107.3 271.33 105.96 271.33H102.36V285.37H105.96C107.32 285.37 108.47 285.07 109.41 284.47C110.35 283.85 111.06 283.01 111.54 281.95C112.04 280.87 112.29 279.66 112.29 278.32ZM122.995 289V267.7H127.135V289H122.995ZM147.569 273.28C147.389 273.08 147.009 272.82 146.429 272.5C145.849 272.16 145.149 271.86 144.329 271.6C143.529 271.32 142.699 271.18 141.839 271.18C139.579 271.18 138.449 271.98 138.449 273.58C138.449 274.16 138.629 274.62 138.989 274.96C139.349 275.3 139.889 275.59 140.609 275.83C141.329 276.07 142.229 276.33 143.309 276.61C144.709 276.97 145.919 277.39 146.939 277.87C147.979 278.35 148.769 278.99 149.309 279.79C149.869 280.57 150.149 281.61 150.149 282.91C150.149 284.43 149.779 285.66 149.039 286.6C148.319 287.52 147.359 288.19 146.159 288.61C144.959 289.03 143.659 289.24 142.259 289.24C140.659 289.24 139.069 289 137.489 288.52C135.929 288.02 134.539 287.34 133.319 286.48L135.149 282.91C135.329 283.09 135.649 283.33 136.109 283.63C136.569 283.91 137.129 284.2 137.789 284.5C138.449 284.78 139.169 285.02 139.949 285.22C140.729 285.42 141.519 285.52 142.319 285.52C144.599 285.52 145.739 284.79 145.739 283.33C145.739 282.71 145.509 282.21 145.049 281.83C144.589 281.45 143.939 281.13 143.099 280.87C142.279 280.61 141.319 280.32 140.219 280C138.859 279.62 137.729 279.2 136.829 278.74C135.949 278.26 135.289 277.67 134.849 276.97C134.409 276.25 134.189 275.34 134.189 274.24C134.189 272.78 134.529 271.56 135.209 270.58C135.909 269.58 136.849 268.83 138.029 268.33C139.209 267.81 140.519 267.55 141.959 267.55C143.439 267.55 144.819 267.79 146.099 268.27C147.379 268.75 148.479 269.3 149.399 269.92L147.569 273.28ZM155.287 278.2C155.287 276.9 155.517 275.62 155.977 274.36C156.457 273.1 157.147 271.96 158.047 270.94C158.947 269.92 160.047 269.11 161.347 268.51C162.647 267.89 164.127 267.58 165.787 267.58C167.727 267.58 169.417 268.01 170.857 268.87C172.297 269.73 173.367 270.85 174.067 272.23L170.887 274.42C170.527 273.62 170.057 272.99 169.477 272.53C168.897 272.07 168.267 271.74 167.587 271.54C166.927 271.34 166.287 271.24 165.667 271.24C164.627 271.24 163.717 271.45 162.937 271.87C162.177 272.29 161.537 272.84 161.017 273.52C160.497 274.2 160.107 274.96 159.847 275.8C159.607 276.64 159.487 277.48 159.487 278.32C159.487 279.58 159.747 280.76 160.267 281.86C160.787 282.94 161.517 283.82 162.457 284.5C163.397 285.18 164.487 285.52 165.727 285.52C166.367 285.52 167.027 285.41 167.707 285.19C168.407 284.97 169.047 284.62 169.627 284.14C170.207 283.66 170.657 283.04 170.977 282.28L174.367 284.23C173.927 285.29 173.237 286.19 172.297 286.93C171.357 287.65 170.297 288.21 169.117 288.61C167.937 288.99 166.767 289.18 165.607 289.18C164.087 289.18 162.697 288.87 161.437 288.25C160.197 287.61 159.117 286.77 158.197 285.73C157.277 284.67 156.557 283.49 156.037 282.19C155.537 280.87 155.287 279.54 155.287 278.2ZM189.473 289.15C187.773 289.15 186.323 288.87 185.123 288.31C183.943 287.73 182.983 286.94 182.243 285.94C181.523 284.94 180.993 283.81 180.653 282.55C180.313 281.27 180.143 279.94 180.143 278.56V267.7H184.283V278.56C184.283 279.74 184.443 280.86 184.763 281.92C185.083 282.98 185.623 283.84 186.383 284.5C187.143 285.16 188.163 285.49 189.443 285.49C190.763 285.49 191.803 285.16 192.563 284.5C193.323 283.82 193.863 282.95 194.183 281.89C194.503 280.83 194.663 279.72 194.663 278.56V267.7H198.773V278.56C198.773 280.02 198.593 281.39 198.233 282.67C197.893 283.95 197.343 285.08 196.583 286.06C195.843 287.02 194.883 287.78 193.703 288.34C192.523 288.88 191.113 289.15 189.473 289.15ZM218.933 273.28C218.753 273.08 218.373 272.82 217.793 272.5C217.213 272.16 216.513 271.86 215.693 271.6C214.893 271.32 214.063 271.18 213.203 271.18C210.943 271.18 209.813 271.98 209.813 273.58C209.813 274.16 209.993 274.62 210.353 274.96C210.713 275.3 211.253 275.59 211.973 275.83C212.693 276.07 213.593 276.33 214.673 276.61C216.073 276.97 217.283 277.39 218.303 277.87C219.343 278.35 220.133 278.99 220.673 279.79C221.233 280.57 221.513 281.61 221.513 282.91C221.513 284.43 221.143 285.66 220.403 286.6C219.683 287.52 218.723 288.19 217.523 288.61C216.323 289.03 215.023 289.24 213.623 289.24C212.023 289.24 210.433 289 208.853 288.52C207.293 288.02 205.903 287.34 204.683 286.48L206.513 282.91C206.693 283.09 207.013 283.33 207.473 283.63C207.933 283.91 208.493 284.2 209.153 284.5C209.813 284.78 210.533 285.02 211.313 285.22C212.093 285.42 212.883 285.52 213.683 285.52C215.963 285.52 217.103 284.79 217.103 283.33C217.103 282.71 216.873 282.21 216.413 281.83C215.953 281.45 215.303 281.13 214.463 280.87C213.643 280.61 212.683 280.32 211.583 280C210.223 279.62 209.093 279.2 208.193 278.74C207.313 278.26 206.653 277.67 206.213 276.97C205.773 276.25 205.553 275.34 205.553 274.24C205.553 272.78 205.893 271.56 206.573 270.58C207.273 269.58 208.213 268.83 209.393 268.33C210.573 267.81 211.883 267.55 213.323 267.55C214.803 267.55 216.183 267.79 217.463 268.27C218.743 268.75 219.843 269.3 220.763 269.92L218.933 273.28ZM240.632 273.28C240.452 273.08 240.072 272.82 239.492 272.5C238.912 272.16 238.212 271.86 237.392 271.6C236.592 271.32 235.762 271.18 234.902 271.18C232.642 271.18 231.512 271.98 231.512 273.58C231.512 274.16 231.692 274.62 232.052 274.96C232.412 275.3 232.952 275.59 233.672 275.83C234.392 276.07 235.292 276.33 236.372 276.61C237.772 276.97 238.982 277.39 240.002 277.87C241.042 278.35 241.832 278.99 242.372 279.79C242.932 280.57 243.212 281.61 243.212 282.91C243.212 284.43 242.842 285.66 242.102 286.6C241.382 287.52 240.422 288.19 239.222 288.61C238.022 289.03 236.722 289.24 235.322 289.24C233.722 289.24 232.132 289 230.552 288.52C228.992 288.02 227.602 287.34 226.382 286.48L228.212 282.91C228.392 283.09 228.712 283.33 229.172 283.63C229.632 283.91 230.192 284.2 230.852 284.5C231.512 284.78 232.232 285.02 233.012 285.22C233.792 285.42 234.582 285.52 235.382 285.52C237.662 285.52 238.802 284.79 238.802 283.33C238.802 282.71 238.572 282.21 238.112 281.83C237.652 281.45 237.002 281.13 236.162 280.87C235.342 280.61 234.382 280.32 233.282 280C231.922 279.62 230.792 279.2 229.892 278.74C229.012 278.26 228.352 277.67 227.912 276.97C227.472 276.25 227.252 275.34 227.252 274.24C227.252 272.78 227.592 271.56 228.272 270.58C228.972 269.58 229.912 268.83 231.092 268.33C232.272 267.81 233.582 267.55 235.022 267.55C236.502 267.55 237.882 267.79 239.162 268.27C240.442 268.75 241.542 269.3 242.462 269.92L240.632 273.28Z" fill="#fff"/>

<rect x="26.5" y="20.5" width="287" height="287" rx="3.5" stroke="#fff" shape-rendering="crispEdges"/>

<rect x="15.5" y="8.5" width="309" height="309" stroke="#fdb414" stroke-width="5"/>

<path d="M206.456 121.29C207.03 121.577 207.605 121.865 208.18 121.865C208.467 121.865 209.041 121.865 209.329 121.577C210.191 121.003 210.765 120.142 211.052 119.281L211.34 110.955C216.223 109.806 219.958 105.213 219.958 99.7581V72.4839C219.958 66.1677 214.787 61 208.467 61H162.215C155.895 61 150.724 66.1677 150.724 72.4839V83.6806H119.986C113.666 83.6806 108.495 88.8484 108.495 95.1645V122.152C108.495 127.606 112.23 132.2 117.113 133.348L117.4 141.674C117.4 142.823 117.975 143.684 119.124 143.971C119.411 144.258 119.986 144.258 120.273 144.258C120.848 144.258 121.422 143.971 121.997 143.684L136.073 133.635H165.95C172.27 133.635 177.154 128.755 177.441 122.439V122.152V110.955H191.805L206.456 121.29ZM171.983 122.439C171.983 125.884 169.397 128.181 166.237 128.181H135.499C134.924 128.181 134.35 128.468 133.775 128.755L123.146 136.219L122.859 130.765C122.859 129.329 121.422 128.181 119.986 128.181C116.826 128.181 114.24 125.597 114.24 122.439V95.4516C114.24 92.2935 116.826 89.7097 119.986 89.7097H151.012V100.045C151.012 106.361 156.183 111.529 162.503 111.529H172.27V122.439H171.983ZM174.856 105.5H162.215C159.055 105.5 156.47 102.916 156.47 99.7581V86.5516V72.4839C156.47 69.3258 159.055 66.7419 162.215 66.7419H208.467C211.627 66.7419 214.212 69.3258 214.212 72.4839V99.471C214.212 102.629 211.627 105.213 208.467 105.213C207.03 105.213 205.594 106.361 205.594 107.797L205.307 113.252L194.678 105.787C194.103 105.5 193.529 105.213 192.954 105.213H174.856V105.5ZM104.473 190.481C115.39 190.481 124.008 181.581 124.008 170.958C124.008 160.048 115.102 151.435 104.473 151.435C93.5566 151.435 84.9383 160.335 84.9383 170.958C84.9383 181.581 93.5566 190.481 104.473 190.481ZM104.473 156.89C112.23 156.89 118.262 163.206 118.262 170.671C118.262 178.135 111.942 184.452 104.473 184.452C96.7166 184.452 90.6838 178.135 90.6838 170.671C90.6838 163.206 96.7166 156.89 104.473 156.89ZM116.251 194.213H94.7057C81.2037 194.213 70 205.123 70 218.903V236.129C70 237.565 71.1491 239 72.8728 239H137.797C139.233 239 140.67 237.852 140.67 236.129V218.903C140.957 205.123 129.753 194.213 116.251 194.213ZM135.212 233.258H128.03V220.913C128.03 219.477 126.881 218.042 125.157 218.042C123.721 218.042 122.284 219.19 122.284 220.913V233.258H88.6729V220.913C88.6729 219.477 87.5238 218.042 85.8002 218.042C84.3638 218.042 82.9274 219.19 82.9274 220.913V233.258H75.7455V218.903C75.7455 208.568 84.0765 199.955 94.7057 199.955H116.251C126.593 199.955 135.212 208.281 135.212 218.903V233.258ZM197.263 143.971C197.263 154.881 206.169 163.494 216.798 163.494C227.714 163.494 236.333 154.594 236.333 143.971C236.333 133.061 227.427 124.448 216.798 124.448C206.169 124.448 197.263 133.061 197.263 143.971ZM230.874 143.971C230.874 151.723 224.554 157.752 217.085 157.752C209.329 157.752 203.296 151.435 203.296 143.971C203.296 136.506 209.616 130.19 217.085 130.19C224.554 130.19 230.874 136.219 230.874 143.971ZM228.576 167.226H207.03C193.529 167.226 182.325 178.135 182.325 191.916V209.142C182.325 210.577 183.474 212.013 185.198 212.013H250.122C251.558 212.013 252.995 210.865 252.995 209.142V191.916C253.282 178.423 242.078 167.226 228.576 167.226ZM247.536 206.271H240.354V193.926C240.354 192.49 239.205 191.055 237.482 191.055C236.045 191.055 234.609 192.203 234.609 193.926V206.271H201.285V193.926C201.285 192.49 200.136 191.055 198.412 191.055C196.976 191.055 195.539 192.203 195.539 193.926V206.271H188.358V191.916C188.358 181.581 196.689 172.968 207.318 172.968H228.863C239.205 172.968 247.824 181.294 247.824 191.916V206.271H247.536Z" fill="#fff"/>

</svg>