<svg width="340" height="398" viewBox="0 0 340 398" fill="none" xmlns="http://www.w3.org/2000/svg">

			<rect x="7" width="326" height="385" rx="7.83654" fill="#885e24"/>
			<rect x="9.5" y="2.5" width="321" height="380" rx="5.33654" stroke="#fdb414" stroke-width="5"/>

			<path d="M50.4573 300.531V288.881L45.9073 297.556H43.9823L39.4323 288.881V300.531H35.9823V282.781H39.6823L44.9323 292.881L50.2323 282.781H53.9073V300.531H50.4573ZM65.1882 282.781H68.6882L75.2132 300.531H71.6632L70.0132 296.106H63.8132L62.1882 300.531H58.6382L65.1882 282.781ZM69.3882 293.681L66.9382 286.356L64.3882 293.681H69.3882ZM83.3601 289.131V300.531H79.9101V282.781H82.6601L91.8351 294.481V282.806H95.2851V300.531H92.4101L83.3601 289.131ZM109.252 300.656C107.836 300.656 106.627 300.422 105.627 299.956C104.644 299.472 103.844 298.814 103.227 297.981C102.627 297.147 102.186 296.206 101.902 295.156C101.619 294.089 101.477 292.981 101.477 291.831V282.781H104.927V291.831C104.927 292.814 105.061 293.747 105.327 294.631C105.594 295.514 106.044 296.231 106.677 296.781C107.311 297.331 108.161 297.606 109.227 297.606C110.327 297.606 111.194 297.331 111.827 296.781C112.461 296.214 112.911 295.489 113.177 294.606C113.444 293.722 113.577 292.797 113.577 291.831V282.781H117.002V291.831C117.002 293.047 116.852 294.189 116.552 295.256C116.269 296.322 115.811 297.264 115.177 298.081C114.561 298.881 113.761 299.514 112.777 299.981C111.794 300.431 110.619 300.656 109.252 300.656ZM123.227 300.531V282.781H135.152V285.806H126.677V290.381H133.727V293.181H126.677V300.531H123.227ZM143.888 282.781H147.388L153.913 300.531H150.363L148.713 296.106H142.513L140.888 300.531H137.338L143.888 282.781ZM148.088 293.681L145.638 286.356L143.088 293.681H148.088ZM156.852 291.531C156.852 290.447 157.043 289.381 157.427 288.331C157.827 287.281 158.402 286.331 159.152 285.481C159.902 284.631 160.818 283.956 161.902 283.456C162.985 282.939 164.218 282.681 165.602 282.681C167.218 282.681 168.627 283.039 169.827 283.756C171.027 284.472 171.918 285.406 172.502 286.556L169.852 288.381C169.552 287.714 169.16 287.189 168.677 286.806C168.193 286.422 167.668 286.147 167.102 285.981C166.552 285.814 166.018 285.731 165.502 285.731C164.635 285.731 163.877 285.906 163.227 286.256C162.593 286.606 162.06 287.064 161.627 287.631C161.193 288.197 160.868 288.831 160.652 289.531C160.452 290.231 160.352 290.931 160.352 291.631C160.352 292.681 160.568 293.664 161.002 294.581C161.435 295.481 162.043 296.214 162.827 296.781C163.61 297.347 164.518 297.631 165.552 297.631C166.085 297.631 166.635 297.539 167.202 297.356C167.785 297.172 168.318 296.881 168.802 296.481C169.285 296.081 169.66 295.564 169.927 294.931L172.752 296.556C172.385 297.439 171.81 298.189 171.027 298.806C170.243 299.406 169.36 299.872 168.377 300.206C167.393 300.522 166.418 300.681 165.452 300.681C164.185 300.681 163.027 300.422 161.977 299.906C160.943 299.372 160.043 298.672 159.277 297.806C158.51 296.922 157.91 295.939 157.477 294.856C157.06 293.756 156.852 292.647 156.852 291.531ZM191.09 285.806H185.415V300.531H181.99V285.806H176.315V282.781H191.09V285.806ZM203.569 300.656C202.152 300.656 200.944 300.422 199.944 299.956C198.961 299.472 198.161 298.814 197.544 297.981C196.944 297.147 196.502 296.206 196.219 295.156C195.936 294.089 195.794 292.981 195.794 291.831V282.781H199.244V291.831C199.244 292.814 199.377 293.747 199.644 294.631C199.911 295.514 200.361 296.231 200.994 296.781C201.627 297.331 202.477 297.606 203.544 297.606C204.644 297.606 205.511 297.331 206.144 296.781C206.777 296.214 207.227 295.489 207.494 294.606C207.761 293.722 207.894 292.797 207.894 291.831V282.781H211.319V291.831C211.319 293.047 211.169 294.189 210.869 295.256C210.586 296.322 210.127 297.264 209.494 298.081C208.877 298.881 208.077 299.514 207.094 299.981C206.111 300.431 204.936 300.656 203.569 300.656ZM217.544 300.531V282.781H225.394C226.211 282.781 226.961 282.947 227.644 283.281C228.344 283.614 228.944 284.064 229.444 284.631C229.961 285.197 230.352 285.831 230.619 286.531C230.902 287.231 231.044 287.947 231.044 288.681C231.044 289.814 230.752 290.856 230.169 291.806C229.602 292.756 228.827 293.439 227.844 293.856L231.894 300.531H228.094L224.444 294.581H220.994V300.531H217.544ZM220.994 291.556H225.319C225.969 291.556 226.502 291.281 226.919 290.731C227.352 290.164 227.569 289.481 227.569 288.681C227.569 288.131 227.452 287.639 227.219 287.206C226.986 286.772 226.686 286.431 226.319 286.181C225.969 285.931 225.586 285.806 225.169 285.806H220.994V291.556ZM236.92 300.531V282.781H240.37V300.531H236.92ZM250.273 289.131V300.531H246.823V282.781H249.573L258.748 294.481V282.806H262.198V300.531H259.323L250.273 289.131ZM276.016 300.656C274.849 300.656 273.757 300.422 272.741 299.956C271.724 299.489 270.824 298.847 270.041 298.031C269.274 297.197 268.674 296.231 268.241 295.131C267.807 294.031 267.591 292.839 267.591 291.556C267.591 290.339 267.807 289.197 268.241 288.131C268.674 287.047 269.282 286.097 270.066 285.281C270.849 284.464 271.766 283.822 272.816 283.356C273.866 282.889 275.007 282.656 276.241 282.656C277.891 282.656 279.316 283.014 280.516 283.731C281.716 284.431 282.616 285.364 283.216 286.531L280.641 288.431C280.191 287.564 279.557 286.897 278.741 286.431C277.941 285.947 277.066 285.706 276.116 285.706C275.116 285.706 274.232 285.981 273.466 286.531C272.716 287.081 272.124 287.806 271.691 288.706C271.274 289.606 271.066 290.589 271.066 291.656C271.066 292.772 271.291 293.781 271.741 294.681C272.191 295.581 272.807 296.297 273.591 296.831C274.391 297.347 275.299 297.606 276.316 297.606C278.032 297.606 279.582 296.797 280.966 295.181V293.931H277.391V291.406H283.816V300.531H280.966V298.531C279.532 299.947 277.882 300.656 276.016 300.656ZM304.431 282.781L292.031 300.531H288.331L300.706 282.781H304.431ZM126.893 316.431C126.743 316.264 126.427 316.047 125.943 315.781C125.46 315.497 124.877 315.247 124.193 315.031C123.527 314.797 122.835 314.681 122.118 314.681C120.235 314.681 119.293 315.347 119.293 316.681C119.293 317.164 119.443 317.547 119.743 317.831C120.043 318.114 120.493 318.356 121.093 318.556C121.693 318.756 122.443 318.972 123.343 319.206C124.51 319.506 125.518 319.856 126.368 320.256C127.235 320.656 127.893 321.189 128.343 321.856C128.81 322.506 129.043 323.372 129.043 324.456C129.043 325.722 128.735 326.747 128.118 327.531C127.518 328.297 126.718 328.856 125.718 329.206C124.718 329.556 123.635 329.731 122.468 329.731C121.135 329.731 119.81 329.531 118.493 329.131C117.193 328.714 116.035 328.147 115.018 327.431L116.543 324.456C116.693 324.606 116.96 324.806 117.343 325.056C117.727 325.289 118.193 325.531 118.743 325.781C119.293 326.014 119.893 326.214 120.543 326.381C121.193 326.547 121.852 326.631 122.518 326.631C124.418 326.631 125.368 326.022 125.368 324.806C125.368 324.289 125.177 323.872 124.793 323.556C124.41 323.239 123.868 322.972 123.168 322.756C122.485 322.539 121.685 322.297 120.768 322.031C119.635 321.714 118.693 321.364 117.943 320.981C117.21 320.581 116.66 320.089 116.293 319.506C115.927 318.906 115.743 318.147 115.743 317.231C115.743 316.014 116.027 314.997 116.593 314.181C117.177 313.347 117.96 312.722 118.943 312.306C119.927 311.872 121.018 311.656 122.218 311.656C123.452 311.656 124.602 311.856 125.668 312.256C126.735 312.656 127.652 313.114 128.418 313.631L126.893 316.431ZM146.725 326.506V329.531H134.4V311.781H146.5V314.806H137.85V319.081H145.325V321.881H137.85V326.506H146.725ZM152.165 329.531V311.781H160.015C160.832 311.781 161.582 311.947 162.265 312.281C162.965 312.614 163.565 313.064 164.065 313.631C164.582 314.197 164.973 314.831 165.24 315.531C165.523 316.231 165.665 316.947 165.665 317.681C165.665 318.814 165.373 319.856 164.79 320.806C164.223 321.756 163.448 322.439 162.465 322.856L166.515 329.531H162.715L159.065 323.581H155.615V329.531H152.165ZM155.615 320.556H159.94C160.59 320.556 161.123 320.281 161.54 319.731C161.973 319.164 162.19 318.481 162.19 317.681C162.19 317.131 162.073 316.639 161.84 316.206C161.607 315.772 161.307 315.431 160.94 315.181C160.59 314.931 160.207 314.806 159.79 314.806H155.615V320.556ZM172.756 311.781L177.556 325.431L182.306 311.781H185.931L179.206 329.531H175.881L169.131 311.781H172.756ZM190.575 329.531V311.781H194.025V329.531H190.575ZM199.403 320.531C199.403 319.447 199.595 318.381 199.978 317.331C200.378 316.281 200.953 315.331 201.703 314.481C202.453 313.631 203.37 312.956 204.453 312.456C205.537 311.939 206.77 311.681 208.153 311.681C209.77 311.681 211.178 312.039 212.378 312.756C213.578 313.472 214.47 314.406 215.053 315.556L212.403 317.381C212.103 316.714 211.712 316.189 211.228 315.806C210.745 315.422 210.22 315.147 209.653 314.981C209.103 314.814 208.57 314.731 208.053 314.731C207.187 314.731 206.428 314.906 205.778 315.256C205.145 315.606 204.612 316.064 204.178 316.631C203.745 317.197 203.42 317.831 203.203 318.531C203.003 319.231 202.903 319.931 202.903 320.631C202.903 321.681 203.12 322.664 203.553 323.581C203.987 324.481 204.595 325.214 205.378 325.781C206.162 326.347 207.07 326.631 208.103 326.631C208.637 326.631 209.187 326.539 209.753 326.356C210.337 326.172 210.87 325.881 211.353 325.481C211.837 325.081 212.212 324.564 212.478 323.931L215.303 325.556C214.937 326.439 214.362 327.189 213.578 327.806C212.795 328.406 211.912 328.872 210.928 329.206C209.945 329.522 208.97 329.681 208.003 329.681C206.737 329.681 205.578 329.422 204.528 328.906C203.495 328.372 202.595 327.672 201.828 326.806C201.062 325.922 200.462 324.939 200.028 323.856C199.612 322.756 199.403 321.647 199.403 320.531ZM232.692 326.506V329.531H220.367V311.781H232.467V314.806H223.817V319.081H231.292V321.881H223.817V326.506H232.692Z" fill="#fff"/>

			<rect x="26.5" y="24.1196" width="287" height="339.123" rx="3.5" shape-rendering="crispEdges" stroke="#fff"/>

			<rect x="15.5" y="9.58588" width="309" height="365.828" stroke="#fdb414" stroke-width="5"/>

			<path d="M154.811 186.124C154.811 180.829 152.775 175.942 149.109 171.869L123.857 146.617C122.636 145.395 120.599 144.988 118.97 145.395C117.341 145.803 115.712 147.432 115.304 149.468C114.49 153.541 112.453 162.501 114.49 169.832L114.897 170.647L123.857 179.607L121.006 180.015C116.934 180.015 113.268 178.385 110.417 175.534L99.8276 164.945V140.101C99.8276 132.769 95.3474 126.253 88.8309 123.402C85.5726 122.18 81.907 121.365 78.6488 121.365H74.5759V171.054C74.5759 175.127 76.205 178.793 79.056 181.644L108.381 210.968V212.19H97.3839V243.144H164.179V212.19H154.811V186.124V186.124ZM84.3507 176.349C83.1289 175.127 82.3143 173.498 82.3143 171.462V130.326C83.1289 130.733 84.3507 130.733 85.1653 131.14C88.8309 132.769 91.2746 136.435 91.2746 140.101V168.611L104.308 181.644C108.788 186.124 114.897 188.568 121.006 188.568L131.189 186.938C132.818 186.531 134.447 185.309 134.854 183.68C135.261 182.051 134.854 180.015 133.632 178.793L121.414 166.574C120.599 163.316 121.006 159.65 121.414 156.392L142.593 177.571C145.036 180.015 146.258 182.865 146.258 186.124V213.005H115.712V211.783C115.712 209.339 114.897 207.303 113.268 205.673L84.3507 176.349ZM155.626 221.15V235.813H105.53V221.15H107.973H154.811H155.626ZM251.338 123.809C244.821 126.66 240.341 133.177 240.341 140.508V165.352L229.752 175.942C226.901 178.793 223.235 180.422 219.162 180.422L216.311 180.015L225.271 171.054L225.679 170.24C227.715 162.501 226.086 153.948 224.864 149.468C224.457 147.839 223.235 146.21 221.199 145.803C219.569 145.395 217.533 145.803 216.311 147.024L191.059 172.276C187.394 175.942 185.357 181.236 185.357 186.531V213.412H175.99V244.366H242.785V213.412H232.195V211.783L261.52 182.458C264.371 179.607 266 175.942 266 171.869V121.773H261.927C257.854 121.773 254.596 122.587 251.338 123.809ZM234.232 221.15V235.813H184.136V221.15H185.357H232.195H234.232ZM257.447 171.462C257.447 173.498 256.632 175.127 255.411 176.349L226.086 205.673C224.457 207.303 223.642 209.339 223.642 211.783V213.005H193.096V186.124C193.096 182.865 194.318 180.015 196.761 177.571L217.94 156.392C218.348 159.65 218.755 163.316 217.94 166.574L205.722 178.793C204.5 180.015 204.093 182.051 204.5 183.68C204.907 185.309 206.536 186.531 208.165 186.938L217.94 188.568H218.755C225.271 188.568 230.973 186.124 235.454 181.644L248.487 168.611V140.508C248.487 136.435 250.93 132.769 254.596 131.548C255.411 131.14 256.632 130.733 257.447 130.733V171.462V171.462ZM171.103 79.415C156.44 78.6005 144.222 90.0044 143.407 104.667C143 111.591 145.444 118.514 150.331 123.809C155.218 129.104 161.735 131.955 168.659 132.362C169.066 132.362 169.473 132.362 169.881 132.362C183.728 132.362 195.54 121.365 196.354 107.11C197.169 92.4482 185.765 80.2296 171.103 79.415ZM169.066 124.216C164.179 123.809 159.699 121.773 156.44 118.107C153.182 114.442 151.553 109.961 151.553 105.074C151.96 95.2992 160.106 87.5607 169.881 87.5607C170.288 87.5607 170.695 87.5607 170.695 87.5607C180.877 87.968 188.616 96.521 188.208 106.703C187.801 116.885 179.248 124.624 169.066 124.216Z" fill="#fff" />
			<path d="M223.235 114.442V96.5214L212.646 94.0777C211.831 90.4121 210.202 87.1539 208.166 83.4883L213.868 74.1207L200.834 61.4949L191.467 67.1969C188.209 65.1605 184.543 63.9386 180.878 63.124L178.434 52.5346H160.513L158.07 63.124C154.404 63.9386 151.146 65.5677 147.48 67.6042L138.113 61.9022L125.894 74.9353L131.596 84.3029C129.56 87.5611 128.338 91.2267 127.116 94.8923L116.526 97.336V115.257L127.116 117.7C127.93 121.366 129.56 124.624 131.596 128.29L125.894 137.657L138.927 150.283L148.295 144.581C151.553 146.618 155.219 147.839 158.884 148.654L161.328 159.243H179.248L181.692 148.654C185.358 147.839 188.616 146.21 192.281 144.174L201.649 149.876L214.275 136.843L208.573 127.475C210.609 124.217 211.831 120.551 212.646 116.886L223.235 114.442ZM205.722 110.369L205.315 112.813C204.5 117.293 202.871 121.366 200.427 125.439L199.205 127.475L204.093 135.621L200.427 139.286L192.281 134.399L190.245 136.028C186.58 138.472 182.099 140.508 178.027 141.323L175.583 141.73L173.546 151.098H168.252L165.808 141.73L163.364 141.323C158.884 140.508 154.811 138.879 150.738 136.435L148.702 135.214L140.556 140.101L136.483 136.028L141.371 127.882L139.742 125.846C137.298 122.18 135.262 117.7 134.447 113.627L134.04 111.184L124.672 109.147V103.853L134.04 101.409L134.447 98.9651C135.262 94.485 136.891 90.4121 139.334 86.3393L140.556 84.3029L135.669 76.1572L139.334 72.4916L147.48 77.379L149.517 75.7499C153.182 73.3062 157.662 71.2697 161.735 70.4552L164.179 70.0479L166.215 60.6803H171.51L173.954 70.0479L176.397 70.4552C180.878 71.2697 184.95 72.8989 189.023 75.3426L191.06 76.5644L199.205 71.677L202.871 75.3426L197.983 83.4883L199.613 85.5247C202.056 89.1903 204.093 93.6704 204.907 97.7433L205.315 100.187L214.682 102.223V107.518L205.722 110.369Z" fill="#fff"/>

		</svg>
