<svg width="340" height="339" viewBox="0 0 340 339" fill="none" xmlns="http://www.w3.org/2000/svg">


<rect x="7" width="326" height="326" rx="7.83654" fill="#885e24"/>
<rect x="9.5" y="2.5" width="321" height="321" rx="5.33654" stroke="#fdb414" stroke-width="5"/>


<path d="M96.91 269.28C96.73 269.08 96.35 268.82 95.77 268.5C95.19 268.16 94.49 267.86 93.67 267.6C92.87 267.32 92.04 267.18 91.18 267.18C88.92 267.18 87.79 267.98 87.79 269.58C87.79 270.16 87.97 270.62 88.33 270.96C88.69 271.3 89.23 271.59 89.95 271.83C90.67 272.07 91.57 272.33 92.65 272.61C94.05 272.97 95.26 273.39 96.28 273.87C97.32 274.35 98.11 274.99 98.65 275.79C99.21 276.57 99.49 277.61 99.49 278.91C99.49 280.43 99.12 281.66 98.38 282.6C97.66 283.52 96.7 284.19 95.5 284.61C94.3 285.03 93 285.24 91.6 285.24C90 285.24 88.41 285 86.83 284.52C85.27 284.02 83.88 283.34 82.66 282.48L84.49 278.91C84.67 279.09 84.99 279.33 85.45 279.63C85.91 279.91 86.47 280.2 87.13 280.5C87.79 280.78 88.51 281.02 89.29 281.22C90.07 281.42 90.86 281.52 91.66 281.52C93.94 281.52 95.08 280.79 95.08 279.33C95.08 278.71 94.85 278.21 94.39 277.83C93.93 277.45 93.28 277.13 92.44 276.87C91.62 276.61 90.66 276.32 89.56 276C88.2 275.62 87.07 275.2 86.17 274.74C85.29 274.26 84.63 273.67 84.19 272.97C83.75 272.25 83.53 271.34 83.53 270.24C83.53 268.78 83.87 267.56 84.55 266.58C85.25 265.58 86.19 264.83 87.37 264.33C88.55 263.81 89.86 263.55 91.3 263.55C92.78 263.55 94.16 263.79 95.44 264.27C96.72 264.75 97.82 265.3 98.74 265.92L96.91 269.28ZM129.115 269.28C128.935 269.08 128.555 268.82 127.975 268.5C127.395 268.16 126.695 267.86 125.875 267.6C125.075 267.32 124.245 267.18 123.385 267.18C121.125 267.18 119.995 267.98 119.995 269.58C119.995 270.16 120.175 270.62 120.535 270.96C120.895 271.3 121.435 271.59 122.155 271.83C122.875 272.07 123.775 272.33 124.855 272.61C126.255 272.97 127.465 273.39 128.485 273.87C129.525 274.35 130.315 274.99 130.855 275.79C131.415 276.57 131.695 277.61 131.695 278.91C131.695 280.43 131.325 281.66 130.585 282.6C129.865 283.52 128.905 284.19 127.705 284.61C126.505 285.03 125.205 285.24 123.805 285.24C122.205 285.24 120.615 285 119.035 284.52C117.475 284.02 116.085 283.34 114.865 282.48L116.695 278.91C116.875 279.09 117.195 279.33 117.655 279.63C118.115 279.91 118.675 280.2 119.335 280.5C119.995 280.78 120.715 281.02 121.495 281.22C122.275 281.42 123.065 281.52 123.865 281.52C126.145 281.52 127.285 280.79 127.285 279.33C127.285 278.71 127.055 278.21 126.595 277.83C126.135 277.45 125.485 277.13 124.645 276.87C123.825 276.61 122.865 276.32 121.765 276C120.405 275.62 119.275 275.2 118.375 274.74C117.495 274.26 116.835 273.67 116.395 272.97C115.955 272.25 115.735 271.34 115.735 270.24C115.735 268.78 116.075 267.56 116.755 266.58C117.455 265.58 118.395 264.83 119.575 264.33C120.755 263.81 122.065 263.55 123.505 263.55C124.985 263.55 126.365 263.79 127.645 264.27C128.925 264.75 130.025 265.3 130.945 265.92L129.115 269.28ZM152.914 281.37V285H138.124V263.7H152.644V267.33H142.264V272.46H151.234V275.82H142.264V281.37H152.914ZM159.441 285V263.7H168.861C169.841 263.7 170.741 263.9 171.561 264.3C172.401 264.7 173.121 265.24 173.721 265.92C174.341 266.6 174.811 267.36 175.131 268.2C175.471 269.04 175.641 269.9 175.641 270.78C175.641 272.14 175.291 273.39 174.591 274.53C173.911 275.67 172.981 276.49 171.801 276.99L176.661 285H172.101L167.721 277.86H163.581V285H159.441ZM163.581 274.23H168.771C169.551 274.23 170.191 273.9 170.691 273.24C171.211 272.56 171.471 271.74 171.471 270.78C171.471 270.12 171.331 269.53 171.051 269.01C170.771 268.49 170.411 268.08 169.971 267.78C169.551 267.48 169.091 267.33 168.591 267.33H163.581V274.23ZM184.15 263.7L189.91 280.08L195.61 263.7H199.96L191.89 285H187.9L179.8 263.7H184.15ZM205.534 285V263.7H209.674V285H205.534ZM216.128 274.2C216.128 272.9 216.358 271.62 216.818 270.36C217.298 269.1 217.988 267.96 218.888 266.94C219.788 265.92 220.888 265.11 222.188 264.51C223.488 263.89 224.968 263.58 226.628 263.58C228.568 263.58 230.258 264.01 231.698 264.87C233.138 265.73 234.208 266.85 234.908 268.23L231.728 270.42C231.368 269.62 230.898 268.99 230.318 268.53C229.738 268.07 229.108 267.74 228.428 267.54C227.768 267.34 227.128 267.24 226.508 267.24C225.468 267.24 224.558 267.45 223.778 267.87C223.018 268.29 222.378 268.84 221.858 269.52C221.338 270.2 220.948 270.96 220.688 271.8C220.448 272.64 220.328 273.48 220.328 274.32C220.328 275.58 220.588 276.76 221.108 277.86C221.628 278.94 222.358 279.82 223.298 280.5C224.238 281.18 225.328 281.52 226.568 281.52C227.208 281.52 227.868 281.41 228.548 281.19C229.248 280.97 229.888 280.62 230.468 280.14C231.048 279.66 231.498 279.04 231.818 278.28L235.208 280.23C234.768 281.29 234.078 282.19 233.138 282.93C232.198 283.65 231.138 284.21 229.958 284.61C228.778 284.99 227.608 285.18 226.448 285.18C224.928 285.18 223.538 284.87 222.278 284.25C221.038 283.61 219.958 282.77 219.038 281.73C218.118 280.67 217.398 279.49 216.878 278.19C216.378 276.87 216.128 275.54 216.128 274.2ZM256.074 281.37V285H241.284V263.7H255.804V267.33H245.424V272.46H254.394V275.82H245.424V281.37H256.074Z" fill="#fff"/>



<rect x="26.5" y="20.5" width="287" height="287" rx="3.5" stroke="#fff" shape-rendering="crispEdges"/>

<rect x="15.5" y="8.5" width="309" height="309" stroke="#fdb414" stroke-width="5"/>

<path d="M111.026 63L123.039 74.9659L124.568 76.4889L123.913 78.6645L118.889 93.4587L118.453 94.9817L116.705 95.6343L101.853 100.421L99.8868 101.073L98.3579 99.768L87 88.2372C87.2281 94.2823 88.9216 100.146 93.3342 104.554C99.7305 110.933 108.751 113.015 116.924 110.864L118.889 110.211L120.418 111.734L150.997 142.41L165.85 127.616L161.263 123.047C160.063 123.612 158.896 124.33 157.768 124.135C156.067 123.841 154.674 123.011 153.618 121.959C152.563 120.907 151.73 119.738 151.434 118.043C151.235 116.9 151.931 115.556 152.526 114.345L135.053 96.9397L133.742 95.6343L134.179 93.6763C136.338 85.537 134.458 76.5498 128.063 70.1796C123.477 65.6236 117.326 63.0696 111.026 63ZM239.676 63.8702L232.468 71.0498L244.918 83.4509L252.126 76.2713L239.676 63.8702ZM227.663 76.0537L220.892 82.7982L233.342 95.1992L240.113 88.4548L227.663 76.0537ZM204.511 76.2713L164.321 116.303L170.874 122.612L171.311 122.177C171.38 122.101 171.453 122.028 171.529 121.959L173.495 120.001L211.063 82.5806L204.511 76.2713ZM216.087 87.5845L178.955 124.57L191.405 136.971L228.537 99.9856L216.087 87.5845ZM173.932 129.356L103.818 199.194L116.268 211.595L186.382 141.758L173.932 129.356ZM188.129 149.807L173.495 164.602L204.947 195.931L206.258 197.453L205.821 199.412C203.662 207.551 205.542 216.321 211.937 222.691C216.277 227.002 222.16 228.694 228.1 229L216.961 217.904L215.432 216.381L216.087 214.423L221.111 199.629L221.547 197.889L223.295 197.453L238.147 192.45L240.113 191.797L241.642 193.32L253 204.633C252.774 198.585 251.081 192.714 246.666 188.316C240.269 181.938 231.249 179.855 223.076 182.007L221.111 182.659L219.8 181.136L188.347 149.807H188.129ZM102.726 208.984L95.9553 215.729L101.197 220.95L107.968 214.206L102.726 208.984ZM93.9895 219.21L89.1842 223.996L92.2421 227.042L97.0474 222.256L93.9895 219.21Z" fill="#fff"/>

</svg>