<svg width="340" height="339" viewBox="0 0 340 339" fill="none" xmlns="http://www.w3.org/2000/svg">


<rect x="7" width="326" height="326" rx="7.83654" fill="#885e24"></rect>
<rect x="9.5" y="2.5" width="321" height="321" rx="5.33654" stroke="#fdb414" stroke-width="5"></rect>


<path d="M131.91 267.28C131.73 267.08 131.35 266.82 130.77 266.5C130.19 266.16 129.49 265.86 128.67 265.6C127.87 265.32 127.04 265.18 126.18 265.18C123.92 265.18 122.79 265.98 122.79 267.58C122.79 268.16 122.97 268.62 123.33 268.96C123.69 269.3 124.23 269.59 124.95 269.83C125.67 270.07 126.57 270.33 127.65 270.61C129.05 270.97 130.26 271.39 131.28 271.87C132.32 272.35 133.11 272.99 133.65 273.79C134.21 274.57 134.49 275.61 134.49 276.91C134.49 278.43 134.12 279.66 133.38 280.6C132.66 281.52 131.7 282.19 130.5 282.61C129.3 283.03 128 283.24 126.6 283.24C125 283.24 123.41 283 121.83 282.52C120.27 282.02 118.88 281.34 117.66 280.48L119.49 276.91C119.67 277.09 119.99 277.33 120.45 277.63C120.91 277.91 121.47 278.2 122.13 278.5C122.79 278.78 123.51 279.02 124.29 279.22C125.07 279.42 125.86 279.52 126.66 279.52C128.94 279.52 130.08 278.79 130.08 277.33C130.08 276.71 129.85 276.21 129.39 275.83C128.93 275.45 128.28 275.13 127.44 274.87C126.62 274.61 125.66 274.32 124.56 274C123.2 273.62 122.07 273.2 121.17 272.74C120.29 272.26 119.63 271.67 119.19 270.97C118.75 270.25 118.53 269.34 118.53 268.24C118.53 266.78 118.87 265.56 119.55 264.58C120.25 263.58 121.19 262.83 122.37 262.33C123.55 261.81 124.86 261.55 126.3 261.55C127.78 261.55 129.16 261.79 130.44 262.27C131.72 262.75 132.82 263.3 133.74 263.92L131.91 267.28ZM146.24 261.7H150.44L158.27 283H154.01L152.03 277.69H144.59L142.64 283H138.38L146.24 261.7ZM151.28 274.78L148.34 265.99L145.28 274.78H151.28ZM163.906 283V261.7H168.046V279.37H178.906V283H163.906ZM199.515 279.37V283H184.725V261.7H199.245V265.33H188.865V270.46H197.835V273.82H188.865V279.37H199.515ZM218.733 267.28C218.553 267.08 218.173 266.82 217.593 266.5C217.013 266.16 216.313 265.86 215.493 265.6C214.693 265.32 213.863 265.18 213.003 265.18C210.743 265.18 209.613 265.98 209.613 267.58C209.613 268.16 209.793 268.62 210.153 268.96C210.513 269.3 211.053 269.59 211.773 269.83C212.493 270.07 213.393 270.33 214.473 270.61C215.873 270.97 217.083 271.39 218.103 271.87C219.143 272.35 219.933 272.99 220.473 273.79C221.033 274.57 221.313 275.61 221.313 276.91C221.313 278.43 220.943 279.66 220.203 280.6C219.483 281.52 218.523 282.19 217.323 282.61C216.123 283.03 214.823 283.24 213.423 283.24C211.823 283.24 210.233 283 208.653 282.52C207.093 282.02 205.703 281.34 204.483 280.48L206.313 276.91C206.493 277.09 206.813 277.33 207.273 277.63C207.733 277.91 208.293 278.2 208.953 278.5C209.613 278.78 210.333 279.02 211.113 279.22C211.893 279.42 212.683 279.52 213.483 279.52C215.763 279.52 216.903 278.79 216.903 277.33C216.903 276.71 216.673 276.21 216.213 275.83C215.753 275.45 215.103 275.13 214.263 274.87C213.443 274.61 212.483 274.32 211.383 274C210.023 273.62 208.893 273.2 207.993 272.74C207.113 272.26 206.453 271.67 206.013 270.97C205.573 270.25 205.353 269.34 205.353 268.24C205.353 266.78 205.693 265.56 206.373 264.58C207.073 263.58 208.013 262.83 209.193 262.33C210.373 261.81 211.683 261.55 213.123 261.55C214.603 261.55 215.983 261.79 217.263 262.27C218.543 262.75 219.643 263.3 220.563 263.92L218.733 267.28Z" fill="#fff"></path>



<rect x="26.5" y="20.5" width="287" height="287" rx="3.5" stroke="#fff" shape-rendering="crispEdges"></rect>

<rect x="15.5" y="8.5" width="309" height="309" stroke="#fdb414" stroke-width="5"></rect>

<path fill-rule="evenodd" clip-rule="evenodd" d="M189.595 83.0132C189.595 95.8231 179.565 106.29 166.929 106.989L177.492 117.552L194.304 100.106C195.538 98.8245 197.578 98.7868 198.859 100.021C200.14 101.256 200.177 103.295 198.943 104.576L169.389 135.245V170.866C169.389 172.645 167.947 174.088 166.168 174.088C164.389 174.088 162.946 172.645 162.946 170.866V137.663L134.965 110.22C133.928 110.809 132.775 111.738 131.529 113.05C129.655 115.027 127.801 117.63 126.059 120.541C122.71 126.138 119.98 132.523 118.434 136.861V200.736C118.434 202.515 116.992 203.958 115.213 203.958C113.434 203.958 111.992 202.515 111.992 200.736V135.766L112.17 135.252C113.785 130.609 116.77 123.517 120.531 117.232C122.411 114.091 124.54 111.057 126.855 108.616C129.131 106.218 131.83 104.131 134.892 103.325L136.661 102.86L150.831 116.757L160.223 106.426C149.541 103.991 141.569 94.4331 141.569 83.0132C141.569 69.7511 152.32 59 165.582 59C178.844 59 189.595 69.7511 189.595 83.0132ZM163.1 106.9C163.181 106.908 163.261 106.916 163.342 106.923L163.239 107.026L163.1 106.9ZM163.33 110.844L154.597 120.451L164.931 130.586L173.834 121.348L163.33 110.844ZM83 220.064C115.408 212.255 184.558 184.806 201.895 137.482L190.766 125.768L228.836 111.712L233.522 148.024L225.908 142.168C215.561 169.109 172.493 222.407 83 220.064ZM195.452 193.415C196.908 193.415 198.088 194.595 198.088 196.051V225.042H162.946V212.45C162.946 210.994 164.126 209.814 165.582 209.814C167.038 209.814 168.218 210.994 168.218 212.45V219.771H192.816V196.051C192.816 194.595 193.996 193.415 195.452 193.415ZM238.5 160.91C238.5 159.454 237.32 158.274 235.864 158.274C234.409 158.274 233.229 159.454 233.229 160.91V219.771H210.973V186.094C210.973 184.639 209.793 183.459 208.337 183.459C206.881 183.459 205.701 184.639 205.701 186.094V225.042H238.5V160.91Z" fill="#fff"></path>

</svg>