<svg width="340" height="339" viewBox="0 0 340 339" fill="none" xmlns="http://www.w3.org/2000/svg">

<rect x="7" width="326" height="326" rx="7.83654" fill="#885e24"/>
<rect x="9.5" y="2.5" width="321" height="321" rx="5.33654" stroke="#fdb414" stroke-width="5"/>

<path d="M85.93 269.2C85.93 267.9 86.16 266.62 86.62 265.36C87.1 264.1 87.79 262.96 88.69 261.94C89.59 260.92 90.69 260.11 91.99 259.51C93.29 258.89 94.77 258.58 96.43 258.58C98.37 258.58 100.06 259.01 101.5 259.87C102.94 260.73 104.01 261.85 104.71 263.23L101.53 265.42C101.17 264.62 100.7 263.99 100.12 263.53C99.54 263.07 98.91 262.74 98.23 262.54C97.57 262.34 96.93 262.24 96.31 262.24C95.27 262.24 94.36 262.45 93.58 262.87C92.82 263.29 92.18 263.84 91.66 264.52C91.14 265.2 90.75 265.96 90.49 266.8C90.25 267.64 90.13 268.48 90.13 269.32C90.13 270.58 90.39 271.76 90.91 272.86C91.43 273.94 92.16 274.82 93.1 275.5C94.04 276.18 95.13 276.52 96.37 276.52C97.01 276.52 97.67 276.41 98.35 276.19C99.05 275.97 99.69 275.62 100.27 275.14C100.85 274.66 101.3 274.04 101.62 273.28L105.01 275.23C104.57 276.29 103.88 277.19 102.94 277.93C102 278.65 100.94 279.21 99.76 279.61C98.58 279.99 97.41 280.18 96.25 280.18C94.73 280.18 93.34 279.87 92.08 279.25C90.84 278.61 89.76 277.77 88.84 276.73C87.92 275.67 87.2 274.49 86.68 273.19C86.18 271.87 85.93 270.54 85.93 269.2ZM116.583 258.7H120.783L128.613 280H124.353L122.373 274.69H114.933L112.983 280H108.723L116.583 258.7ZM121.623 271.78L118.683 262.99L115.623 271.78H121.623ZM134.25 280V258.7H138.39V276.37H149.25V280H134.25ZM169.859 276.37V280H155.069V258.7H169.589V262.33H159.209V267.46H168.179V270.82H159.209V276.37H169.859ZM180.527 266.32V280H176.387V258.7H179.687L190.697 272.74V258.73H194.837V280H191.387L180.527 266.32ZM202.568 280V258.7H210.308C212.628 258.7 214.568 259.18 216.128 260.14C217.688 261.08 218.858 262.36 219.638 263.98C220.418 265.58 220.808 267.36 220.808 269.32C220.808 271.48 220.378 273.36 219.518 274.96C218.658 276.56 217.438 277.8 215.858 278.68C214.278 279.56 212.428 280 210.308 280H202.568ZM216.638 269.32C216.638 267.94 216.388 266.73 215.888 265.69C215.388 264.63 214.668 263.81 213.728 263.23C212.788 262.63 211.648 262.33 210.308 262.33H206.708V276.37H210.308C211.668 276.37 212.818 276.07 213.758 275.47C214.698 274.85 215.408 274.01 215.888 272.95C216.388 271.87 216.638 270.66 216.638 269.32ZM232.312 258.7H236.512L244.342 280H240.082L238.102 274.69H230.662L228.712 280H224.452L232.312 258.7ZM237.352 271.78L234.412 262.99L231.352 271.78H237.352ZM249.978 280V258.7H259.398C260.378 258.7 261.278 258.9 262.098 259.3C262.938 259.7 263.658 260.24 264.258 260.92C264.878 261.6 265.348 262.36 265.668 263.2C266.008 264.04 266.178 264.9 266.178 265.78C266.178 267.14 265.828 268.39 265.128 269.53C264.448 270.67 263.518 271.49 262.338 271.99L267.198 280H262.638L258.258 272.86H254.118V280H249.978ZM254.118 269.23H259.308C260.088 269.23 260.728 268.9 261.228 268.24C261.748 267.56 262.008 266.74 262.008 265.78C262.008 265.12 261.868 264.53 261.588 264.01C261.308 263.49 260.948 263.08 260.508 262.78C260.088 262.48 259.628 262.33 259.128 262.33H254.118V269.23Z" fill="#fff"/>



<rect x="26.5" y="20.5" width="287" height="287" rx="3.5" stroke="#fff" shape-rendering="crispEdges"/>

<rect x="15.5" y="8.5" width="309" height="309" stroke="#fdb414" stroke-width="5"/>

<path d="M250.91 118.832H102.09C102.023 119.013 102 119.217 102 119.421V209.086C102 217.314 108.66 224 116.832 224H236.145C244.34 224 251 217.314 251 209.086V119.421C251 119.217 250.978 119.013 250.91 118.832ZM137.309 206.797C137.309 208.043 136.293 209.063 135.051 209.063H122.318C121.077 209.063 120.061 208.043 120.061 206.797V194.013C120.061 192.744 121.077 191.747 122.318 191.747H135.051C136.293 191.747 137.309 192.744 137.309 194.013V206.797ZM137.309 176.969C137.309 178.216 136.293 179.235 135.051 179.235H122.318C121.077 179.235 120.061 178.216 120.061 176.969V164.186C120.061 162.939 121.077 161.919 122.318 161.919H135.051C136.293 161.919 137.309 162.939 137.309 164.186V176.969ZM169.185 206.797C169.185 208.043 168.17 209.063 166.928 209.063H154.195C152.954 209.063 151.938 208.043 151.938 206.797V194.013C151.938 192.744 152.954 191.747 154.195 191.747H166.928C168.17 191.747 169.185 192.744 169.185 194.013V206.797ZM169.185 176.969C169.185 178.216 168.17 179.235 166.928 179.235H154.195C152.954 179.235 151.938 178.216 151.938 176.969V164.186C151.938 162.939 152.954 161.919 154.195 161.919H166.928C168.17 161.919 169.185 162.939 169.185 164.186V176.969ZM201.062 206.797C201.062 208.043 200.046 209.063 198.805 209.063H186.072C184.808 209.063 183.815 208.043 183.815 206.797V194.013C183.815 192.744 184.808 191.747 186.072 191.747H198.805C200.046 191.747 201.062 192.744 201.062 194.013V206.797ZM201.062 176.969C201.062 178.216 200.046 179.235 198.805 179.235H186.072C184.808 179.235 183.815 178.216 183.815 176.969V164.186C183.815 162.939 184.808 161.919 186.072 161.919H198.805C200.046 161.919 201.062 162.939 201.062 164.186V176.969ZM201.062 147.141C201.062 148.388 200.046 149.408 198.805 149.408H186.072C184.808 149.408 183.815 148.388 183.815 147.141V134.358C183.815 133.111 184.808 132.091 186.072 132.091H198.805C200.046 132.091 201.062 133.111 201.062 134.358V147.141ZM232.939 206.797C232.939 208.043 231.924 209.063 230.682 209.063H217.949C216.685 209.063 215.692 208.043 215.692 206.797V194.013C215.692 192.744 216.685 191.747 217.949 191.747H230.682C231.924 191.747 232.939 192.744 232.939 194.013V206.797ZM232.939 176.969C232.939 178.216 231.924 179.235 230.682 179.235H217.949C216.685 179.235 215.692 178.216 215.692 176.969V164.186C215.692 162.939 216.685 161.919 217.949 161.919H230.682C231.924 161.919 232.939 162.939 232.939 164.186V176.969ZM232.939 147.141C232.939 148.388 231.924 149.408 230.682 149.408H217.949C216.685 149.408 215.692 148.388 215.692 147.141V134.358C215.692 133.111 216.685 132.091 217.949 132.091H230.682C231.924 132.091 232.939 133.111 232.939 134.358V147.141ZM236.145 82H222.284V96.302C223.548 97.8432 224.315 99.8151 224.315 101.968C224.315 106.841 220.365 110.808 215.511 110.808C210.635 110.808 206.684 106.841 206.684 101.968C206.684 99.8151 207.451 97.8432 208.738 96.302V82H144.262V96.302C145.526 97.8432 146.294 99.8151 146.294 101.968C146.294 106.841 142.365 110.808 137.489 110.808C132.635 110.808 128.685 106.841 128.685 101.968C128.685 99.8151 129.452 97.8432 130.716 96.302V82H116.832C108.66 82 102 88.6864 102 96.9139V114.298H251V96.9139C251 88.6864 244.34 82 236.145 82ZM170.016 104.224H159.564C158.316 104.224 157.306 103.209 157.306 101.957C157.306 100.706 158.316 99.6909 159.564 99.6909H170.016C171.264 99.6909 172.274 100.706 172.274 101.957C172.274 103.209 171.264 104.224 170.016 104.224ZM193.428 104.224H180.819C179.571 104.224 178.562 103.209 178.562 101.957C178.562 100.706 179.571 99.6909 180.819 99.6909H193.428C194.675 99.6909 195.685 100.706 195.685 101.957C195.685 103.209 194.675 104.224 193.428 104.224Z" fill="#fff"/>

<rect x="122" y="60" width="6" height="37" rx="3" fill="#fff"/>
<rect x="200" y="60" width="6" height="39" rx="3" fill="#fff"/>
</svg>