<svg width="340" height="339" viewBox="0 0 340 339" fill="none" xmlns="http://www.w3.org/2000/svg">


<rect x="7" width="326" height="326" rx="7.83654" fill="#885e24"></rect>
<rect x="9.5" y="2.5" width="321" height="321" rx="5.33654" stroke="#fdb414" stroke-width="5"></rect>


<path d="M129.91 273.28C129.73 273.08 129.35 272.82 128.77 272.5C128.19 272.16 127.49 271.86 126.67 271.6C125.87 271.32 125.04 271.18 124.18 271.18C121.92 271.18 120.79 271.98 120.79 273.58C120.79 274.16 120.97 274.62 121.33 274.96C121.69 275.3 122.23 275.59 122.95 275.83C123.67 276.07 124.57 276.33 125.65 276.61C127.05 276.97 128.26 277.39 129.28 277.87C130.32 278.35 131.11 278.99 131.65 279.79C132.21 280.57 132.49 281.61 132.49 282.91C132.49 284.43 132.12 285.66 131.38 286.6C130.66 287.52 129.7 288.19 128.5 288.61C127.3 289.03 126 289.24 124.6 289.24C123 289.24 121.41 289 119.83 288.52C118.27 288.02 116.88 287.34 115.66 286.48L117.49 282.91C117.67 283.09 117.99 283.33 118.45 283.63C118.91 283.91 119.47 284.2 120.13 284.5C120.79 284.78 121.51 285.02 122.29 285.22C123.07 285.42 123.86 285.52 124.66 285.52C126.94 285.52 128.08 284.79 128.08 283.33C128.08 282.71 127.85 282.21 127.39 281.83C126.93 281.45 126.28 281.13 125.44 280.87C124.62 280.61 123.66 280.32 122.56 280C121.2 279.62 120.07 279.2 119.17 278.74C118.29 278.26 117.63 277.67 117.19 276.97C116.75 276.25 116.53 275.34 116.53 274.24C116.53 272.78 116.87 271.56 117.55 270.58C118.25 269.58 119.19 268.83 120.37 268.33C121.55 267.81 122.86 267.55 124.3 267.55C125.78 267.55 127.16 267.79 128.44 268.27C129.72 268.75 130.82 269.3 131.74 269.92L129.91 273.28ZM153.708 285.37V289H138.918V267.7H153.438V271.33H143.058V276.46H152.028V279.82H143.058V285.37H153.708ZM176.166 271.33H169.356V289H165.246V271.33H158.436V267.7H176.166V271.33ZM191.14 289.15C189.44 289.15 187.99 288.87 186.79 288.31C185.61 287.73 184.65 286.94 183.91 285.94C183.19 284.94 182.66 283.81 182.32 282.55C181.98 281.27 181.81 279.94 181.81 278.56V267.7H185.95V278.56C185.95 279.74 186.11 280.86 186.43 281.92C186.75 282.98 187.29 283.84 188.05 284.5C188.81 285.16 189.83 285.49 191.11 285.49C192.43 285.49 193.47 285.16 194.23 284.5C194.99 283.82 195.53 282.95 195.85 281.89C196.17 280.83 196.33 279.72 196.33 278.56V267.7H200.44V278.56C200.44 280.02 200.26 281.39 199.9 282.67C199.56 283.95 199.01 285.08 198.25 286.06C197.51 287.02 196.55 287.78 195.37 288.34C194.19 288.88 192.78 289.15 191.14 289.15ZM207.91 289V267.7H216.94C217.92 267.7 218.82 267.9 219.64 268.3C220.48 268.7 221.2 269.24 221.8 269.92C222.4 270.6 222.87 271.36 223.21 272.2C223.55 273.04 223.72 273.9 223.72 274.78C223.72 275.98 223.44 277.12 222.88 278.2C222.32 279.28 221.54 280.16 220.54 280.84C219.56 281.52 218.41 281.86 217.09 281.86H212.05V289H207.91ZM212.05 278.23H216.85C217.61 278.23 218.24 277.92 218.74 277.3C219.26 276.66 219.52 275.82 219.52 274.78C219.52 273.68 219.23 272.83 218.65 272.23C218.07 271.63 217.41 271.33 216.67 271.33H212.05V278.23Z" fill="#fff"></path>



<rect x="26.5" y="20.5" width="287" height="287" rx="3.5" stroke="#fff" shape-rendering="crispEdges"></rect>

<rect x="15.5" y="8.5" width="309" height="309" stroke="#fdb414" stroke-width="5"></rect>

<path d="M120.883 79.6667V103.167H136.55V87.5H214.883V212.833H136.55V197.167H120.883V220.667C120.883 229.283 127.933 236.333 136.55 236.333H214.883C223.5 236.333 230.55 229.283 230.55 220.667V79.6667C230.55 71.05 223.5 64 214.883 64H136.55C127.933 64 120.883 71.05 120.883 79.6667ZM140.467 177.583C142.738 176.643 144.775 175.312 146.733 173.823L146.577 174.058L154.488 177.113C156.29 177.818 158.327 177.113 159.267 175.39L165.847 163.953C166.787 162.308 166.395 160.115 164.907 158.94L158.248 153.613L158.092 153.848C158.248 152.595 158.483 151.342 158.483 150.088C158.483 148.835 158.248 147.582 158.092 146.328L158.248 146.563L164.907 141.237C166.395 140.062 166.787 137.868 165.847 136.223L159.267 124.787C158.327 123.142 156.29 122.358 154.488 123.063L146.577 126.118L146.733 126.353C144.775 125.022 142.738 123.69 140.467 122.75L139.135 114.29C138.9 112.41 137.255 111 135.297 111H122.137C120.178 111 118.533 112.41 118.298 114.29L116.967 122.75C114.695 123.69 112.658 125.022 110.7 126.51L110.857 126.275L102.867 123.22C101.065 122.515 99.0285 123.22 98.0885 124.943L91.5085 136.38C90.5685 138.025 90.9602 140.218 92.4485 141.393L99.1068 146.72L99.2635 146.485C99.1068 147.66 98.8718 148.913 98.8718 150.167C98.8718 151.42 99.1068 152.673 99.2635 153.927L99.1068 153.692L92.4485 159.018C90.9602 160.193 90.5685 162.387 91.5085 164.032L98.0885 175.468C99.0285 177.113 101.065 177.897 102.867 177.192L110.778 174.137L110.7 173.823C112.658 175.312 114.695 176.643 116.967 177.583L118.298 185.965C118.533 187.923 120.178 189.333 122.137 189.333H135.297C137.255 189.333 138.9 187.923 139.135 186.043L140.467 177.583V177.583ZM113.05 150.167C113.05 141.55 120.1 134.5 128.717 134.5C137.333 134.5 144.383 141.55 144.383 150.167C144.383 158.783 137.333 165.833 128.717 165.833C120.1 165.833 113.05 158.783 113.05 150.167Z" fill="#fff"></path>

</svg>