<svg width="340" height="339" viewBox="0 0 340 339" fill="none" xmlns="http://www.w3.org/2000/svg">


<rect x="7" width="326" height="326" rx="7.83654" fill="#885e24"/>
<rect x="9.5" y="2.5" width="321" height="321" rx="5.33654" stroke="#fdb414" stroke-width="5"/>


<path d="M86.31 285.15C84.75 285.15 83.33 284.85 82.05 284.25C80.79 283.65 79.7 282.84 78.78 281.82C77.88 280.78 77.18 279.62 76.68 278.34C76.18 277.04 75.93 275.71 75.93 274.35C75.93 272.93 76.19 271.58 76.71 270.3C77.23 269 77.96 267.85 78.9 266.85C79.84 265.83 80.94 265.03 82.2 264.45C83.48 263.85 84.88 263.55 86.4 263.55C87.94 263.55 89.34 263.86 90.6 264.48C91.88 265.1 92.97 265.93 93.87 266.97C94.79 268.01 95.49 269.18 95.97 270.48C96.47 271.76 96.72 273.07 96.72 274.41C96.72 275.81 96.46 277.16 95.94 278.46C95.42 279.74 94.69 280.89 93.75 281.91C92.83 282.91 91.73 283.7 90.45 284.28C89.19 284.86 87.81 285.15 86.31 285.15ZM80.13 274.35C80.13 275.59 80.37 276.75 80.85 277.83C81.35 278.91 82.06 279.79 82.98 280.47C83.92 281.15 85.04 281.49 86.34 281.49C87.68 281.49 88.81 281.14 89.73 280.44C90.65 279.74 91.35 278.84 91.83 277.74C92.31 276.64 92.55 275.51 92.55 274.35C92.55 273.11 92.3 271.95 91.8 270.87C91.3 269.79 90.58 268.92 89.64 268.26C88.72 267.58 87.62 267.24 86.34 267.24C85 267.24 83.87 267.59 82.95 268.29C82.03 268.99 81.33 269.89 80.85 270.99C80.37 272.07 80.13 273.19 80.13 274.35ZM103.196 285V263.7H117.506V267.33H107.336V272.82H115.796V276.18H107.336V285H103.196ZM123.722 285V263.7H138.032V267.33H127.862V272.82H136.322V276.18H127.862V285H123.722ZM152.704 274.2C152.704 272.9 152.934 271.62 153.394 270.36C153.874 269.1 154.564 267.96 155.464 266.94C156.364 265.92 157.464 265.11 158.764 264.51C160.064 263.89 161.544 263.58 163.204 263.58C165.144 263.58 166.834 264.01 168.274 264.87C169.714 265.73 170.784 266.85 171.484 268.23L168.304 270.42C167.944 269.62 167.474 268.99 166.894 268.53C166.314 268.07 165.684 267.74 165.004 267.54C164.344 267.34 163.704 267.24 163.084 267.24C162.044 267.24 161.134 267.45 160.354 267.87C159.594 268.29 158.954 268.84 158.434 269.52C157.914 270.2 157.524 270.96 157.264 271.8C157.024 272.64 156.904 273.48 156.904 274.32C156.904 275.58 157.164 276.76 157.684 277.86C158.204 278.94 158.934 279.82 159.874 280.5C160.814 281.18 161.904 281.52 163.144 281.52C163.784 281.52 164.444 281.41 165.124 281.19C165.824 280.97 166.464 280.62 167.044 280.14C167.624 279.66 168.074 279.04 168.394 278.28L171.784 280.23C171.344 281.29 170.654 282.19 169.714 282.93C168.774 283.65 167.714 284.21 166.534 284.61C165.354 284.99 164.184 285.18 163.024 285.18C161.504 285.18 160.114 284.87 158.854 284.25C157.614 283.61 156.534 282.77 155.614 281.73C154.694 280.67 153.974 279.49 153.454 278.19C152.954 276.87 152.704 275.54 152.704 274.2ZM177.861 285V263.7H182.001V281.37H192.861V285H177.861ZM207.301 285.15C205.741 285.15 204.321 284.85 203.041 284.25C201.781 283.65 200.691 282.84 199.771 281.82C198.871 280.78 198.171 279.62 197.671 278.34C197.171 277.04 196.921 275.71 196.921 274.35C196.921 272.93 197.181 271.58 197.701 270.3C198.221 269 198.951 267.85 199.891 266.85C200.831 265.83 201.931 265.03 203.191 264.45C204.471 263.85 205.871 263.55 207.391 263.55C208.931 263.55 210.331 263.86 211.591 264.48C212.871 265.1 213.961 265.93 214.861 266.97C215.781 268.01 216.481 269.18 216.961 270.48C217.461 271.76 217.711 273.07 217.711 274.41C217.711 275.81 217.451 277.16 216.931 278.46C216.411 279.74 215.681 280.89 214.741 281.91C213.821 282.91 212.721 283.7 211.441 284.28C210.181 284.86 208.801 285.15 207.301 285.15ZM201.121 274.35C201.121 275.59 201.361 276.75 201.841 277.83C202.341 278.91 203.051 279.79 203.971 280.47C204.911 281.15 206.031 281.49 207.331 281.49C208.671 281.49 209.801 281.14 210.721 280.44C211.641 279.74 212.341 278.84 212.821 277.74C213.301 276.64 213.541 275.51 213.541 274.35C213.541 273.11 213.291 271.95 212.791 270.87C212.291 269.79 211.571 268.92 210.631 268.26C209.711 267.58 208.611 267.24 207.331 267.24C205.991 267.24 204.861 267.59 203.941 268.29C203.021 268.99 202.321 269.89 201.841 270.99C201.361 272.07 201.121 273.19 201.121 274.35ZM222.897 274.2C222.897 272.9 223.127 271.62 223.587 270.36C224.067 269.1 224.757 267.96 225.657 266.94C226.557 265.92 227.657 265.11 228.957 264.51C230.257 263.89 231.737 263.58 233.397 263.58C235.337 263.58 237.027 264.01 238.467 264.87C239.907 265.73 240.977 266.85 241.677 268.23L238.497 270.42C238.137 269.62 237.667 268.99 237.087 268.53C236.507 268.07 235.877 267.74 235.197 267.54C234.537 267.34 233.897 267.24 233.277 267.24C232.237 267.24 231.327 267.45 230.547 267.87C229.787 268.29 229.147 268.84 228.627 269.52C228.107 270.2 227.717 270.96 227.457 271.8C227.217 272.64 227.097 273.48 227.097 274.32C227.097 275.58 227.357 276.76 227.877 277.86C228.397 278.94 229.127 279.82 230.067 280.5C231.007 281.18 232.097 281.52 233.337 281.52C233.977 281.52 234.637 281.41 235.317 281.19C236.017 280.97 236.657 280.62 237.237 280.14C237.817 279.66 238.267 279.04 238.587 278.28L241.977 280.23C241.537 281.29 240.847 282.19 239.907 282.93C238.967 283.65 237.907 284.21 236.727 284.61C235.547 284.99 234.377 285.18 233.217 285.18C231.697 285.18 230.307 284.87 229.047 284.25C227.807 283.61 226.727 282.77 225.807 281.73C224.887 280.67 224.167 279.49 223.647 278.19C223.147 276.87 222.897 275.54 222.897 274.2ZM248.054 285V263.73H252.194V273.84L261.134 263.7H265.694L257.534 273.15L266.204 285H261.524L254.894 275.82L252.194 278.64V285H248.054Z" fill="#fff"/>



<rect x="26.5" y="20.5" width="287" height="287" rx="3.5" stroke="#fff" shape-rendering="crispEdges"/>

<rect x="15.5" y="8.5" width="309" height="309" stroke="#fdb414" stroke-width="5"/>

<path d="M155.412 97.0105C160.615 95.5096 166.154 94.5924 171.861 94.5924C204.256 94.5924 230.608 120.774 230.608 152.958C230.608 158.628 229.685 164.131 228.174 169.301L241.266 182.308C245.211 173.303 247.393 163.381 247.393 152.958C247.393 111.519 213.571 77.9165 171.861 77.9165C161.371 77.9165 151.384 80.0844 142.236 83.9198L155.412 97.0105ZM102.288 67.8276C99.099 64.6591 93.8957 64.6591 90.6226 67.8276L90.4548 68.0777C87.1817 71.3295 87.1817 76.499 90.4548 79.6675L96.1616 85.3373L94.7349 86.5046C91.2101 89.3395 90.7905 94.5091 93.6439 98.011L93.8957 98.2612C96.833 101.763 101.952 102.18 105.477 99.2617L108.079 97.1772L114.793 103.848C103.295 117.022 96.3295 134.198 96.3295 152.958C96.3295 194.398 130.151 228 171.861 228C190.744 228 208.032 221.079 221.292 209.656L233.126 221.413C236.315 224.581 241.518 224.581 244.791 221.413L245.043 221.163C248.232 217.994 248.232 212.825 245.043 209.573L102.288 67.8276ZM171.861 211.324C139.466 211.324 113.114 185.143 113.114 152.958C113.114 138.784 118.234 125.776 126.71 115.688L209.375 197.817C199.22 206.238 186.128 211.324 171.861 211.324ZM238.245 99.2617C241.77 102.18 246.889 101.68 249.827 98.2612L250.078 98.011C253.016 94.5091 252.512 89.4229 249.071 86.5046L223.055 64.9093C219.53 61.991 214.411 62.4913 211.473 65.9098L211.221 66.16C208.284 69.6619 208.788 74.7481 212.229 77.6664L238.245 99.2617ZM133.508 75.2484C135.018 72.4134 134.767 68.8281 132.585 66.16L132.333 65.9098C129.815 62.9082 125.619 62.3245 122.262 64.0755L133.508 75.2484Z" fill="#fff"/>


</svg>