<svg width="340" height="339" viewBox="0 0 340 339" fill="none" xmlns="http://www.w3.org/2000/svg">


<rect x="7" width="326" height="326" rx="7.83654" fill="#885e24"/>
<rect x="9.5" y="2.5" width="321" height="321" rx="5.33654" stroke="#fdb414" stroke-width="5"/>


<path d="M93.41 269.7L99.17 286.08L104.87 269.7H109.22L101.15 291H97.16L89.06 269.7H93.41ZM129.583 287.37V291H114.793V269.7H129.313V273.33H118.933V278.46H127.903V281.82H118.933V287.37H129.583ZM154.021 269.7V291H149.911V281.91H140.251V291H136.111V269.7H140.251V278.31H149.911V269.7H154.021ZM161.765 291V269.7H165.905V291H161.765ZM172.359 280.2C172.359 278.9 172.589 277.62 173.049 276.36C173.529 275.1 174.219 273.96 175.119 272.94C176.019 271.92 177.119 271.11 178.419 270.51C179.719 269.89 181.199 269.58 182.859 269.58C184.799 269.58 186.489 270.01 187.929 270.87C189.369 271.73 190.439 272.85 191.139 274.23L187.959 276.42C187.599 275.62 187.129 274.99 186.549 274.53C185.969 274.07 185.339 273.74 184.659 273.54C183.999 273.34 183.359 273.24 182.739 273.24C181.699 273.24 180.789 273.45 180.009 273.87C179.249 274.29 178.609 274.84 178.089 275.52C177.569 276.2 177.179 276.96 176.919 277.8C176.679 278.64 176.559 279.48 176.559 280.32C176.559 281.58 176.819 282.76 177.339 283.86C177.859 284.94 178.589 285.82 179.529 286.5C180.469 287.18 181.559 287.52 182.799 287.52C183.439 287.52 184.099 287.41 184.779 287.19C185.479 286.97 186.119 286.62 186.699 286.14C187.279 285.66 187.729 285.04 188.049 284.28L191.439 286.23C190.999 287.29 190.309 288.19 189.369 288.93C188.429 289.65 187.369 290.21 186.189 290.61C185.009 290.99 183.839 291.18 182.679 291.18C181.159 291.18 179.769 290.87 178.509 290.25C177.269 289.61 176.189 288.77 175.269 287.73C174.349 286.67 173.629 285.49 173.109 284.19C172.609 282.87 172.359 281.54 172.359 280.2ZM197.515 291V269.7H201.655V287.37H212.515V291H197.515ZM233.124 287.37V291H218.334V269.7H232.854V273.33H222.474V278.46H231.444V281.82H222.474V287.37H233.124ZM252.342 275.28C252.162 275.08 251.782 274.82 251.202 274.5C250.622 274.16 249.922 273.86 249.102 273.6C248.302 273.32 247.472 273.18 246.612 273.18C244.352 273.18 243.222 273.98 243.222 275.58C243.222 276.16 243.402 276.62 243.762 276.96C244.122 277.3 244.662 277.59 245.382 277.83C246.102 278.07 247.002 278.33 248.082 278.61C249.482 278.97 250.692 279.39 251.712 279.87C252.752 280.35 253.542 280.99 254.082 281.79C254.642 282.57 254.922 283.61 254.922 284.91C254.922 286.43 254.552 287.66 253.812 288.6C253.092 289.52 252.132 290.19 250.932 290.61C249.732 291.03 248.432 291.24 247.032 291.24C245.432 291.24 243.842 291 242.262 290.52C240.702 290.02 239.312 289.34 238.092 288.48L239.922 284.91C240.102 285.09 240.422 285.33 240.882 285.63C241.342 285.91 241.902 286.2 242.562 286.5C243.222 286.78 243.942 287.02 244.722 287.22C245.502 287.42 246.292 287.52 247.092 287.52C249.372 287.52 250.512 286.79 250.512 285.33C250.512 284.71 250.282 284.21 249.822 283.83C249.362 283.45 248.712 283.13 247.872 282.87C247.052 282.61 246.092 282.32 244.992 282C243.632 281.62 242.502 281.2 241.602 280.74C240.722 280.26 240.062 279.67 239.622 278.97C239.182 278.25 238.962 277.34 238.962 276.24C238.962 274.78 239.302 273.56 239.982 272.58C240.682 271.58 241.622 270.83 242.802 270.33C243.982 269.81 245.292 269.55 246.732 269.55C248.212 269.55 249.592 269.79 250.872 270.27C252.152 270.75 253.252 271.3 254.172 271.92L252.342 275.28Z" fill="#fff"/>



<rect x="26.5" y="20.5" width="287" height="287" rx="3.5" stroke="#fff" shape-rendering="crispEdges"/>

<rect x="15.5" y="8.5" width="309" height="309" stroke="#fdb414" stroke-width="5"/>

<path d="M115.589 205.444C121.278 205.463 126.865 203.93 131.748 201.012C136.631 198.094 140.627 193.9 143.306 188.882C151.243 194.081 160.526 196.851 170.015 196.851C179.503 196.851 188.786 194.081 196.723 188.882C199.484 194.029 203.619 198.31 208.669 201.245C213.72 204.181 219.485 205.657 225.325 205.508C231.164 205.36 236.848 203.593 241.742 200.405C246.637 197.217 250.55 192.732 253.046 187.451C255.542 182.17 256.522 176.299 255.878 170.493C255.234 164.688 252.99 159.175 249.398 154.569C245.805 149.963 241.004 146.446 235.53 144.408C230.055 142.37 224.123 141.892 218.393 143.027C217.136 131.072 211.498 120.005 202.564 111.961C193.631 103.917 182.036 99.4664 170.015 99.4664C157.993 99.4664 146.398 103.917 137.465 111.961C128.531 120.005 122.893 131.072 121.636 143.027C117.319 142.171 112.871 142.229 108.578 143.197C104.285 144.165 100.243 146.022 96.7108 148.648C93.179 151.273 90.2363 154.609 88.0724 158.441C85.9084 162.273 84.5712 166.516 84.1468 170.897C83.7225 175.277 84.2204 179.697 85.6085 183.874C86.9966 188.05 89.2441 191.889 92.2063 195.144C95.1684 198.398 98.7795 200.996 102.807 202.77C106.834 204.544 111.189 205.455 115.589 205.444ZM250.22 173.935C250.22 179.745 248.258 185.384 244.651 189.939C241.045 194.494 236.005 197.697 230.35 199.03C224.695 200.362 218.756 199.744 213.496 197.278C208.235 194.812 203.962 190.641 201.369 185.441C201.478 185.35 201.567 185.247 201.673 185.155C202.867 184.135 204.022 183.07 205.11 181.935C205.308 181.729 205.485 181.508 205.683 181.299L205.775 181.196C206.904 184.118 208.706 186.733 211.034 188.83C211.601 189.319 212.336 189.566 213.083 189.519C213.83 189.472 214.528 189.135 215.03 188.58C215.531 188.025 215.796 187.295 215.766 186.547C215.737 185.8 215.416 185.093 214.872 184.579C212.281 182.261 210.635 179.071 210.246 175.616C210.444 175.33 210.61 175.023 210.802 174.728C211.189 174.135 211.581 173.548 211.948 172.938C212.016 172.821 212.082 172.703 212.151 172.588C212.538 171.918 212.884 171.234 213.237 170.552C213.747 169.569 214.222 168.575 214.669 167.561C215.007 166.779 215.348 166 215.643 165.204C215.689 165.084 215.734 164.966 215.777 164.846C216.03 164.155 216.236 163.451 216.456 162.749C216.548 162.463 216.663 162.176 216.743 161.87C219.031 160.378 221.708 159.593 224.44 159.612C227.55 159.625 230.57 160.661 233.033 162.56L222.538 171.784C222.236 172.026 221.988 172.327 221.806 172.668C221.624 173.01 221.513 173.384 221.48 173.77C221.447 174.155 221.493 174.543 221.614 174.91C221.735 175.277 221.929 175.616 222.184 175.907C222.439 176.197 222.751 176.433 223.1 176.599C223.449 176.766 223.828 176.86 224.214 176.876C224.601 176.893 224.986 176.83 225.348 176.694C225.71 176.557 226.04 176.348 226.319 176.08L236.808 166.86C238.07 169.005 238.744 171.446 238.762 173.935C238.759 175.927 238.341 177.896 237.536 179.717C236.731 181.539 235.555 183.173 234.084 184.516C233.539 185.032 233.219 185.742 233.192 186.492C233.164 187.242 233.432 187.973 233.938 188.527C234.444 189.081 235.148 189.415 235.897 189.456C236.646 189.497 237.382 189.243 237.946 188.747C241.826 185.22 244.166 180.31 244.459 175.074C244.753 169.838 242.977 164.697 239.515 160.758C239.515 160.741 239.498 160.724 239.487 160.709C239.475 160.695 239.45 160.687 239.435 160.669C236.855 157.738 233.472 155.626 229.706 154.594C225.939 153.561 221.953 153.654 218.238 154.86C218.261 154.697 218.281 154.531 218.304 154.368C218.341 154.081 218.361 153.772 218.393 153.474C218.542 152.108 218.632 150.731 218.665 149.34C218.665 149.154 218.699 148.977 218.702 148.793C222.478 147.936 226.399 147.94 230.173 148.804C233.948 149.668 237.479 151.371 240.506 153.785C243.533 156.2 245.978 159.265 247.66 162.753C249.341 166.241 250.216 170.063 250.22 173.935ZM170.015 105.187C181.181 105.148 191.922 109.473 199.945 117.24C207.967 125.008 212.638 135.603 212.959 146.765C212.985 147.226 212.982 147.69 212.982 148.154C212.973 149.654 212.888 151.152 212.727 152.643C212.698 152.915 212.678 153.187 212.644 153.459C212.489 154.746 212.254 156.009 211.985 157.264C211.859 157.836 211.721 158.409 211.57 158.982C211.418 159.555 211.257 160.056 211.094 160.592C210.765 161.712 210.392 162.815 209.965 163.906C209.599 164.84 209.221 165.771 208.791 166.676C208.473 167.335 208.109 167.98 207.76 168.627C207.41 169.274 207.075 169.876 206.706 170.483C206.307 171.133 205.889 171.772 205.454 172.408C204.933 173.17 204.391 173.92 203.815 174.651C203.569 174.966 203.337 175.295 203.082 175.602C202.185 176.679 201.226 177.71 200.218 178.704C199.994 178.925 199.762 179.142 199.533 179.36C198.444 180.4 197.303 181.382 196.113 182.305H196.096C188.596 188.013 179.431 191.104 170.006 191.104C160.581 191.104 151.416 188.013 143.916 182.305C140.527 179.683 137.545 176.572 135.068 173.075C132.109 168.941 129.925 164.303 128.623 159.389C128.6 159.303 128.545 159.234 128.517 159.154C127.557 155.566 127.063 151.869 127.047 148.154C127.047 147.693 127.047 147.232 127.073 146.722V146.694C127.41 135.543 132.087 124.965 140.107 117.212C148.128 109.46 158.859 105.145 170.015 105.187ZM115.589 148.154C117.517 148.152 119.439 148.366 121.318 148.793C121.318 148.931 121.341 149.063 121.344 149.2C121.378 150.81 121.476 152.408 121.662 153.989C121.662 154.11 121.699 154.227 121.714 154.347C121.734 154.514 121.762 154.68 121.785 154.849C118.078 153.653 114.102 153.566 110.347 154.6C106.591 155.635 103.22 157.744 100.648 160.669C100.631 160.687 100.611 160.692 100.597 160.709C100.586 160.725 100.576 160.741 100.568 160.758C97.106 164.697 95.3303 169.838 95.624 175.074C95.9176 180.31 98.257 185.22 102.138 188.747C102.703 189.231 103.434 189.475 104.177 189.429C104.919 189.383 105.615 189.05 106.116 188.5C106.617 187.951 106.885 187.228 106.863 186.484C106.84 185.74 106.53 185.035 105.996 184.516C104.526 183.173 103.352 181.538 102.548 179.717C101.743 177.895 101.327 175.926 101.324 173.935C101.34 171.448 102.012 169.009 103.272 166.865L113.759 176.086C114.039 176.35 114.368 176.555 114.729 176.689C115.09 176.823 115.473 176.883 115.858 176.866C116.242 176.848 116.619 176.753 116.966 176.587C117.312 176.421 117.622 176.186 117.876 175.897C118.131 175.609 118.324 175.272 118.445 174.907C118.566 174.542 118.613 174.156 118.582 173.773C118.551 173.389 118.443 173.016 118.264 172.675C118.086 172.335 117.84 172.033 117.543 171.789L107.047 162.566C109.511 160.667 112.531 159.631 115.641 159.618C118.335 159.602 120.975 160.367 123.243 161.821C123.45 162.534 123.682 163.253 123.919 163.941C123.971 164.092 124.017 164.244 124.068 164.396C124.581 165.851 125.171 167.275 125.818 168.673C125.91 168.87 125.996 169.068 126.091 169.266C126.741 170.621 127.46 171.941 128.236 173.233C128.365 173.445 128.491 173.657 128.623 173.869C129.007 174.485 129.408 175.092 129.82 175.691C129.421 179.12 127.779 182.284 125.205 184.585C124.645 185.096 124.31 185.808 124.273 186.565C124.237 187.323 124.503 188.064 125.012 188.626C125.521 189.188 126.233 189.525 126.99 189.563C127.747 189.602 128.489 189.338 129.052 188.83C131.364 186.751 133.155 184.159 134.283 181.262C134.389 181.377 134.504 181.483 134.61 181.597C134.77 181.766 134.939 181.932 135.102 182.101C136.188 183.213 137.322 184.287 138.522 185.304C138.571 185.344 138.611 185.393 138.663 185.436C136.614 189.546 133.505 193.034 129.656 195.539C125.808 198.045 121.36 199.477 116.773 199.688C112.185 199.899 107.625 198.88 103.563 196.738C99.5011 194.595 96.0851 191.407 93.6684 187.502C91.2517 183.597 89.9218 179.118 89.8164 174.527C89.711 169.936 90.8338 165.4 93.0688 161.388C95.3037 157.376 98.5697 154.034 102.529 151.708C106.488 149.381 110.997 148.155 115.589 148.154Z" fill="#fff"/>
<path d="M251.042 200.001C247.437 203.686 243.105 206.58 238.322 208.502C233.539 210.423 228.408 211.329 223.256 211.162C218.104 210.995 213.043 209.76 208.394 207.533C203.745 205.306 199.61 202.138 196.25 198.228C195.844 197.757 195.294 197.43 194.685 197.299C194.076 197.168 193.441 197.239 192.876 197.501C185.716 200.836 177.913 202.564 170.015 202.564C162.116 202.564 154.313 200.836 147.153 197.501C146.588 197.239 145.953 197.168 145.344 197.299C144.735 197.43 144.186 197.757 143.779 198.228C140.419 202.138 136.284 205.306 131.635 207.533C126.986 209.759 121.925 210.995 116.773 211.162C111.622 211.329 106.491 210.424 101.708 208.503C96.9245 206.582 92.5926 203.688 88.987 200.004C88.4525 199.474 87.731 199.176 86.9784 199.174C86.2257 199.172 85.5025 199.466 84.9651 199.993C84.4277 200.52 84.1192 201.237 84.1064 201.99C84.0936 202.742 84.3774 203.47 84.8966 204.014C88.9306 208.135 93.7536 211.401 99.0778 213.616C104.402 215.832 110.118 216.952 115.884 216.909C121.651 216.866 127.35 215.662 132.64 213.367C137.931 211.073 142.705 207.736 146.678 203.556C154.06 206.685 161.996 208.298 170.015 208.298C178.033 208.298 185.969 206.685 193.352 203.556C197.324 207.737 202.098 211.074 207.389 213.368C212.68 215.662 218.379 216.866 224.145 216.909C229.912 216.951 235.628 215.831 240.952 213.615C246.276 211.399 251.099 208.133 255.133 204.012C255.402 203.744 255.616 203.426 255.762 203.076C255.907 202.725 255.982 202.349 255.981 201.969C255.98 201.59 255.903 201.214 255.756 200.864C255.608 200.515 255.393 200.198 255.121 199.932C254.85 199.666 254.529 199.457 254.177 199.316C253.824 199.176 253.447 199.107 253.067 199.113C252.688 199.12 252.313 199.201 251.966 199.354C251.618 199.506 251.304 199.726 251.042 200.001ZM227.648 131.125C223.987 118.677 216.394 107.748 206.005 99.9747C195.617 92.2011 182.99 88 170.015 88C157.039 88 144.413 92.2011 134.024 99.9747C123.635 107.748 116.042 118.677 112.381 131.125C101.963 131.877 92.1805 136.419 84.8822 143.892C84.6126 144.159 84.3989 144.477 84.2533 144.828C84.1077 145.178 84.0333 145.555 84.0344 145.934C84.0354 146.314 84.1119 146.689 84.2594 147.039C84.4069 147.389 84.6224 147.706 84.8935 147.972C85.1646 148.237 85.4858 148.447 85.8384 148.587C86.191 148.728 86.5681 148.797 86.9477 148.79C87.3272 148.784 87.7017 148.702 88.0493 148.55C88.397 148.397 88.7109 148.177 88.9727 147.902C95.7439 140.969 104.962 136.965 114.65 136.748C115.273 136.733 115.875 136.514 116.363 136.126C116.851 135.738 117.199 135.201 117.354 134.597C120.347 122.906 127.146 112.545 136.679 105.146C146.212 97.7465 157.936 93.7303 170.003 93.7303C182.071 93.7303 193.795 97.7465 203.327 105.146C212.86 112.545 219.659 122.906 222.652 134.597C222.807 135.201 223.155 135.738 223.643 136.126C224.132 136.514 224.733 136.733 225.356 136.748C235.057 136.962 244.287 140.973 251.062 147.919C251.594 148.463 252.32 148.772 253.08 148.78C253.456 148.784 253.83 148.714 254.179 148.574C254.528 148.433 254.847 148.226 255.115 147.962C255.384 147.699 255.599 147.385 255.747 147.039C255.894 146.693 255.972 146.321 255.976 145.945C255.98 145.568 255.91 145.195 255.77 144.845C255.63 144.496 255.422 144.178 255.158 143.909C247.859 136.429 238.072 131.881 227.648 131.125Z" fill="#fff"/>
<path d="M154.529 182.027L156.912 176.819C154.375 175.651 152.005 174.149 149.866 172.353L153.81 168.409L149.76 164.358L145.818 168.3C141.739 163.395 139.241 157.371 138.651 151.019H144.234V145.29H138.651C139.224 138.934 141.722 132.904 145.812 128.005L149.757 131.95L153.807 127.899L149.863 123.955C154.762 119.863 160.793 117.364 167.15 116.791V122.374H172.879V116.791C179.235 117.363 185.265 119.862 190.163 123.952L186.219 127.896L190.269 131.947L194.214 128.002C198.306 132.901 200.805 138.932 201.378 145.29H195.795V151.019H201.378C200.786 157.368 198.29 163.391 194.216 168.297L190.278 164.358L186.227 168.409L190.169 172.35C188.072 174.115 185.752 175.595 183.268 176.753L185.68 181.952C193.385 178.383 199.639 172.287 203.405 164.677C207.17 157.066 208.222 148.396 206.384 140.106C204.547 131.815 199.931 124.402 193.303 119.095C186.674 113.787 178.431 110.905 169.939 110.925C161.448 110.945 153.218 113.867 146.615 119.206C140.012 124.545 135.432 131.981 133.634 140.28C131.836 148.579 132.929 157.243 136.731 164.836C140.533 172.429 146.816 178.494 154.538 182.027H154.529Z" fill="#fff"/>
<path d="M186.362 135.857L182.312 131.807L173.695 140.42C172.549 139.859 171.291 139.566 170.014 139.561C168.315 139.561 166.653 140.065 165.24 141.009C163.827 141.953 162.726 143.295 162.075 144.866C161.425 146.436 161.255 148.164 161.586 149.831C161.918 151.498 162.736 153.029 163.938 154.231C165.14 155.432 166.671 156.251 168.338 156.582C170.005 156.914 171.733 156.744 173.303 156.093C174.873 155.443 176.215 154.342 177.16 152.928C178.104 151.515 178.608 149.854 178.608 148.154C178.603 146.878 178.309 145.62 177.749 144.473L186.362 135.857ZM170.014 151.019C169.448 151.019 168.894 150.851 168.423 150.536C167.952 150.221 167.585 149.774 167.368 149.25C167.151 148.727 167.095 148.151 167.205 147.595C167.316 147.04 167.588 146.529 167.989 146.129C168.39 145.728 168.9 145.455 169.456 145.345C170.011 145.234 170.587 145.291 171.111 145.508C171.634 145.724 172.081 146.092 172.396 146.563C172.711 147.034 172.879 147.588 172.879 148.154C172.879 148.914 172.577 149.642 172.04 150.18C171.503 150.717 170.774 151.019 170.014 151.019Z" fill="#fff"/>
<path d="M178.608 162.476H161.421V168.205H178.608V162.476Z" fill="#fff"/>

</svg>